<?xml version="1.0" encoding="UTF-8" standalone="no"?>
<!-- Created with Inkscape (http://www.inkscape.org/) -->

<svg
   width="210mm"
   height="297mm"
   viewBox="0 0 210 297"
   version="1.1"
   id="svg1"
   xml:space="preserve"
   inkscape:version="1.4 (e7c3feb1, 2024-10-09)"
   sodipodi:docname="circular_analysis.svg"
   xmlns:inkscape="http://www.inkscape.org/namespaces/inkscape"
   xmlns:sodipodi="http://sodipodi.sourceforge.net/DTD/sodipodi-0.dtd"
   xmlns:xlink="http://www.w3.org/1999/xlink"
   xmlns="http://www.w3.org/2000/svg"
   xmlns:svg="http://www.w3.org/2000/svg"><sodipodi:namedview
     id="namedview1"
     pagecolor="#ffffff"
     bordercolor="#000000"
     borderopacity="0.25"
     inkscape:showpageshadow="2"
     inkscape:pageopacity="0.0"
     inkscape:pagecheckerboard="0"
     inkscape:deskcolor="#d1d1d1"
     inkscape:document-units="mm"
     inkscape:zoom="1.2706912"
     inkscape:cx="388.37131"
     inkscape:cy="497.3671"
     inkscape:window-width="1440"
     inkscape:window-height="773"
     inkscape:window-x="0"
     inkscape:window-y="25"
     inkscape:window-maximized="0"
     inkscape:current-layer="svg1" /><defs
     id="defs1"><linearGradient
       id="swatch2"
       inkscape:swatch="solid"><stop
         style="stop-color:#000000;stop-opacity:1;"
         offset="0"
         id="stop2" /></linearGradient><linearGradient
       inkscape:collect="always"
       xlink:href="#swatch2"
       id="linearGradient2" /></defs><g
     inkscape:groupmode="layer"
     id="layer3"
     inkscape:label="Layer 2"
     style="stroke:url(#linearGradient2)"><path
       style="fill:none;stroke:#1708e8;stroke-width:0.264583;stroke-opacity:1"
       d="m 44.36945,124.60229 c 35.633497,-23.90893 39.0819,7.58648 39.0819,7.58648"
       id="path3"
       sodipodi:nodetypes="cc" /><path
       style="fill:none;stroke:#1708e8;stroke-width:0.264583;stroke-opacity:1"
       d="M 83.45135,131.4991 Z"
       id="path4" /><path
       style="fill:none;stroke:#1708e8;stroke-width:0.264583;stroke-opacity:1"
       d="M 83.911136,132.41867 C 83.681242,96.325386 46.668385,114.94676 46.668385,114.94676 l -0.229894,-0.22989"
       id="path5"
       sodipodi:nodetypes="ccc" /><path
       style="fill:none;stroke:#1708e8;stroke-width:0.264583;stroke-opacity:1"
       d="m 83.911137,131.4991 c 0,0.22989 0,0 0,0 z"
       id="path6" /><path
       style="fill:none;stroke:#1708e8;stroke-width:0.264583;stroke-opacity:1"
       d="M 84.370925,131.72899 C 91.153775,93.476542 50.802697,106.34643 50.806468,106.4407"
       id="path7"
       sodipodi:nodetypes="cc" /><path
       style="fill:none;stroke:#1708e8;stroke-width:0.264583;stroke-opacity:1"
       d="M 112.67589,116.89351 C 121.78313,92.803054 99.875267,74.488705 100.26163,73.90342"
       id="path7-3-5-7-9-2-5"
       sodipodi:nodetypes="cc" /><path
       style="fill:none;stroke:#1708e8;stroke-width:0.264583;stroke-opacity:1"
       d="M 106.52174,118.96757 C 115.87715,90.370656 89.906917,75.193532 90.429185,75.287802"
       id="path7-3-5-7-9-2"
       sodipodi:nodetypes="cc" /><path
       style="fill:none;stroke:#1708e8;stroke-width:0.264583;stroke-opacity:1"
       d="M 84.160917,132.52527 C 119.91035,97.031556 71.512998,83.233794 71.516768,83.328064"
       id="path7-3-5-7"
       sodipodi:nodetypes="cc" /><path
       style="fill:none;stroke:#1708e8;stroke-width:0.264583;stroke-opacity:1"
       d="M 84.846478,132.57523 C 110.94039,91.79396 62.772928,90.410449 62.776698,90.504719"
       id="path7-3-5"
       sodipodi:nodetypes="cc" /><path
       style="fill:none;stroke:#1708e8;stroke-width:0.264583;stroke-opacity:1"
       d="M 84.554849,132.73914 C 100.99323,91.957864 55.814383,97.930946 55.818153,98.025216"
       id="path7-3"
       sodipodi:nodetypes="cc" /><path
       style="fill:none;stroke:#1708e8;stroke-width:0.264583;stroke-opacity:1"
       d="M 98.825298,120.63332 C 113.65441,92.036405 80.430041,78.468536 80.433811,78.562806"
       id="path7-3-5-7-9"
       sodipodi:nodetypes="cc" /><path
       style="fill:none;stroke:#1708e8;stroke-width:0.264583;stroke-opacity:1"
       d="m 135.73532,120.27252 c 5.47042,-4.3624 6.0913,-28.901669 3.21851,-35.633488"
       id="path7-3-5-7-9-2-5-7-4-6-6"
       sodipodi:nodetypes="cc" /><path
       style="fill:none;stroke:#1708e8;stroke-width:0.264583;stroke-opacity:1"
       d="m 130.41014,118.86333 c 5.88109,-14.53493 3.17682,-33.9722 -1.37936,-39.771585"
       id="path7-3-5-7-9-2-5-7-4-6"
       sodipodi:nodetypes="cc" /><path
       style="fill:none;stroke:#1708e8;stroke-width:0.264583;stroke-opacity:1"
       d="m 124.35839,117.61608 c 9.49636,-14.96518 -1.983,-37.114599 -4.82777,-42.760198"
       id="path7-3-5-7-9-2-5-7-4"
       sodipodi:nodetypes="cc" /><path
       style="fill:none;stroke:#1708e8;stroke-width:0.264583;stroke-opacity:1"
       d="M 118.55005,117.24214 C 127.46498,99.157412 112.9285,77.184778 109.12441,73.562371"
       id="path7-3-5-7-9-2-5-7"
       sodipodi:nodetypes="cc" /><path
       style="fill:none;stroke:#1708e8;stroke-width:0.264583;stroke-opacity:1"
       d="m 140.66266,122.98909 c 5.40968,-2.45879 8.59234,-24.779556 6.20713,-32.414978"
       id="path7-3-5-7-9-2-5-7-4-6-6-3"
       sodipodi:nodetypes="cc" /><path
       style="fill:none;stroke:#1708e8;stroke-width:0.264583;stroke-opacity:1"
       d="m 144.63836,125.63479 c 5.40968,-2.45879 9.74181,-18.34254 8.96585,-26.207852"
       id="path7-3-5-7-9-2-5-7-4-6-6-3-3"
       sodipodi:nodetypes="cc" /><path
       style="fill:none;stroke:#1708e8;stroke-width:0.264583;stroke-opacity:1"
       d="m 148.66355,129.24782 c 3.80043,-3.14847 10.66139,-12.5952 10.805,-20.9203"
       id="path7-3-5-7-9-2-5-7-4-6-6-3-3-3"
       sodipodi:nodetypes="cc" /><path
       style="fill:none;stroke:#1708e8;stroke-width:0.264583;stroke-opacity:1"
       d="m 156.34907,128.86729 c 2.58335,-2.59401 6.31653,-8.04009 7.12671,-10.57509"
       id="path7-3-5-7-9-2-5-7-4-6-6-3-3-3-6"
       sodipodi:nodetypes="cc" /><path
       style="fill:none;stroke:#1708e8;stroke-width:0.264583;stroke-opacity:1"
       d="m 48.423666,130.22945 c 25.855095,-24.55122 34.504362,2.51828 35.633497,2.29892"
       id="path3-5"
       sodipodi:nodetypes="cc" /><path
       style="fill:none;stroke:#1708e8;stroke-width:0.264583;stroke-opacity:1"
       d="m 56.221565,131.16502 c 14.819884,-12.3665 20.966852,-5.11323 28.276904,1.60924"
       id="path3-5-8"
       sodipodi:nodetypes="cc" /><path
       style="fill:none;stroke:#1708e8;stroke-width:0.264583;stroke-opacity:1"
       d="m 63.390143,131.41234 c 5.608151,-4.2385 12.2522,-5.15907 21.380098,1.37935"
       id="path3-5-8-8"
       sodipodi:nodetypes="cc" /><path
       d="m 70.151716,131.99737 c 6.067938,-3.54882 12.941881,-0.10142 14.713185,0.91956"
       style="fill:none;stroke:#1708e8;stroke-width:0.264583;stroke-opacity:1"
       id="path1"
       sodipodi:nodetypes="cc" /></g></svg>
