<?xml version="1.0" encoding="utf-8" ?>
<svg baseProfile="full" height="800" version="1.1" width="800" xmlns="http://www.w3.org/2000/svg" xmlns:ev="http://www.w3.org/2001/xml-events" xmlns:xlink="http://www.w3.org/1999/xlink"><defs /><path d="M0.0,0.0 L5.063698142949971,8.080808080808081 L10.045919487243168,16.161616161616163 L14.866498226413103,24.242424242424242 L19.44786944401875,32.323232323232325 L23.71631716218562,40.40404040404041 L27.60316045928448,48.484848484848484 L31.045858571670273,56.56565656565657 L33.98901719798057,64.64646464646465 L36.385279814180734,72.72727272727273 L38.19608965776296,80.80808080808082 L39.392310120488325,88.8888888888889 L39.95469356732032,96.96969696969697 L39.8741910380777,105.05050505050505 L39.15209784859115,113.13131313131314 L37.800032748586744,121.21212121212122 L35.83975097165344,129.2929292929293 L33.30279418539086,137.37373737373738 L30.22998297417033,145.45454545454547 L26.670760020651656,153.53535353535355 L22.682394554510815,161.61616161616163 L18.329060869096406,169.69696969696972 L13.68080573302674,177.7777777777778 L8.812421311461614,185.85858585858588 L3.8022417321672974,193.93939393939394 L-1.2691173399227142,202.02020202020202 L-6.320055838934003,210.1010101010101 L-11.269302273657175,218.1818181818182 L-16.037221416264536,226.26262626262627 L-20.547095662936243,234.34343434343435 L-24.726359448824198,242.42424242424244 L-28.50776685515453,250.50505050505052 L-31.830473621233285,258.5858585858586 L-34.641016151377556,266.6666666666667 L-36.894171764183255,274.74747474747477 L-38.55368634239768,282.82828282828285 L-39.592857675237305,290.90909090909093 L-39.994965106955,298.989898989899 L-39.75353857845016,307.0707070707071 L-38.87246273294166,315.1515151515152 L-37.365914410604255,323.23232323232327 L-35.25813453790328,331.31313131313135 L-32.58303808201341,339.39393939393943 L-29.383668346301327,347.4747474747475 L-25.711504387461556,355.5555555555556 L-21.625632698223903,363.6363636363637 L-17.191796483566847,371.71717171717177 L-12.481337827939482,379.79797979797985 L-7.57004977441639,387.8787878787879 L-2.536956786262581,395.95959595959596 L2.536956786262597,404.04040404040404 L7.570049774416406,412.1212121212121 L12.481337827939498,420.2020202020202 L17.191796483566858,428.2828282828283 L21.625632698223885,436.3636363636364 L25.71150438746157,444.44444444444446 L29.383668346301313,452.52525252525254 L32.583038082013424,460.6060606060606 L35.25813453790327,468.6868686868687 L37.36591441060427,476.7676767676768 L38.87246273294166,484.8484848484849 L39.75353857845017,492.92929292929296 L39.994965106955,501.01010101010104 L39.592857675237305,509.0909090909091 L38.55368634239768,517.1717171717172 L36.894171764183234,525.2525252525253 L34.64101615137753,533.3333333333334 L31.830473621233274,541.4141414141415 L28.507766855154518,549.4949494949495 L24.726359448824226,557.5757575757576 L20.54709566293623,565.6565656565657 L16.037221416264536,573.7373737373738 L11.269302273657196,581.8181818181819 L6.320055838934023,589.89898989899 L1.2691173399226805,597.979797979798 L-3.802241732167313,606.0606060606061 L-8.812421311461682,614.1414141414142 L-13.680805733026787,622.2222222222223 L-18.329060869096434,630.3030303030304 L-22.682394554510886,638.3838383838385 L-26.670760020651706,646.4646464646465 L-30.229982974170355,654.5454545454546 L-33.302794185390866,662.6262626262627 L-35.83975097165344,670.7070707070708 L-37.80003274858676,678.7878787878789 L-39.152097848591154,686.868686868687 L-39.8741910380777,694.949494949495 L-39.95469356732032,703.0303030303031 L-39.39231012048832,711.1111111111112 L-38.19608965776295,719.1919191919193 L-36.385279814180734,727.2727272727274 L-33.98901719798058,735.3535353535354 L-31.045858571670244,743.4343434343435 L-27.603160459284464,751.5151515151516 L-23.716317162185618,759.5959595959597 L-19.44786944401876,767.6767676767678 L-14.866498226413068,775.7575757575758 L-10.04591948724315,783.8383838383838 L-5.0636981429499714,791.9191919191919 L-1.9594348786357652e-14,800.0 L39.99999999999998,800.0 L34.936301857050026,791.9191919191919 L29.95408051275685,783.8383838383838 L25.133501773586932,775.7575757575758 L20.55213055598124,767.6767676767678 L16.283682837814382,759.5959595959597 L12.396839540715536,751.5151515151516 L8.954141428329756,743.4343434343435 L6.01098280201942,735.3535353535354 L3.614720185819266,727.2727272727274 L1.803910342237053,719.1919191919193 L0.6076898795116819,711.1111111111112 L0.0453064326796806,703.0303030303031 L0.12580896192230284,694.949494949495 L0.8479021514088458,686.868686868687 L2.1999672514132413,678.7878787878789 L4.160249028346563,670.7070707070708 L6.697205814609134,662.6262626262627 L9.770017025829645,654.5454545454546 L13.329239979348294,646.4646464646465 L17.317605445489114,638.3838383838385 L21.670939130903566,630.3030303030304 L26.319194266973213,622.2222222222223 L31.187578688538316,614.1414141414142 L36.19775826783269,606.0606060606061 L41.26911733992268,597.979797979798 L46.320055838934024,589.89898989899 L51.269302273657196,581.8181818181819 L56.037221416264536,573.7373737373738 L60.54709566293623,565.6565656565657 L64.72635944882423,557.5757575757576 L68.50776685515451,549.4949494949495 L71.83047362123327,541.4141414141415 L74.64101615137753,533.3333333333334 L76.89417176418323,525.2525252525253 L78.55368634239768,517.1717171717172 L79.5928576752373,509.0909090909091 L79.994965106955,501.01010101010104 L79.75353857845016,492.92929292929296 L78.87246273294167,484.8484848484849 L77.36591441060426,476.7676767676768 L75.25813453790326,468.6868686868687 L72.58303808201342,460.6060606060606 L69.3836683463013,452.52525252525254 L65.71150438746157,444.44444444444446 L61.62563269822388,436.3636363636364 L57.19179648356686,428.2828282828283 L52.4813378279395,420.2020202020202 L47.570049774416404,412.1212121212121 L42.5369567862626,404.04040404040404 L37.46304321373742,395.95959595959596 L32.42995022558361,387.8787878787879 L27.518662172060516,379.79797979797985 L22.808203516433153,371.71717171717177 L18.374367301776097,363.6363636363637 L14.288495612538444,355.5555555555556 L10.616331653698673,347.4747474747475 L7.41696191798659,339.39393939393943 L4.741865462096719,331.31313131313135 L2.6340855893957453,323.23232323232327 L1.1275372670583366,315.1515151515152 L0.24646142154983863,307.0707070707071 L0.005034893044999933,298.989898989899 L0.4071423247626953,290.90909090909093 L1.4463136576023174,282.82828282828285 L3.1058282358167446,274.74747474747477 L5.358983848622444,266.6666666666667 L8.169526378766715,258.5858585858586 L11.492233144845471,250.50505050505052 L15.273640551175802,242.42424242424244 L19.452904337063757,234.34343434343435 L23.962778583735464,226.26262626262627 L28.730697726342825,218.1818181818182 L33.679944161066,210.1010101010101 L38.730882660077285,202.02020202020202 L43.802241732167296,193.93939393939394 L48.81242131146161,185.85858585858588 L53.68080573302674,177.7777777777778 L58.32906086909641,169.69696969696972 L62.682394554510815,161.61616161616163 L66.67076002065166,153.53535353535355 L70.22998297417033,145.45454545454547 L73.30279418539087,137.37373737373738 L75.83975097165344,129.2929292929293 L77.80003274858674,121.21212121212122 L79.15209784859115,113.13131313131314 L79.8741910380777,105.05050505050505 L79.95469356732032,96.96969696969697 L79.39231012048833,88.8888888888889 L78.19608965776297,80.80808080808082 L76.38527981418073,72.72727272727273 L73.98901719798057,64.64646464646465 L71.04585857167027,56.56565656565657 L67.60316045928448,48.484848484848484 L63.71631716218562,40.40404040404041 L59.44786944401875,32.323232323232325 L54.8664982264131,24.242424242424242 L50.04591948724317,16.161616161616163 L45.063698142949974,8.080808080808081 L40.0,0.0 Z" fill="#1c1c1c" stroke="none" /><path d="M80.0,0.0 L85.06369814294997,8.080808080808081 L90.04591948724317,16.161616161616163 L94.8664982264131,24.242424242424242 L99.44786944401875,32.323232323232325 L103.71631716218562,40.40404040404041 L107.60316045928448,48.484848484848484 L111.04585857167027,56.56565656565657 L113.98901719798057,64.64646464646465 L116.38527981418073,72.72727272727273 L118.19608965776297,80.80808080808082 L119.39231012048833,88.8888888888889 L119.95469356732032,96.96969696969697 L119.8741910380777,105.05050505050505 L119.15209784859115,113.13131313131314 L117.80003274858674,121.21212121212122 L115.83975097165344,129.2929292929293 L113.30279418539087,137.37373737373738 L110.22998297417033,145.45454545454547 L106.67076002065166,153.53535353535355 L102.68239455451081,161.61616161616163 L98.32906086909641,169.69696969696972 L93.68080573302674,177.7777777777778 L88.81242131146162,185.85858585858588 L83.8022417321673,193.93939393939394 L78.73088266007728,202.02020202020202 L73.679944161066,210.1010101010101 L68.73069772634283,218.1818181818182 L63.962778583735464,226.26262626262627 L59.45290433706376,234.34343434343435 L55.2736405511758,242.42424242424244 L51.49223314484547,250.50505050505052 L48.16952637876672,258.5858585858586 L45.358983848622444,266.6666666666667 L43.105828235816745,274.74747474747477 L41.44631365760232,282.82828282828285 L40.407142324762695,290.90909090909093 L40.005034893045,298.989898989899 L40.24646142154984,307.0707070707071 L41.12753726705834,315.1515151515152 L42.634085589395745,323.23232323232327 L44.74186546209672,331.31313131313135 L47.41696191798659,339.39393939393943 L50.61633165369867,347.4747474747475 L54.28849561253844,355.5555555555556 L58.3743673017761,363.6363636363637 L62.80820351643315,371.71717171717177 L67.51866217206052,379.79797979797985 L72.42995022558361,387.8787878787879 L77.46304321373742,395.95959595959596 L82.53695678626259,404.04040404040404 L87.5700497744164,412.1212121212121 L92.4813378279395,420.2020202020202 L97.19179648356686,428.2828282828283 L101.62563269822388,436.3636363636364 L105.71150438746157,444.44444444444446 L109.3836683463013,452.52525252525254 L112.58303808201342,460.6060606060606 L115.25813453790326,468.6868686868687 L117.36591441060426,476.7676767676768 L118.87246273294167,484.8484848484849 L119.75353857845016,492.92929292929296 L119.994965106955,501.01010101010104 L119.5928576752373,509.0909090909091 L118.55368634239768,517.1717171717172 L116.89417176418323,525.2525252525253 L114.64101615137753,533.3333333333334 L111.83047362123327,541.4141414141415 L108.50776685515451,549.4949494949495 L104.72635944882423,557.5757575757576 L100.54709566293623,565.6565656565657 L96.03722141626454,573.7373737373738 L91.26930227365719,581.8181818181819 L86.32005583893402,589.89898989899 L81.26911733992269,597.979797979798 L76.19775826783268,606.0606060606061 L71.18757868853832,614.1414141414142 L66.31919426697321,622.2222222222223 L61.67093913090356,630.3030303030304 L57.317605445489114,638.3838383838385 L53.329239979348294,646.4646464646465 L49.770017025829645,654.5454545454546 L46.697205814609134,662.6262626262627 L44.16024902834656,670.7070707070708 L42.19996725141324,678.7878787878789 L40.847902151408846,686.868686868687 L40.1258089619223,694.949494949495 L40.04530643267968,703.0303030303031 L40.60768987951168,711.1111111111112 L41.80391034223705,719.1919191919193 L43.614720185819266,727.2727272727274 L46.01098280201942,735.3535353535354 L48.954141428329756,743.4343434343435 L52.39683954071553,751.5151515151516 L56.28368283781438,759.5959595959597 L60.552130555981236,767.6767676767678 L65.13350177358693,775.7575757575758 L69.95408051275685,783.8383838383838 L74.93630185705003,791.9191919191919 L79.99999999999999,800.0 L119.99999999999999,800.0 L114.93630185705003,791.9191919191919 L109.95408051275685,783.8383838383838 L105.13350177358693,775.7575757575758 L100.55213055598124,767.6767676767678 L96.28368283781438,759.5959595959597 L92.39683954071553,751.5151515151516 L88.95414142832976,743.4343434343435 L86.01098280201941,735.3535353535354 L83.61472018581927,727.2727272727274 L81.80391034223706,719.1919191919193 L80.60768987951168,711.1111111111112 L80.04530643267968,703.0303030303031 L80.1258089619223,694.949494949495 L80.84790215140885,686.868686868687 L82.19996725141324,678.7878787878789 L84.16024902834656,670.7070707070708 L86.69720581460913,662.6262626262627 L89.77001702582965,654.5454545454546 L93.3292399793483,646.4646464646465 L97.31760544548911,638.3838383838385 L101.67093913090356,630.3030303030304 L106.31919426697321,622.2222222222223 L111.18757868853832,614.1414141414142 L116.19775826783268,606.0606060606061 L121.26911733992269,597.979797979798 L126.32005583893402,589.89898989899 L131.2693022736572,581.8181818181819 L136.03722141626454,573.7373737373738 L140.54709566293621,565.6565656565657 L144.7263594488242,557.5757575757576 L148.5077668551545,549.4949494949495 L151.83047362123327,541.4141414141415 L154.64101615137753,533.3333333333334 L156.89417176418323,525.2525252525253 L158.55368634239767,517.1717171717172 L159.5928576752373,509.0909090909091 L159.994965106955,501.01010101010104 L159.75353857845016,492.92929292929296 L158.87246273294167,484.8484848484849 L157.36591441060426,476.7676767676768 L155.25813453790326,468.6868686868687 L152.58303808201342,460.6060606060606 L149.3836683463013,452.52525252525254 L145.71150438746156,444.44444444444446 L141.62563269822388,436.3636363636364 L137.19179648356686,428.2828282828283 L132.4813378279395,420.2020202020202 L127.5700497744164,412.1212121212121 L122.53695678626259,404.04040404040404 L117.46304321373742,395.95959595959596 L112.42995022558361,387.8787878787879 L107.51866217206052,379.79797979797985 L102.80820351643315,371.71717171717177 L98.37436730177609,363.6363636363637 L94.28849561253844,355.5555555555556 L90.61633165369867,347.4747474747475 L87.41696191798658,339.39393939393943 L84.74186546209671,331.31313131313135 L82.63408558939574,323.23232323232327 L81.12753726705833,315.1515151515152 L80.24646142154984,307.0707070707071 L80.005034893045,298.989898989899 L80.4071423247627,290.90909090909093 L81.44631365760232,282.82828282828285 L83.10582823581674,274.74747474747477 L85.35898384862244,266.6666666666667 L88.16952637876672,258.5858585858586 L91.49223314484547,250.50505050505052 L95.2736405511758,242.42424242424244 L99.45290433706376,234.34343434343435 L103.96277858373546,226.26262626262627 L108.73069772634283,218.1818181818182 L113.679944161066,210.1010101010101 L118.73088266007728,202.02020202020202 L123.8022417321673,193.93939393939394 L128.8124213114616,185.85858585858588 L133.68080573302674,177.7777777777778 L138.3290608690964,169.69696969696972 L142.6823945545108,161.61616161616163 L146.67076002065164,153.53535353535355 L150.22998297417033,145.45454545454547 L153.30279418539087,137.37373737373738 L155.83975097165344,129.2929292929293 L157.80003274858674,121.21212121212122 L159.15209784859115,113.13131313131314 L159.8741910380777,105.05050505050505 L159.9546935673203,96.96969696969697 L159.39231012048833,88.8888888888889 L158.19608965776297,80.80808080808082 L156.38527981418073,72.72727272727273 L153.98901719798056,64.64646464646465 L151.04585857167027,56.56565656565657 L147.60316045928448,48.484848484848484 L143.71631716218562,40.40404040404041 L139.44786944401875,32.323232323232325 L134.8664982264131,24.242424242424242 L130.04591948724317,16.161616161616163 L125.06369814294997,8.080808080808081 L120.0,0.0 Z" fill="#4d4d4d" stroke="none" /><path d="M160.0,0.0 L165.06369814294996,8.080808080808081 L170.04591948724317,16.161616161616163 L174.8664982264131,24.242424242424242 L179.44786944401875,32.323232323232325 L183.71631716218562,40.40404040404041 L187.60316045928448,48.484848484848484 L191.04585857167027,56.56565656565657 L193.98901719798056,64.64646464646465 L196.38527981418073,72.72727272727273 L198.19608965776297,80.80808080808082 L199.39231012048833,88.8888888888889 L199.9546935673203,96.96969696969697 L199.8741910380777,105.05050505050505 L199.15209784859115,113.13131313131314 L197.80003274858674,121.21212121212122 L195.83975097165344,129.2929292929293 L193.30279418539087,137.37373737373738 L190.22998297417033,145.45454545454547 L186.67076002065164,153.53535353535355 L182.6823945545108,161.61616161616163 L178.3290608690964,169.69696969696972 L173.68080573302674,177.7777777777778 L168.8124213114616,185.85858585858588 L163.8022417321673,193.93939393939394 L158.7308826600773,202.02020202020202 L153.679944161066,210.1010101010101 L148.73069772634284,218.1818181818182 L143.96277858373546,226.26262626262627 L139.45290433706376,234.34343434343435 L135.2736405511758,242.42424242424244 L131.49223314484547,250.50505050505052 L128.1695263787667,258.5858585858586 L125.35898384862244,266.6666666666667 L123.10582823581674,274.74747474747477 L121.44631365760232,282.82828282828285 L120.4071423247627,290.90909090909093 L120.005034893045,298.989898989899 L120.24646142154984,307.0707070707071 L121.12753726705833,315.1515151515152 L122.63408558939574,323.23232323232327 L124.74186546209671,331.31313131313135 L127.41696191798658,339.39393939393943 L130.61633165369867,347.4747474747475 L134.28849561253844,355.5555555555556 L138.3743673017761,363.6363636363637 L142.80820351643314,371.71717171717177 L147.51866217206052,379.79797979797985 L152.4299502255836,387.8787878787879 L157.46304321373742,395.95959595959596 L162.5369567862626,404.04040404040404 L167.57004977441642,412.1212121212121 L172.4813378279395,420.2020202020202 L177.19179648356686,428.2828282828283 L181.62563269822388,436.3636363636364 L185.71150438746156,444.44444444444446 L189.3836683463013,452.52525252525254 L192.58303808201342,460.6060606060606 L195.25813453790326,468.6868686868687 L197.36591441060426,476.7676767676768 L198.87246273294167,484.8484848484849 L199.75353857845016,492.92929292929296 L199.994965106955,501.01010101010104 L199.5928576752373,509.0909090909091 L198.55368634239767,517.1717171717172 L196.89417176418323,525.2525252525253 L194.64101615137753,533.3333333333334 L191.83047362123327,541.4141414141415 L188.50776685515453,549.4949494949495 L184.7263594488242,557.5757575757576 L180.54709566293621,565.6565656565657 L176.03722141626454,573.7373737373738 L171.2693022736572,581.8181818181819 L166.32005583893402,589.89898989899 L161.26911733992267,597.979797979798 L156.19775826783268,606.0606060606061 L151.1875786885383,614.1414141414142 L146.31919426697323,622.2222222222223 L141.67093913090358,630.3030303030304 L137.3176054454891,638.3838383838385 L133.3292399793483,646.4646464646465 L129.77001702582965,654.5454545454546 L126.69720581460913,662.6262626262627 L124.16024902834656,670.7070707070708 L122.19996725141324,678.7878787878789 L120.84790215140885,686.868686868687 L120.1258089619223,694.949494949495 L120.04530643267968,703.0303030303031 L120.60768987951168,711.1111111111112 L121.80391034223706,719.1919191919193 L123.61472018581927,727.2727272727274 L126.01098280201941,735.3535353535354 L128.95414142832976,743.4343434343435 L132.39683954071555,751.5151515151516 L136.28368283781438,759.5959595959597 L140.55213055598125,767.6767676767678 L145.13350177358694,775.7575757575758 L149.95408051275686,783.8383838383838 L154.93630185705004,791.9191919191919 L159.99999999999997,800.0 L199.99999999999997,800.0 L194.93630185705004,791.9191919191919 L189.95408051275686,783.8383838383838 L185.13350177358694,775.7575757575758 L180.55213055598125,767.6767676767678 L176.28368283781438,759.5959595959597 L172.39683954071555,751.5151515151516 L168.95414142832976,743.4343434343435 L166.0109828020194,735.3535353535354 L163.61472018581927,727.2727272727274 L161.80391034223706,719.1919191919193 L160.60768987951167,711.1111111111112 L160.0453064326797,703.0303030303031 L160.1258089619223,694.949494949495 L160.84790215140885,686.868686868687 L162.19996725141323,678.7878787878789 L164.16024902834656,670.7070707070708 L166.69720581460913,662.6262626262627 L169.77001702582965,654.5454545454546 L173.3292399793483,646.4646464646465 L177.3176054454891,638.3838383838385 L181.67093913090358,630.3030303030304 L186.31919426697323,622.2222222222223 L191.1875786885383,614.1414141414142 L196.19775826783268,606.0606060606061 L201.26911733992267,597.979797979798 L206.32005583893402,589.89898989899 L211.2693022736572,581.8181818181819 L216.03722141626454,573.7373737373738 L220.54709566293621,565.6565656565657 L224.7263594488242,557.5757575757576 L228.50776685515453,549.4949494949495 L231.83047362123327,541.4141414141415 L234.64101615137753,533.3333333333334 L236.89417176418323,525.2525252525253 L238.55368634239767,517.1717171717172 L239.5928576752373,509.0909090909091 L239.994965106955,501.01010101010104 L239.75353857845016,492.92929292929296 L238.87246273294167,484.8484848484849 L237.36591441060426,476.7676767676768 L235.25813453790326,468.6868686868687 L232.58303808201342,460.6060606060606 L229.3836683463013,452.52525252525254 L225.71150438746156,444.44444444444446 L221.62563269822388,436.3636363636364 L217.19179648356686,428.2828282828283 L212.4813378279395,420.2020202020202 L207.57004977441642,412.1212121212121 L202.5369567862626,404.04040404040404 L197.46304321373742,395.95959595959596 L192.4299502255836,387.8787878787879 L187.51866217206052,379.79797979797985 L182.80820351643314,371.71717171717177 L178.3743673017761,363.6363636363637 L174.28849561253844,355.5555555555556 L170.61633165369867,347.4747474747475 L167.41696191798658,339.39393939393943 L164.7418654620967,331.31313131313135 L162.63408558939574,323.23232323232327 L161.12753726705833,315.1515151515152 L160.24646142154984,307.0707070707071 L160.005034893045,298.989898989899 L160.4071423247627,290.90909090909093 L161.44631365760233,282.82828282828285 L163.10582823581674,274.74747474747477 L165.35898384862244,266.6666666666667 L168.1695263787667,258.5858585858586 L171.49223314484547,250.50505050505052 L175.2736405511758,242.42424242424244 L179.45290433706376,234.34343434343435 L183.96277858373546,226.26262626262627 L188.73069772634284,218.1818181818182 L193.679944161066,210.1010101010101 L198.7308826600773,202.02020202020202 L203.8022417321673,193.93939393939394 L208.8124213114616,185.85858585858588 L213.68080573302674,177.7777777777778 L218.3290608690964,169.69696969696972 L222.6823945545108,161.61616161616163 L226.67076002065164,153.53535353535355 L230.22998297417033,145.45454545454547 L233.30279418539087,137.37373737373738 L235.83975097165344,129.2929292929293 L237.80003274858674,121.21212121212122 L239.15209784859115,113.13131313131314 L239.8741910380777,105.05050505050505 L239.9546935673203,96.96969696969697 L239.39231012048833,88.8888888888889 L238.19608965776297,80.80808080808082 L236.38527981418073,72.72727272727273 L233.98901719798056,64.64646464646465 L231.04585857167027,56.56565656565657 L227.60316045928448,48.484848484848484 L223.71631716218562,40.40404040404041 L219.44786944401875,32.323232323232325 L214.8664982264131,24.242424242424242 L210.04591948724317,16.161616161616163 L205.06369814294996,8.080808080808081 L200.0,0.0 Z" fill="#7f7f7f" stroke="none" /><path d="M240.0,0.0 L245.06369814294996,8.080808080808081 L250.04591948724317,16.161616161616163 L254.8664982264131,24.242424242424242 L259.44786944401875,32.323232323232325 L263.71631716218565,40.40404040404041 L267.6031604592845,48.484848484848484 L271.0458585716703,56.56565656565657 L273.98901719798056,64.64646464646465 L276.38527981418076,72.72727272727273 L278.19608965776297,80.80808080808082 L279.39231012048833,88.8888888888889 L279.9546935673203,96.96969696969697 L279.8741910380777,105.05050505050505 L279.15209784859115,113.13131313131314 L277.8000327485868,121.21212121212122 L275.8397509716534,129.2929292929293 L273.30279418539084,137.37373737373738 L270.22998297417035,145.45454545454547 L266.67076002065164,153.53535353535355 L262.68239455451084,161.61616161616163 L258.3290608690964,169.69696969696972 L253.68080573302674,177.7777777777778 L248.8124213114616,185.85858585858588 L243.8022417321673,193.93939393939394 L238.7308826600773,202.02020202020202 L233.679944161066,210.1010101010101 L228.73069772634284,218.1818181818182 L223.96277858373546,226.26262626262627 L219.45290433706376,234.34343434343435 L215.2736405511758,242.42424242424244 L211.49223314484547,250.50505050505052 L208.1695263787667,258.5858585858586 L205.35898384862244,266.6666666666667 L203.10582823581674,274.74747474747477 L201.44631365760233,282.82828282828285 L200.4071423247627,290.90909090909093 L200.005034893045,298.989898989899 L200.24646142154984,307.0707070707071 L201.12753726705833,315.1515151515152 L202.63408558939574,323.23232323232327 L204.7418654620967,331.31313131313135 L207.41696191798658,339.39393939393943 L210.61633165369867,347.4747474747475 L214.28849561253844,355.5555555555556 L218.3743673017761,363.6363636363637 L222.80820351643314,371.71717171717177 L227.51866217206052,379.79797979797985 L232.4299502255836,387.8787878787879 L237.46304321373742,395.95959595959596 L242.5369567862626,404.04040404040404 L247.57004977441642,412.1212121212121 L252.4813378279395,420.2020202020202 L257.19179648356686,428.2828282828283 L261.6256326982239,436.3636363636364 L265.71150438746156,444.44444444444446 L269.3836683463013,452.52525252525254 L272.58303808201345,460.6060606060606 L275.2581345379033,468.6868686868687 L277.36591441060426,476.7676767676768 L278.87246273294164,484.8484848484849 L279.75353857845016,492.92929292929296 L279.994965106955,501.01010101010104 L279.5928576752373,509.0909090909091 L278.55368634239767,517.1717171717172 L276.8941717641832,525.2525252525253 L274.6410161513775,533.3333333333334 L271.8304736212333,541.4141414141415 L268.5077668551545,549.4949494949495 L264.7263594488242,557.5757575757576 L260.5470956629362,565.6565656565657 L256.0372214162645,573.7373737373738 L251.2693022736572,581.8181818181819 L246.32005583893402,589.89898989899 L241.26911733992267,597.979797979798 L236.19775826783268,606.0606060606061 L231.1875786885383,614.1414141414142 L226.31919426697323,622.2222222222223 L221.67093913090358,630.3030303030304 L217.3176054454891,638.3838383838385 L213.3292399793483,646.4646464646465 L209.77001702582965,654.5454545454546 L206.69720581460913,662.6262626262627 L204.16024902834656,670.7070707070708 L202.19996725141323,678.7878787878789 L200.84790215140885,686.868686868687 L200.1258089619223,694.949494949495 L200.0453064326797,703.0303030303031 L200.60768987951167,711.1111111111112 L201.80391034223706,719.1919191919193 L203.61472018581927,727.2727272727274 L206.0109828020194,735.3535353535354 L208.95414142832976,743.4343434343435 L212.39683954071555,751.5151515151516 L216.28368283781438,759.5959595959597 L220.55213055598125,767.6767676767678 L225.13350177358694,775.7575757575758 L229.95408051275686,783.8383838383838 L234.93630185705004,791.9191919191919 L239.99999999999997,800.0 L280.0,800.0 L274.93630185705,791.9191919191919 L269.95408051275683,783.8383838383838 L265.13350177358694,775.7575757575758 L260.55213055598125,767.6767676767678 L256.28368283781435,759.5959595959597 L252.39683954071555,751.5151515151516 L248.95414142832976,743.4343434343435 L246.0109828020194,735.3535353535354 L243.61472018581927,727.2727272727274 L241.80391034223706,719.1919191919193 L240.60768987951167,711.1111111111112 L240.0453064326797,703.0303030303031 L240.1258089619223,694.949494949495 L240.84790215140885,686.868686868687 L242.19996725141323,678.7878787878789 L244.16024902834656,670.7070707070708 L246.69720581460913,662.6262626262627 L249.77001702582965,654.5454545454546 L253.3292399793483,646.4646464646465 L257.3176054454891,638.3838383838385 L261.67093913090355,630.3030303030304 L266.3191942669732,622.2222222222223 L271.18757868853834,614.1414141414142 L276.1977582678327,606.0606060606061 L281.2691173399227,597.979797979798 L286.320055838934,589.89898989899 L291.2693022736572,581.8181818181819 L296.0372214162645,573.7373737373738 L300.5470956629362,565.6565656565657 L304.7263594488242,557.5757575757576 L308.5077668551545,549.4949494949495 L311.8304736212333,541.4141414141415 L314.6410161513775,533.3333333333334 L316.8941717641832,525.2525252525253 L318.55368634239767,517.1717171717172 L319.5928576752373,509.0909090909091 L319.994965106955,501.01010101010104 L319.75353857845016,492.92929292929296 L318.87246273294164,484.8484848484849 L317.36591441060426,476.7676767676768 L315.2581345379033,468.6868686868687 L312.58303808201345,460.6060606060606 L309.3836683463013,452.52525252525254 L305.71150438746156,444.44444444444446 L301.6256326982239,436.3636363636364 L297.19179648356686,428.2828282828283 L292.4813378279395,420.2020202020202 L287.5700497744164,412.1212121212121 L282.53695678626264,404.04040404040404 L277.4630432137374,395.95959595959596 L272.42995022558364,387.8787878787879 L267.51866217206054,379.79797979797985 L262.80820351643314,371.71717171717177 L258.3743673017761,363.6363636363637 L254.28849561253844,355.5555555555556 L250.61633165369867,347.4747474747475 L247.41696191798658,339.39393939393943 L244.7418654620967,331.31313131313135 L242.63408558939574,323.23232323232327 L241.12753726705833,315.1515151515152 L240.24646142154984,307.0707070707071 L240.005034893045,298.989898989899 L240.4071423247627,290.90909090909093 L241.44631365760233,282.82828282828285 L243.10582823581674,274.74747474747477 L245.35898384862244,266.6666666666667 L248.1695263787667,258.5858585858586 L251.49223314484547,250.50505050505052 L255.2736405511758,242.42424242424244 L259.4529043370637,234.34343434343435 L263.9627785837355,226.26262626262627 L268.73069772634284,218.1818181818182 L273.67994416106603,210.1010101010101 L278.7308826600773,202.02020202020202 L283.8022417321673,193.93939393939394 L288.8124213114616,185.85858585858588 L293.6808057330268,177.7777777777778 L298.3290608690964,169.69696969696972 L302.68239455451084,161.61616161616163 L306.67076002065164,153.53535353535355 L310.22998297417035,145.45454545454547 L313.30279418539084,137.37373737373738 L315.8397509716534,129.2929292929293 L317.8000327485868,121.21212121212122 L319.15209784859115,113.13131313131314 L319.8741910380777,105.05050505050505 L319.9546935673203,96.96969696969697 L319.39231012048833,88.8888888888889 L318.19608965776297,80.80808080808082 L316.38527981418076,72.72727272727273 L313.98901719798056,64.64646464646465 L311.0458585716703,56.56565656565657 L307.6031604592845,48.484848484848484 L303.71631716218565,40.40404040404041 L299.44786944401875,32.323232323232325 L294.8664982264131,24.242424242424242 L290.04591948724317,16.161616161616163 L285.06369814295,8.080808080808081 L280.0,0.0 Z" fill="#b2b2b2" stroke="none" /><path d="M320.0,0.0 L325.06369814295,8.080808080808081 L330.04591948724317,16.161616161616163 L334.8664982264131,24.242424242424242 L339.44786944401875,32.323232323232325 L343.71631716218565,40.40404040404041 L347.6031604592845,48.484848484848484 L351.0458585716703,56.56565656565657 L353.98901719798056,64.64646464646465 L356.38527981418076,72.72727272727273 L358.19608965776297,80.80808080808082 L359.39231012048833,88.8888888888889 L359.9546935673203,96.96969696969697 L359.8741910380777,105.05050505050505 L359.15209784859115,113.13131313131314 L357.8000327485868,121.21212121212122 L355.8397509716534,129.2929292929293 L353.30279418539084,137.37373737373738 L350.22998297417035,145.45454545454547 L346.67076002065164,153.53535353535355 L342.68239455451084,161.61616161616163 L338.3290608690964,169.69696969696972 L333.6808057330267,177.7777777777778 L328.8124213114616,185.85858585858588 L323.8022417321673,193.93939393939394 L318.73088266007727,202.02020202020202 L313.679944161066,210.1010101010101 L308.73069772634284,218.1818181818182 L303.9627785837355,226.26262626262627 L299.4529043370637,234.34343434343435 L295.2736405511758,242.42424242424244 L291.4922331448455,250.50505050505052 L288.1695263787667,258.5858585858586 L285.3589838486224,266.6666666666667 L283.1058282358167,274.74747474747477 L281.44631365760233,282.82828282828285 L280.4071423247627,290.90909090909093 L280.005034893045,298.989898989899 L280.24646142154984,307.0707070707071 L281.12753726705836,315.1515151515152 L282.63408558939574,323.23232323232327 L284.7418654620967,331.31313131313135 L287.4169619179866,339.39393939393943 L290.6163316536987,347.4747474747475 L294.28849561253844,355.5555555555556 L298.3743673017761,363.6363636363637 L302.80820351643314,371.71717171717177 L307.51866217206054,379.79797979797985 L312.42995022558364,387.8787878787879 L317.4630432137374,395.95959595959596 L322.5369567862626,404.04040404040404 L327.5700497744164,412.1212121212121 L332.4813378279395,420.2020202020202 L337.19179648356686,428.2828282828283 L341.6256326982239,436.3636363636364 L345.71150438746156,444.44444444444446 L349.3836683463013,452.52525252525254 L352.58303808201345,460.6060606060606 L355.2581345379033,468.6868686868687 L357.36591441060426,476.7676767676768 L358.87246273294164,484.8484848484849 L359.75353857845016,492.92929292929296 L359.994965106955,501.01010101010104 L359.5928576752373,509.0909090909091 L358.55368634239767,517.1717171717172 L356.8941717641832,525.2525252525253 L354.6410161513775,533.3333333333334 L351.8304736212333,541.4141414141415 L348.5077668551545,549.4949494949495 L344.7263594488242,557.5757575757576 L340.5470956629362,565.6565656565657 L336.0372214162645,573.7373737373738 L331.2693022736572,581.8181818181819 L326.320055838934,589.89898989899 L321.2691173399227,597.979797979798 L316.1977582678327,606.0606060606061 L311.18757868853834,614.1414141414142 L306.3191942669732,622.2222222222223 L301.67093913090355,630.3030303030304 L297.3176054454891,638.3838383838385 L293.3292399793483,646.4646464646465 L289.77001702582965,654.5454545454546 L286.6972058146091,662.6262626262627 L284.1602490283466,670.7070707070708 L282.1999672514132,678.7878787878789 L280.84790215140885,686.868686868687 L280.1258089619223,694.949494949495 L280.0453064326797,703.0303030303031 L280.60768987951167,711.1111111111112 L281.80391034223703,719.1919191919193 L283.61472018581924,727.2727272727274 L286.01098280201944,735.3535353535354 L288.95414142832976,743.4343434343435 L292.3968395407155,751.5151515151516 L296.28368283781435,759.5959595959597 L300.55213055598125,767.6767676767678 L305.13350177358694,775.7575757575758 L309.95408051275683,783.8383838383838 L314.93630185705,791.9191919191919 L320.0,800.0 L360.0,800.0 L354.93630185705,791.9191919191919 L349.95408051275683,783.8383838383838 L345.13350177358694,775.7575757575758 L340.55213055598125,767.6767676767678 L336.28368283781435,759.5959595959597 L332.3968395407155,751.5151515151516 L328.95414142832976,743.4343434343435 L326.01098280201944,735.3535353535354 L323.61472018581924,727.2727272727274 L321.80391034223703,719.1919191919193 L320.60768987951167,711.1111111111112 L320.0453064326797,703.0303030303031 L320.1258089619223,694.949494949495 L320.84790215140885,686.868686868687 L322.1999672514132,678.7878787878789 L324.1602490283466,670.7070707070708 L326.6972058146091,662.6262626262627 L329.77001702582965,654.5454545454546 L333.3292399793483,646.4646464646465 L337.3176054454891,638.3838383838385 L341.67093913090355,630.3030303030304 L346.3191942669732,622.2222222222223 L351.18757868853834,614.1414141414142 L356.1977582678327,606.0606060606061 L361.2691173399227,597.979797979798 L366.320055838934,589.89898989899 L371.2693022736572,581.8181818181819 L376.0372214162645,573.7373737373738 L380.5470956629362,565.6565656565657 L384.7263594488242,557.5757575757576 L388.5077668551545,549.4949494949495 L391.8304736212333,541.4141414141415 L394.6410161513775,533.3333333333334 L396.8941717641832,525.2525252525253 L398.55368634239767,517.1717171717172 L399.5928576752373,509.0909090909091 L399.994965106955,501.01010101010104 L399.75353857845016,492.92929292929296 L398.87246273294164,484.8484848484849 L397.36591441060426,476.7676767676768 L395.2581345379033,468.6868686868687 L392.58303808201345,460.6060606060606 L389.3836683463013,452.52525252525254 L385.71150438746156,444.44444444444446 L381.6256326982239,436.3636363636364 L377.19179648356686,428.2828282828283 L372.4813378279395,420.2020202020202 L367.5700497744164,412.1212121212121 L362.5369567862626,404.04040404040404 L357.4630432137374,395.95959595959596 L352.42995022558364,387.8787878787879 L347.51866217206054,379.79797979797985 L342.80820351643314,371.71717171717177 L338.3743673017761,363.6363636363637 L334.28849561253844,355.5555555555556 L330.6163316536987,347.4747474747475 L327.4169619179866,339.39393939393943 L324.7418654620967,331.31313131313135 L322.63408558939574,323.23232323232327 L321.12753726705836,315.1515151515152 L320.24646142154984,307.0707070707071 L320.005034893045,298.989898989899 L320.4071423247627,290.90909090909093 L321.44631365760233,282.82828282828285 L323.1058282358167,274.74747474747477 L325.3589838486224,266.6666666666667 L328.1695263787667,258.5858585858586 L331.4922331448455,250.50505050505052 L335.2736405511758,242.42424242424244 L339.4529043370637,234.34343434343435 L343.9627785837355,226.26262626262627 L348.73069772634284,218.1818181818182 L353.679944161066,210.1010101010101 L358.73088266007727,202.02020202020202 L363.8022417321673,193.93939393939394 L368.8124213114616,185.85858585858588 L373.6808057330267,177.7777777777778 L378.3290608690964,169.69696969696972 L382.68239455451084,161.61616161616163 L386.67076002065164,153.53535353535355 L390.22998297417035,145.45454545454547 L393.30279418539084,137.37373737373738 L395.8397509716534,129.2929292929293 L397.8000327485868,121.21212121212122 L399.15209784859115,113.13131313131314 L399.8741910380777,105.05050505050505 L399.9546935673203,96.96969696969697 L399.39231012048833,88.8888888888889 L398.19608965776297,80.80808080808082 L396.38527981418076,72.72727272727273 L393.98901719798056,64.64646464646465 L391.0458585716703,56.56565656565657 L387.6031604592845,48.484848484848484 L383.71631716218565,40.40404040404041 L379.44786944401875,32.323232323232325 L374.8664982264131,24.242424242424242 L370.04591948724317,16.161616161616163 L365.06369814295,8.080808080808081 L360.0,0.0 Z" fill="#e6e6e6" stroke="none" /><path d="M400.0,0.0 L405.06369814295,8.080808080808081 L410.04591948724317,16.161616161616163 L414.8664982264131,24.242424242424242 L419.44786944401875,32.323232323232325 L423.71631716218565,40.40404040404041 L427.6031604592845,48.484848484848484 L431.0458585716703,56.56565656565657 L433.98901719798056,64.64646464646465 L436.38527981418076,72.72727272727273 L438.19608965776297,80.80808080808082 L439.39231012048833,88.8888888888889 L439.9546935673203,96.96969696969697 L439.8741910380777,105.05050505050505 L439.15209784859115,113.13131313131314 L437.8000327485868,121.21212121212122 L435.8397509716534,129.2929292929293 L433.30279418539084,137.37373737373738 L430.22998297417035,145.45454545454547 L426.67076002065164,153.53535353535355 L422.68239455451084,161.61616161616163 L418.3290608690964,169.69696969696972 L413.6808057330267,177.7777777777778 L408.8124213114616,185.85858585858588 L403.8022417321673,193.93939393939394 L398.73088266007727,202.02020202020202 L393.679944161066,210.1010101010101 L388.73069772634284,218.1818181818182 L383.9627785837355,226.26262626262627 L379.4529043370637,234.34343434343435 L375.2736405511758,242.42424242424244 L371.4922331448455,250.50505050505052 L368.1695263787667,258.5858585858586 L365.3589838486224,266.6666666666667 L363.1058282358167,274.74747474747477 L361.44631365760233,282.82828282828285 L360.4071423247627,290.90909090909093 L360.005034893045,298.989898989899 L360.24646142154984,307.0707070707071 L361.12753726705836,315.1515151515152 L362.63408558939574,323.23232323232327 L364.7418654620967,331.31313131313135 L367.4169619179866,339.39393939393943 L370.6163316536987,347.4747474747475 L374.28849561253844,355.5555555555556 L378.3743673017761,363.6363636363637 L382.80820351643314,371.71717171717177 L387.51866217206054,379.79797979797985 L392.42995022558364,387.8787878787879 L397.4630432137374,395.95959595959596 L402.5369567862626,404.04040404040404 L407.5700497744164,412.1212121212121 L412.4813378279395,420.2020202020202 L417.19179648356686,428.2828282828283 L421.6256326982239,436.3636363636364 L425.71150438746156,444.44444444444446 L429.3836683463013,452.52525252525254 L432.58303808201345,460.6060606060606 L435.2581345379033,468.6868686868687 L437.36591441060426,476.7676767676768 L438.87246273294164,484.8484848484849 L439.75353857845016,492.92929292929296 L439.994965106955,501.01010101010104 L439.5928576752373,509.0909090909091 L438.55368634239767,517.1717171717172 L436.8941717641832,525.2525252525253 L434.6410161513775,533.3333333333334 L431.8304736212333,541.4141414141415 L428.5077668551545,549.4949494949495 L424.7263594488242,557.5757575757576 L420.5470956629362,565.6565656565657 L416.0372214162645,573.7373737373738 L411.2693022736572,581.8181818181819 L406.320055838934,589.89898989899 L401.2691173399227,597.979797979798 L396.1977582678327,606.0606060606061 L391.18757868853834,614.1414141414142 L386.3191942669732,622.2222222222223 L381.67093913090355,630.3030303030304 L377.3176054454891,638.3838383838385 L373.3292399793483,646.4646464646465 L369.77001702582965,654.5454545454546 L366.6972058146091,662.6262626262627 L364.1602490283466,670.7070707070708 L362.1999672514132,678.7878787878789 L360.84790215140885,686.868686868687 L360.1258089619223,694.949494949495 L360.0453064326797,703.0303030303031 L360.60768987951167,711.1111111111112 L361.80391034223703,719.1919191919193 L363.61472018581924,727.2727272727274 L366.01098280201944,735.3535353535354 L368.95414142832976,743.4343434343435 L372.3968395407155,751.5151515151516 L376.28368283781435,759.5959595959597 L380.55213055598125,767.6767676767678 L385.13350177358694,775.7575757575758 L389.95408051275683,783.8383838383838 L394.93630185705,791.9191919191919 L400.0,800.0 L440.0,800.0 L434.93630185705,791.9191919191919 L429.95408051275683,783.8383838383838 L425.13350177358694,775.7575757575758 L420.55213055598125,767.6767676767678 L416.28368283781435,759.5959595959597 L412.3968395407155,751.5151515151516 L408.95414142832976,743.4343434343435 L406.01098280201944,735.3535353535354 L403.61472018581924,727.2727272727274 L401.80391034223703,719.1919191919193 L400.60768987951167,711.1111111111112 L400.0453064326797,703.0303030303031 L400.1258089619223,694.949494949495 L400.84790215140885,686.868686868687 L402.1999672514132,678.7878787878789 L404.1602490283466,670.7070707070708 L406.6972058146091,662.6262626262627 L409.77001702582965,654.5454545454546 L413.3292399793483,646.4646464646465 L417.3176054454891,638.3838383838385 L421.67093913090355,630.3030303030304 L426.3191942669732,622.2222222222223 L431.18757868853834,614.1414141414142 L436.1977582678327,606.0606060606061 L441.2691173399227,597.979797979798 L446.320055838934,589.89898989899 L451.2693022736572,581.8181818181819 L456.0372214162645,573.7373737373738 L460.5470956629362,565.6565656565657 L464.7263594488242,557.5757575757576 L468.5077668551545,549.4949494949495 L471.8304736212333,541.4141414141415 L474.6410161513775,533.3333333333334 L476.8941717641832,525.2525252525253 L478.55368634239767,517.1717171717172 L479.5928576752373,509.0909090909091 L479.994965106955,501.01010101010104 L479.75353857845016,492.92929292929296 L478.87246273294164,484.8484848484849 L477.36591441060426,476.7676767676768 L475.2581345379033,468.6868686868687 L472.58303808201345,460.6060606060606 L469.3836683463013,452.52525252525254 L465.71150438746156,444.44444444444446 L461.6256326982239,436.3636363636364 L457.19179648356686,428.2828282828283 L452.4813378279395,420.2020202020202 L447.5700497744164,412.1212121212121 L442.5369567862626,404.04040404040404 L437.4630432137374,395.95959595959596 L432.42995022558364,387.8787878787879 L427.51866217206054,379.79797979797985 L422.80820351643314,371.71717171717177 L418.3743673017761,363.6363636363637 L414.28849561253844,355.5555555555556 L410.6163316536987,347.4747474747475 L407.4169619179866,339.39393939393943 L404.7418654620967,331.31313131313135 L402.63408558939574,323.23232323232327 L401.12753726705836,315.1515151515152 L400.24646142154984,307.0707070707071 L400.005034893045,298.989898989899 L400.4071423247627,290.90909090909093 L401.44631365760233,282.82828282828285 L403.1058282358167,274.74747474747477 L405.3589838486224,266.6666666666667 L408.1695263787667,258.5858585858586 L411.4922331448455,250.50505050505052 L415.2736405511758,242.42424242424244 L419.4529043370637,234.34343434343435 L423.9627785837355,226.26262626262627 L428.73069772634284,218.1818181818182 L433.679944161066,210.1010101010101 L438.73088266007727,202.02020202020202 L443.8022417321673,193.93939393939394 L448.8124213114616,185.85858585858588 L453.6808057330267,177.7777777777778 L458.3290608690964,169.69696969696972 L462.68239455451084,161.61616161616163 L466.67076002065164,153.53535353535355 L470.22998297417035,145.45454545454547 L473.30279418539084,137.37373737373738 L475.8397509716534,129.2929292929293 L477.8000327485868,121.21212121212122 L479.15209784859115,113.13131313131314 L479.8741910380777,105.05050505050505 L479.9546935673203,96.96969696969697 L479.39231012048833,88.8888888888889 L478.19608965776297,80.80808080808082 L476.38527981418076,72.72727272727273 L473.98901719798056,64.64646464646465 L471.0458585716703,56.56565656565657 L467.6031604592845,48.484848484848484 L463.71631716218565,40.40404040404041 L459.44786944401875,32.323232323232325 L454.8664982264131,24.242424242424242 L450.04591948724317,16.161616161616163 L445.06369814295,8.080808080808081 L440.0,0.0 Z" fill="#1c1c1c" stroke="none" /><path d="M480.0,0.0 L485.06369814295,8.080808080808081 L490.04591948724317,16.161616161616163 L494.8664982264131,24.242424242424242 L499.44786944401875,32.323232323232325 L503.71631716218565,40.40404040404041 L507.6031604592845,48.484848484848484 L511.0458585716703,56.56565656565657 L513.9890171979806,64.64646464646465 L516.3852798141808,72.72727272727273 L518.196089657763,80.80808080808082 L519.3923101204883,88.8888888888889 L519.9546935673203,96.96969696969697 L519.8741910380777,105.05050505050505 L519.1520978485911,113.13131313131314 L517.8000327485868,121.21212121212122 L515.8397509716534,129.2929292929293 L513.3027941853909,137.37373737373738 L510.22998297417035,145.45454545454547 L506.67076002065164,153.53535353535355 L502.68239455451084,161.61616161616163 L498.3290608690964,169.69696969696972 L493.6808057330267,177.7777777777778 L488.8124213114616,185.85858585858588 L483.8022417321673,193.93939393939394 L478.73088266007727,202.02020202020202 L473.679944161066,210.1010101010101 L468.73069772634284,218.1818181818182 L463.9627785837355,226.26262626262627 L459.4529043370637,234.34343434343435 L455.2736405511758,242.42424242424244 L451.4922331448455,250.50505050505052 L448.1695263787667,258.5858585858586 L445.3589838486224,266.6666666666667 L443.1058282358167,274.74747474747477 L441.44631365760233,282.82828282828285 L440.4071423247627,290.90909090909093 L440.005034893045,298.989898989899 L440.24646142154984,307.0707070707071 L441.12753726705836,315.1515151515152 L442.63408558939574,323.23232323232327 L444.7418654620967,331.31313131313135 L447.4169619179866,339.39393939393943 L450.6163316536987,347.4747474747475 L454.28849561253844,355.5555555555556 L458.3743673017761,363.6363636363637 L462.80820351643314,371.71717171717177 L467.51866217206054,379.79797979797985 L472.42995022558364,387.8787878787879 L477.4630432137374,395.95959595959596 L482.5369567862626,404.04040404040404 L487.5700497744164,412.1212121212121 L492.4813378279395,420.2020202020202 L497.19179648356686,428.2828282828283 L501.6256326982239,436.3636363636364 L505.71150438746156,444.44444444444446 L509.3836683463013,452.52525252525254 L512.5830380820134,460.6060606060606 L515.2581345379033,468.6868686868687 L517.3659144106043,476.7676767676768 L518.8724627329417,484.8484848484849 L519.7535385784502,492.92929292929296 L519.994965106955,501.01010101010104 L519.5928576752373,509.0909090909091 L518.5536863423977,517.1717171717172 L516.8941717641833,525.2525252525253 L514.6410161513775,533.3333333333334 L511.8304736212333,541.4141414141415 L508.5077668551545,549.4949494949495 L504.7263594488242,557.5757575757576 L500.5470956629362,565.6565656565657 L496.0372214162645,573.7373737373738 L491.2693022736572,581.8181818181819 L486.320055838934,589.89898989899 L481.2691173399227,597.979797979798 L476.1977582678327,606.0606060606061 L471.18757868853834,614.1414141414142 L466.3191942669732,622.2222222222223 L461.67093913090355,630.3030303030304 L457.3176054454891,638.3838383838385 L453.3292399793483,646.4646464646465 L449.77001702582965,654.5454545454546 L446.6972058146091,662.6262626262627 L444.1602490283466,670.7070707070708 L442.1999672514132,678.7878787878789 L440.84790215140885,686.868686868687 L440.1258089619223,694.949494949495 L440.0453064326797,703.0303030303031 L440.60768987951167,711.1111111111112 L441.80391034223703,719.1919191919193 L443.61472018581924,727.2727272727274 L446.01098280201944,735.3535353535354 L448.95414142832976,743.4343434343435 L452.3968395407155,751.5151515151516 L456.28368283781435,759.5959595959597 L460.55213055598125,767.6767676767678 L465.13350177358694,775.7575757575758 L469.95408051275683,783.8383838383838 L474.93630185705,791.9191919191919 L480.0,800.0 L520.0,800.0 L514.93630185705,791.9191919191919 L509.95408051275683,783.8383838383838 L505.13350177358694,775.7575757575758 L500.55213055598125,767.6767676767678 L496.28368283781435,759.5959595959597 L492.3968395407155,751.5151515151516 L488.95414142832976,743.4343434343435 L486.01098280201944,735.3535353535354 L483.61472018581924,727.2727272727274 L481.80391034223703,719.1919191919193 L480.60768987951167,711.1111111111112 L480.0453064326797,703.0303030303031 L480.1258089619223,694.949494949495 L480.84790215140885,686.868686868687 L482.1999672514132,678.7878787878789 L484.1602490283466,670.7070707070708 L486.6972058146091,662.6262626262627 L489.77001702582965,654.5454545454546 L493.3292399793483,646.4646464646465 L497.3176054454891,638.3838383838385 L501.67093913090355,630.3030303030304 L506.3191942669732,622.2222222222223 L511.18757868853834,614.1414141414142 L516.1977582678327,606.0606060606061 L521.2691173399227,597.979797979798 L526.320055838934,589.89898989899 L531.2693022736572,581.8181818181819 L536.0372214162645,573.7373737373738 L540.5470956629363,565.6565656565657 L544.7263594488243,557.5757575757576 L548.5077668551545,549.4949494949495 L551.8304736212333,541.4141414141415 L554.6410161513775,533.3333333333334 L556.8941717641833,525.2525252525253 L558.5536863423977,517.1717171717172 L559.5928576752373,509.0909090909091 L559.994965106955,501.01010101010104 L559.7535385784502,492.92929292929296 L558.8724627329417,484.8484848484849 L557.3659144106043,476.7676767676768 L555.2581345379033,468.6868686868687 L552.5830380820134,460.6060606060606 L549.3836683463013,452.52525252525254 L545.7115043874616,444.44444444444446 L541.6256326982239,436.3636363636364 L537.1917964835668,428.2828282828283 L532.4813378279396,420.2020202020202 L527.5700497744165,412.1212121212121 L522.5369567862626,404.04040404040404 L517.4630432137374,395.95959595959596 L512.4299502255836,387.8787878787879 L507.51866217206054,379.79797979797985 L502.80820351643314,371.71717171717177 L498.3743673017761,363.6363636363637 L494.28849561253844,355.5555555555556 L490.6163316536987,347.4747474747475 L487.4169619179866,339.39393939393943 L484.7418654620967,331.31313131313135 L482.63408558939574,323.23232323232327 L481.12753726705836,315.1515151515152 L480.24646142154984,307.0707070707071 L480.005034893045,298.989898989899 L480.4071423247627,290.90909090909093 L481.44631365760233,282.82828282828285 L483.1058282358167,274.74747474747477 L485.3589838486224,266.6666666666667 L488.1695263787667,258.5858585858586 L491.4922331448455,250.50505050505052 L495.2736405511758,242.42424242424244 L499.4529043370637,234.34343434343435 L503.9627785837355,226.26262626262627 L508.73069772634284,218.1818181818182 L513.679944161066,210.1010101010101 L518.7308826600772,202.02020202020202 L523.8022417321673,193.93939393939394 L528.8124213114615,185.85858585858588 L533.6808057330268,177.7777777777778 L538.3290608690963,169.69696969696972 L542.6823945545109,161.61616161616163 L546.6707600206516,153.53535353535355 L550.2299829741703,145.45454545454547 L553.3027941853909,137.37373737373738 L555.8397509716534,129.2929292929293 L557.8000327485868,121.21212121212122 L559.1520978485911,113.13131313131314 L559.8741910380777,105.05050505050505 L559.9546935673203,96.96969696969697 L559.3923101204883,88.8888888888889 L558.196089657763,80.80808080808082 L556.3852798141808,72.72727272727273 L553.9890171979806,64.64646464646465 L551.0458585716704,56.56565656565657 L547.6031604592845,48.484848484848484 L543.7163171621856,40.40404040404041 L539.4478694440188,32.323232323232325 L534.8664982264131,24.242424242424242 L530.0459194872432,16.161616161616163 L525.06369814295,8.080808080808081 L520.0,0.0 Z" fill="#4d4d4d" stroke="none" /><path d="M560.0,0.0 L565.06369814295,8.080808080808081 L570.0459194872432,16.161616161616163 L574.8664982264131,24.242424242424242 L579.4478694440188,32.323232323232325 L583.7163171621856,40.40404040404041 L587.6031604592845,48.484848484848484 L591.0458585716702,56.56565656565657 L593.9890171979806,64.64646464646465 L596.3852798141808,72.72727272727273 L598.196089657763,80.80808080808082 L599.3923101204883,88.8888888888889 L599.9546935673203,96.96969696969697 L599.8741910380777,105.05050505050505 L599.1520978485911,113.13131313131314 L597.8000327485868,121.21212121212122 L595.8397509716534,129.2929292929293 L593.3027941853909,137.37373737373738 L590.2299829741703,145.45454545454547 L586.6707600206516,153.53535353535355 L582.6823945545108,161.61616161616163 L578.3290608690965,169.69696969696972 L573.6808057330268,177.7777777777778 L568.8124213114617,185.85858585858588 L563.8022417321673,193.93939393939394 L558.7308826600773,202.02020202020202 L553.679944161066,210.1010101010101 L548.7306977263428,218.1818181818182 L543.9627785837355,226.26262626262627 L539.4529043370637,234.34343434343435 L535.2736405511758,242.42424242424244 L531.4922331448455,250.50505050505052 L528.1695263787667,258.5858585858586 L525.3589838486224,266.6666666666667 L523.1058282358167,274.74747474747477 L521.4463136576023,282.82828282828285 L520.4071423247627,290.90909090909093 L520.005034893045,298.989898989899 L520.2464614215498,307.0707070707071 L521.1275372670583,315.1515151515152 L522.6340855893958,323.23232323232327 L524.7418654620967,331.31313131313135 L527.4169619179866,339.39393939393943 L530.6163316536987,347.4747474747475 L534.2884956125384,355.5555555555556 L538.3743673017761,363.6363636363637 L542.8082035164332,371.71717171717177 L547.5186621720605,379.79797979797985 L552.4299502255836,387.8787878787879 L557.4630432137374,395.95959595959596 L562.5369567862626,404.04040404040404 L567.5700497744164,412.1212121212121 L572.4813378279395,420.2020202020202 L577.1917964835668,428.2828282828283 L581.6256326982239,436.3636363636364 L585.7115043874616,444.44444444444446 L589.3836683463013,452.52525252525254 L592.5830380820134,460.6060606060606 L595.2581345379033,468.6868686868687 L597.3659144106043,476.7676767676768 L598.8724627329417,484.8484848484849 L599.7535385784502,492.92929292929296 L599.994965106955,501.01010101010104 L599.5928576752373,509.0909090909091 L598.5536863423977,517.1717171717172 L596.8941717641833,525.2525252525253 L594.6410161513775,533.3333333333334 L591.8304736212333,541.4141414141415 L588.5077668551545,549.4949494949495 L584.7263594488243,557.5757575757576 L580.5470956629363,565.6565656565657 L576.0372214162645,573.7373737373738 L571.2693022736572,581.8181818181819 L566.320055838934,589.89898989899 L561.2691173399227,597.979797979798 L556.1977582678327,606.0606060606061 L551.1875786885383,614.1414141414142 L546.3191942669732,622.2222222222223 L541.6709391309035,630.3030303030304 L537.3176054454891,638.3838383838385 L533.3292399793482,646.4646464646465 L529.7700170258297,654.5454545454546 L526.6972058146091,662.6262626262627 L524.1602490283466,670.7070707070708 L522.1999672514132,678.7878787878789 L520.8479021514088,686.868686868687 L520.1258089619223,694.949494949495 L520.0453064326797,703.0303030303031 L520.6076898795117,711.1111111111112 L521.803910342237,719.1919191919193 L523.6147201858192,727.2727272727274 L526.0109828020194,735.3535353535354 L528.9541414283298,743.4343434343435 L532.3968395407155,751.5151515151516 L536.2836828378144,759.5959595959597 L540.5521305559812,767.6767676767678 L545.1335017735869,775.7575757575758 L549.9540805127568,783.8383838383838 L554.93630185705,791.9191919191919 L560.0,800.0 L600.0,800.0 L594.93630185705,791.9191919191919 L589.9540805127568,783.8383838383838 L585.1335017735869,775.7575757575758 L580.5521305559812,767.6767676767678 L576.2836828378144,759.5959595959597 L572.3968395407155,751.5151515151516 L568.9541414283298,743.4343434343435 L566.0109828020194,735.3535353535354 L563.6147201858192,727.2727272727274 L561.803910342237,719.1919191919193 L560.6076898795117,711.1111111111112 L560.0453064326797,703.0303030303031 L560.1258089619223,694.949494949495 L560.8479021514088,686.868686868687 L562.1999672514132,678.7878787878789 L564.1602490283466,670.7070707070708 L566.6972058146091,662.6262626262627 L569.7700170258297,654.5454545454546 L573.3292399793482,646.4646464646465 L577.3176054454891,638.3838383838385 L581.6709391309035,630.3030303030304 L586.3191942669732,622.2222222222223 L591.1875786885383,614.1414141414142 L596.1977582678327,606.0606060606061 L601.2691173399227,597.979797979798 L606.320055838934,589.89898989899 L611.2693022736572,581.8181818181819 L616.0372214162645,573.7373737373738 L620.5470956629363,565.6565656565657 L624.7263594488243,557.5757575757576 L628.5077668551545,549.4949494949495 L631.8304736212333,541.4141414141415 L634.6410161513775,533.3333333333334 L636.8941717641833,525.2525252525253 L638.5536863423977,517.1717171717172 L639.5928576752373,509.0909090909091 L639.994965106955,501.01010101010104 L639.7535385784502,492.92929292929296 L638.8724627329417,484.8484848484849 L637.3659144106043,476.7676767676768 L635.2581345379033,468.6868686868687 L632.5830380820134,460.6060606060606 L629.3836683463013,452.52525252525254 L625.7115043874616,444.44444444444446 L621.6256326982239,436.3636363636364 L617.1917964835668,428.2828282828283 L612.4813378279395,420.2020202020202 L607.5700497744164,412.1212121212121 L602.5369567862626,404.04040404040404 L597.4630432137374,395.95959595959596 L592.4299502255836,387.8787878787879 L587.5186621720605,379.79797979797985 L582.8082035164332,371.71717171717177 L578.3743673017761,363.6363636363637 L574.2884956125384,355.5555555555556 L570.6163316536987,347.4747474747475 L567.4169619179866,339.39393939393943 L564.7418654620967,331.31313131313135 L562.6340855893958,323.23232323232327 L561.1275372670583,315.1515151515152 L560.2464614215498,307.0707070707071 L560.005034893045,298.989898989899 L560.4071423247627,290.90909090909093 L561.4463136576023,282.82828282828285 L563.1058282358167,274.74747474747477 L565.3589838486224,266.6666666666667 L568.1695263787667,258.5858585858586 L571.4922331448455,250.50505050505052 L575.2736405511758,242.42424242424244 L579.4529043370637,234.34343434343435 L583.9627785837355,226.26262626262627 L588.7306977263428,218.1818181818182 L593.679944161066,210.1010101010101 L598.7308826600773,202.02020202020202 L603.8022417321673,193.93939393939394 L608.8124213114617,185.85858585858588 L613.6808057330268,177.7777777777778 L618.3290608690965,169.69696969696972 L622.6823945545108,161.61616161616163 L626.6707600206516,153.53535353535355 L630.2299829741703,145.45454545454547 L633.3027941853909,137.37373737373738 L635.8397509716534,129.2929292929293 L637.8000327485868,121.21212121212122 L639.1520978485911,113.13131313131314 L639.8741910380777,105.05050505050505 L639.9546935673203,96.96969696969697 L639.3923101204883,88.8888888888889 L638.196089657763,80.80808080808082 L636.3852798141808,72.72727272727273 L633.9890171979806,64.64646464646465 L631.0458585716702,56.56565656565657 L627.6031604592845,48.484848484848484 L623.7163171621856,40.40404040404041 L619.4478694440188,32.323232323232325 L614.8664982264131,24.242424242424242 L610.0459194872432,16.161616161616163 L605.06369814295,8.080808080808081 L600.0,0.0 Z" fill="#7f7f7f" stroke="none" /><path d="M640.0,0.0 L645.06369814295,8.080808080808081 L650.0459194872432,16.161616161616163 L654.8664982264131,24.242424242424242 L659.4478694440188,32.323232323232325 L663.7163171621856,40.40404040404041 L667.6031604592845,48.484848484848484 L671.0458585716702,56.56565656565657 L673.9890171979806,64.64646464646465 L676.3852798141808,72.72727272727273 L678.196089657763,80.80808080808082 L679.3923101204883,88.8888888888889 L679.9546935673203,96.96969696969697 L679.8741910380777,105.05050505050505 L679.1520978485911,113.13131313131314 L677.8000327485868,121.21212121212122 L675.8397509716534,129.2929292929293 L673.3027941853909,137.37373737373738 L670.2299829741703,145.45454545454547 L666.6707600206516,153.53535353535355 L662.6823945545108,161.61616161616163 L658.3290608690965,169.69696969696972 L653.6808057330268,177.7777777777778 L648.8124213114617,185.85858585858588 L643.8022417321673,193.93939393939394 L638.7308826600773,202.02020202020202 L633.679944161066,210.1010101010101 L628.7306977263428,218.1818181818182 L623.9627785837355,226.26262626262627 L619.4529043370637,234.34343434343435 L615.2736405511758,242.42424242424244 L611.4922331448455,250.50505050505052 L608.1695263787667,258.5858585858586 L605.3589838486224,266.6666666666667 L603.1058282358167,274.74747474747477 L601.4463136576023,282.82828282828285 L600.4071423247627,290.90909090909093 L600.005034893045,298.989898989899 L600.2464614215498,307.0707070707071 L601.1275372670583,315.1515151515152 L602.6340855893958,323.23232323232327 L604.7418654620967,331.31313131313135 L607.4169619179866,339.39393939393943 L610.6163316536987,347.4747474747475 L614.2884956125384,355.5555555555556 L618.3743673017761,363.6363636363637 L622.8082035164332,371.71717171717177 L627.5186621720605,379.79797979797985 L632.4299502255836,387.8787878787879 L637.4630432137374,395.95959595959596 L642.5369567862626,404.04040404040404 L647.5700497744164,412.1212121212121 L652.4813378279395,420.2020202020202 L657.1917964835668,428.2828282828283 L661.6256326982239,436.3636363636364 L665.7115043874616,444.44444444444446 L669.3836683463013,452.52525252525254 L672.5830380820134,460.6060606060606 L675.2581345379033,468.6868686868687 L677.3659144106043,476.7676767676768 L678.8724627329417,484.8484848484849 L679.7535385784502,492.92929292929296 L679.994965106955,501.01010101010104 L679.5928576752373,509.0909090909091 L678.5536863423977,517.1717171717172 L676.8941717641833,525.2525252525253 L674.6410161513775,533.3333333333334 L671.8304736212333,541.4141414141415 L668.5077668551545,549.4949494949495 L664.7263594488243,557.5757575757576 L660.5470956629363,565.6565656565657 L656.0372214162645,573.7373737373738 L651.2693022736572,581.8181818181819 L646.320055838934,589.89898989899 L641.2691173399227,597.979797979798 L636.1977582678327,606.0606060606061 L631.1875786885383,614.1414141414142 L626.3191942669732,622.2222222222223 L621.6709391309035,630.3030303030304 L617.3176054454891,638.3838383838385 L613.3292399793482,646.4646464646465 L609.7700170258297,654.5454545454546 L606.6972058146091,662.6262626262627 L604.1602490283466,670.7070707070708 L602.1999672514132,678.7878787878789 L600.8479021514088,686.868686868687 L600.1258089619223,694.949494949495 L600.0453064326797,703.0303030303031 L600.6076898795117,711.1111111111112 L601.803910342237,719.1919191919193 L603.6147201858192,727.2727272727274 L606.0109828020194,735.3535353535354 L608.9541414283298,743.4343434343435 L612.3968395407155,751.5151515151516 L616.2836828378144,759.5959595959597 L620.5521305559812,767.6767676767678 L625.1335017735869,775.7575757575758 L629.9540805127568,783.8383838383838 L634.93630185705,791.9191919191919 L640.0,800.0 L680.0,800.0 L674.93630185705,791.9191919191919 L669.9540805127568,783.8383838383838 L665.1335017735869,775.7575757575758 L660.5521305559812,767.6767676767678 L656.2836828378144,759.5959595959597 L652.3968395407155,751.5151515151516 L648.9541414283298,743.4343434343435 L646.0109828020194,735.3535353535354 L643.6147201858192,727.2727272727274 L641.803910342237,719.1919191919193 L640.6076898795117,711.1111111111112 L640.0453064326797,703.0303030303031 L640.1258089619223,694.949494949495 L640.8479021514088,686.868686868687 L642.1999672514132,678.7878787878789 L644.1602490283466,670.7070707070708 L646.6972058146091,662.6262626262627 L649.7700170258297,654.5454545454546 L653.3292399793482,646.4646464646465 L657.3176054454891,638.3838383838385 L661.6709391309035,630.3030303030304 L666.3191942669732,622.2222222222223 L671.1875786885383,614.1414141414142 L676.1977582678327,606.0606060606061 L681.2691173399227,597.979797979798 L686.320055838934,589.89898989899 L691.2693022736572,581.8181818181819 L696.0372214162645,573.7373737373738 L700.5470956629363,565.6565656565657 L704.7263594488243,557.5757575757576 L708.5077668551545,549.4949494949495 L711.8304736212333,541.4141414141415 L714.6410161513775,533.3333333333334 L716.8941717641833,525.2525252525253 L718.5536863423977,517.1717171717172 L719.5928576752373,509.0909090909091 L719.994965106955,501.01010101010104 L719.7535385784502,492.92929292929296 L718.8724627329417,484.8484848484849 L717.3659144106043,476.7676767676768 L715.2581345379033,468.6868686868687 L712.5830380820134,460.6060606060606 L709.3836683463013,452.52525252525254 L705.7115043874616,444.44444444444446 L701.6256326982239,436.3636363636364 L697.1917964835668,428.2828282828283 L692.4813378279395,420.2020202020202 L687.5700497744164,412.1212121212121 L682.5369567862626,404.04040404040404 L677.4630432137374,395.95959595959596 L672.4299502255836,387.8787878787879 L667.5186621720605,379.79797979797985 L662.8082035164332,371.71717171717177 L658.3743673017761,363.6363636363637 L654.2884956125384,355.5555555555556 L650.6163316536987,347.4747474747475 L647.4169619179866,339.39393939393943 L644.7418654620967,331.31313131313135 L642.6340855893958,323.23232323232327 L641.1275372670583,315.1515151515152 L640.2464614215498,307.0707070707071 L640.005034893045,298.989898989899 L640.4071423247627,290.90909090909093 L641.4463136576023,282.82828282828285 L643.1058282358167,274.74747474747477 L645.3589838486224,266.6666666666667 L648.1695263787667,258.5858585858586 L651.4922331448455,250.50505050505052 L655.2736405511758,242.42424242424244 L659.4529043370637,234.34343434343435 L663.9627785837355,226.26262626262627 L668.7306977263428,218.1818181818182 L673.679944161066,210.1010101010101 L678.7308826600773,202.02020202020202 L683.8022417321673,193.93939393939394 L688.8124213114617,185.85858585858588 L693.6808057330268,177.7777777777778 L698.3290608690965,169.69696969696972 L702.6823945545108,161.61616161616163 L706.6707600206516,153.53535353535355 L710.2299829741703,145.45454545454547 L713.3027941853909,137.37373737373738 L715.8397509716534,129.2929292929293 L717.8000327485868,121.21212121212122 L719.1520978485911,113.13131313131314 L719.8741910380777,105.05050505050505 L719.9546935673203,96.96969696969697 L719.3923101204883,88.8888888888889 L718.196089657763,80.80808080808082 L716.3852798141808,72.72727272727273 L713.9890171979806,64.64646464646465 L711.0458585716702,56.56565656565657 L707.6031604592845,48.484848484848484 L703.7163171621856,40.40404040404041 L699.4478694440188,32.323232323232325 L694.8664982264131,24.242424242424242 L690.0459194872432,16.161616161616163 L685.06369814295,8.080808080808081 L680.0,0.0 Z" fill="#b2b2b2" stroke="none" /><path d="M720.0,0.0 L725.06369814295,8.080808080808081 L730.0459194872432,16.161616161616163 L734.8664982264131,24.242424242424242 L739.4478694440188,32.323232323232325 L743.7163171621856,40.40404040404041 L747.6031604592845,48.484848484848484 L751.0458585716702,56.56565656565657 L753.9890171979806,64.64646464646465 L756.3852798141808,72.72727272727273 L758.196089657763,80.80808080808082 L759.3923101204883,88.8888888888889 L759.9546935673203,96.96969696969697 L759.8741910380777,105.05050505050505 L759.1520978485911,113.13131313131314 L757.8000327485868,121.21212121212122 L755.8397509716534,129.2929292929293 L753.3027941853909,137.37373737373738 L750.2299829741703,145.45454545454547 L746.6707600206516,153.53535353535355 L742.6823945545108,161.61616161616163 L738.3290608690965,169.69696969696972 L733.6808057330268,177.7777777777778 L728.8124213114617,185.85858585858588 L723.8022417321673,193.93939393939394 L718.7308826600773,202.02020202020202 L713.679944161066,210.1010101010101 L708.7306977263428,218.1818181818182 L703.9627785837355,226.26262626262627 L699.4529043370637,234.34343434343435 L695.2736405511758,242.42424242424244 L691.4922331448455,250.50505050505052 L688.1695263787667,258.5858585858586 L685.3589838486224,266.6666666666667 L683.1058282358167,274.74747474747477 L681.4463136576023,282.82828282828285 L680.4071423247627,290.90909090909093 L680.005034893045,298.989898989899 L680.2464614215498,307.0707070707071 L681.1275372670583,315.1515151515152 L682.6340855893958,323.23232323232327 L684.7418654620967,331.31313131313135 L687.4169619179866,339.39393939393943 L690.6163316536987,347.4747474747475 L694.2884956125384,355.5555555555556 L698.3743673017761,363.6363636363637 L702.8082035164332,371.71717171717177 L707.5186621720605,379.79797979797985 L712.4299502255836,387.8787878787879 L717.4630432137374,395.95959595959596 L722.5369567862626,404.04040404040404 L727.5700497744164,412.1212121212121 L732.4813378279395,420.2020202020202 L737.1917964835668,428.2828282828283 L741.6256326982239,436.3636363636364 L745.7115043874616,444.44444444444446 L749.3836683463013,452.52525252525254 L752.5830380820134,460.6060606060606 L755.2581345379033,468.6868686868687 L757.3659144106043,476.7676767676768 L758.8724627329417,484.8484848484849 L759.7535385784502,492.92929292929296 L759.994965106955,501.01010101010104 L759.5928576752373,509.0909090909091 L758.5536863423977,517.1717171717172 L756.8941717641833,525.2525252525253 L754.6410161513775,533.3333333333334 L751.8304736212333,541.4141414141415 L748.5077668551545,549.4949494949495 L744.7263594488243,557.5757575757576 L740.5470956629363,565.6565656565657 L736.0372214162645,573.7373737373738 L731.2693022736572,581.8181818181819 L726.320055838934,589.89898989899 L721.2691173399227,597.979797979798 L716.1977582678327,606.0606060606061 L711.1875786885383,614.1414141414142 L706.3191942669732,622.2222222222223 L701.6709391309035,630.3030303030304 L697.3176054454891,638.3838383838385 L693.3292399793482,646.4646464646465 L689.7700170258297,654.5454545454546 L686.6972058146091,662.6262626262627 L684.1602490283466,670.7070707070708 L682.1999672514132,678.7878787878789 L680.8479021514088,686.868686868687 L680.1258089619223,694.949494949495 L680.0453064326797,703.0303030303031 L680.6076898795117,711.1111111111112 L681.803910342237,719.1919191919193 L683.6147201858192,727.2727272727274 L686.0109828020194,735.3535353535354 L688.9541414283298,743.4343434343435 L692.3968395407155,751.5151515151516 L696.2836828378144,759.5959595959597 L700.5521305559812,767.6767676767678 L705.1335017735869,775.7575757575758 L709.9540805127568,783.8383838383838 L714.93630185705,791.9191919191919 L720.0,800.0 L760.0,800.0 L754.93630185705,791.9191919191919 L749.9540805127568,783.8383838383838 L745.1335017735869,775.7575757575758 L740.5521305559812,767.6767676767678 L736.2836828378144,759.5959595959597 L732.3968395407155,751.5151515151516 L728.9541414283298,743.4343434343435 L726.0109828020194,735.3535353535354 L723.6147201858192,727.2727272727274 L721.803910342237,719.1919191919193 L720.6076898795117,711.1111111111112 L720.0453064326797,703.0303030303031 L720.1258089619223,694.949494949495 L720.8479021514088,686.868686868687 L722.1999672514132,678.7878787878789 L724.1602490283466,670.7070707070708 L726.6972058146091,662.6262626262627 L729.7700170258297,654.5454545454546 L733.3292399793482,646.4646464646465 L737.3176054454891,638.3838383838385 L741.6709391309035,630.3030303030304 L746.3191942669732,622.2222222222223 L751.1875786885383,614.1414141414142 L756.1977582678327,606.0606060606061 L761.2691173399227,597.979797979798 L766.320055838934,589.89898989899 L771.2693022736572,581.8181818181819 L776.0372214162645,573.7373737373738 L780.5470956629363,565.6565656565657 L784.7263594488243,557.5757575757576 L788.5077668551545,549.4949494949495 L791.8304736212333,541.4141414141415 L794.6410161513775,533.3333333333334 L796.8941717641833,525.2525252525253 L798.5536863423977,517.1717171717172 L799.5928576752373,509.0909090909091 L799.994965106955,501.01010101010104 L799.7535385784502,492.92929292929296 L798.8724627329417,484.8484848484849 L797.3659144106043,476.7676767676768 L795.2581345379033,468.6868686868687 L792.5830380820134,460.6060606060606 L789.3836683463013,452.52525252525254 L785.7115043874616,444.44444444444446 L781.6256326982239,436.3636363636364 L777.1917964835668,428.2828282828283 L772.4813378279395,420.2020202020202 L767.5700497744164,412.1212121212121 L762.5369567862626,404.04040404040404 L757.4630432137374,395.95959595959596 L752.4299502255836,387.8787878787879 L747.5186621720605,379.79797979797985 L742.8082035164332,371.71717171717177 L738.3743673017761,363.6363636363637 L734.2884956125384,355.5555555555556 L730.6163316536987,347.4747474747475 L727.4169619179866,339.39393939393943 L724.7418654620967,331.31313131313135 L722.6340855893958,323.23232323232327 L721.1275372670583,315.1515151515152 L720.2464614215498,307.0707070707071 L720.005034893045,298.989898989899 L720.4071423247627,290.90909090909093 L721.4463136576023,282.82828282828285 L723.1058282358167,274.74747474747477 L725.3589838486224,266.6666666666667 L728.1695263787667,258.5858585858586 L731.4922331448455,250.50505050505052 L735.2736405511758,242.42424242424244 L739.4529043370637,234.34343434343435 L743.9627785837355,226.26262626262627 L748.7306977263428,218.1818181818182 L753.679944161066,210.1010101010101 L758.7308826600773,202.02020202020202 L763.8022417321673,193.93939393939394 L768.8124213114617,185.85858585858588 L773.6808057330268,177.7777777777778 L778.3290608690965,169.69696969696972 L782.6823945545108,161.61616161616163 L786.6707600206516,153.53535353535355 L790.2299829741703,145.45454545454547 L793.3027941853909,137.37373737373738 L795.8397509716534,129.2929292929293 L797.8000327485868,121.21212121212122 L799.1520978485911,113.13131313131314 L799.8741910380777,105.05050505050505 L799.9546935673203,96.96969696969697 L799.3923101204883,88.8888888888889 L798.196089657763,80.80808080808082 L796.3852798141808,72.72727272727273 L793.9890171979806,64.64646464646465 L791.0458585716702,56.56565656565657 L787.6031604592845,48.484848484848484 L783.7163171621856,40.40404040404041 L779.4478694440188,32.323232323232325 L774.8664982264131,24.242424242424242 L770.0459194872432,16.161616161616163 L765.06369814295,8.080808080808081 L760.0,0.0 Z" fill="#e6e6e6" stroke="none" /></svg>