<?xml version="1.0" encoding="utf-8" ?>
<svg baseProfile="tiny" height="240" version="1.2" width="1000" xmlns="http://www.w3.org/2000/svg" xmlns:ev="http://www.w3.org/2001/xml-events" xmlns:xlink="http://www.w3.org/1999/xlink"><defs /><rect fill="black" height="20" width="10.0" x="0" y="0" /><rect fill="white" height="20" width="10.9993" x="10.0" y="0" /><rect fill="black" height="20" width="11.9461" x="20.9993" y="0" /><rect fill="white" height="20" width="12.8402" x="32.9454" y="0" /><rect fill="black" height="20" width="13.6818" x="45.7857" y="0" /><rect fill="white" height="20" width="14.4707" x="59.4675" y="0" /><rect fill="black" height="20" width="15.2071" x="73.9382" y="0" /><rect fill="white" height="20" width="15.8909" x="89.1453" y="0" /><rect fill="black" height="20" width="16.522" x="105.0362" y="0" /><rect fill="white" height="20" width="17.1006" x="121.5582" y="0" /><rect fill="black" height="20" width="17.6266" x="138.6588" y="0" /><rect fill="white" height="20" width="18.0999" x="156.2853" y="0" /><rect fill="black" height="20" width="18.5207" x="174.3853" y="0" /><rect fill="white" height="20" width="18.8889" x="192.906" y="0" /><rect fill="black" height="20" width="19.2045" x="211.7949" y="0" /><rect fill="white" height="20" width="19.4675" x="230.9993" y="0" /><rect fill="black" height="20" width="19.6778" x="250.4668" y="0" /><rect fill="white" height="20" width="19.8356" x="270.1446" y="0" /><rect fill="black" height="20" width="19.9408" x="289.9803" y="0" /><rect fill="white" height="20" width="19.9934" x="309.9211" y="0" /><rect fill="black" height="20" width="19.9934" x="329.9145" y="0" /><rect fill="white" height="20" width="19.9408" x="349.908" y="0" /><rect fill="black" height="20" width="19.8356" x="369.8488" y="0" /><rect fill="white" height="20" width="19.6778" x="389.6844" y="0" /><rect fill="black" height="20" width="19.4675" x="409.3623" y="0" /><rect fill="white" height="20" width="19.2045" x="428.8297" y="0" /><rect fill="black" height="20" width="18.8889" x="448.0342" y="0" /><rect fill="white" height="20" width="18.5207" x="466.9231" y="0" /><rect fill="black" height="20" width="18.0999" x="485.4438" y="0" /><rect fill="white" height="20" width="17.6266" x="503.5437" y="0" /><rect fill="black" height="20" width="17.1006" x="521.1703" y="0" /><rect fill="white" height="20" width="16.522" x="538.2709" y="0" /><rect fill="black" height="20" width="15.8909" x="554.7929" y="0" /><rect fill="white" height="20" width="15.2071" x="570.6838" y="0" /><rect fill="black" height="20" width="14.4707" x="585.8909" y="0" /><rect fill="white" height="20" width="13.6818" x="600.3616" y="0" /><rect fill="black" height="20" width="12.8402" x="614.0434" y="0" /><rect fill="white" height="20" width="11.9461" x="626.8836" y="0" /><rect fill="black" height="20" width="10.9993" x="638.8297" y="0" /><rect fill="white" height="20" width="10.0" x="649.8291" y="0" /><rect fill="white" height="20" width="10.0" x="0" y="20" /><rect fill="black" height="20" width="10.9993" x="10.0" y="20" /><rect fill="white" height="20" width="11.9461" x="20.9993" y="20" /><rect fill="black" height="20" width="12.8402" x="32.9454" y="20" /><rect fill="white" height="20" width="13.6818" x="45.7857" y="20" /><rect fill="black" height="20" width="14.4707" x="59.4675" y="20" /><rect fill="white" height="20" width="15.2071" x="73.9382" y="20" /><rect fill="black" height="20" width="15.8909" x="89.1453" y="20" /><rect fill="white" height="20" width="16.522" x="105.0362" y="20" /><rect fill="black" height="20" width="17.1006" x="121.5582" y="20" /><rect fill="white" height="20" width="17.6266" x="138.6588" y="20" /><rect fill="black" height="20" width="18.0999" x="156.2853" y="20" /><rect fill="white" height="20" width="18.5207" x="174.3853" y="20" /><rect fill="black" height="20" width="18.8889" x="192.906" y="20" /><rect fill="white" height="20" width="19.2045" x="211.7949" y="20" /><rect fill="black" height="20" width="19.4675" x="230.9993" y="20" /><rect fill="white" height="20" width="19.6778" x="250.4668" y="20" /><rect fill="black" height="20" width="19.8356" x="270.1446" y="20" /><rect fill="white" height="20" width="19.9408" x="289.9803" y="20" /><rect fill="black" height="20" width="19.9934" x="309.9211" y="20" /><rect fill="white" height="20" width="19.9934" x="329.9145" y="20" /><rect fill="black" height="20" width="19.9408" x="349.908" y="20" /><rect fill="white" height="20" width="19.8356" x="369.8488" y="20" /><rect fill="black" height="20" width="19.6778" x="389.6844" y="20" /><rect fill="white" height="20" width="19.4675" x="409.3623" y="20" /><rect fill="black" height="20" width="19.2045" x="428.8297" y="20" /><rect fill="white" height="20" width="18.8889" x="448.0342" y="20" /><rect fill="black" height="20" width="18.5207" x="466.9231" y="20" /><rect fill="white" height="20" width="18.0999" x="485.4438" y="20" /><rect fill="black" height="20" width="17.6266" x="503.5437" y="20" /><rect fill="white" height="20" width="17.1006" x="521.1703" y="20" /><rect fill="black" height="20" width="16.522" x="538.2709" y="20" /><rect fill="white" height="20" width="15.8909" x="554.7929" y="20" /><rect fill="black" height="20" width="15.2071" x="570.6838" y="20" /><rect fill="white" height="20" width="14.4707" x="585.8909" y="20" /><rect fill="black" height="20" width="13.6818" x="600.3616" y="20" /><rect fill="white" height="20" width="12.8402" x="614.0434" y="20" /><rect fill="black" height="20" width="11.9461" x="626.8836" y="20" /><rect fill="white" height="20" width="10.9993" x="638.8297" y="20" /><rect fill="black" height="20" width="10.0" x="649.8291" y="20" /><rect fill="black" height="20" width="10.0" x="0" y="40" /><rect fill="white" height="20" width="10.9993" x="10.0" y="40" /><rect fill="black" height="20" width="11.9461" x="20.9993" y="40" /><rect fill="white" height="20" width="12.8402" x="32.9454" y="40" /><rect fill="black" height="20" width="13.6818" x="45.7857" y="40" /><rect fill="white" height="20" width="14.4707" x="59.4675" y="40" /><rect fill="black" height="20" width="15.2071" x="73.9382" y="40" /><rect fill="white" height="20" width="15.8909" x="89.1453" y="40" /><rect fill="black" height="20" width="16.522" x="105.0362" y="40" /><rect fill="white" height="20" width="17.1006" x="121.5582" y="40" /><rect fill="black" height="20" width="17.6266" x="138.6588" y="40" /><rect fill="white" height="20" width="18.0999" x="156.2853" y="40" /><rect fill="black" height="20" width="18.5207" x="174.3853" y="40" /><rect fill="white" height="20" width="18.8889" x="192.906" y="40" /><rect fill="black" height="20" width="19.2045" x="211.7949" y="40" /><rect fill="white" height="20" width="19.4675" x="230.9993" y="40" /><rect fill="black" height="20" width="19.6778" x="250.4668" y="40" /><rect fill="white" height="20" width="19.8356" x="270.1446" y="40" /><rect fill="black" height="20" width="19.9408" x="289.9803" y="40" /><rect fill="white" height="20" width="19.9934" x="309.9211" y="40" /><rect fill="black" height="20" width="19.9934" x="329.9145" y="40" /><rect fill="white" height="20" width="19.9408" x="349.908" y="40" /><rect fill="black" height="20" width="19.8356" x="369.8488" y="40" /><rect fill="white" height="20" width="19.6778" x="389.6844" y="40" /><rect fill="black" height="20" width="19.4675" x="409.3623" y="40" /><rect fill="white" height="20" width="19.2045" x="428.8297" y="40" /><rect fill="black" height="20" width="18.8889" x="448.0342" y="40" /><rect fill="white" height="20" width="18.5207" x="466.9231" y="40" /><rect fill="black" height="20" width="18.0999" x="485.4438" y="40" /><rect fill="white" height="20" width="17.6266" x="503.5437" y="40" /><rect fill="black" height="20" width="17.1006" x="521.1703" y="40" /><rect fill="white" height="20" width="16.522" x="538.2709" y="40" /><rect fill="black" height="20" width="15.8909" x="554.7929" y="40" /><rect fill="white" height="20" width="15.2071" x="570.6838" y="40" /><rect fill="black" height="20" width="14.4707" x="585.8909" y="40" /><rect fill="white" height="20" width="13.6818" x="600.3616" y="40" /><rect fill="black" height="20" width="12.8402" x="614.0434" y="40" /><rect fill="white" height="20" width="11.9461" x="626.8836" y="40" /><rect fill="black" height="20" width="10.9993" x="638.8297" y="40" /><rect fill="white" height="20" width="10.0" x="649.8291" y="40" /><rect fill="white" height="20" width="10.0" x="0" y="60" /><rect fill="black" height="20" width="10.9993" x="10.0" y="60" /><rect fill="white" height="20" width="11.9461" x="20.9993" y="60" /><rect fill="black" height="20" width="12.8402" x="32.9454" y="60" /><rect fill="white" height="20" width="13.6818" x="45.7857" y="60" /><rect fill="black" height="20" width="14.4707" x="59.4675" y="60" /><rect fill="white" height="20" width="15.2071" x="73.9382" y="60" /><rect fill="black" height="20" width="15.8909" x="89.1453" y="60" /><rect fill="white" height="20" width="16.522" x="105.0362" y="60" /><rect fill="black" height="20" width="17.1006" x="121.5582" y="60" /><rect fill="white" height="20" width="17.6266" x="138.6588" y="60" /><rect fill="black" height="20" width="18.0999" x="156.2853" y="60" /><rect fill="white" height="20" width="18.5207" x="174.3853" y="60" /><rect fill="black" height="20" width="18.8889" x="192.906" y="60" /><rect fill="white" height="20" width="19.2045" x="211.7949" y="60" /><rect fill="black" height="20" width="19.4675" x="230.9993" y="60" /><rect fill="white" height="20" width="19.6778" x="250.4668" y="60" /><rect fill="black" height="20" width="19.8356" x="270.1446" y="60" /><rect fill="white" height="20" width="19.9408" x="289.9803" y="60" /><rect fill="black" height="20" width="19.9934" x="309.9211" y="60" /><rect fill="white" height="20" width="19.9934" x="329.9145" y="60" /><rect fill="black" height="20" width="19.9408" x="349.908" y="60" /><rect fill="white" height="20" width="19.8356" x="369.8488" y="60" /><rect fill="black" height="20" width="19.6778" x="389.6844" y="60" /><rect fill="white" height="20" width="19.4675" x="409.3623" y="60" /><rect fill="black" height="20" width="19.2045" x="428.8297" y="60" /><rect fill="white" height="20" width="18.8889" x="448.0342" y="60" /><rect fill="black" height="20" width="18.5207" x="466.9231" y="60" /><rect fill="white" height="20" width="18.0999" x="485.4438" y="60" /><rect fill="black" height="20" width="17.6266" x="503.5437" y="60" /><rect fill="white" height="20" width="17.1006" x="521.1703" y="60" /><rect fill="black" height="20" width="16.522" x="538.2709" y="60" /><rect fill="white" height="20" width="15.8909" x="554.7929" y="60" /><rect fill="black" height="20" width="15.2071" x="570.6838" y="60" /><rect fill="white" height="20" width="14.4707" x="585.8909" y="60" /><rect fill="black" height="20" width="13.6818" x="600.3616" y="60" /><rect fill="white" height="20" width="12.8402" x="614.0434" y="60" /><rect fill="black" height="20" width="11.9461" x="626.8836" y="60" /><rect fill="white" height="20" width="10.9993" x="638.8297" y="60" /><rect fill="black" height="20" width="10.0" x="649.8291" y="60" /><rect fill="black" height="20" width="10.0" x="0" y="80" /><rect fill="white" height="20" width="10.9993" x="10.0" y="80" /><rect fill="black" height="20" width="11.9461" x="20.9993" y="80" /><rect fill="white" height="20" width="12.8402" x="32.9454" y="80" /><rect fill="black" height="20" width="13.6818" x="45.7857" y="80" /><rect fill="white" height="20" width="14.4707" x="59.4675" y="80" /><rect fill="black" height="20" width="15.2071" x="73.9382" y="80" /><rect fill="white" height="20" width="15.8909" x="89.1453" y="80" /><rect fill="black" height="20" width="16.522" x="105.0362" y="80" /><rect fill="white" height="20" width="17.1006" x="121.5582" y="80" /><rect fill="black" height="20" width="17.6266" x="138.6588" y="80" /><rect fill="white" height="20" width="18.0999" x="156.2853" y="80" /><rect fill="black" height="20" width="18.5207" x="174.3853" y="80" /><rect fill="white" height="20" width="18.8889" x="192.906" y="80" /><rect fill="black" height="20" width="19.2045" x="211.7949" y="80" /><rect fill="white" height="20" width="19.4675" x="230.9993" y="80" /><rect fill="black" height="20" width="19.6778" x="250.4668" y="80" /><rect fill="white" height="20" width="19.8356" x="270.1446" y="80" /><rect fill="black" height="20" width="19.9408" x="289.9803" y="80" /><rect fill="white" height="20" width="19.9934" x="309.9211" y="80" /><rect fill="black" height="20" width="19.9934" x="329.9145" y="80" /><rect fill="white" height="20" width="19.9408" x="349.908" y="80" /><rect fill="black" height="20" width="19.8356" x="369.8488" y="80" /><rect fill="white" height="20" width="19.6778" x="389.6844" y="80" /><rect fill="black" height="20" width="19.4675" x="409.3623" y="80" /><rect fill="white" height="20" width="19.2045" x="428.8297" y="80" /><rect fill="black" height="20" width="18.8889" x="448.0342" y="80" /><rect fill="white" height="20" width="18.5207" x="466.9231" y="80" /><rect fill="black" height="20" width="18.0999" x="485.4438" y="80" /><rect fill="white" height="20" width="17.6266" x="503.5437" y="80" /><rect fill="black" height="20" width="17.1006" x="521.1703" y="80" /><rect fill="white" height="20" width="16.522" x="538.2709" y="80" /><rect fill="black" height="20" width="15.8909" x="554.7929" y="80" /><rect fill="white" height="20" width="15.2071" x="570.6838" y="80" /><rect fill="black" height="20" width="14.4707" x="585.8909" y="80" /><rect fill="white" height="20" width="13.6818" x="600.3616" y="80" /><rect fill="black" height="20" width="12.8402" x="614.0434" y="80" /><rect fill="white" height="20" width="11.9461" x="626.8836" y="80" /><rect fill="black" height="20" width="10.9993" x="638.8297" y="80" /><rect fill="white" height="20" width="10.0" x="649.8291" y="80" /><rect fill="white" height="20" width="10.0" x="0" y="100" /><rect fill="black" height="20" width="10.9993" x="10.0" y="100" /><rect fill="white" height="20" width="11.9461" x="20.9993" y="100" /><rect fill="black" height="20" width="12.8402" x="32.9454" y="100" /><rect fill="white" height="20" width="13.6818" x="45.7857" y="100" /><rect fill="black" height="20" width="14.4707" x="59.4675" y="100" /><rect fill="white" height="20" width="15.2071" x="73.9382" y="100" /><rect fill="black" height="20" width="15.8909" x="89.1453" y="100" /><rect fill="white" height="20" width="16.522" x="105.0362" y="100" /><rect fill="black" height="20" width="17.1006" x="121.5582" y="100" /><rect fill="white" height="20" width="17.6266" x="138.6588" y="100" /><rect fill="black" height="20" width="18.0999" x="156.2853" y="100" /><rect fill="white" height="20" width="18.5207" x="174.3853" y="100" /><rect fill="black" height="20" width="18.8889" x="192.906" y="100" /><rect fill="white" height="20" width="19.2045" x="211.7949" y="100" /><rect fill="black" height="20" width="19.4675" x="230.9993" y="100" /><rect fill="white" height="20" width="19.6778" x="250.4668" y="100" /><rect fill="black" height="20" width="19.8356" x="270.1446" y="100" /><rect fill="white" height="20" width="19.9408" x="289.9803" y="100" /><rect fill="black" height="20" width="19.9934" x="309.9211" y="100" /><rect fill="white" height="20" width="19.9934" x="329.9145" y="100" /><rect fill="black" height="20" width="19.9408" x="349.908" y="100" /><rect fill="white" height="20" width="19.8356" x="369.8488" y="100" /><rect fill="black" height="20" width="19.6778" x="389.6844" y="100" /><rect fill="white" height="20" width="19.4675" x="409.3623" y="100" /><rect fill="black" height="20" width="19.2045" x="428.8297" y="100" /><rect fill="white" height="20" width="18.8889" x="448.0342" y="100" /><rect fill="black" height="20" width="18.5207" x="466.9231" y="100" /><rect fill="white" height="20" width="18.0999" x="485.4438" y="100" /><rect fill="black" height="20" width="17.6266" x="503.5437" y="100" /><rect fill="white" height="20" width="17.1006" x="521.1703" y="100" /><rect fill="black" height="20" width="16.522" x="538.2709" y="100" /><rect fill="white" height="20" width="15.8909" x="554.7929" y="100" /><rect fill="black" height="20" width="15.2071" x="570.6838" y="100" /><rect fill="white" height="20" width="14.4707" x="585.8909" y="100" /><rect fill="black" height="20" width="13.6818" x="600.3616" y="100" /><rect fill="white" height="20" width="12.8402" x="614.0434" y="100" /><rect fill="black" height="20" width="11.9461" x="626.8836" y="100" /><rect fill="white" height="20" width="10.9993" x="638.8297" y="100" /><rect fill="black" height="20" width="10.0" x="649.8291" y="100" /><rect fill="black" height="20" width="10.0" x="0" y="120" /><rect fill="white" height="20" width="10.9993" x="10.0" y="120" /><rect fill="black" height="20" width="11.9461" x="20.9993" y="120" /><rect fill="white" height="20" width="12.8402" x="32.9454" y="120" /><rect fill="black" height="20" width="13.6818" x="45.7857" y="120" /><rect fill="white" height="20" width="14.4707" x="59.4675" y="120" /><rect fill="black" height="20" width="15.2071" x="73.9382" y="120" /><rect fill="white" height="20" width="15.8909" x="89.1453" y="120" /><rect fill="black" height="20" width="16.522" x="105.0362" y="120" /><rect fill="white" height="20" width="17.1006" x="121.5582" y="120" /><rect fill="black" height="20" width="17.6266" x="138.6588" y="120" /><rect fill="white" height="20" width="18.0999" x="156.2853" y="120" /><rect fill="black" height="20" width="18.5207" x="174.3853" y="120" /><rect fill="white" height="20" width="18.8889" x="192.906" y="120" /><rect fill="black" height="20" width="19.2045" x="211.7949" y="120" /><rect fill="white" height="20" width="19.4675" x="230.9993" y="120" /><rect fill="black" height="20" width="19.6778" x="250.4668" y="120" /><rect fill="white" height="20" width="19.8356" x="270.1446" y="120" /><rect fill="black" height="20" width="19.9408" x="289.9803" y="120" /><rect fill="white" height="20" width="19.9934" x="309.9211" y="120" /><rect fill="black" height="20" width="19.9934" x="329.9145" y="120" /><rect fill="white" height="20" width="19.9408" x="349.908" y="120" /><rect fill="black" height="20" width="19.8356" x="369.8488" y="120" /><rect fill="white" height="20" width="19.6778" x="389.6844" y="120" /><rect fill="black" height="20" width="19.4675" x="409.3623" y="120" /><rect fill="white" height="20" width="19.2045" x="428.8297" y="120" /><rect fill="black" height="20" width="18.8889" x="448.0342" y="120" /><rect fill="white" height="20" width="18.5207" x="466.9231" y="120" /><rect fill="black" height="20" width="18.0999" x="485.4438" y="120" /><rect fill="white" height="20" width="17.6266" x="503.5437" y="120" /><rect fill="black" height="20" width="17.1006" x="521.1703" y="120" /><rect fill="white" height="20" width="16.522" x="538.2709" y="120" /><rect fill="black" height="20" width="15.8909" x="554.7929" y="120" /><rect fill="white" height="20" width="15.2071" x="570.6838" y="120" /><rect fill="black" height="20" width="14.4707" x="585.8909" y="120" /><rect fill="white" height="20" width="13.6818" x="600.3616" y="120" /><rect fill="black" height="20" width="12.8402" x="614.0434" y="120" /><rect fill="white" height="20" width="11.9461" x="626.8836" y="120" /><rect fill="black" height="20" width="10.9993" x="638.8297" y="120" /><rect fill="white" height="20" width="10.0" x="649.8291" y="120" /><rect fill="white" height="20" width="10.0" x="0" y="140" /><rect fill="black" height="20" width="10.9993" x="10.0" y="140" /><rect fill="white" height="20" width="11.9461" x="20.9993" y="140" /><rect fill="black" height="20" width="12.8402" x="32.9454" y="140" /><rect fill="white" height="20" width="13.6818" x="45.7857" y="140" /><rect fill="black" height="20" width="14.4707" x="59.4675" y="140" /><rect fill="white" height="20" width="15.2071" x="73.9382" y="140" /><rect fill="black" height="20" width="15.8909" x="89.1453" y="140" /><rect fill="white" height="20" width="16.522" x="105.0362" y="140" /><rect fill="black" height="20" width="17.1006" x="121.5582" y="140" /><rect fill="white" height="20" width="17.6266" x="138.6588" y="140" /><rect fill="black" height="20" width="18.0999" x="156.2853" y="140" /><rect fill="white" height="20" width="18.5207" x="174.3853" y="140" /><rect fill="black" height="20" width="18.8889" x="192.906" y="140" /><rect fill="white" height="20" width="19.2045" x="211.7949" y="140" /><rect fill="black" height="20" width="19.4675" x="230.9993" y="140" /><rect fill="white" height="20" width="19.6778" x="250.4668" y="140" /><rect fill="black" height="20" width="19.8356" x="270.1446" y="140" /><rect fill="white" height="20" width="19.9408" x="289.9803" y="140" /><rect fill="black" height="20" width="19.9934" x="309.9211" y="140" /><rect fill="white" height="20" width="19.9934" x="329.9145" y="140" /><rect fill="black" height="20" width="19.9408" x="349.908" y="140" /><rect fill="white" height="20" width="19.8356" x="369.8488" y="140" /><rect fill="black" height="20" width="19.6778" x="389.6844" y="140" /><rect fill="white" height="20" width="19.4675" x="409.3623" y="140" /><rect fill="black" height="20" width="19.2045" x="428.8297" y="140" /><rect fill="white" height="20" width="18.8889" x="448.0342" y="140" /><rect fill="black" height="20" width="18.5207" x="466.9231" y="140" /><rect fill="white" height="20" width="18.0999" x="485.4438" y="140" /><rect fill="black" height="20" width="17.6266" x="503.5437" y="140" /><rect fill="white" height="20" width="17.1006" x="521.1703" y="140" /><rect fill="black" height="20" width="16.522" x="538.2709" y="140" /><rect fill="white" height="20" width="15.8909" x="554.7929" y="140" /><rect fill="black" height="20" width="15.2071" x="570.6838" y="140" /><rect fill="white" height="20" width="14.4707" x="585.8909" y="140" /><rect fill="black" height="20" width="13.6818" x="600.3616" y="140" /><rect fill="white" height="20" width="12.8402" x="614.0434" y="140" /><rect fill="black" height="20" width="11.9461" x="626.8836" y="140" /><rect fill="white" height="20" width="10.9993" x="638.8297" y="140" /><rect fill="black" height="20" width="10.0" x="649.8291" y="140" /><rect fill="black" height="20" width="10.0" x="0" y="160" /><rect fill="white" height="20" width="10.9993" x="10.0" y="160" /><rect fill="black" height="20" width="11.9461" x="20.9993" y="160" /><rect fill="white" height="20" width="12.8402" x="32.9454" y="160" /><rect fill="black" height="20" width="13.6818" x="45.7857" y="160" /><rect fill="white" height="20" width="14.4707" x="59.4675" y="160" /><rect fill="black" height="20" width="15.2071" x="73.9382" y="160" /><rect fill="white" height="20" width="15.8909" x="89.1453" y="160" /><rect fill="black" height="20" width="16.522" x="105.0362" y="160" /><rect fill="white" height="20" width="17.1006" x="121.5582" y="160" /><rect fill="black" height="20" width="17.6266" x="138.6588" y="160" /><rect fill="white" height="20" width="18.0999" x="156.2853" y="160" /><rect fill="black" height="20" width="18.5207" x="174.3853" y="160" /><rect fill="white" height="20" width="18.8889" x="192.906" y="160" /><rect fill="black" height="20" width="19.2045" x="211.7949" y="160" /><rect fill="white" height="20" width="19.4675" x="230.9993" y="160" /><rect fill="black" height="20" width="19.6778" x="250.4668" y="160" /><rect fill="white" height="20" width="19.8356" x="270.1446" y="160" /><rect fill="black" height="20" width="19.9408" x="289.9803" y="160" /><rect fill="white" height="20" width="19.9934" x="309.9211" y="160" /><rect fill="black" height="20" width="19.9934" x="329.9145" y="160" /><rect fill="white" height="20" width="19.9408" x="349.908" y="160" /><rect fill="black" height="20" width="19.8356" x="369.8488" y="160" /><rect fill="white" height="20" width="19.6778" x="389.6844" y="160" /><rect fill="black" height="20" width="19.4675" x="409.3623" y="160" /><rect fill="white" height="20" width="19.2045" x="428.8297" y="160" /><rect fill="black" height="20" width="18.8889" x="448.0342" y="160" /><rect fill="white" height="20" width="18.5207" x="466.9231" y="160" /><rect fill="black" height="20" width="18.0999" x="485.4438" y="160" /><rect fill="white" height="20" width="17.6266" x="503.5437" y="160" /><rect fill="black" height="20" width="17.1006" x="521.1703" y="160" /><rect fill="white" height="20" width="16.522" x="538.2709" y="160" /><rect fill="black" height="20" width="15.8909" x="554.7929" y="160" /><rect fill="white" height="20" width="15.2071" x="570.6838" y="160" /><rect fill="black" height="20" width="14.4707" x="585.8909" y="160" /><rect fill="white" height="20" width="13.6818" x="600.3616" y="160" /><rect fill="black" height="20" width="12.8402" x="614.0434" y="160" /><rect fill="white" height="20" width="11.9461" x="626.8836" y="160" /><rect fill="black" height="20" width="10.9993" x="638.8297" y="160" /><rect fill="white" height="20" width="10.0" x="649.8291" y="160" /><rect fill="white" height="20" width="10.0" x="0" y="180" /><rect fill="black" height="20" width="10.9993" x="10.0" y="180" /><rect fill="white" height="20" width="11.9461" x="20.9993" y="180" /><rect fill="black" height="20" width="12.8402" x="32.9454" y="180" /><rect fill="white" height="20" width="13.6818" x="45.7857" y="180" /><rect fill="black" height="20" width="14.4707" x="59.4675" y="180" /><rect fill="white" height="20" width="15.2071" x="73.9382" y="180" /><rect fill="black" height="20" width="15.8909" x="89.1453" y="180" /><rect fill="white" height="20" width="16.522" x="105.0362" y="180" /><rect fill="black" height="20" width="17.1006" x="121.5582" y="180" /><rect fill="white" height="20" width="17.6266" x="138.6588" y="180" /><rect fill="black" height="20" width="18.0999" x="156.2853" y="180" /><rect fill="white" height="20" width="18.5207" x="174.3853" y="180" /><rect fill="black" height="20" width="18.8889" x="192.906" y="180" /><rect fill="white" height="20" width="19.2045" x="211.7949" y="180" /><rect fill="black" height="20" width="19.4675" x="230.9993" y="180" /><rect fill="white" height="20" width="19.6778" x="250.4668" y="180" /><rect fill="black" height="20" width="19.8356" x="270.1446" y="180" /><rect fill="white" height="20" width="19.9408" x="289.9803" y="180" /><rect fill="black" height="20" width="19.9934" x="309.9211" y="180" /><rect fill="white" height="20" width="19.9934" x="329.9145" y="180" /><rect fill="black" height="20" width="19.9408" x="349.908" y="180" /><rect fill="white" height="20" width="19.8356" x="369.8488" y="180" /><rect fill="black" height="20" width="19.6778" x="389.6844" y="180" /><rect fill="white" height="20" width="19.4675" x="409.3623" y="180" /><rect fill="black" height="20" width="19.2045" x="428.8297" y="180" /><rect fill="white" height="20" width="18.8889" x="448.0342" y="180" /><rect fill="black" height="20" width="18.5207" x="466.9231" y="180" /><rect fill="white" height="20" width="18.0999" x="485.4438" y="180" /><rect fill="black" height="20" width="17.6266" x="503.5437" y="180" /><rect fill="white" height="20" width="17.1006" x="521.1703" y="180" /><rect fill="black" height="20" width="16.522" x="538.2709" y="180" /><rect fill="white" height="20" width="15.8909" x="554.7929" y="180" /><rect fill="black" height="20" width="15.2071" x="570.6838" y="180" /><rect fill="white" height="20" width="14.4707" x="585.8909" y="180" /><rect fill="black" height="20" width="13.6818" x="600.3616" y="180" /><rect fill="white" height="20" width="12.8402" x="614.0434" y="180" /><rect fill="black" height="20" width="11.9461" x="626.8836" y="180" /><rect fill="white" height="20" width="10.9993" x="638.8297" y="180" /><rect fill="black" height="20" width="10.0" x="649.8291" y="180" /><rect fill="black" height="20" width="10.0" x="0" y="200" /><rect fill="white" height="20" width="10.9993" x="10.0" y="200" /><rect fill="black" height="20" width="11.9461" x="20.9993" y="200" /><rect fill="white" height="20" width="12.8402" x="32.9454" y="200" /><rect fill="black" height="20" width="13.6818" x="45.7857" y="200" /><rect fill="white" height="20" width="14.4707" x="59.4675" y="200" /><rect fill="black" height="20" width="15.2071" x="73.9382" y="200" /><rect fill="white" height="20" width="15.8909" x="89.1453" y="200" /><rect fill="black" height="20" width="16.522" x="105.0362" y="200" /><rect fill="white" height="20" width="17.1006" x="121.5582" y="200" /><rect fill="black" height="20" width="17.6266" x="138.6588" y="200" /><rect fill="white" height="20" width="18.0999" x="156.2853" y="200" /><rect fill="black" height="20" width="18.5207" x="174.3853" y="200" /><rect fill="white" height="20" width="18.8889" x="192.906" y="200" /><rect fill="black" height="20" width="19.2045" x="211.7949" y="200" /><rect fill="white" height="20" width="19.4675" x="230.9993" y="200" /><rect fill="black" height="20" width="19.6778" x="250.4668" y="200" /><rect fill="white" height="20" width="19.8356" x="270.1446" y="200" /><rect fill="black" height="20" width="19.9408" x="289.9803" y="200" /><rect fill="white" height="20" width="19.9934" x="309.9211" y="200" /><rect fill="black" height="20" width="19.9934" x="329.9145" y="200" /><rect fill="white" height="20" width="19.9408" x="349.908" y="200" /><rect fill="black" height="20" width="19.8356" x="369.8488" y="200" /><rect fill="white" height="20" width="19.6778" x="389.6844" y="200" /><rect fill="black" height="20" width="19.4675" x="409.3623" y="200" /><rect fill="white" height="20" width="19.2045" x="428.8297" y="200" /><rect fill="black" height="20" width="18.8889" x="448.0342" y="200" /><rect fill="white" height="20" width="18.5207" x="466.9231" y="200" /><rect fill="black" height="20" width="18.0999" x="485.4438" y="200" /><rect fill="white" height="20" width="17.6266" x="503.5437" y="200" /><rect fill="black" height="20" width="17.1006" x="521.1703" y="200" /><rect fill="white" height="20" width="16.522" x="538.2709" y="200" /><rect fill="black" height="20" width="15.8909" x="554.7929" y="200" /><rect fill="white" height="20" width="15.2071" x="570.6838" y="200" /><rect fill="black" height="20" width="14.4707" x="585.8909" y="200" /><rect fill="white" height="20" width="13.6818" x="600.3616" y="200" /><rect fill="black" height="20" width="12.8402" x="614.0434" y="200" /><rect fill="white" height="20" width="11.9461" x="626.8836" y="200" /><rect fill="black" height="20" width="10.9993" x="638.8297" y="200" /><rect fill="white" height="20" width="10.0" x="649.8291" y="200" /><rect fill="white" height="20" width="10.0" x="0" y="220" /><rect fill="black" height="20" width="10.9993" x="10.0" y="220" /><rect fill="white" height="20" width="11.9461" x="20.9993" y="220" /><rect fill="black" height="20" width="12.8402" x="32.9454" y="220" /><rect fill="white" height="20" width="13.6818" x="45.7857" y="220" /><rect fill="black" height="20" width="14.4707" x="59.4675" y="220" /><rect fill="white" height="20" width="15.2071" x="73.9382" y="220" /><rect fill="black" height="20" width="15.8909" x="89.1453" y="220" /><rect fill="white" height="20" width="16.522" x="105.0362" y="220" /><rect fill="black" height="20" width="17.1006" x="121.5582" y="220" /><rect fill="white" height="20" width="17.6266" x="138.6588" y="220" /><rect fill="black" height="20" width="18.0999" x="156.2853" y="220" /><rect fill="white" height="20" width="18.5207" x="174.3853" y="220" /><rect fill="black" height="20" width="18.8889" x="192.906" y="220" /><rect fill="white" height="20" width="19.2045" x="211.7949" y="220" /><rect fill="black" height="20" width="19.4675" x="230.9993" y="220" /><rect fill="white" height="20" width="19.6778" x="250.4668" y="220" /><rect fill="black" height="20" width="19.8356" x="270.1446" y="220" /><rect fill="white" height="20" width="19.9408" x="289.9803" y="220" /><rect fill="black" height="20" width="19.9934" x="309.9211" y="220" /><rect fill="white" height="20" width="19.9934" x="329.9145" y="220" /><rect fill="black" height="20" width="19.9408" x="349.908" y="220" /><rect fill="white" height="20" width="19.8356" x="369.8488" y="220" /><rect fill="black" height="20" width="19.6778" x="389.6844" y="220" /><rect fill="white" height="20" width="19.4675" x="409.3623" y="220" /><rect fill="black" height="20" width="19.2045" x="428.8297" y="220" /><rect fill="white" height="20" width="18.8889" x="448.0342" y="220" /><rect fill="black" height="20" width="18.5207" x="466.9231" y="220" /><rect fill="white" height="20" width="18.0999" x="485.4438" y="220" /><rect fill="black" height="20" width="17.6266" x="503.5437" y="220" /><rect fill="white" height="20" width="17.1006" x="521.1703" y="220" /><rect fill="black" height="20" width="16.522" x="538.2709" y="220" /><rect fill="white" height="20" width="15.8909" x="554.7929" y="220" /><rect fill="black" height="20" width="15.2071" x="570.6838" y="220" /><rect fill="white" height="20" width="14.4707" x="585.8909" y="220" /><rect fill="black" height="20" width="13.6818" x="600.3616" y="220" /><rect fill="white" height="20" width="12.8402" x="614.0434" y="220" /><rect fill="black" height="20" width="11.9461" x="626.8836" y="220" /><rect fill="white" height="20" width="10.9993" x="638.8297" y="220" /><rect fill="black" height="20" width="10.0" x="649.8291" y="220" /></svg>