<?xml version="1.0" encoding="utf-8" ?>
<svg baseProfile="full" height="240" version="1.1" width="1000" xmlns="http://www.w3.org/2000/svg" xmlns:ev="http://www.w3.org/2001/xml-events" xmlns:xlink="http://www.w3.org/1999/xlink"><defs /><rect fill="black" height="20" width="-14.108616260057714" x="-3.061616997868383e-14" y="0" /><rect fill="white" height="20" width="-13.145632333679131" x="-14.108616260057744" y="0" /><rect fill="black" height="20" width="-11.243376341149826" x="-27.254248593736875" y="0" /><rect fill="white" height="20" width="-8.448688138231603" x="-38.4976249348867" y="0" /><rect fill="black" height="20" width="-4.8303822235185905" x="-46.946313073118304" y="0" /><rect fill="white" height="20" width="-0.477553297099945" x="-51.776695296636895" y="0" /><rect fill="black" height="20" width="4.502617546644828" x="-52.25424859373684" y="0" /><rect fill="white" height="20" width="9.987501973303615" x="-47.75163104709201" y="0" /><rect fill="black" height="20" width="15.842043925003988" x="-37.764129073788396" y="0" /><rect fill="white" height="20" width="21.922085148784408" x="-21.922085148784408" y="0" /><rect fill="black" height="20" width="28.077914851215606" x="0.0" y="0" /><rect fill="white" height="20" width="34.15795607499605" x="28.077914851215606" y="0" /><rect fill="black" height="20" width="40.01249802669638" x="62.23587092621166" y="0" /><rect fill="white" height="20" width="45.497382453355186" x="102.24836895290804" y="0" /><rect fill="black" height="20" width="50.47755329709992" x="147.74575140626322" y="0" /><rect fill="white" height="20" width="54.830382223518654" x="198.22330470336314" y="0" /><rect fill="black" height="20" width="58.44868813823163" x="253.0536869268818" y="0" /><rect fill="white" height="20" width="61.24337634114977" x="311.5023750651134" y="0" /><rect fill="black" height="20" width="63.145632333679146" x="372.7457514062632" y="0" /><rect fill="white" height="20" width="64.10861626005766" x="435.89138373994234" y="0" /><rect fill="black" height="20" width="64.10861626005783" x="500.0" y="0" /><rect fill="white" height="20" width="63.14563233367903" x="564.1086162600578" y="0" /><rect fill="black" height="20" width="61.24337634115" x="627.2542485937369" y="0" /><rect fill="white" height="20" width="58.448688138231546" x="688.4976249348869" y="0" /><rect fill="black" height="20" width="54.83038222351843" x="746.9463130731184" y="0" /><rect fill="white" height="20" width="50.47755329710003" x="801.7766952966368" y="0" /><rect fill="black" height="20" width="45.49738245335516" x="852.2542485937369" y="0" /><rect fill="white" height="20" width="40.01249802669645" x="897.751631047092" y="0" /><rect fill="black" height="20" width="34.15795607499604" x="937.7641290737885" y="0" /><rect fill="white" height="20" width="28.077914851215496" x="971.9220851487845" y="0" /><rect fill="black" height="20" width="21.922085148784504" x="1000.0" y="0" /><rect fill="white" height="20" width="15.84204392500385" x="1021.9220851487845" y="0" /><rect fill="black" height="20" width="9.987501973303551" x="1037.7641290737884" y="0" /><rect fill="white" height="20" width="4.5026175466450695" x="1047.751631047092" y="0" /><rect fill="black" height="20" width="-0.47755329710003025" x="1052.254248593737" y="0" /><rect fill="white" height="20" width="-4.830382223518654" x="1051.776695296637" y="0" /><rect fill="black" height="20" width="-8.448688138231546" x="1046.9463130731183" y="0" /><rect fill="white" height="20" width="-11.243376341149997" x="1038.4976249348867" y="0" /><rect fill="black" height="20" width="-13.145632333679032" x="1027.2542485937367" y="0" /><rect fill="white" height="20" width="-14.108616260057715" x="1014.1086162600577" y="0" /><rect fill="white" height="20" width="-14.108616260057714" x="-3.061616997868383e-14" y="20" /><rect fill="black" height="20" width="-13.145632333679131" x="-14.108616260057744" y="20" /><rect fill="white" height="20" width="-11.243376341149826" x="-27.254248593736875" y="20" /><rect fill="black" height="20" width="-8.448688138231603" x="-38.4976249348867" y="20" /><rect fill="white" height="20" width="-4.8303822235185905" x="-46.946313073118304" y="20" /><rect fill="black" height="20" width="-0.477553297099945" x="-51.776695296636895" y="20" /><rect fill="white" height="20" width="4.502617546644828" x="-52.25424859373684" y="20" /><rect fill="black" height="20" width="9.987501973303615" x="-47.75163104709201" y="20" /><rect fill="white" height="20" width="15.842043925003988" x="-37.764129073788396" y="20" /><rect fill="black" height="20" width="21.922085148784408" x="-21.922085148784408" y="20" /><rect fill="white" height="20" width="28.077914851215606" x="0.0" y="20" /><rect fill="black" height="20" width="34.15795607499605" x="28.077914851215606" y="20" /><rect fill="white" height="20" width="40.01249802669638" x="62.23587092621166" y="20" /><rect fill="black" height="20" width="45.497382453355186" x="102.24836895290804" y="20" /><rect fill="white" height="20" width="50.47755329709992" x="147.74575140626322" y="20" /><rect fill="black" height="20" width="54.830382223518654" x="198.22330470336314" y="20" /><rect fill="white" height="20" width="58.44868813823163" x="253.0536869268818" y="20" /><rect fill="black" height="20" width="61.24337634114977" x="311.5023750651134" y="20" /><rect fill="white" height="20" width="63.145632333679146" x="372.7457514062632" y="20" /><rect fill="black" height="20" width="64.10861626005766" x="435.89138373994234" y="20" /><rect fill="white" height="20" width="64.10861626005783" x="500.0" y="20" /><rect fill="black" height="20" width="63.14563233367903" x="564.1086162600578" y="20" /><rect fill="white" height="20" width="61.24337634115" x="627.2542485937369" y="20" /><rect fill="black" height="20" width="58.448688138231546" x="688.4976249348869" y="20" /><rect fill="white" height="20" width="54.83038222351843" x="746.9463130731184" y="20" /><rect fill="black" height="20" width="50.47755329710003" x="801.7766952966368" y="20" /><rect fill="white" height="20" width="45.49738245335516" x="852.2542485937369" y="20" /><rect fill="black" height="20" width="40.01249802669645" x="897.751631047092" y="20" /><rect fill="white" height="20" width="34.15795607499604" x="937.7641290737885" y="20" /><rect fill="black" height="20" width="28.077914851215496" x="971.9220851487845" y="20" /><rect fill="white" height="20" width="21.922085148784504" x="1000.0" y="20" /><rect fill="black" height="20" width="15.84204392500385" x="1021.9220851487845" y="20" /><rect fill="white" height="20" width="9.987501973303551" x="1037.7641290737884" y="20" /><rect fill="black" height="20" width="4.5026175466450695" x="1047.751631047092" y="20" /><rect fill="white" height="20" width="-0.47755329710003025" x="1052.254248593737" y="20" /><rect fill="black" height="20" width="-4.830382223518654" x="1051.776695296637" y="20" /><rect fill="white" height="20" width="-8.448688138231546" x="1046.9463130731183" y="20" /><rect fill="black" height="20" width="-11.243376341149997" x="1038.4976249348867" y="20" /><rect fill="white" height="20" width="-13.145632333679032" x="1027.2542485937367" y="20" /><rect fill="black" height="20" width="-14.108616260057715" x="1014.1086162600577" y="20" /><rect fill="black" height="20" width="-14.108616260057714" x="-3.061616997868383e-14" y="40" /><rect fill="white" height="20" width="-13.145632333679131" x="-14.108616260057744" y="40" /><rect fill="black" height="20" width="-11.243376341149826" x="-27.254248593736875" y="40" /><rect fill="white" height="20" width="-8.448688138231603" x="-38.4976249348867" y="40" /><rect fill="black" height="20" width="-4.8303822235185905" x="-46.946313073118304" y="40" /><rect fill="white" height="20" width="-0.477553297099945" x="-51.776695296636895" y="40" /><rect fill="black" height="20" width="4.502617546644828" x="-52.25424859373684" y="40" /><rect fill="white" height="20" width="9.987501973303615" x="-47.75163104709201" y="40" /><rect fill="black" height="20" width="15.842043925003988" x="-37.764129073788396" y="40" /><rect fill="white" height="20" width="21.922085148784408" x="-21.922085148784408" y="40" /><rect fill="black" height="20" width="28.077914851215606" x="0.0" y="40" /><rect fill="white" height="20" width="34.15795607499605" x="28.077914851215606" y="40" /><rect fill="black" height="20" width="40.01249802669638" x="62.23587092621166" y="40" /><rect fill="white" height="20" width="45.497382453355186" x="102.24836895290804" y="40" /><rect fill="black" height="20" width="50.47755329709992" x="147.74575140626322" y="40" /><rect fill="white" height="20" width="54.830382223518654" x="198.22330470336314" y="40" /><rect fill="black" height="20" width="58.44868813823163" x="253.0536869268818" y="40" /><rect fill="white" height="20" width="61.24337634114977" x="311.5023750651134" y="40" /><rect fill="black" height="20" width="63.145632333679146" x="372.7457514062632" y="40" /><rect fill="white" height="20" width="64.10861626005766" x="435.89138373994234" y="40" /><rect fill="black" height="20" width="64.10861626005783" x="500.0" y="40" /><rect fill="white" height="20" width="63.14563233367903" x="564.1086162600578" y="40" /><rect fill="black" height="20" width="61.24337634115" x="627.2542485937369" y="40" /><rect fill="white" height="20" width="58.448688138231546" x="688.4976249348869" y="40" /><rect fill="black" height="20" width="54.83038222351843" x="746.9463130731184" y="40" /><rect fill="white" height="20" width="50.47755329710003" x="801.7766952966368" y="40" /><rect fill="black" height="20" width="45.49738245335516" x="852.2542485937369" y="40" /><rect fill="white" height="20" width="40.01249802669645" x="897.751631047092" y="40" /><rect fill="black" height="20" width="34.15795607499604" x="937.7641290737885" y="40" /><rect fill="white" height="20" width="28.077914851215496" x="971.9220851487845" y="40" /><rect fill="black" height="20" width="21.922085148784504" x="1000.0" y="40" /><rect fill="white" height="20" width="15.84204392500385" x="1021.9220851487845" y="40" /><rect fill="black" height="20" width="9.987501973303551" x="1037.7641290737884" y="40" /><rect fill="white" height="20" width="4.5026175466450695" x="1047.751631047092" y="40" /><rect fill="black" height="20" width="-0.47755329710003025" x="1052.254248593737" y="40" /><rect fill="white" height="20" width="-4.830382223518654" x="1051.776695296637" y="40" /><rect fill="black" height="20" width="-8.448688138231546" x="1046.9463130731183" y="40" /><rect fill="white" height="20" width="-11.243376341149997" x="1038.4976249348867" y="40" /><rect fill="black" height="20" width="-13.145632333679032" x="1027.2542485937367" y="40" /><rect fill="white" height="20" width="-14.108616260057715" x="1014.1086162600577" y="40" /><rect fill="white" height="20" width="-14.108616260057714" x="-3.061616997868383e-14" y="60" /><rect fill="black" height="20" width="-13.145632333679131" x="-14.108616260057744" y="60" /><rect fill="white" height="20" width="-11.243376341149826" x="-27.254248593736875" y="60" /><rect fill="black" height="20" width="-8.448688138231603" x="-38.4976249348867" y="60" /><rect fill="white" height="20" width="-4.8303822235185905" x="-46.946313073118304" y="60" /><rect fill="black" height="20" width="-0.477553297099945" x="-51.776695296636895" y="60" /><rect fill="white" height="20" width="4.502617546644828" x="-52.25424859373684" y="60" /><rect fill="black" height="20" width="9.987501973303615" x="-47.75163104709201" y="60" /><rect fill="white" height="20" width="15.842043925003988" x="-37.764129073788396" y="60" /><rect fill="black" height="20" width="21.922085148784408" x="-21.922085148784408" y="60" /><rect fill="white" height="20" width="28.077914851215606" x="0.0" y="60" /><rect fill="black" height="20" width="34.15795607499605" x="28.077914851215606" y="60" /><rect fill="white" height="20" width="40.01249802669638" x="62.23587092621166" y="60" /><rect fill="black" height="20" width="45.497382453355186" x="102.24836895290804" y="60" /><rect fill="white" height="20" width="50.47755329709992" x="147.74575140626322" y="60" /><rect fill="black" height="20" width="54.830382223518654" x="198.22330470336314" y="60" /><rect fill="white" height="20" width="58.44868813823163" x="253.0536869268818" y="60" /><rect fill="black" height="20" width="61.24337634114977" x="311.5023750651134" y="60" /><rect fill="white" height="20" width="63.145632333679146" x="372.7457514062632" y="60" /><rect fill="black" height="20" width="64.10861626005766" x="435.89138373994234" y="60" /><rect fill="white" height="20" width="64.10861626005783" x="500.0" y="60" /><rect fill="black" height="20" width="63.14563233367903" x="564.1086162600578" y="60" /><rect fill="white" height="20" width="61.24337634115" x="627.2542485937369" y="60" /><rect fill="black" height="20" width="58.448688138231546" x="688.4976249348869" y="60" /><rect fill="white" height="20" width="54.83038222351843" x="746.9463130731184" y="60" /><rect fill="black" height="20" width="50.47755329710003" x="801.7766952966368" y="60" /><rect fill="white" height="20" width="45.49738245335516" x="852.2542485937369" y="60" /><rect fill="black" height="20" width="40.01249802669645" x="897.751631047092" y="60" /><rect fill="white" height="20" width="34.15795607499604" x="937.7641290737885" y="60" /><rect fill="black" height="20" width="28.077914851215496" x="971.9220851487845" y="60" /><rect fill="white" height="20" width="21.922085148784504" x="1000.0" y="60" /><rect fill="black" height="20" width="15.84204392500385" x="1021.9220851487845" y="60" /><rect fill="white" height="20" width="9.987501973303551" x="1037.7641290737884" y="60" /><rect fill="black" height="20" width="4.5026175466450695" x="1047.751631047092" y="60" /><rect fill="white" height="20" width="-0.47755329710003025" x="1052.254248593737" y="60" /><rect fill="black" height="20" width="-4.830382223518654" x="1051.776695296637" y="60" /><rect fill="white" height="20" width="-8.448688138231546" x="1046.9463130731183" y="60" /><rect fill="black" height="20" width="-11.243376341149997" x="1038.4976249348867" y="60" /><rect fill="white" height="20" width="-13.145632333679032" x="1027.2542485937367" y="60" /><rect fill="black" height="20" width="-14.108616260057715" x="1014.1086162600577" y="60" /><rect fill="black" height="20" width="-14.108616260057714" x="-3.061616997868383e-14" y="80" /><rect fill="white" height="20" width="-13.145632333679131" x="-14.108616260057744" y="80" /><rect fill="black" height="20" width="-11.243376341149826" x="-27.254248593736875" y="80" /><rect fill="white" height="20" width="-8.448688138231603" x="-38.4976249348867" y="80" /><rect fill="black" height="20" width="-4.8303822235185905" x="-46.946313073118304" y="80" /><rect fill="white" height="20" width="-0.477553297099945" x="-51.776695296636895" y="80" /><rect fill="black" height="20" width="4.502617546644828" x="-52.25424859373684" y="80" /><rect fill="white" height="20" width="9.987501973303615" x="-47.75163104709201" y="80" /><rect fill="black" height="20" width="15.842043925003988" x="-37.764129073788396" y="80" /><rect fill="white" height="20" width="21.922085148784408" x="-21.922085148784408" y="80" /><rect fill="black" height="20" width="28.077914851215606" x="0.0" y="80" /><rect fill="white" height="20" width="34.15795607499605" x="28.077914851215606" y="80" /><rect fill="black" height="20" width="40.01249802669638" x="62.23587092621166" y="80" /><rect fill="white" height="20" width="45.497382453355186" x="102.24836895290804" y="80" /><rect fill="black" height="20" width="50.47755329709992" x="147.74575140626322" y="80" /><rect fill="white" height="20" width="54.830382223518654" x="198.22330470336314" y="80" /><rect fill="black" height="20" width="58.44868813823163" x="253.0536869268818" y="80" /><rect fill="white" height="20" width="61.24337634114977" x="311.5023750651134" y="80" /><rect fill="black" height="20" width="63.145632333679146" x="372.7457514062632" y="80" /><rect fill="white" height="20" width="64.10861626005766" x="435.89138373994234" y="80" /><rect fill="black" height="20" width="64.10861626005783" x="500.0" y="80" /><rect fill="white" height="20" width="63.14563233367903" x="564.1086162600578" y="80" /><rect fill="black" height="20" width="61.24337634115" x="627.2542485937369" y="80" /><rect fill="white" height="20" width="58.448688138231546" x="688.4976249348869" y="80" /><rect fill="black" height="20" width="54.83038222351843" x="746.9463130731184" y="80" /><rect fill="white" height="20" width="50.47755329710003" x="801.7766952966368" y="80" /><rect fill="black" height="20" width="45.49738245335516" x="852.2542485937369" y="80" /><rect fill="white" height="20" width="40.01249802669645" x="897.751631047092" y="80" /><rect fill="black" height="20" width="34.15795607499604" x="937.7641290737885" y="80" /><rect fill="white" height="20" width="28.077914851215496" x="971.9220851487845" y="80" /><rect fill="black" height="20" width="21.922085148784504" x="1000.0" y="80" /><rect fill="white" height="20" width="15.84204392500385" x="1021.9220851487845" y="80" /><rect fill="black" height="20" width="9.987501973303551" x="1037.7641290737884" y="80" /><rect fill="white" height="20" width="4.5026175466450695" x="1047.751631047092" y="80" /><rect fill="black" height="20" width="-0.47755329710003025" x="1052.254248593737" y="80" /><rect fill="white" height="20" width="-4.830382223518654" x="1051.776695296637" y="80" /><rect fill="black" height="20" width="-8.448688138231546" x="1046.9463130731183" y="80" /><rect fill="white" height="20" width="-11.243376341149997" x="1038.4976249348867" y="80" /><rect fill="black" height="20" width="-13.145632333679032" x="1027.2542485937367" y="80" /><rect fill="white" height="20" width="-14.108616260057715" x="1014.1086162600577" y="80" /><rect fill="white" height="20" width="-14.108616260057714" x="-3.061616997868383e-14" y="100" /><rect fill="black" height="20" width="-13.145632333679131" x="-14.108616260057744" y="100" /><rect fill="white" height="20" width="-11.243376341149826" x="-27.254248593736875" y="100" /><rect fill="black" height="20" width="-8.448688138231603" x="-38.4976249348867" y="100" /><rect fill="white" height="20" width="-4.8303822235185905" x="-46.946313073118304" y="100" /><rect fill="black" height="20" width="-0.477553297099945" x="-51.776695296636895" y="100" /><rect fill="white" height="20" width="4.502617546644828" x="-52.25424859373684" y="100" /><rect fill="black" height="20" width="9.987501973303615" x="-47.75163104709201" y="100" /><rect fill="white" height="20" width="15.842043925003988" x="-37.764129073788396" y="100" /><rect fill="black" height="20" width="21.922085148784408" x="-21.922085148784408" y="100" /><rect fill="white" height="20" width="28.077914851215606" x="0.0" y="100" /><rect fill="black" height="20" width="34.15795607499605" x="28.077914851215606" y="100" /><rect fill="white" height="20" width="40.01249802669638" x="62.23587092621166" y="100" /><rect fill="black" height="20" width="45.497382453355186" x="102.24836895290804" y="100" /><rect fill="white" height="20" width="50.47755329709992" x="147.74575140626322" y="100" /><rect fill="black" height="20" width="54.830382223518654" x="198.22330470336314" y="100" /><rect fill="white" height="20" width="58.44868813823163" x="253.0536869268818" y="100" /><rect fill="black" height="20" width="61.24337634114977" x="311.5023750651134" y="100" /><rect fill="white" height="20" width="63.145632333679146" x="372.7457514062632" y="100" /><rect fill="black" height="20" width="64.10861626005766" x="435.89138373994234" y="100" /><rect fill="white" height="20" width="64.10861626005783" x="500.0" y="100" /><rect fill="black" height="20" width="63.14563233367903" x="564.1086162600578" y="100" /><rect fill="white" height="20" width="61.24337634115" x="627.2542485937369" y="100" /><rect fill="black" height="20" width="58.448688138231546" x="688.4976249348869" y="100" /><rect fill="white" height="20" width="54.83038222351843" x="746.9463130731184" y="100" /><rect fill="black" height="20" width="50.47755329710003" x="801.7766952966368" y="100" /><rect fill="white" height="20" width="45.49738245335516" x="852.2542485937369" y="100" /><rect fill="black" height="20" width="40.01249802669645" x="897.751631047092" y="100" /><rect fill="white" height="20" width="34.15795607499604" x="937.7641290737885" y="100" /><rect fill="black" height="20" width="28.077914851215496" x="971.9220851487845" y="100" /><rect fill="white" height="20" width="21.922085148784504" x="1000.0" y="100" /><rect fill="black" height="20" width="15.84204392500385" x="1021.9220851487845" y="100" /><rect fill="white" height="20" width="9.987501973303551" x="1037.7641290737884" y="100" /><rect fill="black" height="20" width="4.5026175466450695" x="1047.751631047092" y="100" /><rect fill="white" height="20" width="-0.47755329710003025" x="1052.254248593737" y="100" /><rect fill="black" height="20" width="-4.830382223518654" x="1051.776695296637" y="100" /><rect fill="white" height="20" width="-8.448688138231546" x="1046.9463130731183" y="100" /><rect fill="black" height="20" width="-11.243376341149997" x="1038.4976249348867" y="100" /><rect fill="white" height="20" width="-13.145632333679032" x="1027.2542485937367" y="100" /><rect fill="black" height="20" width="-14.108616260057715" x="1014.1086162600577" y="100" /><rect fill="black" height="20" width="-14.108616260057714" x="-3.061616997868383e-14" y="120" /><rect fill="white" height="20" width="-13.145632333679131" x="-14.108616260057744" y="120" /><rect fill="black" height="20" width="-11.243376341149826" x="-27.254248593736875" y="120" /><rect fill="white" height="20" width="-8.448688138231603" x="-38.4976249348867" y="120" /><rect fill="black" height="20" width="-4.8303822235185905" x="-46.946313073118304" y="120" /><rect fill="white" height="20" width="-0.477553297099945" x="-51.776695296636895" y="120" /><rect fill="black" height="20" width="4.502617546644828" x="-52.25424859373684" y="120" /><rect fill="white" height="20" width="9.987501973303615" x="-47.75163104709201" y="120" /><rect fill="black" height="20" width="15.842043925003988" x="-37.764129073788396" y="120" /><rect fill="white" height="20" width="21.922085148784408" x="-21.922085148784408" y="120" /><rect fill="black" height="20" width="28.077914851215606" x="0.0" y="120" /><rect fill="white" height="20" width="34.15795607499605" x="28.077914851215606" y="120" /><rect fill="black" height="20" width="40.01249802669638" x="62.23587092621166" y="120" /><rect fill="white" height="20" width="45.497382453355186" x="102.24836895290804" y="120" /><rect fill="black" height="20" width="50.47755329709992" x="147.74575140626322" y="120" /><rect fill="white" height="20" width="54.830382223518654" x="198.22330470336314" y="120" /><rect fill="black" height="20" width="58.44868813823163" x="253.0536869268818" y="120" /><rect fill="white" height="20" width="61.24337634114977" x="311.5023750651134" y="120" /><rect fill="black" height="20" width="63.145632333679146" x="372.7457514062632" y="120" /><rect fill="white" height="20" width="64.10861626005766" x="435.89138373994234" y="120" /><rect fill="black" height="20" width="64.10861626005783" x="500.0" y="120" /><rect fill="white" height="20" width="63.14563233367903" x="564.1086162600578" y="120" /><rect fill="black" height="20" width="61.24337634115" x="627.2542485937369" y="120" /><rect fill="white" height="20" width="58.448688138231546" x="688.4976249348869" y="120" /><rect fill="black" height="20" width="54.83038222351843" x="746.9463130731184" y="120" /><rect fill="white" height="20" width="50.47755329710003" x="801.7766952966368" y="120" /><rect fill="black" height="20" width="45.49738245335516" x="852.2542485937369" y="120" /><rect fill="white" height="20" width="40.01249802669645" x="897.751631047092" y="120" /><rect fill="black" height="20" width="34.15795607499604" x="937.7641290737885" y="120" /><rect fill="white" height="20" width="28.077914851215496" x="971.9220851487845" y="120" /><rect fill="black" height="20" width="21.922085148784504" x="1000.0" y="120" /><rect fill="white" height="20" width="15.84204392500385" x="1021.9220851487845" y="120" /><rect fill="black" height="20" width="9.987501973303551" x="1037.7641290737884" y="120" /><rect fill="white" height="20" width="4.5026175466450695" x="1047.751631047092" y="120" /><rect fill="black" height="20" width="-0.47755329710003025" x="1052.254248593737" y="120" /><rect fill="white" height="20" width="-4.830382223518654" x="1051.776695296637" y="120" /><rect fill="black" height="20" width="-8.448688138231546" x="1046.9463130731183" y="120" /><rect fill="white" height="20" width="-11.243376341149997" x="1038.4976249348867" y="120" /><rect fill="black" height="20" width="-13.145632333679032" x="1027.2542485937367" y="120" /><rect fill="white" height="20" width="-14.108616260057715" x="1014.1086162600577" y="120" /><rect fill="white" height="20" width="-14.108616260057714" x="-3.061616997868383e-14" y="140" /><rect fill="black" height="20" width="-13.145632333679131" x="-14.108616260057744" y="140" /><rect fill="white" height="20" width="-11.243376341149826" x="-27.254248593736875" y="140" /><rect fill="black" height="20" width="-8.448688138231603" x="-38.4976249348867" y="140" /><rect fill="white" height="20" width="-4.8303822235185905" x="-46.946313073118304" y="140" /><rect fill="black" height="20" width="-0.477553297099945" x="-51.776695296636895" y="140" /><rect fill="white" height="20" width="4.502617546644828" x="-52.25424859373684" y="140" /><rect fill="black" height="20" width="9.987501973303615" x="-47.75163104709201" y="140" /><rect fill="white" height="20" width="15.842043925003988" x="-37.764129073788396" y="140" /><rect fill="black" height="20" width="21.922085148784408" x="-21.922085148784408" y="140" /><rect fill="white" height="20" width="28.077914851215606" x="0.0" y="140" /><rect fill="black" height="20" width="34.15795607499605" x="28.077914851215606" y="140" /><rect fill="white" height="20" width="40.01249802669638" x="62.23587092621166" y="140" /><rect fill="black" height="20" width="45.497382453355186" x="102.24836895290804" y="140" /><rect fill="white" height="20" width="50.47755329709992" x="147.74575140626322" y="140" /><rect fill="black" height="20" width="54.830382223518654" x="198.22330470336314" y="140" /><rect fill="white" height="20" width="58.44868813823163" x="253.0536869268818" y="140" /><rect fill="black" height="20" width="61.24337634114977" x="311.5023750651134" y="140" /><rect fill="white" height="20" width="63.145632333679146" x="372.7457514062632" y="140" /><rect fill="black" height="20" width="64.10861626005766" x="435.89138373994234" y="140" /><rect fill="white" height="20" width="64.10861626005783" x="500.0" y="140" /><rect fill="black" height="20" width="63.14563233367903" x="564.1086162600578" y="140" /><rect fill="white" height="20" width="61.24337634115" x="627.2542485937369" y="140" /><rect fill="black" height="20" width="58.448688138231546" x="688.4976249348869" y="140" /><rect fill="white" height="20" width="54.83038222351843" x="746.9463130731184" y="140" /><rect fill="black" height="20" width="50.47755329710003" x="801.7766952966368" y="140" /><rect fill="white" height="20" width="45.49738245335516" x="852.2542485937369" y="140" /><rect fill="black" height="20" width="40.01249802669645" x="897.751631047092" y="140" /><rect fill="white" height="20" width="34.15795607499604" x="937.7641290737885" y="140" /><rect fill="black" height="20" width="28.077914851215496" x="971.9220851487845" y="140" /><rect fill="white" height="20" width="21.922085148784504" x="1000.0" y="140" /><rect fill="black" height="20" width="15.84204392500385" x="1021.9220851487845" y="140" /><rect fill="white" height="20" width="9.987501973303551" x="1037.7641290737884" y="140" /><rect fill="black" height="20" width="4.5026175466450695" x="1047.751631047092" y="140" /><rect fill="white" height="20" width="-0.47755329710003025" x="1052.254248593737" y="140" /><rect fill="black" height="20" width="-4.830382223518654" x="1051.776695296637" y="140" /><rect fill="white" height="20" width="-8.448688138231546" x="1046.9463130731183" y="140" /><rect fill="black" height="20" width="-11.243376341149997" x="1038.4976249348867" y="140" /><rect fill="white" height="20" width="-13.145632333679032" x="1027.2542485937367" y="140" /><rect fill="black" height="20" width="-14.108616260057715" x="1014.1086162600577" y="140" /><rect fill="black" height="20" width="-14.108616260057714" x="-3.061616997868383e-14" y="160" /><rect fill="white" height="20" width="-13.145632333679131" x="-14.108616260057744" y="160" /><rect fill="black" height="20" width="-11.243376341149826" x="-27.254248593736875" y="160" /><rect fill="white" height="20" width="-8.448688138231603" x="-38.4976249348867" y="160" /><rect fill="black" height="20" width="-4.8303822235185905" x="-46.946313073118304" y="160" /><rect fill="white" height="20" width="-0.477553297099945" x="-51.776695296636895" y="160" /><rect fill="black" height="20" width="4.502617546644828" x="-52.25424859373684" y="160" /><rect fill="white" height="20" width="9.987501973303615" x="-47.75163104709201" y="160" /><rect fill="black" height="20" width="15.842043925003988" x="-37.764129073788396" y="160" /><rect fill="white" height="20" width="21.922085148784408" x="-21.922085148784408" y="160" /><rect fill="black" height="20" width="28.077914851215606" x="0.0" y="160" /><rect fill="white" height="20" width="34.15795607499605" x="28.077914851215606" y="160" /><rect fill="black" height="20" width="40.01249802669638" x="62.23587092621166" y="160" /><rect fill="white" height="20" width="45.497382453355186" x="102.24836895290804" y="160" /><rect fill="black" height="20" width="50.47755329709992" x="147.74575140626322" y="160" /><rect fill="white" height="20" width="54.830382223518654" x="198.22330470336314" y="160" /><rect fill="black" height="20" width="58.44868813823163" x="253.0536869268818" y="160" /><rect fill="white" height="20" width="61.24337634114977" x="311.5023750651134" y="160" /><rect fill="black" height="20" width="63.145632333679146" x="372.7457514062632" y="160" /><rect fill="white" height="20" width="64.10861626005766" x="435.89138373994234" y="160" /><rect fill="black" height="20" width="64.10861626005783" x="500.0" y="160" /><rect fill="white" height="20" width="63.14563233367903" x="564.1086162600578" y="160" /><rect fill="black" height="20" width="61.24337634115" x="627.2542485937369" y="160" /><rect fill="white" height="20" width="58.448688138231546" x="688.4976249348869" y="160" /><rect fill="black" height="20" width="54.83038222351843" x="746.9463130731184" y="160" /><rect fill="white" height="20" width="50.47755329710003" x="801.7766952966368" y="160" /><rect fill="black" height="20" width="45.49738245335516" x="852.2542485937369" y="160" /><rect fill="white" height="20" width="40.01249802669645" x="897.751631047092" y="160" /><rect fill="black" height="20" width="34.15795607499604" x="937.7641290737885" y="160" /><rect fill="white" height="20" width="28.077914851215496" x="971.9220851487845" y="160" /><rect fill="black" height="20" width="21.922085148784504" x="1000.0" y="160" /><rect fill="white" height="20" width="15.84204392500385" x="1021.9220851487845" y="160" /><rect fill="black" height="20" width="9.987501973303551" x="1037.7641290737884" y="160" /><rect fill="white" height="20" width="4.5026175466450695" x="1047.751631047092" y="160" /><rect fill="black" height="20" width="-0.47755329710003025" x="1052.254248593737" y="160" /><rect fill="white" height="20" width="-4.830382223518654" x="1051.776695296637" y="160" /><rect fill="black" height="20" width="-8.448688138231546" x="1046.9463130731183" y="160" /><rect fill="white" height="20" width="-11.243376341149997" x="1038.4976249348867" y="160" /><rect fill="black" height="20" width="-13.145632333679032" x="1027.2542485937367" y="160" /><rect fill="white" height="20" width="-14.108616260057715" x="1014.1086162600577" y="160" /><rect fill="white" height="20" width="-14.108616260057714" x="-3.061616997868383e-14" y="180" /><rect fill="black" height="20" width="-13.145632333679131" x="-14.108616260057744" y="180" /><rect fill="white" height="20" width="-11.243376341149826" x="-27.254248593736875" y="180" /><rect fill="black" height="20" width="-8.448688138231603" x="-38.4976249348867" y="180" /><rect fill="white" height="20" width="-4.8303822235185905" x="-46.946313073118304" y="180" /><rect fill="black" height="20" width="-0.477553297099945" x="-51.776695296636895" y="180" /><rect fill="white" height="20" width="4.502617546644828" x="-52.25424859373684" y="180" /><rect fill="black" height="20" width="9.987501973303615" x="-47.75163104709201" y="180" /><rect fill="white" height="20" width="15.842043925003988" x="-37.764129073788396" y="180" /><rect fill="black" height="20" width="21.922085148784408" x="-21.922085148784408" y="180" /><rect fill="white" height="20" width="28.077914851215606" x="0.0" y="180" /><rect fill="black" height="20" width="34.15795607499605" x="28.077914851215606" y="180" /><rect fill="white" height="20" width="40.01249802669638" x="62.23587092621166" y="180" /><rect fill="black" height="20" width="45.497382453355186" x="102.24836895290804" y="180" /><rect fill="white" height="20" width="50.47755329709992" x="147.74575140626322" y="180" /><rect fill="black" height="20" width="54.830382223518654" x="198.22330470336314" y="180" /><rect fill="white" height="20" width="58.44868813823163" x="253.0536869268818" y="180" /><rect fill="black" height="20" width="61.24337634114977" x="311.5023750651134" y="180" /><rect fill="white" height="20" width="63.145632333679146" x="372.7457514062632" y="180" /><rect fill="black" height="20" width="64.10861626005766" x="435.89138373994234" y="180" /><rect fill="white" height="20" width="64.10861626005783" x="500.0" y="180" /><rect fill="black" height="20" width="63.14563233367903" x="564.1086162600578" y="180" /><rect fill="white" height="20" width="61.24337634115" x="627.2542485937369" y="180" /><rect fill="black" height="20" width="58.448688138231546" x="688.4976249348869" y="180" /><rect fill="white" height="20" width="54.83038222351843" x="746.9463130731184" y="180" /><rect fill="black" height="20" width="50.47755329710003" x="801.7766952966368" y="180" /><rect fill="white" height="20" width="45.49738245335516" x="852.2542485937369" y="180" /><rect fill="black" height="20" width="40.01249802669645" x="897.751631047092" y="180" /><rect fill="white" height="20" width="34.15795607499604" x="937.7641290737885" y="180" /><rect fill="black" height="20" width="28.077914851215496" x="971.9220851487845" y="180" /><rect fill="white" height="20" width="21.922085148784504" x="1000.0" y="180" /><rect fill="black" height="20" width="15.84204392500385" x="1021.9220851487845" y="180" /><rect fill="white" height="20" width="9.987501973303551" x="1037.7641290737884" y="180" /><rect fill="black" height="20" width="4.5026175466450695" x="1047.751631047092" y="180" /><rect fill="white" height="20" width="-0.47755329710003025" x="1052.254248593737" y="180" /><rect fill="black" height="20" width="-4.830382223518654" x="1051.776695296637" y="180" /><rect fill="white" height="20" width="-8.448688138231546" x="1046.9463130731183" y="180" /><rect fill="black" height="20" width="-11.243376341149997" x="1038.4976249348867" y="180" /><rect fill="white" height="20" width="-13.145632333679032" x="1027.2542485937367" y="180" /><rect fill="black" height="20" width="-14.108616260057715" x="1014.1086162600577" y="180" /><rect fill="black" height="20" width="-14.108616260057714" x="-3.061616997868383e-14" y="200" /><rect fill="white" height="20" width="-13.145632333679131" x="-14.108616260057744" y="200" /><rect fill="black" height="20" width="-11.243376341149826" x="-27.254248593736875" y="200" /><rect fill="white" height="20" width="-8.448688138231603" x="-38.4976249348867" y="200" /><rect fill="black" height="20" width="-4.8303822235185905" x="-46.946313073118304" y="200" /><rect fill="white" height="20" width="-0.477553297099945" x="-51.776695296636895" y="200" /><rect fill="black" height="20" width="4.502617546644828" x="-52.25424859373684" y="200" /><rect fill="white" height="20" width="9.987501973303615" x="-47.75163104709201" y="200" /><rect fill="black" height="20" width="15.842043925003988" x="-37.764129073788396" y="200" /><rect fill="white" height="20" width="21.922085148784408" x="-21.922085148784408" y="200" /><rect fill="black" height="20" width="28.077914851215606" x="0.0" y="200" /><rect fill="white" height="20" width="34.15795607499605" x="28.077914851215606" y="200" /><rect fill="black" height="20" width="40.01249802669638" x="62.23587092621166" y="200" /><rect fill="white" height="20" width="45.497382453355186" x="102.24836895290804" y="200" /><rect fill="black" height="20" width="50.47755329709992" x="147.74575140626322" y="200" /><rect fill="white" height="20" width="54.830382223518654" x="198.22330470336314" y="200" /><rect fill="black" height="20" width="58.44868813823163" x="253.0536869268818" y="200" /><rect fill="white" height="20" width="61.24337634114977" x="311.5023750651134" y="200" /><rect fill="black" height="20" width="63.145632333679146" x="372.7457514062632" y="200" /><rect fill="white" height="20" width="64.10861626005766" x="435.89138373994234" y="200" /><rect fill="black" height="20" width="64.10861626005783" x="500.0" y="200" /><rect fill="white" height="20" width="63.14563233367903" x="564.1086162600578" y="200" /><rect fill="black" height="20" width="61.24337634115" x="627.2542485937369" y="200" /><rect fill="white" height="20" width="58.448688138231546" x="688.4976249348869" y="200" /><rect fill="black" height="20" width="54.83038222351843" x="746.9463130731184" y="200" /><rect fill="white" height="20" width="50.47755329710003" x="801.7766952966368" y="200" /><rect fill="black" height="20" width="45.49738245335516" x="852.2542485937369" y="200" /><rect fill="white" height="20" width="40.01249802669645" x="897.751631047092" y="200" /><rect fill="black" height="20" width="34.15795607499604" x="937.7641290737885" y="200" /><rect fill="white" height="20" width="28.077914851215496" x="971.9220851487845" y="200" /><rect fill="black" height="20" width="21.922085148784504" x="1000.0" y="200" /><rect fill="white" height="20" width="15.84204392500385" x="1021.9220851487845" y="200" /><rect fill="black" height="20" width="9.987501973303551" x="1037.7641290737884" y="200" /><rect fill="white" height="20" width="4.5026175466450695" x="1047.751631047092" y="200" /><rect fill="black" height="20" width="-0.47755329710003025" x="1052.254248593737" y="200" /><rect fill="white" height="20" width="-4.830382223518654" x="1051.776695296637" y="200" /><rect fill="black" height="20" width="-8.448688138231546" x="1046.9463130731183" y="200" /><rect fill="white" height="20" width="-11.243376341149997" x="1038.4976249348867" y="200" /><rect fill="black" height="20" width="-13.145632333679032" x="1027.2542485937367" y="200" /><rect fill="white" height="20" width="-14.108616260057715" x="1014.1086162600577" y="200" /><rect fill="white" height="20" width="-14.108616260057714" x="-3.061616997868383e-14" y="220" /><rect fill="black" height="20" width="-13.145632333679131" x="-14.108616260057744" y="220" /><rect fill="white" height="20" width="-11.243376341149826" x="-27.254248593736875" y="220" /><rect fill="black" height="20" width="-8.448688138231603" x="-38.4976249348867" y="220" /><rect fill="white" height="20" width="-4.8303822235185905" x="-46.946313073118304" y="220" /><rect fill="black" height="20" width="-0.477553297099945" x="-51.776695296636895" y="220" /><rect fill="white" height="20" width="4.502617546644828" x="-52.25424859373684" y="220" /><rect fill="black" height="20" width="9.987501973303615" x="-47.75163104709201" y="220" /><rect fill="white" height="20" width="15.842043925003988" x="-37.764129073788396" y="220" /><rect fill="black" height="20" width="21.922085148784408" x="-21.922085148784408" y="220" /><rect fill="white" height="20" width="28.077914851215606" x="0.0" y="220" /><rect fill="black" height="20" width="34.15795607499605" x="28.077914851215606" y="220" /><rect fill="white" height="20" width="40.01249802669638" x="62.23587092621166" y="220" /><rect fill="black" height="20" width="45.497382453355186" x="102.24836895290804" y="220" /><rect fill="white" height="20" width="50.47755329709992" x="147.74575140626322" y="220" /><rect fill="black" height="20" width="54.830382223518654" x="198.22330470336314" y="220" /><rect fill="white" height="20" width="58.44868813823163" x="253.0536869268818" y="220" /><rect fill="black" height="20" width="61.24337634114977" x="311.5023750651134" y="220" /><rect fill="white" height="20" width="63.145632333679146" x="372.7457514062632" y="220" /><rect fill="black" height="20" width="64.10861626005766" x="435.89138373994234" y="220" /><rect fill="white" height="20" width="64.10861626005783" x="500.0" y="220" /><rect fill="black" height="20" width="63.14563233367903" x="564.1086162600578" y="220" /><rect fill="white" height="20" width="61.24337634115" x="627.2542485937369" y="220" /><rect fill="black" height="20" width="58.448688138231546" x="688.4976249348869" y="220" /><rect fill="white" height="20" width="54.83038222351843" x="746.9463130731184" y="220" /><rect fill="black" height="20" width="50.47755329710003" x="801.7766952966368" y="220" /><rect fill="white" height="20" width="45.49738245335516" x="852.2542485937369" y="220" /><rect fill="black" height="20" width="40.01249802669645" x="897.751631047092" y="220" /><rect fill="white" height="20" width="34.15795607499604" x="937.7641290737885" y="220" /><rect fill="black" height="20" width="28.077914851215496" x="971.9220851487845" y="220" /><rect fill="white" height="20" width="21.922085148784504" x="1000.0" y="220" /><rect fill="black" height="20" width="15.84204392500385" x="1021.9220851487845" y="220" /><rect fill="white" height="20" width="9.987501973303551" x="1037.7641290737884" y="220" /><rect fill="black" height="20" width="4.5026175466450695" x="1047.751631047092" y="220" /><rect fill="white" height="20" width="-0.47755329710003025" x="1052.254248593737" y="220" /><rect fill="black" height="20" width="-4.830382223518654" x="1051.776695296637" y="220" /><rect fill="white" height="20" width="-8.448688138231546" x="1046.9463130731183" y="220" /><rect fill="black" height="20" width="-11.243376341149997" x="1038.4976249348867" y="220" /><rect fill="white" height="20" width="-13.145632333679032" x="1027.2542485937367" y="220" /><rect fill="black" height="20" width="-14.108616260057715" x="1014.1086162600577" y="220" /></svg>