<?xml version="1.0" encoding="utf-8" ?>
<svg baseProfile="full" height="2500" version="1.1" width="2500" xmlns="http://www.w3.org/2000/svg" xmlns:ev="http://www.w3.org/2001/xml-events" xmlns:xlink="http://www.w3.org/1999/xlink"><defs><clipPath id="viewbox-clip"><rect height="2500" width="2500" x="0" y="0" /></clipPath></defs><rect clip-path="url(#viewbox-clip)" fill="white" height="2500" width="2500" x="0" y="0" /><polygon clip-path="url(#viewbox-clip)" fill="black" points="1187.787191012833,1392.4232910359208 1192.8079278622722,1446.9086845383426 1228.2205922936346,1601.456331290977 1088.7350355089131,1704.3209153476355 1246.0449269110056,1695.1498868502554 1202.5606305556862,1792.9645758574497 1509.6274870456969,1825.2002932179153 1426.280927324093,2045.6233356799637 1758.2435338598798,2111.2133941652446 1720.1941979888757,2132.562981422628 1388.6040566974657,2052.6982344230673 1480.025635573819,1839.8819133014708 1175.341836003203,1797.2044982342497 1225.8695416203,1703.694975717876 1072.2503501812755,1705.5822475334244 1218.010333979547,1606.108472567459 1187.4030887689175,1447.3342543125457 1184.8958820908651,1392.5063609028539" stroke="none" /><polygon clip-path="url(#viewbox-clip)" fill="black" points="1182.0037015976254,1392.4632345818204 1181.9848307919347,1447.5236632685617 1207.6068700165513,1610.3108208237732 1055.7263360841569,1706.1233273355588 1205.340627284507,1711.35189360809 1147.9640048953947,1800.2531180012338 1449.8115552317392,1853.258345109802 1350.6544433543245,2058.122957415659 1681.2498207379147,2152.232559883269 1641.4845349425416,2170.1846873866257 1312.5043265405766,2061.8871783892027 1419.0427602386394,1865.3041258446976 1120.4792524898244,1802.1046319374045 1184.497261858849,1718.1060651425037 1039.1944476175522,1705.9431247778823 1197.030003989593,1614.055376651168 1176.563467893335,1447.476550855678 1179.1161549630633,1392.2939941662235" stroke="none" /><polygon clip-path="url(#viewbox-clip)" fill="black" points="1176.2387387963154,1391.998961814813 1171.1493199455267,1447.1930067550497 1186.2998695643046,1617.3350120747998 1022.6861541707685,1705.041982886206 1163.379121874073,1723.9446333717196 1092.9398975748277,1802.755515580751 1387.7778207445726,1875.9963256778915 1274.226327171888,2063.9837319351313 1600.9740360843791,2186.3851910376634 1559.7954382004698,2200.803232256905 1235.8933095956359,2064.4086271446095 1356.0762513388495,1885.3145913992962 1065.3983628777196,1802.2045299372644 1142.0264069099167,1728.8564842492706 1006.2328802186521,1703.4216170353377 1175.4368921614255,1620.1434841222372 1165.752693086848,1446.6735707089886 1173.3769304225962,1391.5786991384387" stroke="none" /><polygon clip-path="url(#viewbox-clip)" fill="black" points="1170.5361774568,1391.034006130991 1160.383860103249,1445.9192314935308 1164.4617500758534,1622.4754467073146 989.8659455033137,1701.0851116837705 1120.4797630729233,1732.8322677878402 1037.9070752751547,1800.4527238394328 1323.9983977606328,1893.2411851604957 1197.5782428894834,2063.1610552054563 1518.0271270923242,2213.4113654834237 1475.7486111140922,2224.185590419022 1159.3540619605917,2060.2433909417655 1291.6053220273945,1899.761018239747 1010.5183659955874,1797.50343194973 1098.7802056242679,1735.864415857494 973.6165054152196,1698.0369145022394 1153.3953351143343,1624.3264608067116 1155.053040873458,1444.9314250362468 1167.7218874336552,1390.365919646568" stroke="none" /><polygon clip-path="url(#viewbox-clip)" fill="black" points="1164.9394175141742,1389.5757114257647 1149.7703829148634,1443.7120316828712 1142.2587128267216,1625.693002909885 957.5154916871354,1694.2828279073274 1076.969040904876,1737.9471565920448 983.2843710038034,1793.362268412894 1258.9586861998955,1904.8616797642208 1121.293528709879,2055.661188293292 1433.0403698238924,2233.1053977141682 1389.9837007863985,2240.1538080087075 1083.4690935256076,2049.4231697432133 1226.1206350049465,1908.5334603348024 956.2569317571488,1788.0371161690869 1055.0877877064568,1739.07652537613 941.5935535138143,1689.8299980162365 1131.0730824065038,1626.5724717262724 1144.545942067136,1442.263372617958 1162.1940642879943,1388.6648856748411" stroke="none" /><polygon clip-path="url(#viewbox-clip)" fill="black" points="1159.491053691017,1387.6351762023828 1139.3896633503668,1440.588205446374 1119.8597363369356,1626.963193136996 925.8809992095131,1684.6869010437463 1033.1780982381222,1739.2503723920793 929.4874965223687,1781.5381119482654 1193.15367753939,1910.7693705084857 1045.952757369951,2041.5412097143849 1346.660564818304,2245.3174042530386 1303.1534299712505,2248.586357248231 1008.8159347210708,2032.0303119657024 1160.120568280481,1911.5651541031743 903.0270224409081,1773.8776269743435 1011.2816788390409,1738.4683667122172 910.407738514393,1678.863327167259 1108.6400198595852,1626.8644233816433 1134.3113620341571,1438.6897189440401 1156.8355310575428,1386.488543118895" stroke="none" /><polygon clip-path="url(#viewbox-clip)" fill="black" points="1154.2325513258347,1385.2271691056228 1129.3207049536945,1436.5715269879167 1097.4352903424544,1626.2763504740574 895.2032256596301,1672.3703618906384 989.4402105880499,1736.731996928802 876.9258785290958,1765.070243415863 1127.084187629173,1910.919296299566 972.1293176315979,2020.908581031595 1259.5451145492034,2249.954444356463 1215.9186294591027,2249.4190613461674 935.9627411622935,2008.197187759014 1094.1074222137008,1908.8330265246982 851.23374979786,1755.1327266280055 967.6952699613531,1734.0445683204046 880.2964032996111,1665.2203649423247 1086.2668766250142,1625.2000938444414 1124.4271921083814,1434.2376616767824 1151.6870694157556,1383.853455259692" stroke="none" /><polygon clip-path="url(#viewbox-clip)" fill="black" points="1149.2039307967968,1382.3700165234854 1119.6401385780484,1431.6925656559051 1075.1560384175468,1623.6377022084607 865.7156474179471,1657.4269467478885 946.0882496893349,1730.4111965601248 825.9995426744858,1744.0839932387892 1061.25304518131,1905.3103161116633 900.3850504470403,1993.9203290075213 1172.3570201948855,2246.981227349333 1128.9432087556656,2242.645582921531 865.4639696422188,1978.1051815891947 1028.5835967060023,1900.3578707399504 801.2712919064512,1731.9450751401887 924.6602799631459,1725.8387979776157 851.4887133121746,1649.0049425218112 1064.123925832079,1621.5921496673946 1114.9686567911688,1428.9410836602144 1146.7878622644525,1380.7796767069506" stroke="none" /><polygon clip-path="url(#viewbox-clip)" fill="black" points="1144.4434629424939,1379.0854631123168 1110.4216391788332,1425.988453292073 1053.1915391219416,1619.067330046767 837.6426827599701,1639.9703840278135 903.4521501410461,1720.3360763934575 777.096069124555,1718.7390794527362 996.1612649397603,1893.9851176708028 831.2659730099256,1960.7818505360187 1085.7598357989975,2236.4203812083506 1042.8891033296868,2228.317472235071 797.8561583804369,1941.983311793247 964.047767633866,1886.2041878018915 753.5198932393922,1704.491144539802 882.504231103543,1713.9135065509395 824.2039124674466,1630.3404690614786 1042.3796887065932,1616.0680494842265 1106.0077412475027,1422.8402950512034 1142.175195528277,1377.2906007714546" stroke="none" /><polygon clip-path="url(#viewbox-clip)" fill="black" points="1139.9873777977455,1375.3985063068433 1101.735365102759,1419.5026016357465 1031.7089555578052,1612.6000172807926 811.1979838976656,1620.1335287132738 861.8563984051266,1706.583314176792 730.5876428417428,1689.228392155293 932.304234655653,1877.029892575461 765.29812323479,1921.7453494478154 1000.4126182236018,2218.3522803494616 958.4112368843477,2206.5437748606614 733.6538436433624,1900.1064876112994 900.99109162433,1866.4796957839076 708.3429707736221,1672.9798758158513 841.5479563688843,1698.3594527088203 798.6496545748685,1609.3689924742766 1021.1996520226111,1608.6698350328738 1097.6126434554196,1415.9817265348208 1137.8841743862963,1373.4127814278354" stroke="none" /><polygon clip-path="url(#viewbox-clip)" fill="black" points="1135.8695888611617,1371.3372060745999 1093.6474241404603,1412.2843719342945 1010.8717831575997,1604.2849840657568 786.5828109571216,1598.0673512510343 821.6175632684885,1689.2575767347423 686.8282210326167,1655.7765254958338 870.1679448873797,1854.5736803264583 702.9835562908994,1877.107917087077 916.964911328506,2192.91443393002 876.1525369924276,2177.49020178264 673.3456438125618,1852.7934169612945 839.8934680564889,1841.3345099802295 666.084348167677,1637.6510887503496 802.1031577399754,1679.2950121927915 775.0204229670858,1586.2501183599584 1000.7450086481534,1599.4538111924755 1089.8472551782158,1408.4175759587933 1133.94745610039,1369.1757312227892" stroke="none" /><polygon clip-path="url(#viewbox-clip)" fill="black" points="1132.1214349929382,1366.932471362634 1086.2193704062927,1404.3886992742312 990.8386053851192,1594.1855128251807 763.9845002674633,1573.9397885755045 783.0418865633947,1668.4907233908084 646.1508393198061,1618.638068378426 810.2252903189942,1826.7873862584413 644.796523659261,1827.2092712668868 836.051802550285,2160.3004393210695 796.7390420292652,2141.3778682351563 617.3905407038345,1800.4041808792917 781.2198867374477,1810.9600004379017 627.0656390560423,1598.7736567449704 764.4700339518029,1656.8652769066034 753.4960503643538,1561.1597953100909 981.1714307701513,1588.4901174692443 1082.7706757095502,1400.2054110763636 1130.3950014737688,1364.6116966667769" stroke="none" /><polygon clip-path="url(#viewbox-clip)" fill="black" points="1128.7714419072097,1362.2178248617556 1079.5077358743545,1395.8756744920374 971.7618868195757,1582.378466633432 743.5750386182723,1547.9344660072659 746.422952482201,1644.4408024383067 608.8650771398197,1578.0956668865465 752.9324707461266,1793.8824808470906 591.1798637924924,1772.4291708115634 758.2890895034116,2120.7585087144516 720.7751366427093,2098.481610881731 566.2143864384528,1743.337493085361 725.4168890491216,1775.5873355151716 591.5837993751982,1556.6434605321099 728.934995799896,1631.2409506792292 734.2403502389509,1534.2889758330357 962.6278851351058,1575.8621941924732 1076.4367620921353,1391.4077314209273 1127.2538468311727,1359.7554128186096" stroke="none" /><polygon clip-path="url(#viewbox-clip)" fill="black" points="1125.8451050741398,1357.2291478786174 1073.5636001360294,1386.8100868466104 953.7868128080906,1568.9537042413199 725.5097543362687,1520.2492997535057 712.0394532243827,1617.2908482974249 575.254701656606,1534.4578731757201 698.7255191200766,1756.109390291112 542.5416318468041,1713.1845253626998 684.2685933885826,2074.5895800781545 648.8389520210118,2049.1278961422913 520.206662451383,1682.0276655314221 672.9091694986896,1735.4857225506998 559.9088673496361,1511.581136343856 695.7684863812336,1602.6170501056495 717.3998700957409,1505.842163090057 945.2554993221985,1561.6661474832472 1070.8937192331207,1382.0914926468467 1124.5478982561128,1354.6438389306759" stroke="none" /><polygon clip-path="url(#viewbox-clip)" fill="black" points="1123.3646956839984,1352.0044072573069 1068.4322016534536,1377.2609309338832 937.0501845175379,1554.0133961967413 709.9261351429552,1491.094990646176 680.153067980616,1587.2474885127656 545.575508122092,1488.0567972053063 648.0169830737707,1713.755590617652 499.2519941358703,1649.9262224450572 614.5536548760296,2022.145026836661 581.4779659653998,1993.6923355865924 479.71751530239,1616.9413030250466 624.0963435369587,1690.9603590331626 532.2819083379179,1463.929635676657 665.2229228589777,1571.2114203528138 703.1027761571737,1476.0358545027843 929.1864876771991,1546.0100178288303 1066.1837330356445,1372.3275969564916 1122.2977496511414,1349.315877166716" stroke="none" /><polygon clip-path="url(#viewbox-clip)" fill="black" points="1121.3490911499568,1346.5833664287368 1064.1525934675024,1367.3008815962899 921.679377795061,1537.67124726512 696.9427817900398,1460.6934205814362 651.0064713961318,1554.5393711929669 520.053373119862,1439.2455791811758 601.1927851851725,1667.1434198161487 461.64041094166885,1583.135695940247 549.6748467428635,1963.823983707026 519.2048362534318,1932.59682730337 445.05509184929304,1548.5737520851285 579.3499062434877,1642.3501098640772 508.9131801797365,1414.0516152233524 637.530775415448,1537.2630772263783 691.457877940943,1445.096894077108 914.5431450814605,1529.0129578293227 1062.3426493386373,1362.1903534916664 1120.5205260058196,1343.8120765328647" stroke="none" /><polygon clip-path="url(#viewbox-clip)" fill="black" points="1119.8136314395742,1341.0072827869262 1060.757345980569,1357.0057408233317 907.7913737609649,1520.0516310674848 686.6585054361012,1429.275963864449 624.8214866701343,1519.4154248605337 498.8825355079699,1388.3957019455115 558.6092858734379,1616.6276246516006 429.99312912280277,1513.3212620841923 490.1259358938735,1900.0703090426746 462.49349900375967,1866.3063450011355 416.4831940643138,1477.445331055776 539.0104050247174,1590.0249283912917 489.98053300679953,1362.3266768367644 612.9027980136657,1501.0303881161053 682.5538001538562,1413.2607459833223 901.4369162140283,1510.8043253744258 1059.3997011083425,1351.756912796174 1119.229753065205,1338.1743242752311" stroke="none" /><polygon clip-path="url(#viewbox-clip)" fill="black" points="1118.7700023283828,1335.3185936953212 1058.2722990761356,1346.453860852667 895.4918685117551,1501.2886435221153 679.1515756340086,1397.0817263112099 601.7973973473142,1482.142963955474 482.2241181439432,1335.8941637680718 520.5905712809493,1562.5926608274804 404.5510036030648,1441.0142508736465 436.3601254972357,1831.3692068033238 411.77556173609514,1795.3253992774967 394.21927134177974,1404.0973701695377 503.3848478425796,1534.3830408406225 475.6280556959381,1309.1484785303865 591.5264244324378,1462.78910566402 676.4583082043022,1380.769702531613 889.967547390341,1491.5226991517945 1057.3772859577937,1341.1066796535906 1118.4352543907657,1332.4455270926642" stroke="none" /><polygon clip-path="url(#viewbox-clip)" fill="black" points="1118.226146464079,1329.5605935128328 1056.716365461657,1335.7255478622715 884.8744687090224,1481.525082293633 674.4791246523644,1364.3557255089108 582.1094306497437,1443.005654411003 470.20490164254954,1282.140533055683 487.4259867820829,1505.449767045693 385.50766432003536,1366.7649623240884 388.78660583475244,1758.243533859875 367.4370185773728,1720.1941979888772 378.4327655769331,1329.0880916974675 472.7443666985298,1475.8479155738203 465.96497926575034,1254.921738503204 573.5643417821244,1422.8302691203007 673.2177924665757,1347.871040181276 880.2223274325411,1471.3148239795473 1056.2907956874542,1330.3207087689177 1118.1430765971459,1326.6692845908651" stroke="none" /><polygon clip-path="url(#viewbox-clip)" fill="black" points="1118.1862029181793,1323.7771040976254 1056.1013867314382,1324.9024507919348 876.019979176227,1460.9113600165515 672.6767126644414,1331.3470260841573 565.9074238919104,1402.3013547845078 462.91635949876604,1227.5439073953958 459.3679348901986,1445.6338352317402 373.0080425843413,1291.1384783543263 347.7674401167318,1681.2498207379163 329.815312613375,1641.4845349425432 369.2438216107972,1252.9883615405784 447.32215415530277,1414.8650402386404 461.06484556259534,1200.0591549898254 559.1532523574967,1381.4579893588498 672.8569152221178,1314.8151376175524 872.2754233488321,1450.3344939895933 1056.148499144322,1319.4810878933351 1118.3554433337763,1320.8895574630635" stroke="none" /><polygon clip-path="url(#viewbox-clip)" fill="black" points="1118.6504756851868,1318.0121412963153 1056.43204324495,1314.0669399455269 868.9957879252004,1439.6043595643048 673.7580571137942,1298.306844170769 553.3146841282808,1360.3398493740738 460.4139619192488,1172.5198000748287 436.6299543221088,1383.6001007445739 367.14726806486885,1214.7103621718898 313.6148089623374,1600.9740360843807 299.19676774309517,1559.7954382004714 366.72237285539074,1176.3773445956376 427.311688600704,1351.8985313388507 460.96494756273546,1144.9782653777206 548.4028332507296,1338.9871344099174 675.3784229646624,1281.8535702186525 866.187315877763,1428.7413821614257 1056.9514792910113,1308.6703130868482 1119.070738361561,1315.1503329225964" stroke="none" /><polygon clip-path="url(#viewbox-clip)" fill="black" points="1119.6154313690088,1312.3095799568002 1057.705818506469,1303.301480103249 863.8553532926853,1417.7662400758536 677.7149283162295,1265.486635503314 544.4270497121602,1317.440490572924 462.71675366056695,1117.4869777751558 419.38509483950463,1319.820677760634 367.9699447945437,1138.0622778894851 286.5886345165767,1518.0271270923258 275.81440958097846,1475.748611114094 370.8876090582344,1099.8380969605935 412.86526176025325,1287.4276020273958 465.6660455502699,1090.0982684955884 541.3949016425064,1295.7409331242686 680.7631254977607,1249.23719541522 862.0043391932884,1406.6998251143345 1058.693624963753,1297.9706608734582 1120.2835178534315,1309.4952899336552" stroke="none" /><polygon clip-path="url(#viewbox-clip)" fill="black" points="1121.073726074235,1306.7128200141742 1059.9130183171285,1292.6880029148635 860.6377970901149,1395.5632028267219 684.5172120926725,1233.1361816871358 539.3121609079553,1273.9297684048768 469.80720908710543,1062.8642735038043 407.7646002357794,1254.7809661998967 375.46981170670745,1061.7775637098807 266.8946022858322,1433.0403698238943 259.8461919912929,1389.9837007864003 381.70783025678634,1023.9531285256094 404.09281966519757,1221.9429150049477 475.1323613309129,1035.8368342571498 538.1827921238703,1252.0485152064575 688.9700419837635,1217.2142435138146 859.7583282737276,1384.377572406504 1061.3616773820415,1287.463562067136 1121.9845518251584,1303.9674667879942" stroke="none" /><polygon clip-path="url(#viewbox-clip)" fill="black" points="1123.014261297617,1301.264456191017 1063.0368445536258,1282.307283350367 859.3676068630039,1373.1642263369358 694.1131389562536,1201.5016892095134 538.0089451079209,1230.138825738123 481.63136555173423,1009.0673990223697 401.8569094915142,1188.9759575393912 389.589790285615,986.4367923699527 254.68259574696174,1346.6605648183058 251.4136427517692,1303.1534299712523 399.10068803429726,949.2999697210724 401.06112589682573,1155.9428482804822 489.29185052565606,982.606924940909 538.7909507877829,1208.2424063390415 699.9367128327408,1186.0284285143935 859.4663766183567,1361.9445098595854 1064.9353310559595,1277.2289820341573 1124.1608943811045,1298.608933557543" stroke="none" /><polygon clip-path="url(#viewbox-clip)" fill="black" points="1125.4222683943767,1296.0059538258347 1067.053523012083,1272.2383249536947 860.0544495259427,1350.7397803424547 706.4296781093614,1170.8239156596303 540.5273205711983,1186.4009380880507 498.0992340841367,956.5057810290967 401.70698370043397,1122.9064676291741 410.2224189684043,912.6133526315996 250.045555643537,1259.5451145492052 250.58093865383273,1215.9186294591047 422.9338122409856,876.446776162295 403.7932534753015,1089.9297022137023 508.03675087199383,930.8136522978609 543.2147491795956,1164.6559974613538 713.579675057675,1155.9170932996115 861.1307061555585,1339.5713666250144 1069.3873883232172,1267.3448121083816 1126.7959822403075,1293.4604719157555" stroke="none" /><polygon clip-path="url(#viewbox-clip)" fill="black" points="1128.279420976514,1290.977333296797 1071.9324843440945,1262.5577585780486 862.6930977915392,1328.460528417547 721.3730932521113,1141.3363374179476 546.8481209398751,1143.0489771893356 519.0854842612102,905.5794451744869 407.31596388833646,1057.0753251813114 437.2106709924781,840.8690854470419 253.01877265066673,1172.3570201948874 257.35441707846894,1128.9432087556675 453.02581841080485,805.9480046422204 412.26840926004945,1024.4058767060035 531.2244023598105,880.8511944064521 551.4205195223841,1121.6210074631467 729.7950974781884,1127.109403312175 864.7386503326052,1317.4284158320793 1074.6839663397855,1257.886276791169 1129.8697607930492,1288.5612647644525" stroke="none" /><polygon clip-path="url(#viewbox-clip)" fill="black" points="1131.563974387683,1286.2168654424938 1077.6365967079266,1253.3392591788333 867.263469953233,1306.4960291219418 738.8296559721863,1113.2633727599703 556.9232411065425,1100.4128776410469 544.4303980472631,856.6759716245558 418.64116232919685,991.9835449397615 470.34914946398067,771.7500080099271 263.57961879164907,1085.7598357989993 271.68252776492864,1042.8891033296886 489.14768820675226,738.3401933804384 426.4220921981081,959.8700476338671 558.678332960197,833.0997957393931 563.3458109490604,1079.464958603544 748.4595709385211,1099.8246024674468 870.2627505157732,1295.6841787065935 1080.7847549487963,1248.925361247503 1133.358836728545,1283.9485980282773" stroke="none" /><polygon clip-path="url(#viewbox-clip)" fill="black" points="1135.2509311931565,1281.7607802977457 1084.1224483642532,1244.6529851027592 873.7307827192074,1285.0134455578054 758.6665112867257,1086.8186738976658 570.6760033232077,1058.8171259051273 573.941085344706,810.1675453417436 435.59638742453865,928.1265146556542 509.38565055218373,705.7821582347915 281.64771965053785,1000.4126182236035 293.4562251393379,958.4112368843494 531.0245123886997,674.1378786433638 446.1465842160918,896.8133716243312 590.1896016841479,787.9228732736229 578.8998647911794,1038.508683868885 769.4310475257229,1074.2703445748687 877.6609649671259,1274.5041420226112 1087.6433234651788,1240.5302634554198 1137.2366560721644,1279.6575768862965" stroke="none" /><polygon clip-path="url(#viewbox-clip)" fill="black" points="1139.3122314254,1277.6429913611616 1091.3406780657053,1236.5650441404605 882.0458159342429,1264.1762731576 780.7326887489653,1062.2035009571218 588.0017407652574,1018.5782907684893 607.3929520041654,766.4081235326175 458.0525996735412,865.9902248873808 554.0230829129221,643.4675912909008 307.08556606997934,916.9649113285077 322.5097982173596,876.1525369924293 578.3375830387046,613.8296788125633 471.2917700197696,835.71574805649 625.5183887496496,745.6642506676778 597.9643053072084,999.0638852399761 792.5499216400412,1050.641112967086 886.8769888075241,1254.0494986481535 1095.2074740412063,1232.7648751782158 1141.4737062772106,1275.7208586003899" stroke="none" /><polygon clip-path="url(#viewbox-clip)" fill="black" points="1143.7169661373657,1273.8948374929382 1099.2363507257685,1229.1369904062929 892.145287174819,1244.1430953851193 804.8602514244951,1039.6051902674635 608.7685941091913,980.0026140633954 644.5314091215731,725.7307418198068 485.8388937415581,806.0475703189953 603.9217287331119,585.2805586592623 339.6995606789301,836.0518025502865 358.62213176484283,796.7390420292668 630.7268191207071,557.8745757038358 501.6662795620973,777.042166737449 664.3958207550286,706.645541556043 620.3940405933961,961.4307614518034 817.6402446899085,1029.116740364354 897.8406825307553,1234.4759207701513 1103.4196389236363,1225.6882957095504 1146.0377408332229,1272.1684039737688" stroke="none" /><polygon clip-path="url(#viewbox-clip)" fill="black" points="1148.4316126382441,1270.5448444072097 1107.7493755079624,1222.4253558743544 903.9523333665676,1225.066376819576 830.8655739927337,1019.1957286182725 632.818515061693,943.3836799822018 685.0738106134527,688.4449796398201 518.7437991529085,748.7547507461276 658.7018291884356,531.6638987924937 379.24149128554734,758.2890895034132 401.51838911826815,720.7751366427109 687.7935069146378,506.6984214384539 537.0389444848275,721.2391690491227 706.5260169678892,671.1637018751985 646.0183668207706,925.8957232998966 844.5110641669639,1009.861040238951 910.4686058075264,1215.932375135106 1112.2173185790725,1219.3543820921352 1150.8940246813902,1269.027249331173" stroke="none" /><polygon clip-path="url(#viewbox-clip)" fill="black" points="1153.4202896213822,1267.6185075741398 1116.8149631533895,1216.4812201360294 917.3770957586797,1207.0913028080909 858.5507402464937,1001.1304443362687 659.9684692025747,909.0001807243832 728.711604324279,654.8346041566064 556.516889708887,694.5477991200775 717.946474637299,483.0256668468053 425.41041992184444,684.2685933885841 450.87210385770754,648.8389520210134 749.1033344685766,460.69069745138404 577.1405574492991,668.7314494986906 751.5883411561429,639.4887698496365 674.64226739435,892.7292138812342 872.9578769099426,993.020560095741 924.6646525167525,1198.5599893221986 1121.533557353153,1213.8113392331206 1156.0055985693236,1266.3213007561128" stroke="none" /><polygon clip-path="url(#viewbox-clip)" fill="black" points="1158.6450302426927,1265.1380981839984 1126.3641190661165,1211.3498216534535 932.3174038032585,1190.3546745175381 887.7050493538235,985.5468251429554 690.0118289872339,877.1137954806165 775.1126802946927,625.1554106220923 598.8706893823471,643.8392630737715 781.2047775549414,439.73602913587126 477.85497316333795,614.5536548760309 506.3076644134063,581.4779659654012 814.1896969749519,420.20155030239096 621.6659209668364,619.9186235369594 799.2398418233422,611.8618108379181 706.0478971471857,862.1836503589782 902.7641854972152,978.7234661571737 940.3207821711693,1182.4909776771992 1131.297453043508,1209.1013530356447 1161.3335603332837,1264.0711521511414" stroke="none" /><polygon clip-path="url(#viewbox-clip)" fill="black" points="1164.066071071263,1263.1224936499568 1136.3241684037098,1207.0702134675023 948.6595527348798,1174.983867795061 918.1066194185632,972.5634717900399 722.7199463070327,847.9671988961321 823.9238983188231,599.6332756198624 645.4828601838501,597.0150651851733 847.9953040597518,402.1244459416697 536.1760162929728,549.6748467428648 567.4031726966288,519.2048362534331 882.5572479148701,385.5391268492939 670.2761701359218,575.1721862434885 849.1178622766467,588.4930826797367 739.9962402736214,834.4915029154483 933.7031459228915,967.078567940943 957.3178421706768,1167.8476350814606 1141.4346965083332,1205.2602693386373 1166.837360967135,1262.2939285058196" stroke="none" /><polygon clip-path="url(#viewbox-clip)" fill="black" points="1169.6421547130733,1261.5870339395742 1146.619309176668,1203.674965980569 966.2791689325147,1161.095863760965 949.5240761355503,962.2791954361012 757.843892639466,821.7822141701345 874.7737755544877,578.4624380079701 695.9986553483982,554.4315658734387 917.8097379158062,370.4771641228035 599.9296909573242,490.1259358938746 633.6936549988632,462.4934990037608 953.6856689442225,356.96722906431467 722.6013516087071,534.8326850247181 900.8428006632348,569.5604355067998 776.2289293838942,809.863525513666 965.5392940166771,958.1744901538561 975.5264746255737,1154.7414062140283 1151.8681372038257,1202.3173211083424 1172.4751132247684,1261.003155565205" stroke="none" /><polygon clip-path="url(#viewbox-clip)" fill="black" points="1175.3308438046786,1260.5434048283828 1157.1711891473328,1201.1899190761355 985.0421564778843,1148.796358511755 981.7183136887895,954.7722656340086 795.1163535445255,798.7581248473144 927.2753137319271,561.8040206439433 750.0336191725185,516.4128512809499 990.116749126352,345.03503860306535 668.6307931966747,436.3601254972367 704.6746007225019,411.77556173609605 1027.0336298304608,334.70330634178026 778.2432391593763,499.2071278425801 954.0209989696127,555.2079581959381 814.4702118359794,788.4871519324379 998.0303374683864,952.078998204302 994.808100848205,1143.272037390341 1162.518370346409,1200.2949059577936 1178.2039104073356,1260.2086568907657" stroke="none" /><polygon clip-path="url(#viewbox-clip)" fill="black" points="1181.088843987167,1259.999548964079 1167.8995021377282,1199.633985461657 1004.8057177063665,1138.1789587090225 1014.4443144910884,950.0998146523641 834.2536630889965,779.0701581497439 981.028944444316,549.7848041425497 807.1765129543057,483.2482667820833 1064.36603767591,325.9916993200359 741.7564661401234,388.78660583475335 779.8058020111212,367.4370185773737 1102.042908302531,318.9168005769335 836.7783644261785,468.56664669853035 1008.2477389967949,545.5448817657503 854.4290483796989,770.5250692821246 1030.9289998187235,948.8384824665754 1015.0159760204523,1133.526817432541 1173.304341231082,1199.2084156874541 1183.9801529091344,1259.9164790971458" stroke="none" /><polygon clip-path="url(#viewbox-clip)" fill="black" points="1186.8723334023741,1259.9596054181793 1178.722599208065,1199.0190067314381 1025.419439983448,1129.324469176227 1047.4530139158421,948.2974026644412 874.9579627154917,762.8681513919105 1035.6255701046032,542.496261998766 866.9924447682583,455.19021489019894 1139.9925216456722,313.4920775843416 818.750179262082,347.7674401167327 858.515465057455,329.8153126133758 1178.1426384594201,309.72785661079763 897.7612397613582,443.1444341553032 1063.1103225101735,540.6447480625952 895.8013281411498,756.1139798574967 1063.984902382447,948.4776052221175 1035.9963060104062,1125.579913348832 1184.1439621066645,1199.0661191443219 1189.7598800369362,1260.1288458337763" stroke="none" /><polygon clip-path="url(#viewbox-clip)" fill="black" points="1192.6372962036842,1260.4238781851866 1189.558110054473,1199.3496632449499 1046.7264404356947,1122.3002779252001 1080.4931958292304,949.3787471137939 916.9194681259257,750.2754116282808 1090.6496774251702,539.9938644192487 929.0261792554247,432.452234322109 1216.4206378281087,307.63130306486903 899.0259639156175,313.6148089623381 940.2045617995268,299.1967677430956 1254.7536554043606,307.2064078553908 960.727748661148,423.13396860070407 1118.1912121222783,540.5448500627353 938.2721830900821,745.3635607507297 1096.9464697813469,950.9991129646619 1057.5894178385738,1119.4918058777628 1194.9547369131515,1199.8690992910113 1195.4991045774034,1260.844140861561" stroke="none" /><polygon clip-path="url(#viewbox-clip)" fill="black" points="1198.3398575431995,1261.3888338690085 1200.3235698967508,1200.623438506469 1068.564559924146,1117.1598432926853 1113.3134044966855,953.3356183162291 959.8188269270754,741.38777721216 1145.6824997248432,542.2966561605667 992.8056022393646,415.2073748395047 1293.0687221105131,308.4539797945438 981.9728729076724,286.58863451657726 1024.2513888859041,275.8144095809789 1331.292903039405,311.37164405823444 1025.1986779726028,408.68754176025334 1173.0712090044105,545.2459480502697 981.5183843757308,738.3556291425064 1129.5628445847794,956.3838154977602 1079.630974885665,1115.3088291932881 1205.6543891265414,1201.611244963753 1201.1541475663444,1262.0569203534315" stroke="none" /><polygon clip-path="url(#viewbox-clip)" fill="black" points="1203.9366174858253,1262.847128574235 1210.937047085136,1202.8306383171284 1090.7675971732776,1113.9422870901146 1145.6638583128636,960.1379020926721 1003.3295490951226,736.2728884079552 1200.3052039961947,549.3871115871052 1057.8453138001018,403.5868802357794 1369.3534362901178,315.9538467067074 1066.959630176104,266.89460228583255 1110.016299213598,259.84619199129327 1407.1778714743891,322.1918652567862 1090.6833649950509,399.91509966519754 1227.3326432428494,554.7122638309127 1025.210802293542,735.1435196238701 1161.5857964861848,964.5907319837631 1101.9532275934955,1113.0628182737273 1216.1614879328636,1204.2792973820415 1206.6819707120053,1263.7579543251584" stroke="none" /><polygon clip-path="url(#viewbox-clip)" fill="black" points="1209.3849813089826,1264.787663797617 1221.3177666496329,1205.9544645536257 1113.1665736630637,1112.6720968630036 1177.298350790486,969.7338289562531 1047.1204917618766,734.9696726079208 1254.1020784776292,561.2112680517339 1123.6503224606074,397.6791894915141 1444.6942076300459,330.0738252856147 1153.3394351816924,254.68259574696185 1196.8465700287459,251.41364275176932 1481.831030278926,339.58472303429687 1156.6834317195164,396.8834058968256 1280.56255255909,568.8717530256556 1069.0169111609578,735.7516782877826 1192.7716114856062,975.5574028327403 1124.386290140414,1112.7708666183564 1226.3960679658423,1207.8529510559595 1212.0405039424568,1265.9342968811045" stroke="none" /><polygon clip-path="url(#viewbox-clip)" fill="black" points="1214.643483674165,1267.1956708943767 1231.3867250463052,1209.9711430120828 1135.5910196575448,1113.3589395259423 1207.976124340369,982.0503681093608 1090.8583794119488,737.488048071198 1306.6636964709023,577.6791365841362 1189.7198123708245,397.5292637004337 1518.517647368399,350.70645396840405 1240.454885450793,250.045555643537 1284.0813705408934,250.58093865383262 1554.6842238377035,363.4178472409852 1222.6965777862963,399.6155334753013 1332.355825202138,587.6166533719934 1112.6033200386457,740.1754766795952 1222.882946700388,989.2003650576744 1146.759433374985,1114.435196155558 1236.280237891618,1212.3050083232172 1217.1889655842442,1268.5693847403074" stroke="none" /><polygon clip-path="url(#viewbox-clip)" fill="black" points="1219.6721042032027,1270.052823476514 1241.067291421951,1214.8501043440945 1157.8702715824525,1115.997587791539 1237.463702582052,996.9937832521107 1134.210340310664,743.808848439875 1357.5900323255123,598.6653867612098 1255.5509548186872,403.1382438883361 1590.2619145529566,377.6947059924777 1327.6429798051108,253.01877265066662 1371.0567912443307,257.3544170784687 1625.182995357778,393.5098534108042 1288.220403293995,408.090689260049 1382.318283093547,610.80430485981 1155.6383100368528,748.3812470223838 1251.6906366878245,1005.4157874781877 1168.9023841679202,1118.043140332605 1245.738773208831,1217.6015863397852 1222.0881727355472,1271.6431632930492" stroke="none" /><polygon clip-path="url(#viewbox-clip)" fill="black" points="1224.432572057506,1273.3373768876827 1250.2857908211663,1220.5542167079266 1179.8347708780577,1120.5679599532327 1265.5366672400291,1014.4503459721857 1176.8464398589526,753.8839686065421 1406.4935058754431,624.0103005472625 1320.642735060237,414.4634423291965 1659.3809919900716,410.83318446398005 1414.2401642009988,263.57961879164884 1457.1108966703096,271.6825277649283 1692.7908066195603,429.63172320675164 1352.7562323661314,422.2443721981076 1430.069681760606,638.2582354601965 1197.7943588964558,760.30653844906 1278.9754375325526,1024.0802609385205 1190.646621293406,1123.567240515773 1254.6996887524967,1223.7023749487962 1226.7008394717225,1275.132239228545" stroke="none" /><polygon clip-path="url(#viewbox-clip)" fill="black" points="1228.888657202254,1277.0243336931564 1258.9720648972407,1227.040068364253 1201.317354442194,1127.035272719207 1291.9813661023336,1034.2872012867251 1218.4421915948722,767.6367308232072 1453.0019321582556,653.5209878447054 1384.4997653443445,431.41866742453806 1725.3488417652072,449.869685552183 1499.5873817763945,281.6477196505374 1541.5887631156488,293.45622513933733 1756.993121356635,471.50854738869896 1415.8129083756676,441.9688642160912 1475.2466042263763,669.7695041841473 1238.7506336311144,775.860592291179 1304.5296954251307,1045.0517375257223 1211.8266579773883,1130.9654549671254 1263.09478654458,1230.5609434651788 1230.9918606137032,1279.010058572164" stroke="none" /><polygon clip-path="url(#viewbox-clip)" fill="black" points="1233.006446138838,1281.0856339253999 1267.0600058595392,1234.258298065705 1222.1545268423997,1135.3503059342424 1316.5965390428778,1056.3533787489646 1258.6810267315102,784.962468265257 1496.7613539673816,686.9728545041646 1446.636055112618,453.8748796735405 1787.663408709098,494.5071179129212 1583.0350886714905,307.08556606997877 1623.8474630075689,322.50979821735893 1817.3013211874354,518.8216180387036 1476.9105319435087,467.1140500197689 1517.5052268323213,705.0982912496489 1278.1954322600236,794.9250328072078 1328.1589270329137,1068.1706116400405 1232.281301351846,1140.1814788075237 1270.8601748217839,1238.1250940412062 1234.9285788996099,1283.2471087772105" stroke="none" /><polygon clip-path="url(#viewbox-clip)" fill="black" points="1236.7546000070615,1285.4903686373655 1274.488059593707,1242.1539707257682 1242.1877046148802,1145.4497771748186 1339.194849732536,1080.4809414244944 1297.2567034366043,805.7293216091907 1537.4387356801924,724.1113116215724 1506.5787096810034,481.66117374155726 1845.8504413407366,544.405763733111 1663.9481974497119,339.6995606789293 1703.2609579707314,358.6221317648419 1873.256424296163,571.2108541207061 1535.5841132625499,497.4885595620965 1556.5239359439563,743.9757232550279 1315.828556048196,817.3547680933956 1349.6832996356457,1093.2609346899078 1251.8548792298482,1151.1451725307547 1277.9367542904495,1246.337258923636 1238.4810335262307,1287.8111433332226" stroke="none" /><polygon clip-path="url(#viewbox-clip)" fill="black" points="1240.1045930927899,1290.2050151382439 1281.1996941256452,1250.6669955079622 1261.2644231804238,1157.256823366567 1359.6043113817273,1106.4862639927328 1333.875637517798,829.7792425616924 1574.7244978601789,764.6537131134517 1563.8715292538711,514.5660791529076 1899.4671012075055,599.1858641884346 1741.7109104965853,379.24149128554643 1779.2248633572876,401.51838911826724 1924.4325785615451,628.2775419146367 1591.3871109508764,532.8612244848266 1592.0057756248007,786.1059194678882 1351.363594200103,842.97909432077 1368.9389997610488,1120.131754166963 1270.3984248648937,1163.7730958075258 1284.2706679078647,1255.1349385790722 1241.6221881688268,1292.66742718139" stroke="none" /><polygon clip-path="url(#viewbox-clip)" fill="black" points="1243.03092992586,1295.1936921213821 1287.1438298639703,1259.7325831533892 1279.2394971919089,1170.6815857586791 1377.669595663731,1134.171430246493 1368.2591367756163,856.9291967025742 1608.3348733433927,808.291506824278 1618.0784808799212,552.3391697088861 1948.105333153194,658.4305096372979 1815.7314066114145,425.4104199218435 1851.1610479789852,450.8721038577065 1970.4403025486151,689.5873694685754 1643.8948305013082,572.9628374492981 1623.6807076503628,831.1682436561418 1384.5301036187655,871.6029948943493 1385.7794799042588,1148.5785669099416 1287.770810677801,1177.969142516752 1289.813710766879,1264.4511773531526 1244.328136743887,1297.7790010693236" stroke="none" /><polygon clip-path="url(#viewbox-clip)" fill="black" points="1245.5113393160013,1300.4184327426926 1292.275228346546,1269.2817390661162 1295.9761254824616,1185.6218938032578 1393.2532148570444,1163.3257393538227 1400.1455220193832,886.9725564872333 1638.014066877907,854.6925827946916 1668.7870169262274,594.6929693823461 1991.394970864128,721.6888125549402 1885.4463451239676,477.8549731633368 1918.5220340345973,506.3076644134052 2010.9294496976083,754.6737319749507 1692.7076564630395,617.4882009668354 1651.3076666620811,878.819744323341 1415.0756671410215,903.0086246471851 1400.076573842826,1178.3848754972144 1303.8398223228005,1193.6252721711687 1294.5236969643552,1274.215073043508 1246.5782853488581,1303.1069628332834" stroke="none" /><polygon clip-path="url(#viewbox-clip)" fill="black" points="1247.526943850043,1305.8394735712627 1296.5548365324973,1279.2417884037095 1311.3469322049386,1201.964042734879 1406.2365682099598,1193.7273094185623 1429.2921186038675,919.6806738070319 1663.536201880137,903.503800818822 1715.6112148148259,641.3051401838488 2029.0065540583296,788.4793390597506 1950.325153257134,536.1760162929717 1980.7951637465658,567.4031726966274 2045.5918731507054,823.0412829148688 1737.4540937565107,666.0984501359205 1674.6763948202627,928.6977647766455 1442.7678145845514,936.9569677736205 1411.7214720590569,1209.3238359228906 1318.4831649185392,1210.6223321706761 1298.3647806613626,1284.352316508333 1248.3555089941801,1308.6107634671348" stroke="none" /><polygon clip-path="url(#viewbox-clip)" fill="black" points="1249.0624035604255,1311.4155572130733 1299.9500840194307,1289.5369291766676 1325.2349362390348,1219.583658932514 1416.5208445638987,1225.1447661355494 1455.4771033298653,954.8046201394651 1684.7070394920293,954.3536780544864 1758.1947141265605,691.8209353483969 2060.653835877196,858.2937729158048 2009.874064106124,599.9296909573227 2037.5065009962382,633.6936549988618 2074.163770935685,894.1697039442212 1777.793594975281,718.4236316087058 1693.6090419931998,980.4227031632336 1467.3957919863337,973.1896568838931 1420.6255498461437,1241.1599840166762 1331.5893937859714,1228.830964625573 1301.3077288916572,1294.7857572038254 1249.6462819347948,1314.2485157247684" stroke="none" /><polygon clip-path="url(#viewbox-clip)" fill="black" points="1250.106032671617,1317.1042463046783 1302.4351309238643,1300.0888091473325 1337.5344414882447,1238.3466464778837 1424.0277743659913,1257.3390036887886 1478.5011926526854,992.0770810445246 1701.3654568560562,1006.8552162319259 1796.2134287190493,745.8558991725171 2086.0959613969344,930.6007841263506 2063.6398745027623,668.6307931966732 2088.224438263903,704.6746007225004 2096.427693658219,967.5176648304594 1813.419152157419,774.0655191593748 1707.9615193040613,1033.6009014696115 1488.7721655675618,1011.4309393359783 1426.721041795698,1273.6510274683856 1343.0587626096587,1248.1125908482043 1303.330144042206,1305.4359903464087 1250.440780609234,1319.9773129073353" stroke="none" /><polygon clip-path="url(#viewbox-clip)" fill="black" points="1250.6498885359208,1322.8622464871667 1303.991064538343,1310.817122137728 1348.1518412909772,1258.1102077063658 1428.700225347636,1290.0650044910876 1498.189159350256,1031.2143905889955 1713.38467335745,1060.6088469443148 1829.3780132179158,802.9987929543045 2105.139300679964,1004.8500726759088 2111.2133941652455,741.7564661401218 2132.5629814226254,779.8058020111196 2112.214199423066,1042.5269433025296 1844.059633301469,832.600644426177 1717.6245957342494,1087.8276414967936 1506.7342482178753,1051.389775879698 1429.9615575334246,1306.5496898187225 1352.803982567459,1268.3204660204515 1304.4166343125457,1316.2219612310817 1250.732958402854,1325.7535554091344" stroke="none" /><polygon clip-path="url(#viewbox-clip)" fill="black" points="1250.6898320818204,1328.645735902374 1304.6060432685617,1321.6402192080648 1357.006330823773,1278.7239299834473 1430.502637335559,1323.0737039158412 1514.3911661080892,1071.9186902154906 1720.6732155012337,1115.205472604602 1857.4360651098004,862.8147247682568 2117.6389224156583,1080.4765566456708 2152.2325598832667,818.7501792620803 2170.1846873866234,858.5154650574533 2121.4031433892023,1118.6266734594187 1869.4818458446964,893.5835197613567 1722.5247294374046,1142.6902250101723 1521.1453376425031,1092.762055641149 1430.3224347778826,1339.605592382446 1360.7508866511678,1289.3007960104055 1304.558930855678,1327.0615821066642 1250.5205916662235,1331.533282536936" stroke="none" /><polygon clip-path="url(#viewbox-clip)" fill="black" points="1250.2255593148132,1334.4106987036841 1304.27538675505,1332.4757300544727 1364.0305220747996,1300.030930435694 1429.4212928862062,1356.1138858292295 1526.9839058717191,1113.8801956259247 1723.1756130807512,1170.229579925169 1880.1740456778905,924.8484592554232 2123.499696935131,1156.9046728281073 2186.385191037661,899.0259639156158 2200.803232256904,940.204561799525 2123.924592144609,1195.2376904043592 1889.4923113992954,956.5500286611465 1722.6246274372647,1197.771114622277 1531.8957567492703,1135.232910590081 1427.8009270353382,1372.567159781346 1366.838994122237,1310.893907838573 1303.7559507089888,1337.8723569131512 1249.8052966384387,1337.2725070774031" stroke="none" /><polygon clip-path="url(#viewbox-clip)" fill="black" points="1249.2606036309912,1340.1132600431993 1303.0016114935308,1343.2411898967505 1369.1709567073146,1321.8690499241452 1425.464421683771,1388.9340944966843 1535.8715402878402,1156.7795544270743 1720.8728213394331,1225.262402224842 1897.418905160495,988.6278822393632 2122.6770202054563,1233.5527571105117 2213.4113654834223,981.9728729076705 2224.1855904190206,1024.2513888859023 2119.759355941766,1271.7769380394036 1903.9387382397463,1021.0209579726012 1717.9235294497303,1252.6511115044093 1538.9036883574936,1178.4791118757298 1422.41622450224,1405.1835345847785 1371.0219708067116,1332.9354648856643 1302.013805036247,1348.5720091265412 1248.5925171465683,1342.9275500663443" stroke="none" /><polygon clip-path="url(#viewbox-clip)" fill="black" points="1247.8023089257647,1345.7100199858253 1300.7944116828714,1353.8546670851358 1372.3885129098853,1344.072087173277 1418.662137907328,1421.2845483128626 1540.986429092045,1200.2902765951217 1713.7823659128949,1279.8851064961934 1909.0393997642204,1053.6675938001003 2115.1771532932926,1309.8374712901164 2233.105397714167,1066.959630176102 2240.1538080087066,1110.016299213596 2108.9391347432143,1347.6619064743877 1912.7111803348023,1086.5056449950494 1708.4572136690877,1306.9125457428481 1542.11579787613,1222.171529793541 1414.2093080162372,1437.2064864861838 1373.2679817262726,1355.2577175934948 1299.3457526179584,1359.0791079328633 1246.8914831748414,1348.4553732120053" stroke="none" /><polygon clip-path="url(#viewbox-clip)" fill="black" points="1245.861773702383,1351.1583838089825 1297.6705854463744,1364.2353866496326 1373.6587031369963,1366.471063663063 1409.0662110437474,1452.919040790485 1542.2896448920794,1244.0812192618755 1701.9582094482662,1333.681980977628 1914.9470905084859,1119.472602460606 2101.057174714386,1385.1782426300445 2245.317404253038,1153.3394351816905 2248.5863572482303,1196.846570028744 2091.5462769657033,1422.3150652789247 1915.7428741031745,1152.505711719515 1694.2977244743447,1360.1424550590887 1541.5076392122176,1265.9776386609567 1403.24263716726,1468.3923014856052 1373.5599333816435,1377.6907801404134 1295.7720989440406,1369.313687965842 1244.7151406188952,1353.8139064424568" stroke="none" /><polygon clip-path="url(#viewbox-clip)" fill="black" points="1243.453766605623,1356.4168861741648 1293.6539069879173,1374.304345046305 1372.9718604740576,1388.8955096575442 1396.7496718906395,1483.5968143403682 1539.7712694288023,1287.8191069119478 1685.490340915864,1386.243598970901 1915.0970162995663,1185.542092370823 2080.4245460315965,1459.0016823683975 2249.954444356463,1240.4548854507912 2249.4190613461674,1284.0813705408916 2067.7131527590154,1495.168258837702 1913.0107465246988,1218.5188577862948 1675.552824128007,1411.9357277021368 1537.083840820405,1309.5640475386447 1389.599674942326,1498.503636700387 1371.895603844442,1400.0639233749844 1291.3200416767827,1379.1978578916178 1242.0800527596923,1358.962368084244" stroke="none" /><polygon clip-path="url(#viewbox-clip)" fill="black" points="1240.5966140234857,1361.4455067032027 1288.7749456559054,1383.984911421951 1370.3332122084612,1411.1747615824518 1381.8062567478896,1513.0843925820511 1533.4504690601254,1331.1710678106629 1664.5040907387906,1437.169934825511 1909.4880361116639,1251.3732348186857 2053.436294007523,1530.7459495529554 2246.9812273493335,1327.642979805109 2242.6455829215315,1371.056791244329 2037.6211465891965,1565.6670303577769 1904.5355907399512,1284.0426832939936 1652.3651726401904,1461.8981855935458 1528.8780704776166,1352.5990375368517 1373.3842525218126,1527.3113266878238 1368.2876596673952,1422.2068741679195 1286.0234636602147,1388.6563932088307 1239.0062742069508,1363.861575235547" stroke="none" /><polygon clip-path="url(#viewbox-clip)" fill="black" points="1237.312060612317,1366.2059745575057 1283.0708332920735,1393.203410821166 1365.7628400467675,1433.139260878057 1364.3496940278148,1541.1573572400282 1523.3753488934583,1373.8071673589516 1639.1591769527379,1486.073408375442 1898.1628376708038,1316.4650150602356 2020.2978155360206,1599.8650269900704 2236.4203812083515,1414.240164200997 2228.3174722350723,1457.1108966703077 2001.499276793249,1633.274841619559 1890.3819078018928,1348.5785123661299 1624.911242039804,1509.649584260605 1516.9527790509405,1394.7550863964548 1354.71977906148,1554.596127532552 1362.7635594842272,1443.9511112934053 1279.922675051204,1397.6173087524967 1235.5171982714548,1368.4742419717222" stroke="none" /><polygon clip-path="url(#viewbox-clip)" fill="black" points="1233.6251038068435,1370.662059702254 1276.584981635747,1401.8896848972404 1359.2955272807933,1454.6218444421934 1344.5128387132754,1567.6020561023329 1509.6225866767932,1415.402919094871 1609.6484896552952,1532.5818346582546 1881.2076125754625,1380.322045344343 1981.261314447818,1665.832876765206 2218.352280349463,1499.587381776393 2206.5437748606632,1541.588763115647 1959.622452611302,1697.4771563566337 1870.657415783909,1411.635188375666 1593.3999733158532,1554.826506726375 1501.3987252088216,1435.7113611311136 1333.7483024742783,1580.15038542513 1355.3653450328748,1465.1311479773876 1273.0641065348213,1406.0124065445798 1231.6393789278357,1372.7652631137032" stroke="none" /><polygon clip-path="url(#viewbox-clip)" fill="black" points="1229.5638035746001,1374.7798486388378 1269.366751934295,1409.9776258595389 1350.9804940657577,1475.459016842399 1322.446661251036,1592.217229042877 1492.2968492347436,1455.6417542315094 1576.196622995836,1576.3412564673806 1858.75140032646,1442.4583351126164 1936.62388208708,1728.147443709097 2192.914433930022,1583.0350886714887 2177.4902017826416,1623.8474630075673 1912.3093819612973,1757.7853561874344 1845.5122299802315,1472.7328119435072 1558.0711862503517,1597.0851293323203 1482.3342846927928,1475.1561597600225 1310.62942835996,1603.779617032913 1346.1493211924765,1485.5857913518453 1265.4999559587939,1413.7777948217836 1227.4023287227894,1376.7019813996096" stroke="none" /><polygon clip-path="url(#viewbox-clip)" fill="black" points="1225.1590688626343,1378.5280025070613 1261.4710792742317,1417.4056795937067 1340.8810228251816,1495.4921946148795 1298.3190985755064,1614.8155397325354 1471.52999589081,1494.2174309366033 1539.0581658784283,1617.0186381801914 1830.9651062584433,1502.400989681002 1886.72523626689,1786.3344763407354 2160.3004393210713,1663.94819744971 2141.377868235159,1703.26095797073 1859.920145879295,1813.740459296162 1815.1377204379041,1531.4063932625486 1519.1937542449728,1636.1038384439553 1459.9045494066052,1512.7892835481953 1285.539105310093,1625.303989635645 1335.1856274692454,1505.1593692298475 1257.287791076364,1420.8543742904492 1222.8382941667771,1380.2544360262307" stroke="none" /><polygon clip-path="url(#viewbox-clip)" fill="black" points="1220.4444223617559,1381.8779955927898 1252.958054492038,1424.117314125645 1329.0739766334332,1514.5689131804231 1272.3137760072677,1635.2250013817265 1447.4800749383082,1530.836365017797 1498.515764386549,1654.304400360178 1798.060200847093,1559.6938092538699 1831.9451358115666,1839.9511362075045 2120.7585087144544,1741.7109104965837 2098.481610881734,1779.224863357286 1802.8534580853645,1864.9166135615442 1779.765055515174,1587.2093909508749 1477.0635580321127,1671.5856781247999 1434.280223179231,1548.3243217001022 1258.6682858330375,1644.559689761048 1322.5577041924744,1523.702914864893 1248.4901114209279,1427.1882879078644 1217.9820103186098,1383.3955906688268" stroke="none" /><polygon clip-path="url(#viewbox-clip)" fill="black" points="1215.4557453786178,1384.80433242586 1243.892466846611,1430.0614498639702 1315.649214241321,1532.5439871919082 1244.6286097535078,1653.2902856637304 1420.3301207974266,1565.2198642756155 1454.8779706757227,1687.914775843392 1760.2871102911147,1613.9007608799202 1772.7004903627035,1888.589368153193 2074.5895800781577,1815.7314066114127 2049.1278961422945,1851.1610479789838 1741.543630531426,1910.9243375486144 1739.6634425507027,1639.7171105013072 1432.0012338438592,1703.260610150362 1405.6563226056514,1581.4908311187646 1230.2214730900591,1661.4001699042583 1308.361657483248,1541.0753006778004 1239.1738726468475,1432.731330766879 1212.8704364306764,1386.1015392438867" stroke="none" /><polygon clip-path="url(#viewbox-clip)" fill="black" points="1210.2310047573073,1387.284741816001 1234.343310933884,1435.192848346546 1300.7089061967424,1549.2806154824611 1215.474300646178,1668.873904857044 1390.2867610127676,1597.1062495193823 1408.4768947053092,1717.5939693779064 1717.933310617655,1664.6092969262263 1709.4421874450613,1931.8790058641273 2022.1450268366643,1885.4463451239662 1993.692335586596,1918.5220340345961 1676.4572680250508,1951.4134846976078 1695.1380790331655,1688.5299364630382 1384.3497331766598,1730.8875691620806 1374.2506928528157,1612.0363946410207 1200.4151645027864,1675.6972638428256 1292.7055278288317,1557.1443123227998 1229.409976956492,1437.441316964355 1207.5424746667163,1388.351687848858" stroke="none" /><polygon clip-path="url(#viewbox-clip)" fill="black" points="1204.809963928737,1389.300346350043 1224.3832615962906,1439.4724565324973 1284.3667572651211,1564.651422204938 1185.0727305814385,1681.8572582099594 1357.578643692969,1626.252846103867 1359.6656766811789,1743.1161043801364 1671.321139816152,1711.4334948148248 1642.6516609402508,1969.490589058329 1963.8239837070296,1950.3251532571326 1932.5968273033739,1980.7951637465644 1608.0897170851326,1986.075908150705 1646.5278298640806,1733.2763737565097 1334.4717127233555,1754.256297320262 1340.3023497263805,1639.7285420845506 1169.4762040771102,1687.3421620590564 1275.708467829324,1571.7876549185385 1219.2727334916672,1441.2824006613623 1202.038674032865,1390.12891149418" stroke="none" /><polygon clip-path="url(#viewbox-clip)" fill="black" points="1199.2338802869267,1390.8358060604253 1214.0881208233325,1442.8677040194307 1266.7471410674862,1578.5394262390341 1153.6552738644514,1692.1415345638982 1322.4546973605359,1652.4378308298647 1308.8157994455146,1764.286941992029 1620.8053446516042,1754.0169941265594 1572.8372270841967,2001.1378708771954 1900.0703090426787,2009.874064106123 1866.3063450011396,2037.506500996237 1536.9612960557804,2014.6478059356846 1594.2026483912953,1773.6158749752801 1282.7467743367674,1773.1889444931994 1304.0696606161077,1664.3565194863331 1137.6400559833246,1696.2462398461435 1257.4998353744274,1584.893883785971 1208.8392927961747,1444.2253488916572 1196.4009217752316,1391.4196844347946" stroke="none" /><polygon clip-path="url(#viewbox-clip)" fill="black" points="1193.5451911953214,1391.879435171617 1203.5362408526676,1445.3527509238643 1247.9841535221167,1590.8389314882443 1121.4610363112122,1699.648464365991 1285.1822364554764,1675.4619201526848 1256.3142612680751,1780.9453593560556 1566.7703808274841,1792.0357087190484 1500.530215873651,2026.579996396934 1831.3692068033283,2063.639874502761 1795.3253992775012,2088.224438263902 1463.6133351695423,2036.911728658219 1538.5607608406262,1809.2414321574183 1229.5685760303895,1787.541421804061 1265.8283781640225,1685.7328930675612 1105.1490125316152,1702.3417317956976 1238.2182091517961,1596.3632526096583 1198.1890596535914,1446.247764042206 1190.6721245926644,1392.214183109234" stroke="none" /></svg>