<?xml version="1.0" encoding="utf-8" ?>
<svg baseProfile="full" height="1000" version="1.1" width="890.0" xmlns="http://www.w3.org/2000/svg" xmlns:ev="http://www.w3.org/2001/xml-events" xmlns:xlink="http://www.w3.org/1999/xlink"><defs><clipPath id="viewbox-clip"><rect height="1000" width="890.0" x="0" y="0" /></clipPath></defs><rect clip-path="url(#viewbox-clip)" fill="white" height="1000" width="890.0" x="0" y="0" /><rect clip-path="url(#viewbox-clip)" fill="#c4cb3a" height="1000" width="3.4977000000000005" x="0" y="0" /><rect clip-path="url(#viewbox-clip)" fill="#d38aaa" height="1000" width="3.8448" x="3.4977000000000005" y="0" /><rect clip-path="url(#viewbox-clip)" fill="#7dbbd3" height="1000" width="4.7437" x="7.342500000000001" y="0" /><rect clip-path="url(#viewbox-clip)" fill="#3c3c3c" height="1000" width="15.7619" x="12.086200000000002" y="0" /><rect clip-path="url(#viewbox-clip)" fill="#7dbbd3" height="1000" width="3.4977000000000005" x="27.848100000000002" y="0" /><rect clip-path="url(#viewbox-clip)" fill="#d38aaa" height="1000" width="3.8448" x="31.345800000000004" y="0" /><rect clip-path="url(#viewbox-clip)" fill="#c4cb3a" height="1000" width="4.7437" x="35.1906" y="0" /><rect clip-path="url(#viewbox-clip)" fill="#c4cb3a" height="1000" width="3.4977000000000005" x="39.9343" y="0" /><rect clip-path="url(#viewbox-clip)" fill="#d38aaa" height="1000" width="3.8448" x="43.432" y="0" /><rect clip-path="url(#viewbox-clip)" fill="#7dbbd3" height="1000" width="4.7437" x="47.2768" y="0" /><rect clip-path="url(#viewbox-clip)" fill="#ADADAD" height="1000" width="11.57" x="52.0205" y="0" /><rect clip-path="url(#viewbox-clip)" fill="#7dbbd3" height="1000" width="3.4977000000000005" x="63.5905" y="0" /><rect clip-path="url(#viewbox-clip)" fill="#d38aaa" height="1000" width="3.8448" x="67.0882" y="0" /><rect clip-path="url(#viewbox-clip)" fill="#c4cb3a" height="1000" width="4.7437" x="70.933" y="0" /><rect clip-path="url(#viewbox-clip)" fill="#c4cb3a" height="1000" width="3.4977000000000005" x="75.67670000000001" y="0" /><rect clip-path="url(#viewbox-clip)" fill="#d38aaa" height="1000" width="3.8448" x="79.1744" y="0" /><rect clip-path="url(#viewbox-clip)" fill="#7dbbd3" height="1000" width="4.7437" x="83.01920000000001" y="0" /><rect clip-path="url(#viewbox-clip)" fill="#f5f9f4" height="1000" width="11.57" x="87.76290000000002" y="0" /><rect clip-path="url(#viewbox-clip)" fill="#7dbbd3" height="1000" width="3.4977000000000005" x="99.33290000000002" y="0" /><rect clip-path="url(#viewbox-clip)" fill="#d38aaa" height="1000" width="3.8448" x="102.83060000000002" y="0" /><rect clip-path="url(#viewbox-clip)" fill="#c4cb3a" height="1000" width="4.7437" x="106.67540000000002" y="0" /><rect clip-path="url(#viewbox-clip)" fill="#c4cb3a" height="1000" width="3.4977000000000005" x="111.41910000000003" y="0" /><rect clip-path="url(#viewbox-clip)" fill="#d38aaa" height="1000" width="3.8448" x="114.91680000000002" y="0" /><rect clip-path="url(#viewbox-clip)" fill="#7dbbd3" height="1000" width="4.7437" x="118.76160000000003" y="0" /><rect clip-path="url(#viewbox-clip)" fill="#3c3c3c" height="1000" width="15.7619" x="123.50530000000003" y="0" /><rect clip-path="url(#viewbox-clip)" fill="#7dbbd3" height="1000" width="3.4977000000000005" x="139.26720000000003" y="0" /><rect clip-path="url(#viewbox-clip)" fill="#d38aaa" height="1000" width="3.8448" x="142.76490000000004" y="0" /><rect clip-path="url(#viewbox-clip)" fill="#c4cb3a" height="1000" width="4.7437" x="146.60970000000003" y="0" /><rect clip-path="url(#viewbox-clip)" fill="#c4cb3a" height="1000" width="3.4977000000000005" x="151.35340000000002" y="0" /><rect clip-path="url(#viewbox-clip)" fill="#d38aaa" height="1000" width="3.8448" x="154.85110000000003" y="0" /><rect clip-path="url(#viewbox-clip)" fill="#7dbbd3" height="1000" width="4.7437" x="158.69590000000002" y="0" /><rect clip-path="url(#viewbox-clip)" fill="#959595" height="1000" width="11.57" x="163.4396" y="0" /><rect clip-path="url(#viewbox-clip)" fill="#7dbbd3" height="1000" width="3.4977000000000005" x="175.0096" y="0" /><rect clip-path="url(#viewbox-clip)" fill="#d38aaa" height="1000" width="3.8448" x="178.50730000000001" y="0" /><rect clip-path="url(#viewbox-clip)" fill="#c4cb3a" height="1000" width="4.7437" x="182.3521" y="0" /><rect clip-path="url(#viewbox-clip)" fill="#c4cb3a" height="1000" width="3.4977000000000005" x="187.0958" y="0" /><rect clip-path="url(#viewbox-clip)" fill="#d38aaa" height="1000" width="3.8448" x="190.5935" y="0" /><rect clip-path="url(#viewbox-clip)" fill="#7dbbd3" height="1000" width="4.7437" x="194.4383" y="0" /><rect clip-path="url(#viewbox-clip)" fill="#f5f9f4" height="1000" width="11.57" x="199.182" y="0" /><rect clip-path="url(#viewbox-clip)" fill="#7dbbd3" height="1000" width="3.4977000000000005" x="210.75199999999998" y="0" /><rect clip-path="url(#viewbox-clip)" fill="#d38aaa" height="1000" width="3.8448" x="214.2497" y="0" /><rect clip-path="url(#viewbox-clip)" fill="#c4cb3a" height="1000" width="4.7437" x="218.09449999999998" y="0" /><rect clip-path="url(#viewbox-clip)" fill="#c4cb3a" height="1000" width="3.4977000000000005" x="222.83819999999997" y="0" /><rect clip-path="url(#viewbox-clip)" fill="#d38aaa" height="1000" width="3.8448" x="226.33589999999998" y="0" /><rect clip-path="url(#viewbox-clip)" fill="#7dbbd3" height="1000" width="4.7437" x="230.18069999999997" y="0" /><rect clip-path="url(#viewbox-clip)" fill="#3c3c3c" height="1000" width="15.7619" x="234.92439999999996" y="0" /><rect clip-path="url(#viewbox-clip)" fill="#7dbbd3" height="1000" width="3.4977000000000005" x="250.68629999999996" y="0" /><rect clip-path="url(#viewbox-clip)" fill="#d38aaa" height="1000" width="3.8448" x="254.18399999999997" y="0" /><rect clip-path="url(#viewbox-clip)" fill="#c4cb3a" height="1000" width="4.7437" x="258.0288" y="0" /><rect clip-path="url(#viewbox-clip)" fill="#c4cb3a" height="1000" width="3.4977000000000005" x="262.7725" y="0" /><rect clip-path="url(#viewbox-clip)" fill="#d38aaa" height="1000" width="3.8448" x="266.2702" y="0" /><rect clip-path="url(#viewbox-clip)" fill="#7dbbd3" height="1000" width="4.7437" x="270.115" y="0" /><rect clip-path="url(#viewbox-clip)" fill="#7D7D7D" height="1000" width="11.57" x="274.8587" y="0" /><rect clip-path="url(#viewbox-clip)" fill="#7dbbd3" height="1000" width="3.4977000000000005" x="286.4287" y="0" /><rect clip-path="url(#viewbox-clip)" fill="#d38aaa" height="1000" width="3.8448" x="289.9264" y="0" /><rect clip-path="url(#viewbox-clip)" fill="#c4cb3a" height="1000" width="4.7437" x="293.7712" y="0" /><rect clip-path="url(#viewbox-clip)" fill="#c4cb3a" height="1000" width="3.4977000000000005" x="298.5149" y="0" /><rect clip-path="url(#viewbox-clip)" fill="#d38aaa" height="1000" width="3.8448" x="302.0126" y="0" /><rect clip-path="url(#viewbox-clip)" fill="#7dbbd3" height="1000" width="4.7437" x="305.85740000000004" y="0" /><rect clip-path="url(#viewbox-clip)" fill="#f5f9f4" height="1000" width="11.57" x="310.60110000000003" y="0" /><rect clip-path="url(#viewbox-clip)" fill="#7dbbd3" height="1000" width="3.4977000000000005" x="322.1711" y="0" /><rect clip-path="url(#viewbox-clip)" fill="#d38aaa" height="1000" width="3.8448" x="325.66880000000003" y="0" /><rect clip-path="url(#viewbox-clip)" fill="#c4cb3a" height="1000" width="4.7437" x="329.51360000000005" y="0" /><rect clip-path="url(#viewbox-clip)" fill="#c4cb3a" height="1000" width="3.4977000000000005" x="334.25730000000004" y="0" /><rect clip-path="url(#viewbox-clip)" fill="#d38aaa" height="1000" width="3.8448" x="337.75500000000005" y="0" /><rect clip-path="url(#viewbox-clip)" fill="#7dbbd3" height="1000" width="4.7437" x="341.5998000000001" y="0" /><rect clip-path="url(#viewbox-clip)" fill="#3c3c3c" height="1000" width="15.7619" x="346.34350000000006" y="0" /><rect clip-path="url(#viewbox-clip)" fill="#7dbbd3" height="1000" width="3.4977000000000005" x="362.1054000000001" y="0" /><rect clip-path="url(#viewbox-clip)" fill="#d38aaa" height="1000" width="3.8448" x="365.6031000000001" y="0" /><rect clip-path="url(#viewbox-clip)" fill="#c4cb3a" height="1000" width="4.7437" x="369.4479000000001" y="0" /><rect clip-path="url(#viewbox-clip)" fill="#c4cb3a" height="1000" width="3.4977000000000005" x="374.1916000000001" y="0" /><rect clip-path="url(#viewbox-clip)" fill="#d38aaa" height="1000" width="3.8448" x="377.6893000000001" y="0" /><rect clip-path="url(#viewbox-clip)" fill="#7dbbd3" height="1000" width="4.7437" x="381.53410000000014" y="0" /><rect clip-path="url(#viewbox-clip)" fill="#656565" height="1000" width="11.57" x="386.2778000000001" y="0" /><rect clip-path="url(#viewbox-clip)" fill="#7dbbd3" height="1000" width="3.4977000000000005" x="397.8478000000001" y="0" /><rect clip-path="url(#viewbox-clip)" fill="#d38aaa" height="1000" width="3.8448" x="401.34550000000013" y="0" /><rect clip-path="url(#viewbox-clip)" fill="#c4cb3a" height="1000" width="4.7437" x="405.19030000000015" y="0" /><rect clip-path="url(#viewbox-clip)" fill="#c4cb3a" height="1000" width="3.4977000000000005" x="409.93400000000014" y="0" /><rect clip-path="url(#viewbox-clip)" fill="#d38aaa" height="1000" width="3.8448" x="413.43170000000015" y="0" /><rect clip-path="url(#viewbox-clip)" fill="#7dbbd3" height="1000" width="4.7437" x="417.27650000000017" y="0" /><rect clip-path="url(#viewbox-clip)" fill="#f5f9f4" height="1000" width="11.57" x="422.02020000000016" y="0" /><rect clip-path="url(#viewbox-clip)" fill="#7dbbd3" height="1000" width="3.4977000000000005" x="433.59020000000015" y="0" /><rect clip-path="url(#viewbox-clip)" fill="#d38aaa" height="1000" width="3.8448" x="437.08790000000016" y="0" /><rect clip-path="url(#viewbox-clip)" fill="#c4cb3a" height="1000" width="4.7437" x="440.9327000000002" y="0" /><rect clip-path="url(#viewbox-clip)" fill="#c4cb3a" height="1000" width="3.4977000000000005" x="445.67640000000017" y="0" /><rect clip-path="url(#viewbox-clip)" fill="#d38aaa" height="1000" width="3.8448" x="449.1741000000002" y="0" /><rect clip-path="url(#viewbox-clip)" fill="#7dbbd3" height="1000" width="4.7437" x="453.0189000000002" y="0" /><rect clip-path="url(#viewbox-clip)" fill="#3c3c3c" height="1000" width="15.7619" x="457.7626000000002" y="0" /><rect clip-path="url(#viewbox-clip)" fill="#7dbbd3" height="1000" width="3.4977000000000005" x="473.5245000000002" y="0" /><rect clip-path="url(#viewbox-clip)" fill="#d38aaa" height="1000" width="3.8448" x="477.0222000000002" y="0" /><rect clip-path="url(#viewbox-clip)" fill="#c4cb3a" height="1000" width="4.7437" x="480.86700000000025" y="0" /><rect clip-path="url(#viewbox-clip)" fill="#c4cb3a" height="1000" width="3.4977000000000005" x="485.61070000000024" y="0" /><rect clip-path="url(#viewbox-clip)" fill="#d38aaa" height="1000" width="3.8448" x="489.10840000000024" y="0" /><rect clip-path="url(#viewbox-clip)" fill="#7dbbd3" height="1000" width="4.7437" x="492.95320000000027" y="0" /><rect clip-path="url(#viewbox-clip)" fill="#4E4E4E" height="1000" width="11.57" x="497.69690000000026" y="0" /><rect clip-path="url(#viewbox-clip)" fill="#7dbbd3" height="1000" width="3.4977000000000005" x="509.26690000000025" y="0" /><rect clip-path="url(#viewbox-clip)" fill="#d38aaa" height="1000" width="3.8448" x="512.7646000000002" y="0" /><rect clip-path="url(#viewbox-clip)" fill="#c4cb3a" height="1000" width="4.7437" x="516.6094000000002" y="0" /><rect clip-path="url(#viewbox-clip)" fill="#c4cb3a" height="1000" width="3.4977000000000005" x="521.3531000000002" y="0" /><rect clip-path="url(#viewbox-clip)" fill="#d38aaa" height="1000" width="3.8448" x="524.8508000000002" y="0" /><rect clip-path="url(#viewbox-clip)" fill="#7dbbd3" height="1000" width="4.7437" x="528.6956000000001" y="0" /><rect clip-path="url(#viewbox-clip)" fill="#f5f9f4" height="1000" width="11.57" x="533.4393000000001" y="0" /><rect clip-path="url(#viewbox-clip)" fill="#7dbbd3" height="1000" width="3.4977000000000005" x="545.0093000000002" y="0" /><rect clip-path="url(#viewbox-clip)" fill="#d38aaa" height="1000" width="3.8448" x="548.5070000000002" y="0" /><rect clip-path="url(#viewbox-clip)" fill="#c4cb3a" height="1000" width="4.7437" x="552.3518000000001" y="0" /><rect clip-path="url(#viewbox-clip)" fill="#c4cb3a" height="1000" width="3.4977000000000005" x="557.0955000000001" y="0" /><rect clip-path="url(#viewbox-clip)" fill="#d38aaa" height="1000" width="3.8448" x="560.5932000000001" y="0" /><rect clip-path="url(#viewbox-clip)" fill="#7dbbd3" height="1000" width="4.7437" x="564.4380000000001" y="0" /><rect clip-path="url(#viewbox-clip)" fill="#3c3c3c" height="1000" width="15.7619" x="569.1817000000001" y="0" /><rect clip-path="url(#viewbox-clip)" fill="#7dbbd3" height="1000" width="3.4977000000000005" x="584.9436000000001" y="0" /><rect clip-path="url(#viewbox-clip)" fill="#d38aaa" height="1000" width="3.8448" x="588.4413000000001" y="0" /><rect clip-path="url(#viewbox-clip)" fill="#c4cb3a" height="1000" width="4.7437" x="592.2861" y="0" /><rect clip-path="url(#viewbox-clip)" fill="#c4cb3a" height="1000" width="3.4977000000000005" x="597.0298" y="0" /><rect clip-path="url(#viewbox-clip)" fill="#d38aaa" height="1000" width="3.8448" x="600.5275" y="0" /><rect clip-path="url(#viewbox-clip)" fill="#7dbbd3" height="1000" width="4.7437" x="604.3723" y="0" /><rect clip-path="url(#viewbox-clip)" fill="#4B4B4B" height="1000" width="11.57" x="609.116" y="0" /><rect clip-path="url(#viewbox-clip)" fill="#7dbbd3" height="1000" width="3.4977000000000005" x="620.686" y="0" /><rect clip-path="url(#viewbox-clip)" fill="#d38aaa" height="1000" width="3.8448" x="624.1837" y="0" /><rect clip-path="url(#viewbox-clip)" fill="#c4cb3a" height="1000" width="4.7437" x="628.0285" y="0" /><rect clip-path="url(#viewbox-clip)" fill="#c4cb3a" height="1000" width="3.4977000000000005" x="632.7722" y="0" /><rect clip-path="url(#viewbox-clip)" fill="#d38aaa" height="1000" width="3.8448" x="636.2699" y="0" /><rect clip-path="url(#viewbox-clip)" fill="#7dbbd3" height="1000" width="4.7437" x="640.1147" y="0" /><rect clip-path="url(#viewbox-clip)" fill="#f5f9f4" height="1000" width="11.57" x="644.8584" y="0" /><rect clip-path="url(#viewbox-clip)" fill="#7dbbd3" height="1000" width="3.4977000000000005" x="656.4284" y="0" /><rect clip-path="url(#viewbox-clip)" fill="#d38aaa" height="1000" width="3.8448" x="659.9261" y="0" /><rect clip-path="url(#viewbox-clip)" fill="#c4cb3a" height="1000" width="4.7437" x="663.7709" y="0" /><rect clip-path="url(#viewbox-clip)" fill="#c4cb3a" height="1000" width="3.4977000000000005" x="668.5146" y="0" /><rect clip-path="url(#viewbox-clip)" fill="#d38aaa" height="1000" width="3.8448" x="672.0123" y="0" /><rect clip-path="url(#viewbox-clip)" fill="#7dbbd3" height="1000" width="4.7437" x="675.8571" y="0" /><rect clip-path="url(#viewbox-clip)" fill="#3c3c3c" height="1000" width="15.7619" x="680.6007999999999" y="0" /><rect clip-path="url(#viewbox-clip)" fill="#7dbbd3" height="1000" width="3.4977000000000005" x="696.3626999999999" y="0" /><rect clip-path="url(#viewbox-clip)" fill="#d38aaa" height="1000" width="3.8448" x="699.8603999999999" y="0" /><rect clip-path="url(#viewbox-clip)" fill="#c4cb3a" height="1000" width="4.7437" x="703.7051999999999" y="0" /><rect clip-path="url(#viewbox-clip)" fill="#c4cb3a" height="1000" width="3.4977000000000005" x="708.4488999999999" y="0" /><rect clip-path="url(#viewbox-clip)" fill="#d38aaa" height="1000" width="3.8448" x="711.9465999999999" y="0" /><rect clip-path="url(#viewbox-clip)" fill="#7dbbd3" height="1000" width="4.7437" x="715.7913999999998" y="0" /><rect clip-path="url(#viewbox-clip)" fill="#7E7E7E" height="1000" width="11.57" x="720.5350999999998" y="0" /><rect clip-path="url(#viewbox-clip)" fill="#7dbbd3" height="1000" width="3.4977000000000005" x="732.1050999999999" y="0" /><rect clip-path="url(#viewbox-clip)" fill="#d38aaa" height="1000" width="3.8448" x="735.6027999999999" y="0" /><rect clip-path="url(#viewbox-clip)" fill="#c4cb3a" height="1000" width="4.7437" x="739.4475999999999" y="0" /><rect clip-path="url(#viewbox-clip)" fill="#c4cb3a" height="1000" width="3.4977000000000005" x="744.1912999999998" y="0" /><rect clip-path="url(#viewbox-clip)" fill="#d38aaa" height="1000" width="3.8448" x="747.6889999999999" y="0" /><rect clip-path="url(#viewbox-clip)" fill="#7dbbd3" height="1000" width="4.7437" x="751.5337999999998" y="0" /><rect clip-path="url(#viewbox-clip)" fill="#f5f9f4" height="1000" width="11.57" x="756.2774999999998" y="0" /><rect clip-path="url(#viewbox-clip)" fill="#7dbbd3" height="1000" width="3.4977000000000005" x="767.8474999999999" y="0" /><rect clip-path="url(#viewbox-clip)" fill="#d38aaa" height="1000" width="3.8448" x="771.3451999999999" y="0" /><rect clip-path="url(#viewbox-clip)" fill="#c4cb3a" height="1000" width="4.7437" x="775.1899999999998" y="0" /><rect clip-path="url(#viewbox-clip)" fill="#c4cb3a" height="1000" width="3.4977000000000005" x="779.9336999999998" y="0" /><rect clip-path="url(#viewbox-clip)" fill="#d38aaa" height="1000" width="3.8448" x="783.4313999999998" y="0" /><rect clip-path="url(#viewbox-clip)" fill="#7dbbd3" height="1000" width="4.7437" x="787.2761999999998" y="0" /><rect clip-path="url(#viewbox-clip)" fill="#3c3c3c" height="1000" width="15.7619" x="792.0198999999998" y="0" /><rect clip-path="url(#viewbox-clip)" fill="#7dbbd3" height="1000" width="3.4977000000000005" x="807.7817999999997" y="0" /><rect clip-path="url(#viewbox-clip)" fill="#d38aaa" height="1000" width="3.8448" x="811.2794999999998" y="0" /><rect clip-path="url(#viewbox-clip)" fill="#c4cb3a" height="1000" width="4.7437" x="815.1242999999997" y="0" /><rect clip-path="url(#viewbox-clip)" fill="#c4cb3a" height="1000" width="3.4977000000000005" x="819.8679999999997" y="0" /><rect clip-path="url(#viewbox-clip)" fill="#d38aaa" height="1000" width="3.8448" x="823.3656999999997" y="0" /><rect clip-path="url(#viewbox-clip)" fill="#7dbbd3" height="1000" width="4.7437" x="827.2104999999997" y="0" /><rect clip-path="url(#viewbox-clip)" fill="#B2B2B2" height="1000" width="11.57" x="831.9541999999997" y="0" /><rect clip-path="url(#viewbox-clip)" fill="#7dbbd3" height="1000" width="3.4977000000000005" x="843.5241999999997" y="0" /><rect clip-path="url(#viewbox-clip)" fill="#d38aaa" height="1000" width="3.8448" x="847.0218999999997" y="0" /><rect clip-path="url(#viewbox-clip)" fill="#c4cb3a" height="1000" width="4.7437" x="850.8666999999997" y="0" /><rect clip-path="url(#viewbox-clip)" fill="#c4cb3a" height="1000" width="3.4977000000000005" x="855.6103999999997" y="0" /><rect clip-path="url(#viewbox-clip)" fill="#d38aaa" height="1000" width="3.8448" x="859.1080999999997" y="0" /><rect clip-path="url(#viewbox-clip)" fill="#7dbbd3" height="1000" width="4.7437" x="862.9528999999997" y="0" /><rect clip-path="url(#viewbox-clip)" fill="#f5f9f4" height="1000" width="11.57" x="867.6965999999996" y="0" /><rect clip-path="url(#viewbox-clip)" fill="#7dbbd3" height="1000" width="3.4977000000000005" x="879.2665999999997" y="0" /><rect clip-path="url(#viewbox-clip)" fill="#d38aaa" height="1000" width="3.8448" x="882.7642999999997" y="0" /><rect clip-path="url(#viewbox-clip)" fill="#c4cb3a" height="1000" width="4.7437" x="886.6090999999997" y="0" /></svg>