<?xml version="1.0" encoding="utf-8" ?>
<svg baseProfile="full" height="1000" version="1.1" width="970.0" xmlns="http://www.w3.org/2000/svg" xmlns:ev="http://www.w3.org/2001/xml-events" xmlns:xlink="http://www.w3.org/1999/xlink"><defs><clipPath id="viewbox-clip"><rect height="1000" width="970.0" x="0" y="0" /></clipPath></defs><rect clip-path="url(#viewbox-clip)" fill="white" height="1000" width="970.0" x="0" y="0" /><path clip-path="url(#viewbox-clip)" d="M 312.34000000000003,114.2 Q 362.7800000000001,177.7922 312.34000000000003,241.3844 L 329.8,241.3844 Q 380.23999999999995,177.7922 329.8,114.2 Z" fill="#d3d4d6" stroke="none" /><path clip-path="url(#viewbox-clip)" d="M 329.8,114.2 Q 380.23999999999995,177.7922 329.8,241.3844 L 347.26000000000005,241.3844 Q 397.7,177.7922 347.26000000000005,114.2 Z" fill="black" stroke="none" /><path clip-path="url(#viewbox-clip)" d="M 347.26000000000005,114.2 Q 397.7,177.7922 347.26000000000005,241.3844 L 364.72,241.3844 Q 415.1600000000001,177.7922 364.72,114.2 Z" fill="#d3d4d6" stroke="none" /><path clip-path="url(#viewbox-clip)" d="M 364.72,114.2 Q 415.1600000000001,177.7922 364.72,241.3844 L 382.18,241.3844 Q 432.61999999999995,177.7922 382.18,114.2 Z" fill="black" stroke="none" /><path clip-path="url(#viewbox-clip)" d="M 382.18,114.2 Q 432.61999999999995,177.7922 382.18,241.3844 L 399.64,241.3844 Q 450.08000000000004,177.7922 399.64,114.2 Z" fill="#d3d4d6" stroke="none" /><path clip-path="url(#viewbox-clip)" d="M 347.26000000000005,241.3844 Q 382.18,286.7278 347.26000000000005,332.07120000000003 L 364.72,332.07120000000003 Q 399.64,286.7278 364.72,241.3844 Z" fill="#d3d4d6" stroke="none" /><path clip-path="url(#viewbox-clip)" d="M 364.72,241.3844 Q 399.64,286.7278 364.72,332.07120000000003 L 382.18000000000006,332.07120000000003 Q 417.1,286.7278 382.18000000000006,241.3844 Z" fill="black" stroke="none" /><path clip-path="url(#viewbox-clip)" d="M 382.18000000000006,241.3844 Q 417.1,286.7278 382.18000000000006,332.07120000000003 L 417.1,332.07120000000003 Q 382.18000000000006,286.7278 417.1,241.3844 Z" fill="#d3d4d6" stroke="none" /><path clip-path="url(#viewbox-clip)" d="M 417.1,241.3844 Q 382.18000000000006,286.7278 417.1,332.07120000000003 L 417.1,332.07120000000003 Q 452.02,286.7278 417.1,241.3844 Z" fill="black" stroke="none" /><path clip-path="url(#viewbox-clip)" d="M 417.1,241.3844 Q 452.02,286.7278 417.1,332.07120000000003 L 434.56000000000006,332.07120000000003 Q 469.48,286.7278 434.56000000000006,241.3844 Z" fill="#d3d4d6" stroke="none" /><path clip-path="url(#viewbox-clip)" d="M 434.56000000000006,241.3844 Q 469.48,286.7278 434.56000000000006,332.07120000000003 L 452.02000000000004,332.07120000000003 Q 486.94,286.7278 452.02000000000004,241.3844 Z" fill="black" stroke="none" /><path clip-path="url(#viewbox-clip)" d="M 452.02000000000004,241.3844 Q 486.94,286.7278 452.02000000000004,332.07120000000003 L 469.48,332.07120000000003 Q 504.4,286.7278 469.48,241.3844 Z" fill="#d3d4d6" stroke="none" /><path clip-path="url(#viewbox-clip)" d="M 469.48,241.3844 Q 504.4,286.7278 469.48,332.07120000000003 L 486.94000000000005,332.07120000000003 Q 521.86,286.7278 486.94000000000005,241.3844 Z" fill="black" stroke="none" /><path clip-path="url(#viewbox-clip)" d="M 486.94000000000005,241.3844 Q 521.86,286.7278 486.94000000000005,332.07120000000003 L 504.40000000000003,332.07120000000003 Q 539.3199999999999,286.7278 504.40000000000003,241.3844 Z" fill="#d3d4d6" stroke="none" /><path clip-path="url(#viewbox-clip)" d="M 504.40000000000003,241.3844 Q 539.3199999999999,286.7278 504.40000000000003,332.07120000000003 L 521.86,332.07120000000003 Q 556.7800000000001,286.7278 521.86,241.3844 Z" fill="black" stroke="none" /><path clip-path="url(#viewbox-clip)" d="M 329.80000000000007,332.07120000000003 Q 294.8800000000001,363.826 329.80000000000007,395.58080000000007 L 347.26000000000005,395.58080000000007 Q 382.18,363.826 347.26000000000005,332.07120000000003 Z" fill="black" stroke="none" /><path clip-path="url(#viewbox-clip)" d="M 347.26000000000005,332.07120000000003 Q 382.18,363.826 347.26000000000005,395.58080000000007 L 364.7200000000001,395.58080000000007 Q 329.8000000000001,363.826 364.7200000000001,332.07120000000003 Z" fill="#d3d4d6" stroke="none" /><path clip-path="url(#viewbox-clip)" d="M 364.7200000000001,332.07120000000003 Q 329.8000000000001,363.826 364.7200000000001,395.58080000000007 L 382.18000000000006,395.58080000000007 Q 347.2600000000001,363.826 382.18000000000006,332.07120000000003 Z" fill="black" stroke="none" /><path clip-path="url(#viewbox-clip)" d="M 382.18000000000006,332.07120000000003 Q 347.2600000000001,363.826 382.18000000000006,395.58080000000007 L 399.64000000000004,395.58080000000007 Q 364.7200000000001,363.826 399.64000000000004,332.07120000000003 Z" fill="#d3d4d6" stroke="none" /><path clip-path="url(#viewbox-clip)" d="M 399.64000000000004,332.07120000000003 Q 364.7200000000001,363.826 399.64000000000004,395.58080000000007 L 417.1,395.58080000000007 Q 452.02,363.826 417.1,332.07120000000003 Z" fill="#d3d4d6" stroke="none" /><path clip-path="url(#viewbox-clip)" d="M 417.1,332.07120000000003 Q 452.02,363.826 417.1,395.58080000000007 L 434.56000000000006,395.58080000000007 Q 399.6400000000001,363.826 434.56000000000006,332.07120000000003 Z" fill="black" stroke="none" /><path clip-path="url(#viewbox-clip)" d="M 434.56000000000006,332.07120000000003 Q 399.6400000000001,363.826 434.56000000000006,395.58080000000007 L 452.02000000000004,395.58080000000007 Q 417.1000000000001,363.826 452.02000000000004,332.07120000000003 Z" fill="#d3d4d6" stroke="none" /><path clip-path="url(#viewbox-clip)" d="M 452.02000000000004,332.07120000000003 Q 417.1000000000001,363.826 452.02000000000004,395.58080000000007 L 469.48,395.58080000000007 Q 434.56000000000006,363.826 469.48,332.07120000000003 Z" fill="black" stroke="none" /><path clip-path="url(#viewbox-clip)" d="M 469.48,332.07120000000003 Q 434.56000000000006,363.826 469.48,395.58080000000007 L 486.94000000000005,395.58080000000007 Q 452.0200000000001,363.826 486.94000000000005,332.07120000000003 Z" fill="#d3d4d6" stroke="none" /><path clip-path="url(#viewbox-clip)" d="M 486.94000000000005,332.07120000000003 Q 452.0200000000001,363.826 486.94000000000005,395.58080000000007 L 504.40000000000003,395.58080000000007 Q 469.4800000000001,363.826 504.40000000000003,332.07120000000003 Z" fill="black" stroke="none" /><path clip-path="url(#viewbox-clip)" d="M 504.40000000000003,332.07120000000003 Q 469.4800000000001,363.826 504.40000000000003,395.58080000000007 L 521.86,395.58080000000007 Q 486.94000000000005,363.826 521.86,332.07120000000003 Z" fill="#d3d4d6" stroke="none" /><path clip-path="url(#viewbox-clip)" d="M 521.86,332.07120000000003 Q 486.94000000000005,363.826 521.86,395.58080000000007 L 539.32,395.58080000000007 Q 504.4,363.826 539.32,332.07120000000003 Z" fill="black" stroke="none" /><path clip-path="url(#viewbox-clip)" d="M 539.32,332.07120000000003 Q 504.4,363.826 539.32,395.58080000000007 L 556.78,395.58080000000007 Q 521.8599999999999,363.826 556.78,332.07120000000003 Z" fill="#d3d4d6" stroke="none" /><path clip-path="url(#viewbox-clip)" d="M 556.78,332.07120000000003 Q 521.8599999999999,363.826 556.78,395.58080000000007 L 574.24,395.58080000000007 Q 539.3199999999999,363.826 574.24,332.07120000000003 Z" fill="black" stroke="none" /><path clip-path="url(#viewbox-clip)" d="M 312.3400000000001,395.58080000000007 Q 277.42000000000013,418.4072 312.3400000000001,441.2335999999999 L 329.80000000000007,441.2335999999999 Q 294.8800000000001,418.4072 329.80000000000007,395.58080000000007 Z" fill="#d3d4d6" stroke="none" /><path clip-path="url(#viewbox-clip)" d="M 329.80000000000007,395.58080000000007 Q 294.8800000000001,418.4072 329.80000000000007,441.2335999999999 L 347.2600000000001,441.2335999999999 Q 312.34000000000015,418.4072 347.2600000000001,395.58080000000007 Z" fill="black" stroke="none" /><path clip-path="url(#viewbox-clip)" d="M 347.2600000000001,395.58080000000007 Q 312.34000000000015,418.4072 347.2600000000001,441.2335999999999 L 364.7200000000001,441.2335999999999 Q 329.8000000000001,418.4072 364.7200000000001,395.58080000000007 Z" fill="#d3d4d6" stroke="none" /><path clip-path="url(#viewbox-clip)" d="M 364.7200000000001,395.58080000000007 Q 329.8000000000001,418.4072 364.7200000000001,441.2335999999999 L 382.18000000000006,441.2335999999999 Q 417.1,418.4072 382.18000000000006,395.58080000000007 Z" fill="#d3d4d6" stroke="none" /><path clip-path="url(#viewbox-clip)" d="M 382.18000000000006,395.58080000000007 Q 417.1,418.4072 382.18000000000006,441.2335999999999 L 399.6400000000001,441.2335999999999 Q 364.72000000000014,418.4072 399.6400000000001,395.58080000000007 Z" fill="black" stroke="none" /><path clip-path="url(#viewbox-clip)" d="M 399.6400000000001,395.58080000000007 Q 364.72000000000014,418.4072 399.6400000000001,441.2335999999999 L 417.1000000000001,441.2335999999999 Q 382.1800000000001,418.4072 417.1000000000001,395.58080000000007 Z" fill="#d3d4d6" stroke="none" /><path clip-path="url(#viewbox-clip)" d="M 417.1000000000001,395.58080000000007 Q 382.1800000000001,418.4072 417.1000000000001,441.2335999999999 L 434.56000000000006,441.2335999999999 Q 399.6400000000001,418.4072 434.56000000000006,395.58080000000007 Z" fill="black" stroke="none" /><path clip-path="url(#viewbox-clip)" d="M 434.56000000000006,395.58080000000007 Q 399.6400000000001,418.4072 434.56000000000006,441.2335999999999 L 452.0200000000001,441.2335999999999 Q 417.10000000000014,418.4072 452.0200000000001,395.58080000000007 Z" fill="#d3d4d6" stroke="none" /><path clip-path="url(#viewbox-clip)" d="M 452.0200000000001,395.58080000000007 Q 417.10000000000014,418.4072 452.0200000000001,441.2335999999999 L 469.4800000000001,441.2335999999999 Q 434.5600000000001,418.4072 469.4800000000001,395.58080000000007 Z" fill="black" stroke="none" /><path clip-path="url(#viewbox-clip)" d="M 469.4800000000001,395.58080000000007 Q 434.5600000000001,418.4072 469.4800000000001,441.2335999999999 L 486.94000000000005,441.2335999999999 Q 452.0200000000001,418.4072 486.94000000000005,395.58080000000007 Z" fill="#d3d4d6" stroke="none" /><path clip-path="url(#viewbox-clip)" d="M 486.94000000000005,395.58080000000007 Q 452.0200000000001,418.4072 486.94000000000005,441.2335999999999 L 504.4000000000001,441.2335999999999 Q 539.3200000000002,418.4072 504.4000000000001,395.58080000000007 Z" fill="#d3d4d6" stroke="none" /><path clip-path="url(#viewbox-clip)" d="M 504.4000000000001,395.58080000000007 Q 539.3200000000002,418.4072 504.4000000000001,441.2335999999999 L 521.8600000000001,441.2335999999999 Q 486.94000000000017,418.4072 521.8600000000001,395.58080000000007 Z" fill="black" stroke="none" /><path clip-path="url(#viewbox-clip)" d="M 521.8600000000001,395.58080000000007 Q 486.94000000000017,418.4072 521.8600000000001,441.2335999999999 L 539.32,441.2335999999999 Q 504.4,418.4072 539.32,395.58080000000007 Z" fill="#d3d4d6" stroke="none" /><path clip-path="url(#viewbox-clip)" d="M 539.32,395.58080000000007 Q 504.4,418.4072 539.32,441.2335999999999 L 556.7800000000001,441.2335999999999 Q 521.86,418.4072 556.7800000000001,395.58080000000007 Z" fill="black" stroke="none" /><path clip-path="url(#viewbox-clip)" d="M 556.7800000000001,395.58080000000007 Q 521.86,418.4072 556.7800000000001,441.2335999999999 L 574.24,441.2335999999999 Q 539.3199999999999,418.4072 574.24,395.58080000000007 Z" fill="#d3d4d6" stroke="none" /><path clip-path="url(#viewbox-clip)" d="M 574.24,395.58080000000007 Q 539.3199999999999,418.4072 574.24,441.2335999999999 L 591.7,441.2335999999999 Q 556.78,418.4072 591.7,395.58080000000007 Z" fill="black" stroke="none" /><path clip-path="url(#viewbox-clip)" d="M 591.7,395.58080000000007 Q 556.78,418.4072 591.7,441.2335999999999 L 609.1600000000001,441.2335999999999 Q 574.24,418.4072 609.1600000000001,395.58080000000007 Z" fill="#d3d4d6" stroke="none" /><path clip-path="url(#viewbox-clip)" d="M 609.1600000000001,395.58080000000007 Q 574.24,418.4072 609.1600000000001,441.2335999999999 L 626.6200000000001,441.2335999999999 Q 591.7,418.4072 626.6200000000001,395.58080000000007 Z" fill="black" stroke="none" /><path clip-path="url(#viewbox-clip)" d="M 329.80000000000007,441.2335999999999 Q 364.72,459.79179999999997 329.80000000000007,478.34999999999997 L 364.7200000000001,478.34999999999997 Q 329.8000000000001,459.79179999999997 364.7200000000001,441.2335999999999 Z" fill="#d3d4d6" stroke="none" /><path clip-path="url(#viewbox-clip)" d="M 364.7200000000001,441.2335999999999 Q 329.8000000000001,459.79179999999997 364.7200000000001,478.34999999999997 L 364.7200000000001,478.34999999999997 Q 399.64000000000004,459.79179999999997 364.7200000000001,441.2335999999999 Z" fill="black" stroke="none" /><path clip-path="url(#viewbox-clip)" d="M 364.7200000000001,441.2335999999999 Q 399.64000000000004,459.79179999999997 364.7200000000001,478.34999999999997 L 382.18000000000006,478.34999999999997 Q 417.1,459.79179999999997 382.18000000000006,441.2335999999999 Z" fill="#d3d4d6" stroke="none" /><path clip-path="url(#viewbox-clip)" d="M 382.18000000000006,441.2335999999999 Q 417.1,459.79179999999997 382.18000000000006,478.34999999999997 L 399.64000000000004,478.34999999999997 Q 434.56,459.79179999999997 399.64000000000004,441.2335999999999 Z" fill="black" stroke="none" /><path clip-path="url(#viewbox-clip)" d="M 399.64000000000004,441.2335999999999 Q 434.56,459.79179999999997 399.64000000000004,478.34999999999997 L 417.1,478.34999999999997 Q 452.02,459.79179999999997 417.1,441.2335999999999 Z" fill="#d3d4d6" stroke="none" /><path clip-path="url(#viewbox-clip)" d="M 417.1,441.2335999999999 Q 452.02,459.79179999999997 417.1,478.34999999999997 L 434.56000000000006,478.34999999999997 Q 469.48,459.79179999999997 434.56000000000006,441.2335999999999 Z" fill="black" stroke="none" /><path clip-path="url(#viewbox-clip)" d="M 434.56000000000006,441.2335999999999 Q 469.48,459.79179999999997 434.56000000000006,478.34999999999997 L 452.02000000000004,478.34999999999997 Q 486.94,459.79179999999997 452.02000000000004,441.2335999999999 Z" fill="#d3d4d6" stroke="none" /><path clip-path="url(#viewbox-clip)" d="M 452.02000000000004,441.2335999999999 Q 486.94,459.79179999999997 452.02000000000004,478.34999999999997 L 469.48,478.34999999999997 Q 504.4,459.79179999999997 469.48,441.2335999999999 Z" fill="black" stroke="none" /><path clip-path="url(#viewbox-clip)" d="M 469.48,441.2335999999999 Q 504.4,459.79179999999997 469.48,478.34999999999997 L 504.40000000000003,478.34999999999997 Q 469.4800000000001,459.79179999999997 504.40000000000003,441.2335999999999 Z" fill="#d3d4d6" stroke="none" /><path clip-path="url(#viewbox-clip)" d="M 504.40000000000003,441.2335999999999 Q 469.4800000000001,459.79179999999997 504.40000000000003,478.34999999999997 L 504.40000000000003,478.34999999999997 Q 539.3199999999999,459.79179999999997 504.40000000000003,441.2335999999999 Z" fill="black" stroke="none" /><path clip-path="url(#viewbox-clip)" d="M 504.40000000000003,441.2335999999999 Q 539.3199999999999,459.79179999999997 504.40000000000003,478.34999999999997 L 521.86,478.34999999999997 Q 556.7800000000001,459.79179999999997 521.86,441.2335999999999 Z" fill="#d3d4d6" stroke="none" /><path clip-path="url(#viewbox-clip)" d="M 521.86,441.2335999999999 Q 556.7800000000001,459.79179999999997 521.86,478.34999999999997 L 539.32,478.34999999999997 Q 574.2400000000001,459.79179999999997 539.32,441.2335999999999 Z" fill="black" stroke="none" /><path clip-path="url(#viewbox-clip)" d="M 539.32,441.2335999999999 Q 574.2400000000001,459.79179999999997 539.32,478.34999999999997 L 556.78,478.34999999999997 Q 591.7,459.79179999999997 556.78,441.2335999999999 Z" fill="#d3d4d6" stroke="none" /><path clip-path="url(#viewbox-clip)" d="M 556.78,441.2335999999999 Q 591.7,459.79179999999997 556.78,478.34999999999997 L 574.24,478.34999999999997 Q 609.1600000000001,459.79179999999997 574.24,441.2335999999999 Z" fill="black" stroke="none" /><path clip-path="url(#viewbox-clip)" d="M 574.24,441.2335999999999 Q 609.1600000000001,459.79179999999997 574.24,478.34999999999997 L 591.7,478.34999999999997 Q 626.6200000000001,459.79179999999997 591.7,441.2335999999999 Z" fill="#d3d4d6" stroke="none" /><path clip-path="url(#viewbox-clip)" d="M 591.7,441.2335999999999 Q 626.6200000000001,459.79179999999997 591.7,478.34999999999997 L 609.1600000000001,478.34999999999997 Q 644.0800000000002,459.79179999999997 609.1600000000001,441.2335999999999 Z" fill="black" stroke="none" /><path clip-path="url(#viewbox-clip)" d="M 609.1600000000001,441.2335999999999 Q 644.0800000000002,459.79179999999997 609.1600000000001,478.34999999999997 L 626.62,478.34999999999997 Q 661.5400000000001,459.79179999999997 626.62,441.2335999999999 Z" fill="#d3d4d6" stroke="none" /><path clip-path="url(#viewbox-clip)" d="M 626.62,441.2335999999999 Q 661.5400000000001,459.79179999999997 626.62,478.34999999999997 L 644.08,478.34999999999997 Q 679.0000000000001,459.79179999999997 644.08,441.2335999999999 Z" fill="black" stroke="none" /><path clip-path="url(#viewbox-clip)" d="M 644.08,441.2335999999999 Q 679.0000000000001,459.79179999999997 644.08,478.34999999999997 L 661.54,478.34999999999997 Q 696.46,459.79179999999997 661.54,441.2335999999999 Z" fill="#d3d4d6" stroke="none" /><path clip-path="url(#viewbox-clip)" d="M 661.54,441.2335999999999 Q 696.46,459.79179999999997 661.54,478.34999999999997 L 679.0,478.34999999999997 Q 713.9200000000001,459.79179999999997 679.0,441.2335999999999 Z" fill="black" stroke="none" /><path clip-path="url(#viewbox-clip)" d="M 679.0,441.2335999999999 Q 713.9200000000001,459.79179999999997 679.0,478.34999999999997 L 696.46,478.34999999999997 Q 731.3800000000001,459.79179999999997 696.46,441.2335999999999 Z" fill="#d3d4d6" stroke="none" /><path clip-path="url(#viewbox-clip)" d="M 696.46,441.2335999999999 Q 731.3800000000001,459.79179999999997 696.46,478.34999999999997 L 713.9200000000001,478.34999999999997 Q 748.8400000000001,459.79179999999997 713.9200000000001,441.2335999999999 Z" fill="black" stroke="none" /><path clip-path="url(#viewbox-clip)" d="M 347.26000000000005,478.34999999999997 Q 382.18,497.3002 347.26000000000005,516.2504 L 364.72,516.2504 Q 399.64,497.3002 364.72,478.34999999999997 Z" fill="#d3d4d6" stroke="none" /><path clip-path="url(#viewbox-clip)" d="M 364.72,478.34999999999997 Q 399.64,497.3002 364.72,516.2504 L 382.18000000000006,516.2504 Q 417.1,497.3002 382.18000000000006,478.34999999999997 Z" fill="black" stroke="none" /><path clip-path="url(#viewbox-clip)" d="M 382.18000000000006,478.34999999999997 Q 417.1,497.3002 382.18000000000006,516.2504 L 399.64000000000004,516.2504 Q 434.56,497.3002 399.64000000000004,478.34999999999997 Z" fill="#d3d4d6" stroke="none" /><path clip-path="url(#viewbox-clip)" d="M 399.64000000000004,478.34999999999997 Q 434.56,497.3002 399.64000000000004,516.2504 L 417.1,516.2504 Q 452.02,497.3002 417.1,478.34999999999997 Z" fill="black" stroke="none" /><path clip-path="url(#viewbox-clip)" d="M 417.1,478.34999999999997 Q 452.02,497.3002 417.1,516.2504 L 434.56000000000006,516.2504 Q 469.48,497.3002 434.56000000000006,478.34999999999997 Z" fill="#d3d4d6" stroke="none" /><path clip-path="url(#viewbox-clip)" d="M 434.56000000000006,478.34999999999997 Q 469.48,497.3002 434.56000000000006,516.2504 L 469.48,516.2504 Q 434.56000000000006,497.3002 469.48,478.34999999999997 Z" fill="black" stroke="none" /><path clip-path="url(#viewbox-clip)" d="M 469.48,478.34999999999997 Q 434.56000000000006,497.3002 469.48,516.2504 L 469.48,516.2504 Q 504.4,497.3002 469.48,478.34999999999997 Z" fill="#d3d4d6" stroke="none" /><path clip-path="url(#viewbox-clip)" d="M 469.48,478.34999999999997 Q 504.4,497.3002 469.48,516.2504 L 486.94000000000005,516.2504 Q 521.86,497.3002 486.94000000000005,478.34999999999997 Z" fill="black" stroke="none" /><path clip-path="url(#viewbox-clip)" d="M 486.94000000000005,478.34999999999997 Q 521.86,497.3002 486.94000000000005,516.2504 L 504.40000000000003,516.2504 Q 539.3199999999999,497.3002 504.40000000000003,478.34999999999997 Z" fill="#d3d4d6" stroke="none" /><path clip-path="url(#viewbox-clip)" d="M 504.40000000000003,478.34999999999997 Q 539.3199999999999,497.3002 504.40000000000003,516.2504 L 521.86,516.2504 Q 556.7800000000001,497.3002 521.86,478.34999999999997 Z" fill="black" stroke="none" /><path clip-path="url(#viewbox-clip)" d="M 521.86,478.34999999999997 Q 556.7800000000001,497.3002 521.86,516.2504 L 539.32,516.2504 Q 574.2400000000001,497.3002 539.32,478.34999999999997 Z" fill="#d3d4d6" stroke="none" /><path clip-path="url(#viewbox-clip)" d="M 539.32,478.34999999999997 Q 574.2400000000001,497.3002 539.32,516.2504 L 556.78,516.2504 Q 591.7,497.3002 556.78,478.34999999999997 Z" fill="black" stroke="none" /><path clip-path="url(#viewbox-clip)" d="M 556.78,478.34999999999997 Q 591.7,497.3002 556.78,516.2504 L 574.24,516.2504 Q 609.1600000000001,497.3002 574.24,478.34999999999997 Z" fill="#d3d4d6" stroke="none" /><path clip-path="url(#viewbox-clip)" d="M 574.24,478.34999999999997 Q 609.1600000000001,497.3002 574.24,516.2504 L 591.7,516.2504 Q 626.6200000000001,497.3002 591.7,478.34999999999997 Z" fill="black" stroke="none" /><path clip-path="url(#viewbox-clip)" d="M 591.7,478.34999999999997 Q 626.6200000000001,497.3002 591.7,516.2504 L 609.1600000000001,516.2504 Q 644.0800000000002,497.3002 609.1600000000001,478.34999999999997 Z" fill="#d3d4d6" stroke="none" /><path clip-path="url(#viewbox-clip)" d="M 609.1600000000001,478.34999999999997 Q 644.0800000000002,497.3002 609.1600000000001,516.2504 L 644.0799999999999,516.2504 Q 609.1599999999999,497.3002 644.0799999999999,478.34999999999997 Z" fill="black" stroke="none" /><path clip-path="url(#viewbox-clip)" d="M 644.0799999999999,478.34999999999997 Q 609.1599999999999,497.3002 644.0799999999999,516.2504 L 644.0799999999999,516.2504 Q 679.0,497.3002 644.0799999999999,478.34999999999997 Z" fill="#d3d4d6" stroke="none" /><path clip-path="url(#viewbox-clip)" d="M 644.0799999999999,478.34999999999997 Q 679.0,497.3002 644.0799999999999,516.2504 L 661.54,516.2504 Q 696.46,497.3002 661.54,478.34999999999997 Z" fill="black" stroke="none" /><path clip-path="url(#viewbox-clip)" d="M 661.54,478.34999999999997 Q 696.46,497.3002 661.54,516.2504 L 679.0,516.2504 Q 713.9200000000001,497.3002 679.0,478.34999999999997 Z" fill="#d3d4d6" stroke="none" /><path clip-path="url(#viewbox-clip)" d="M 679.0,478.34999999999997 Q 713.9200000000001,497.3002 679.0,516.2504 L 696.46,516.2504 Q 731.3800000000001,497.3002 696.46,478.34999999999997 Z" fill="black" stroke="none" /><path clip-path="url(#viewbox-clip)" d="M 696.46,478.34999999999997 Q 731.3800000000001,497.3002 696.46,516.2504 L 713.9200000000001,516.2504 Q 748.8400000000001,497.3002 713.9200000000001,478.34999999999997 Z" fill="#d3d4d6" stroke="none" /><path clip-path="url(#viewbox-clip)" d="M 713.9200000000001,478.34999999999997 Q 748.8400000000001,497.3002 713.9200000000001,516.2504 L 731.38,516.2504 Q 766.3000000000001,497.3002 731.38,478.34999999999997 Z" fill="black" stroke="none" /><path clip-path="url(#viewbox-clip)" d="M 731.38,478.34999999999997 Q 766.3000000000001,497.3002 731.38,516.2504 L 748.8399999999999,516.2504 Q 783.76,497.3002 748.8399999999999,478.34999999999997 Z" fill="#d3d4d6" stroke="none" /><path clip-path="url(#viewbox-clip)" d="M 748.8399999999999,478.34999999999997 Q 783.76,497.3002 748.8399999999999,516.2504 L 766.3,516.2504 Q 801.22,497.3002 766.3,478.34999999999997 Z" fill="black" stroke="none" /><path clip-path="url(#viewbox-clip)" d="M 766.3,478.34999999999997 Q 801.22,497.3002 766.3,516.2504 L 783.76,516.2504 Q 818.6800000000001,497.3002 783.76,478.34999999999997 Z" fill="#d3d4d6" stroke="none" /><path clip-path="url(#viewbox-clip)" d="M 382.18000000000006,516.2504 Q 417.1,540.2528 382.18000000000006,564.2552 L 399.64000000000004,564.2552 Q 434.56,540.2528 399.64000000000004,516.2504 Z" fill="#d3d4d6" stroke="none" /><path clip-path="url(#viewbox-clip)" d="M 399.64000000000004,516.2504 Q 434.56,540.2528 399.64000000000004,564.2552 L 417.1000000000001,564.2552 Q 452.02000000000004,540.2528 417.1000000000001,516.2504 Z" fill="black" stroke="none" /><path clip-path="url(#viewbox-clip)" d="M 417.1000000000001,516.2504 Q 452.02000000000004,540.2528 417.1000000000001,564.2552 L 434.56000000000006,564.2552 Q 469.48,540.2528 434.56000000000006,516.2504 Z" fill="#d3d4d6" stroke="none" /><path clip-path="url(#viewbox-clip)" d="M 434.56000000000006,516.2504 Q 469.48,540.2528 434.56000000000006,564.2552 L 452.02000000000004,564.2552 Q 486.94,540.2528 452.02000000000004,516.2504 Z" fill="black" stroke="none" /><path clip-path="url(#viewbox-clip)" d="M 452.02000000000004,516.2504 Q 486.94,540.2528 452.02000000000004,564.2552 L 469.48,564.2552 Q 504.4,540.2528 469.48,516.2504 Z" fill="#d3d4d6" stroke="none" /><path clip-path="url(#viewbox-clip)" d="M 469.48,516.2504 Q 504.4,540.2528 469.48,564.2552 L 486.94000000000005,564.2552 Q 521.86,540.2528 486.94000000000005,516.2504 Z" fill="black" stroke="none" /><path clip-path="url(#viewbox-clip)" d="M 486.94000000000005,516.2504 Q 521.86,540.2528 486.94000000000005,564.2552 L 504.40000000000003,564.2552 Q 539.3199999999999,540.2528 504.40000000000003,516.2504 Z" fill="#d3d4d6" stroke="none" /><path clip-path="url(#viewbox-clip)" d="M 504.40000000000003,516.2504 Q 539.3199999999999,540.2528 504.40000000000003,564.2552 L 521.86,564.2552 Q 556.7800000000001,540.2528 521.86,516.2504 Z" fill="black" stroke="none" /><path clip-path="url(#viewbox-clip)" d="M 521.86,516.2504 Q 556.7800000000001,540.2528 521.86,564.2552 L 539.32,564.2552 Q 574.2400000000001,540.2528 539.32,516.2504 Z" fill="#d3d4d6" stroke="none" /><path clip-path="url(#viewbox-clip)" d="M 539.32,516.2504 Q 574.2400000000001,540.2528 539.32,564.2552 L 574.24,564.2552 Q 539.3199999999999,540.2528 574.24,516.2504 Z" fill="black" stroke="none" /><path clip-path="url(#viewbox-clip)" d="M 574.24,516.2504 Q 539.3199999999999,540.2528 574.24,564.2552 L 574.24,564.2552 Q 609.1600000000001,540.2528 574.24,516.2504 Z" fill="#d3d4d6" stroke="none" /><path clip-path="url(#viewbox-clip)" d="M 574.24,516.2504 Q 609.1600000000001,540.2528 574.24,564.2552 L 591.7,564.2552 Q 626.6200000000001,540.2528 591.7,516.2504 Z" fill="black" stroke="none" /><path clip-path="url(#viewbox-clip)" d="M 591.7,516.2504 Q 626.6200000000001,540.2528 591.7,564.2552 L 609.1600000000001,564.2552 Q 644.0800000000002,540.2528 609.1600000000001,516.2504 Z" fill="#d3d4d6" stroke="none" /><path clip-path="url(#viewbox-clip)" d="M 609.1600000000001,516.2504 Q 644.0800000000002,540.2528 609.1600000000001,564.2552 L 626.62,564.2552 Q 661.5400000000001,540.2528 626.62,516.2504 Z" fill="black" stroke="none" /><path clip-path="url(#viewbox-clip)" d="M 626.62,516.2504 Q 661.5400000000001,540.2528 626.62,564.2552 L 644.08,564.2552 Q 679.0000000000001,540.2528 644.08,516.2504 Z" fill="#d3d4d6" stroke="none" /><path clip-path="url(#viewbox-clip)" d="M 644.08,516.2504 Q 679.0000000000001,540.2528 644.08,564.2552 L 661.54,564.2552 Q 696.46,540.2528 661.54,516.2504 Z" fill="black" stroke="none" /><path clip-path="url(#viewbox-clip)" d="M 661.54,516.2504 Q 696.46,540.2528 661.54,564.2552 L 679.0,564.2552 Q 713.9200000000001,540.2528 679.0,516.2504 Z" fill="#d3d4d6" stroke="none" /><path clip-path="url(#viewbox-clip)" d="M 679.0,516.2504 Q 713.9200000000001,540.2528 679.0,564.2552 L 696.46,564.2552 Q 731.3800000000001,540.2528 696.46,516.2504 Z" fill="black" stroke="none" /><path clip-path="url(#viewbox-clip)" d="M 696.46,516.2504 Q 731.3800000000001,540.2528 696.46,564.2552 L 713.9200000000001,564.2552 Q 748.8400000000001,540.2528 713.9200000000001,516.2504 Z" fill="#d3d4d6" stroke="none" /><path clip-path="url(#viewbox-clip)" d="M 713.9200000000001,516.2504 Q 748.8400000000001,540.2528 713.9200000000001,564.2552 L 731.38,564.2552 Q 766.3000000000001,540.2528 731.38,516.2504 Z" fill="black" stroke="none" /><path clip-path="url(#viewbox-clip)" d="M 731.38,516.2504 Q 766.3000000000001,540.2528 731.38,564.2552 L 748.84,564.2552 Q 783.7600000000001,540.2528 748.84,516.2504 Z" fill="#d3d4d6" stroke="none" /><path clip-path="url(#viewbox-clip)" d="M 748.84,516.2504 Q 783.7600000000001,540.2528 748.84,564.2552 L 766.3,564.2552 Q 801.22,540.2528 766.3,516.2504 Z" fill="black" stroke="none" /><path clip-path="url(#viewbox-clip)" d="M 766.3,516.2504 Q 801.22,540.2528 766.3,564.2552 L 783.76,564.2552 Q 818.6800000000001,540.2528 783.76,516.2504 Z" fill="#d3d4d6" stroke="none" /><path clip-path="url(#viewbox-clip)" d="M 783.76,516.2504 Q 818.6800000000001,540.2528 783.76,564.2552 L 801.22,564.2552 Q 836.1400000000001,540.2528 801.22,516.2504 Z" fill="black" stroke="none" /><path clip-path="url(#viewbox-clip)" d="M 801.22,516.2504 Q 836.1400000000001,540.2528 801.22,564.2552 L 818.6800000000001,564.2552 Q 853.6000000000001,540.2528 818.6800000000001,516.2504 Z" fill="#d3d4d6" stroke="none" /><path clip-path="url(#viewbox-clip)" d="M 818.6800000000001,516.2504 Q 853.6000000000001,540.2528 818.6800000000001,564.2552 L 836.14,564.2552 Q 871.0600000000001,540.2528 836.14,516.2504 Z" fill="black" stroke="none" /><path clip-path="url(#viewbox-clip)" d="M 836.14,516.2504 Q 871.0600000000001,540.2528 836.14,564.2552 L 853.5999999999999,564.2552 Q 888.52,540.2528 853.5999999999999,516.2504 Z" fill="#d3d4d6" stroke="none" /><path clip-path="url(#viewbox-clip)" d="M 853.5999999999999,516.2504 Q 888.52,540.2528 853.5999999999999,564.2552 L 871.06,564.2552 Q 905.98,540.2528 871.06,516.2504 Z" fill="black" stroke="none" /><path clip-path="url(#viewbox-clip)" d="M 871.06,516.2504 Q 905.98,540.2528 871.06,564.2552 L 888.52,564.2552 Q 923.44,540.2528 888.52,516.2504 Z" fill="#d3d4d6" stroke="none" /><path clip-path="url(#viewbox-clip)" d="M 888.52,516.2504 Q 923.44,540.2528 888.52,564.2552 L 905.98,564.2552 Q 940.9000000000001,540.2528 905.98,516.2504 Z" fill="black" stroke="none" /><path clip-path="url(#viewbox-clip)" d="M 382.18000000000006,564.2552 Q 417.1,597.9699999999998 382.18000000000006,631.6847999999998 L 399.64000000000004,631.6847999999998 Q 434.56,597.9699999999998 399.64000000000004,564.2552 Z" fill="#d3d4d6" stroke="none" /><path clip-path="url(#viewbox-clip)" d="M 399.64000000000004,564.2552 Q 434.56,597.9699999999998 399.64000000000004,631.6847999999998 L 417.1000000000001,631.6847999999998 Q 452.02000000000004,597.9699999999998 417.1000000000001,564.2552 Z" fill="black" stroke="none" /><path clip-path="url(#viewbox-clip)" d="M 417.1000000000001,564.2552 Q 452.02000000000004,597.9699999999998 417.1000000000001,631.6847999999998 L 434.56000000000006,631.6847999999998 Q 469.48,597.9699999999998 434.56000000000006,564.2552 Z" fill="#d3d4d6" stroke="none" /><path clip-path="url(#viewbox-clip)" d="M 434.56000000000006,564.2552 Q 469.48,597.9699999999998 434.56000000000006,631.6847999999998 L 452.02000000000004,631.6847999999998 Q 486.94,597.9699999999998 452.02000000000004,564.2552 Z" fill="black" stroke="none" /><path clip-path="url(#viewbox-clip)" d="M 452.02000000000004,564.2552 Q 486.94,597.9699999999998 452.02000000000004,631.6847999999998 L 469.48,631.6847999999998 Q 504.4,597.9699999999998 469.48,564.2552 Z" fill="#d3d4d6" stroke="none" /><path clip-path="url(#viewbox-clip)" d="M 469.48,564.2552 Q 504.4,597.9699999999998 469.48,631.6847999999998 L 486.94000000000005,631.6847999999998 Q 521.86,597.9699999999998 486.94000000000005,564.2552 Z" fill="black" stroke="none" /><path clip-path="url(#viewbox-clip)" d="M 486.94000000000005,564.2552 Q 521.86,597.9699999999998 486.94000000000005,631.6847999999998 L 504.40000000000003,631.6847999999998 Q 539.3199999999999,597.9699999999998 504.40000000000003,564.2552 Z" fill="#d3d4d6" stroke="none" /><path clip-path="url(#viewbox-clip)" d="M 504.40000000000003,564.2552 Q 539.3199999999999,597.9699999999998 504.40000000000003,631.6847999999998 L 521.86,631.6847999999998 Q 556.7800000000001,597.9699999999998 521.86,564.2552 Z" fill="black" stroke="none" /><path clip-path="url(#viewbox-clip)" d="M 521.86,564.2552 Q 556.7800000000001,597.9699999999998 521.86,631.6847999999998 L 539.32,631.6847999999998 Q 574.2400000000001,597.9699999999998 539.32,564.2552 Z" fill="#d3d4d6" stroke="none" /><path clip-path="url(#viewbox-clip)" d="M 539.32,564.2552 Q 574.2400000000001,597.9699999999998 539.32,631.6847999999998 L 556.78,631.6847999999998 Q 591.7,597.9699999999998 556.78,564.2552 Z" fill="black" stroke="none" /><path clip-path="url(#viewbox-clip)" d="M 556.78,564.2552 Q 591.7,597.9699999999998 556.78,631.6847999999998 L 574.24,631.6847999999998 Q 609.1600000000001,597.9699999999998 574.24,564.2552 Z" fill="#d3d4d6" stroke="none" /><path clip-path="url(#viewbox-clip)" d="M 574.24,564.2552 Q 609.1600000000001,597.9699999999998 574.24,631.6847999999998 L 609.1600000000001,631.6847999999998 Q 574.24,597.9699999999998 609.1600000000001,564.2552 Z" fill="black" stroke="none" /><path clip-path="url(#viewbox-clip)" d="M 609.1600000000001,564.2552 Q 574.24,597.9699999999998 609.1600000000001,631.6847999999998 L 609.1600000000001,631.6847999999998 Q 644.0800000000002,597.9699999999998 609.1600000000001,564.2552 Z" fill="#d3d4d6" stroke="none" /><path clip-path="url(#viewbox-clip)" d="M 609.1600000000001,564.2552 Q 644.0800000000002,597.9699999999998 609.1600000000001,631.6847999999998 L 626.62,631.6847999999998 Q 661.5400000000001,597.9699999999998 626.62,564.2552 Z" fill="black" stroke="none" /><path clip-path="url(#viewbox-clip)" d="M 626.62,564.2552 Q 661.5400000000001,597.9699999999998 626.62,631.6847999999998 L 644.08,631.6847999999998 Q 679.0000000000001,597.9699999999998 644.08,564.2552 Z" fill="#d3d4d6" stroke="none" /><path clip-path="url(#viewbox-clip)" d="M 644.08,564.2552 Q 679.0000000000001,597.9699999999998 644.08,631.6847999999998 L 661.54,631.6847999999998 Q 696.46,597.9699999999998 661.54,564.2552 Z" fill="black" stroke="none" /><path clip-path="url(#viewbox-clip)" d="M 661.54,564.2552 Q 696.46,597.9699999999998 661.54,631.6847999999998 L 679.0,631.6847999999998 Q 713.9200000000001,597.9699999999998 679.0,564.2552 Z" fill="#d3d4d6" stroke="none" /><path clip-path="url(#viewbox-clip)" d="M 679.0,564.2552 Q 713.9200000000001,597.9699999999998 679.0,631.6847999999998 L 696.46,631.6847999999998 Q 731.3800000000001,597.9699999999998 696.46,564.2552 Z" fill="black" stroke="none" /><path clip-path="url(#viewbox-clip)" d="M 696.46,564.2552 Q 731.3800000000001,597.9699999999998 696.46,631.6847999999998 L 713.9200000000001,631.6847999999998 Q 748.8400000000001,597.9699999999998 713.9200000000001,564.2552 Z" fill="#d3d4d6" stroke="none" /><path clip-path="url(#viewbox-clip)" d="M 713.9200000000001,564.2552 Q 748.8400000000001,597.9699999999998 713.9200000000001,631.6847999999998 L 731.38,631.6847999999998 Q 766.3000000000001,597.9699999999998 731.38,564.2552 Z" fill="black" stroke="none" /><path clip-path="url(#viewbox-clip)" d="M 731.38,564.2552 Q 766.3000000000001,597.9699999999998 731.38,631.6847999999998 L 748.84,631.6847999999998 Q 783.7600000000001,597.9699999999998 748.84,564.2552 Z" fill="#d3d4d6" stroke="none" /><path clip-path="url(#viewbox-clip)" d="M 748.84,564.2552 Q 783.7600000000001,597.9699999999998 748.84,631.6847999999998 L 766.3,631.6847999999998 Q 801.22,597.9699999999998 766.3,564.2552 Z" fill="black" stroke="none" /><path clip-path="url(#viewbox-clip)" d="M 766.3,564.2552 Q 801.22,597.9699999999998 766.3,631.6847999999998 L 783.76,631.6847999999998 Q 818.6800000000001,597.9699999999998 783.76,564.2552 Z" fill="#d3d4d6" stroke="none" /><path clip-path="url(#viewbox-clip)" d="M 783.76,564.2552 Q 818.6800000000001,597.9699999999998 783.76,631.6847999999998 L 801.22,631.6847999999998 Q 836.1400000000001,597.9699999999998 801.22,564.2552 Z" fill="black" stroke="none" /><path clip-path="url(#viewbox-clip)" d="M 801.22,564.2552 Q 836.1400000000001,597.9699999999998 801.22,631.6847999999998 L 818.6800000000001,631.6847999999998 Q 853.6000000000001,597.9699999999998 818.6800000000001,564.2552 Z" fill="#d3d4d6" stroke="none" /><path clip-path="url(#viewbox-clip)" d="M 818.6800000000001,564.2552 Q 853.6000000000001,597.9699999999998 818.6800000000001,631.6847999999998 L 836.14,631.6847999999998 Q 871.0600000000001,597.9699999999998 836.14,564.2552 Z" fill="black" stroke="none" /><path clip-path="url(#viewbox-clip)" d="M 836.14,564.2552 Q 871.0600000000001,597.9699999999998 836.14,631.6847999999998 L 853.5999999999999,631.6847999999998 Q 888.52,597.9699999999998 853.5999999999999,564.2552 Z" fill="#d3d4d6" stroke="none" /><path clip-path="url(#viewbox-clip)" d="M 853.5999999999999,564.2552 Q 888.52,597.9699999999998 853.5999999999999,631.6847999999998 L 888.52,631.6847999999998 Q 853.5999999999999,597.9699999999998 888.52,564.2552 Z" fill="black" stroke="none" /><path clip-path="url(#viewbox-clip)" d="M 888.52,564.2552 Q 853.5999999999999,597.9699999999998 888.52,631.6847999999998 L 888.52,631.6847999999998 Q 923.44,597.9699999999998 888.52,564.2552 Z" fill="#d3d4d6" stroke="none" /><path clip-path="url(#viewbox-clip)" d="M 888.52,564.2552 Q 923.44,597.9699999999998 888.52,631.6847999999998 L 905.98,631.6847999999998 Q 940.9000000000001,597.9699999999998 905.98,564.2552 Z" fill="black" stroke="none" /><path clip-path="url(#viewbox-clip)" d="M 905.98,564.2552 Q 940.9000000000001,597.9699999999998 905.98,631.6847999999998 L 923.4399999999999,631.6847999999998 Q 958.36,597.9699999999998 923.4399999999999,564.2552 Z" fill="#d3d4d6" stroke="none" /><path clip-path="url(#viewbox-clip)" d="M 923.4399999999999,564.2552 Q 958.36,597.9699999999998 923.4399999999999,631.6847999999998 L 940.9,631.6847999999998 Q 975.82,597.9699999999998 940.9,564.2552 Z" fill="black" stroke="none" /><path clip-path="url(#viewbox-clip)" d="M 940.9,564.2552 Q 975.82,597.9699999999998 940.9,631.6847999999998 L 958.36,631.6847999999998 Q 993.2800000000001,597.9699999999998 958.36,564.2552 Z" fill="#d3d4d6" stroke="none" /><path clip-path="url(#viewbox-clip)" d="M 399.64000000000004,631.6847999999998 Q 434.56,679.7721999999999 399.64000000000004,727.8596 L 434.56000000000006,727.8596 Q 399.6400000000001,679.7721999999999 434.56000000000006,631.6847999999998 Z" fill="#d3d4d6" stroke="none" /><path clip-path="url(#viewbox-clip)" d="M 434.56000000000006,631.6847999999998 Q 399.6400000000001,679.7721999999999 434.56000000000006,727.8596 L 434.56000000000006,727.8596 Q 469.48,679.7721999999999 434.56000000000006,631.6847999999998 Z" fill="black" stroke="none" /><path clip-path="url(#viewbox-clip)" d="M 434.56000000000006,631.6847999999998 Q 469.48,679.7721999999999 434.56000000000006,727.8596 L 452.02000000000004,727.8596 Q 486.94,679.7721999999999 452.02000000000004,631.6847999999998 Z" fill="#d3d4d6" stroke="none" /><path clip-path="url(#viewbox-clip)" d="M 452.02000000000004,631.6847999999998 Q 486.94,679.7721999999999 452.02000000000004,727.8596 L 469.48,727.8596 Q 504.4,679.7721999999999 469.48,631.6847999999998 Z" fill="black" stroke="none" /><path clip-path="url(#viewbox-clip)" d="M 469.48,631.6847999999998 Q 504.4,679.7721999999999 469.48,727.8596 L 486.94000000000005,727.8596 Q 521.86,679.7721999999999 486.94000000000005,631.6847999999998 Z" fill="#d3d4d6" stroke="none" /><path clip-path="url(#viewbox-clip)" d="M 486.94000000000005,631.6847999999998 Q 521.86,679.7721999999999 486.94000000000005,727.8596 L 504.40000000000003,727.8596 Q 539.3199999999999,679.7721999999999 504.40000000000003,631.6847999999998 Z" fill="black" stroke="none" /><path clip-path="url(#viewbox-clip)" d="M 504.40000000000003,631.6847999999998 Q 539.3199999999999,679.7721999999999 504.40000000000003,727.8596 L 539.32,727.8596 Q 504.4,679.7721999999999 539.32,631.6847999999998 Z" fill="#d3d4d6" stroke="none" /><path clip-path="url(#viewbox-clip)" d="M 539.32,631.6847999999998 Q 504.4,679.7721999999999 539.32,727.8596 L 539.32,727.8596 Q 574.2400000000001,679.7721999999999 539.32,631.6847999999998 Z" fill="black" stroke="none" /><path clip-path="url(#viewbox-clip)" d="M 539.32,631.6847999999998 Q 574.2400000000001,679.7721999999999 539.32,727.8596 L 556.78,727.8596 Q 591.7,679.7721999999999 556.78,631.6847999999998 Z" fill="#d3d4d6" stroke="none" /><path clip-path="url(#viewbox-clip)" d="M 556.78,631.6847999999998 Q 591.7,679.7721999999999 556.78,727.8596 L 574.24,727.8596 Q 609.1600000000001,679.7721999999999 574.24,631.6847999999998 Z" fill="black" stroke="none" /><path clip-path="url(#viewbox-clip)" d="M 574.24,631.6847999999998 Q 609.1600000000001,679.7721999999999 574.24,727.8596 L 591.7,727.8596 Q 626.6200000000001,679.7721999999999 591.7,631.6847999999998 Z" fill="#d3d4d6" stroke="none" /><path clip-path="url(#viewbox-clip)" d="M 591.7,631.6847999999998 Q 626.6200000000001,679.7721999999999 591.7,727.8596 L 609.1600000000001,727.8596 Q 644.0800000000002,679.7721999999999 609.1600000000001,631.6847999999998 Z" fill="black" stroke="none" /><path clip-path="url(#viewbox-clip)" d="M 609.1600000000001,631.6847999999998 Q 644.0800000000002,679.7721999999999 609.1600000000001,727.8596 L 626.62,727.8596 Q 661.5400000000001,679.7721999999999 626.62,631.6847999999998 Z" fill="#d3d4d6" stroke="none" /><path clip-path="url(#viewbox-clip)" d="M 626.62,631.6847999999998 Q 661.5400000000001,679.7721999999999 626.62,727.8596 L 644.08,727.8596 Q 679.0000000000001,679.7721999999999 644.08,631.6847999999998 Z" fill="black" stroke="none" /><path clip-path="url(#viewbox-clip)" d="M 644.08,631.6847999999998 Q 679.0000000000001,679.7721999999999 644.08,727.8596 L 661.54,727.8596 Q 696.46,679.7721999999999 661.54,631.6847999999998 Z" fill="#d3d4d6" stroke="none" /><path clip-path="url(#viewbox-clip)" d="M 661.54,631.6847999999998 Q 696.46,679.7721999999999 661.54,727.8596 L 679.0,727.8596 Q 713.9200000000001,679.7721999999999 679.0,631.6847999999998 Z" fill="black" stroke="none" /><path clip-path="url(#viewbox-clip)" d="M 679.0,631.6847999999998 Q 713.9200000000001,679.7721999999999 679.0,727.8596 L 696.46,727.8596 Q 731.3800000000001,679.7721999999999 696.46,631.6847999999998 Z" fill="#d3d4d6" stroke="none" /><path clip-path="url(#viewbox-clip)" d="M 696.46,631.6847999999998 Q 731.3800000000001,679.7721999999999 696.46,727.8596 L 713.9200000000001,727.8596 Q 748.8400000000001,679.7721999999999 713.9200000000001,631.6847999999998 Z" fill="black" stroke="none" /><path clip-path="url(#viewbox-clip)" d="M 713.9200000000001,631.6847999999998 Q 748.8400000000001,679.7721999999999 713.9200000000001,727.8596 L 731.38,727.8596 Q 766.3000000000001,679.7721999999999 731.38,631.6847999999998 Z" fill="#d3d4d6" stroke="none" /><path clip-path="url(#viewbox-clip)" d="M 731.38,631.6847999999998 Q 766.3000000000001,679.7721999999999 731.38,727.8596 L 748.8399999999999,727.8596 Q 783.76,679.7721999999999 748.8399999999999,631.6847999999998 Z" fill="black" stroke="none" /><path clip-path="url(#viewbox-clip)" d="M 748.8399999999999,631.6847999999998 Q 783.76,679.7721999999999 748.8399999999999,727.8596 L 766.3,727.8596 Q 801.22,679.7721999999999 766.3,631.6847999999998 Z" fill="#d3d4d6" stroke="none" /><path clip-path="url(#viewbox-clip)" d="M 766.3,631.6847999999998 Q 801.22,679.7721999999999 766.3,727.8596 L 783.76,727.8596 Q 818.6800000000001,679.7721999999999 783.76,631.6847999999998 Z" fill="black" stroke="none" /><path clip-path="url(#viewbox-clip)" d="M 783.76,631.6847999999998 Q 818.6800000000001,679.7721999999999 783.76,727.8596 L 801.22,727.8596 Q 836.1400000000001,679.7721999999999 801.22,631.6847999999998 Z" fill="#d3d4d6" stroke="none" /><path clip-path="url(#viewbox-clip)" d="M 801.22,631.6847999999998 Q 836.1400000000001,679.7721999999999 801.22,727.8596 L 818.6800000000001,727.8596 Q 853.6000000000001,679.7721999999999 818.6800000000001,631.6847999999998 Z" fill="black" stroke="none" /><path clip-path="url(#viewbox-clip)" d="M 818.6800000000001,631.6847999999998 Q 853.6000000000001,679.7721999999999 818.6800000000001,727.8596 L 836.14,727.8596 Q 871.0600000000001,679.7721999999999 836.14,631.6847999999998 Z" fill="#d3d4d6" stroke="none" /><path clip-path="url(#viewbox-clip)" d="M 836.14,631.6847999999998 Q 871.0600000000001,679.7721999999999 836.14,727.8596 L 871.06,727.8596 Q 836.1399999999999,679.7721999999999 871.06,631.6847999999998 Z" fill="black" stroke="none" /><path clip-path="url(#viewbox-clip)" d="M 871.06,631.6847999999998 Q 836.1399999999999,679.7721999999999 871.06,727.8596 L 871.06,727.8596 Q 905.98,679.7721999999999 871.06,631.6847999999998 Z" fill="#d3d4d6" stroke="none" /><path clip-path="url(#viewbox-clip)" d="M 871.06,631.6847999999998 Q 905.98,679.7721999999999 871.06,727.8596 L 888.52,727.8596 Q 923.44,679.7721999999999 888.52,631.6847999999998 Z" fill="black" stroke="none" /><path clip-path="url(#viewbox-clip)" d="M 888.52,631.6847999999998 Q 923.44,679.7721999999999 888.52,727.8596 L 905.98,727.8596 Q 940.9000000000001,679.7721999999999 905.98,631.6847999999998 Z" fill="#d3d4d6" stroke="none" /><path clip-path="url(#viewbox-clip)" d="M 905.98,631.6847999999998 Q 940.9000000000001,679.7721999999999 905.98,727.8596 L 923.44,727.8596 Q 958.3600000000001,679.7721999999999 923.44,631.6847999999998 Z" fill="black" stroke="none" /><path clip-path="url(#viewbox-clip)" d="M 923.44,631.6847999999998 Q 958.3600000000001,679.7721999999999 923.44,727.8596 L 940.8999999999999,727.8596 Q 975.8199999999999,679.7721999999999 940.8999999999999,631.6847999999998 Z" fill="#d3d4d6" stroke="none" /><path clip-path="url(#viewbox-clip)" d="M 940.8999999999999,631.6847999999998 Q 975.8199999999999,679.7721999999999 940.8999999999999,727.8596 L 958.3599999999999,727.8596 Q 993.28,679.7721999999999 958.3599999999999,631.6847999999998 Z" fill="black" stroke="none" /><path clip-path="url(#viewbox-clip)" d="M 958.3599999999999,631.6847999999998 Q 993.28,679.7721999999999 958.3599999999999,727.8596 L 975.8199999999999,727.8596 Q 1010.74,679.7721999999999 975.8199999999999,631.6847999999998 Z" fill="#d3d4d6" stroke="none" /><path clip-path="url(#viewbox-clip)" d="M 975.8199999999999,631.6847999999998 Q 1010.74,679.7721999999999 975.8199999999999,727.8596 L 993.28,727.8596 Q 1028.2,679.7721999999999 993.28,631.6847999999998 Z" fill="black" stroke="none" /><path clip-path="url(#viewbox-clip)" d="M 993.28,631.6847999999998 Q 1028.2,679.7721999999999 993.28,727.8596 L 1010.74,727.8596 Q 1045.66,679.7721999999999 1010.74,631.6847999999998 Z" fill="#d3d4d6" stroke="none" /><path clip-path="url(#viewbox-clip)" d="M 1010.74,631.6847999999998 Q 1045.66,679.7721999999999 1010.74,727.8596 L 1028.2,727.8596 Q 1063.1200000000001,679.7721999999999 1028.2,631.6847999999998 Z" fill="black" stroke="none" /><path clip-path="url(#viewbox-clip)" d="M 399.64000000000004,727.8596 Q 434.56,794.9797999999998 399.64000000000004,862.0999999999998 L 417.1,862.0999999999998 Q 452.02,794.9797999999998 417.1,727.8596 Z" fill="#d3d4d6" stroke="none" /><path clip-path="url(#viewbox-clip)" d="M 417.1,727.8596 Q 452.02,794.9797999999998 417.1,862.0999999999998 L 434.56000000000006,862.0999999999998 Q 469.48,794.9797999999998 434.56000000000006,727.8596 Z" fill="black" stroke="none" /><path clip-path="url(#viewbox-clip)" d="M 434.56000000000006,727.8596 Q 469.48,794.9797999999998 434.56000000000006,862.0999999999998 L 452.02000000000004,862.0999999999998 Q 486.94,794.9797999999998 452.02000000000004,727.8596 Z" fill="#d3d4d6" stroke="none" /><path clip-path="url(#viewbox-clip)" d="M 452.02000000000004,727.8596 Q 486.94,794.9797999999998 452.02000000000004,862.0999999999998 L 469.48,862.0999999999998 Q 504.4,794.9797999999998 469.48,727.8596 Z" fill="black" stroke="none" /><path clip-path="url(#viewbox-clip)" d="M 469.48,727.8596 Q 504.4,794.9797999999998 469.48,862.0999999999998 L 486.94000000000005,862.0999999999998 Q 521.86,794.9797999999998 486.94000000000005,727.8596 Z" fill="#d3d4d6" stroke="none" /><path clip-path="url(#viewbox-clip)" d="M 486.94000000000005,727.8596 Q 521.86,794.9797999999998 486.94000000000005,862.0999999999998 L 504.40000000000003,862.0999999999998 Q 539.3199999999999,794.9797999999998 504.40000000000003,727.8596 Z" fill="black" stroke="none" /><path clip-path="url(#viewbox-clip)" d="M 504.40000000000003,727.8596 Q 539.3199999999999,794.9797999999998 504.40000000000003,862.0999999999998 L 521.86,862.0999999999998 Q 556.7800000000001,794.9797999999998 521.86,727.8596 Z" fill="#d3d4d6" stroke="none" /><path clip-path="url(#viewbox-clip)" d="M 521.86,727.8596 Q 556.7800000000001,794.9797999999998 521.86,862.0999999999998 L 539.32,862.0999999999998 Q 574.2400000000001,794.9797999999998 539.32,727.8596 Z" fill="black" stroke="none" /><path clip-path="url(#viewbox-clip)" d="M 539.32,727.8596 Q 574.2400000000001,794.9797999999998 539.32,862.0999999999998 L 556.78,862.0999999999998 Q 591.7,794.9797999999998 556.78,727.8596 Z" fill="#d3d4d6" stroke="none" /><path clip-path="url(#viewbox-clip)" d="M 556.78,727.8596 Q 591.7,794.9797999999998 556.78,862.0999999999998 L 574.24,862.0999999999998 Q 609.1600000000001,794.9797999999998 574.24,727.8596 Z" fill="black" stroke="none" /><path clip-path="url(#viewbox-clip)" d="M 574.24,727.8596 Q 609.1600000000001,794.9797999999998 574.24,862.0999999999998 L 591.7,862.0999999999998 Q 626.6200000000001,794.9797999999998 591.7,727.8596 Z" fill="#d3d4d6" stroke="none" /><path clip-path="url(#viewbox-clip)" d="M 591.7,727.8596 Q 626.6200000000001,794.9797999999998 591.7,862.0999999999998 L 609.1600000000001,862.0999999999998 Q 644.0800000000002,794.9797999999998 609.1600000000001,727.8596 Z" fill="black" stroke="none" /><path clip-path="url(#viewbox-clip)" d="M 609.1600000000001,727.8596 Q 644.0800000000002,794.9797999999998 609.1600000000001,862.0999999999998 L 626.62,862.0999999999998 Q 661.5400000000001,794.9797999999998 626.62,727.8596 Z" fill="#d3d4d6" stroke="none" /><path clip-path="url(#viewbox-clip)" d="M 626.62,727.8596 Q 661.5400000000001,794.9797999999998 626.62,862.0999999999998 L 644.08,862.0999999999998 Q 679.0000000000001,794.9797999999998 644.08,727.8596 Z" fill="black" stroke="none" /><path clip-path="url(#viewbox-clip)" d="M 644.08,727.8596 Q 679.0000000000001,794.9797999999998 644.08,862.0999999999998 L 661.54,862.0999999999998 Q 696.46,794.9797999999998 661.54,727.8596 Z" fill="#d3d4d6" stroke="none" /><path clip-path="url(#viewbox-clip)" d="M 661.54,727.8596 Q 696.46,794.9797999999998 661.54,862.0999999999998 L 679.0,862.0999999999998 Q 713.9200000000001,794.9797999999998 679.0,727.8596 Z" fill="black" stroke="none" /><path clip-path="url(#viewbox-clip)" d="M 679.0,727.8596 Q 713.9200000000001,794.9797999999998 679.0,862.0999999999998 L 696.46,862.0999999999998 Q 731.3800000000001,794.9797999999998 696.46,727.8596 Z" fill="#d3d4d6" stroke="none" /><path clip-path="url(#viewbox-clip)" d="M 696.46,727.8596 Q 731.3800000000001,794.9797999999998 696.46,862.0999999999998 L 713.9200000000001,862.0999999999998 Q 748.8400000000001,794.9797999999998 713.9200000000001,727.8596 Z" fill="black" stroke="none" /><path clip-path="url(#viewbox-clip)" d="M 713.9200000000001,727.8596 Q 748.8400000000001,794.9797999999998 713.9200000000001,862.0999999999998 L 731.38,862.0999999999998 Q 766.3000000000001,794.9797999999998 731.38,727.8596 Z" fill="#d3d4d6" stroke="none" /><path clip-path="url(#viewbox-clip)" d="M 731.38,727.8596 Q 766.3000000000001,794.9797999999998 731.38,862.0999999999998 L 748.8399999999999,862.0999999999998 Q 783.76,794.9797999999998 748.8399999999999,727.8596 Z" fill="black" stroke="none" /><path clip-path="url(#viewbox-clip)" d="M 748.8399999999999,727.8596 Q 783.76,794.9797999999998 748.8399999999999,862.0999999999998 L 766.3,862.0999999999998 Q 801.22,794.9797999999998 766.3,727.8596 Z" fill="#d3d4d6" stroke="none" /><path clip-path="url(#viewbox-clip)" d="M 766.3,727.8596 Q 801.22,794.9797999999998 766.3,862.0999999999998 L 783.76,862.0999999999998 Q 818.6800000000001,794.9797999999998 783.76,727.8596 Z" fill="black" stroke="none" /><path clip-path="url(#viewbox-clip)" d="M 783.76,727.8596 Q 818.6800000000001,794.9797999999998 783.76,862.0999999999998 L 801.22,862.0999999999998 Q 836.1400000000001,794.9797999999998 801.22,727.8596 Z" fill="#d3d4d6" stroke="none" /><path clip-path="url(#viewbox-clip)" d="M 801.22,727.8596 Q 836.1400000000001,794.9797999999998 801.22,862.0999999999998 L 818.6800000000001,862.0999999999998 Q 853.6000000000001,794.9797999999998 818.6800000000001,727.8596 Z" fill="black" stroke="none" /><path clip-path="url(#viewbox-clip)" d="M 818.6800000000001,727.8596 Q 853.6000000000001,794.9797999999998 818.6800000000001,862.0999999999998 L 836.14,862.0999999999998 Q 871.0600000000001,794.9797999999998 836.14,727.8596 Z" fill="#d3d4d6" stroke="none" /><path clip-path="url(#viewbox-clip)" d="M 836.14,727.8596 Q 871.0600000000001,794.9797999999998 836.14,862.0999999999998 L 853.5999999999999,862.0999999999998 Q 888.52,794.9797999999998 853.5999999999999,727.8596 Z" fill="black" stroke="none" /><path clip-path="url(#viewbox-clip)" d="M 853.5999999999999,727.8596 Q 888.52,794.9797999999998 853.5999999999999,862.0999999999998 L 871.06,862.0999999999998 Q 905.98,794.9797999999998 871.06,727.8596 Z" fill="#d3d4d6" stroke="none" /><path clip-path="url(#viewbox-clip)" d="M 871.06,727.8596 Q 905.98,794.9797999999998 871.06,862.0999999999998 L 888.52,862.0999999999998 Q 923.44,794.9797999999998 888.52,727.8596 Z" fill="black" stroke="none" /><path clip-path="url(#viewbox-clip)" d="M 888.52,727.8596 Q 923.44,794.9797999999998 888.52,862.0999999999998 L 905.98,862.0999999999998 Q 940.9000000000001,794.9797999999998 905.98,727.8596 Z" fill="#d3d4d6" stroke="none" /><path clip-path="url(#viewbox-clip)" d="M 905.98,727.8596 Q 940.9000000000001,794.9797999999998 905.98,862.0999999999998 L 923.44,862.0999999999998 Q 958.3600000000001,794.9797999999998 923.44,727.8596 Z" fill="black" stroke="none" /><path clip-path="url(#viewbox-clip)" d="M 923.44,727.8596 Q 958.3600000000001,794.9797999999998 923.44,862.0999999999998 L 940.8999999999999,862.0999999999998 Q 975.8199999999999,794.9797999999998 940.8999999999999,727.8596 Z" fill="#d3d4d6" stroke="none" /><path clip-path="url(#viewbox-clip)" d="M 940.8999999999999,727.8596 Q 975.8199999999999,794.9797999999998 940.8999999999999,862.0999999999998 L 958.3599999999999,862.0999999999998 Q 993.28,794.9797999999998 958.3599999999999,727.8596 Z" fill="black" stroke="none" /><path clip-path="url(#viewbox-clip)" d="M 958.3599999999999,727.8596 Q 993.28,794.9797999999998 958.3599999999999,862.0999999999998 L 975.8199999999999,862.0999999999998 Q 1010.74,794.9797999999998 975.8199999999999,727.8596 Z" fill="#d3d4d6" stroke="none" /><path clip-path="url(#viewbox-clip)" d="M 975.8199999999999,727.8596 Q 1010.74,794.9797999999998 975.8199999999999,862.0999999999998 L 993.28,862.0999999999998 Q 1028.2,794.9797999999998 993.28,727.8596 Z" fill="black" stroke="none" /><path clip-path="url(#viewbox-clip)" d="M 993.28,727.8596 Q 1028.2,794.9797999999998 993.28,862.0999999999998 L 1010.74,862.0999999999998 Q 1045.66,794.9797999999998 1010.74,727.8596 Z" fill="#d3d4d6" stroke="none" /><path clip-path="url(#viewbox-clip)" d="M 1010.74,727.8596 Q 1045.66,794.9797999999998 1010.74,862.0999999999998 L 1028.2,862.0999999999998 Q 1063.1200000000001,794.9797999999998 1028.2,727.8596 Z" fill="black" stroke="none" /><path clip-path="url(#viewbox-clip)" d="M 1028.2,727.8596 Q 1063.1200000000001,794.9797999999998 1028.2,862.0999999999998 L 1045.6599999999999,862.0999999999998 Q 1080.58,794.9797999999998 1045.6599999999999,727.8596 Z" fill="#d3d4d6" stroke="none" /><path clip-path="url(#viewbox-clip)" d="M 1045.6599999999999,727.8596 Q 1080.58,794.9797999999998 1045.6599999999999,862.0999999999998 L 1063.12,862.0999999999998 Q 1098.04,794.9797999999998 1063.12,727.8596 Z" fill="black" stroke="none" /><path clip-path="url(#viewbox-clip)" d="M 1063.12,727.8596 Q 1098.04,794.9797999999998 1063.12,862.0999999999998 L 1080.58,862.0999999999998 Q 1115.5,794.9797999999998 1080.58,727.8596 Z" fill="#d3d4d6" stroke="none" /><path clip-path="url(#viewbox-clip)" d="M 1080.58,727.8596 Q 1115.5,794.9797999999998 1080.58,862.0999999999998 L 1098.04,862.0999999999998 Q 1132.96,794.9797999999998 1098.04,727.8596 Z" fill="black" stroke="none" /><path clip-path="url(#viewbox-clip)" d="M 1098.04,727.8596 Q 1132.96,794.9797999999998 1098.04,862.0999999999998 L 1115.5,862.0999999999998 Q 1150.42,794.9797999999998 1115.5,727.8596 Z" fill="#d3d4d6" stroke="none" /><path clip-path="url(#viewbox-clip)" d="M 1115.5,727.8596 Q 1150.42,794.9797999999998 1115.5,862.0999999999998 L 1132.96,862.0999999999998 Q 1167.88,794.9797999999998 1132.96,727.8596 Z" fill="black" stroke="none" /></svg>