<?xml version="1.0" encoding="utf-8" ?>
<svg baseProfile="full" height="1000" version="1.1" width="1051.0" xmlns="http://www.w3.org/2000/svg" xmlns:ev="http://www.w3.org/2001/xml-events" xmlns:xlink="http://www.w3.org/1999/xlink"><defs><clipPath id="viewbox-clip"><rect height="1000" width="1051.0" x="0" y="0" /></clipPath></defs><rect clip-path="url(#viewbox-clip)" fill="#eceeeb" height="1000" width="1051.0" x="0" y="0" /><ellipse clip-path="url(#viewbox-clip)" cx="21.02" cy="19.714015599149132" fill="black" rx="21.02" ry="19.714015599149132" /><ellipse clip-path="url(#viewbox-clip)" cx="105.1" cy="19.714015599149132" fill="black" rx="21.02" ry="19.714015599149132" /><ellipse clip-path="url(#viewbox-clip)" cx="189.18" cy="19.714015599149132" fill="black" rx="21.02" ry="19.714015599149132" /><ellipse clip-path="url(#viewbox-clip)" cx="273.26" cy="19.714015599149132" fill="black" rx="21.02" ry="19.714015599149132" /><ellipse clip-path="url(#viewbox-clip)" cx="357.34" cy="19.714015599149132" fill="black" rx="21.02" ry="19.714015599149132" /><ellipse clip-path="url(#viewbox-clip)" cx="441.41999999999996" cy="19.714015599149132" fill="black" rx="21.02" ry="19.714015599149132" /><ellipse clip-path="url(#viewbox-clip)" cx="525.5" cy="19.714015599149132" fill="black" rx="21.02" ry="19.714015599149132" /><ellipse clip-path="url(#viewbox-clip)" cx="609.5799999999999" cy="19.714015599149132" fill="black" rx="21.02" ry="19.714015599149132" /><ellipse clip-path="url(#viewbox-clip)" cx="693.66" cy="19.714015599149132" fill="black" rx="21.02" ry="19.714015599149132" /><ellipse clip-path="url(#viewbox-clip)" cx="777.74" cy="19.714015599149132" fill="black" rx="21.02" ry="19.714015599149132" /><ellipse clip-path="url(#viewbox-clip)" cx="861.8199999999999" cy="19.714015599149132" fill="black" rx="21.02" ry="19.714015599149132" /><ellipse clip-path="url(#viewbox-clip)" cx="945.9" cy="19.714015599149132" fill="black" rx="21.02" ry="19.714015599149132" /><ellipse clip-path="url(#viewbox-clip)" cx="1029.98" cy="19.714015599149132" fill="black" rx="21.02" ry="19.714015599149132" /><ellipse clip-path="url(#viewbox-clip)" cx="63.06" cy="57.6057669581659" fill="black" rx="21.02" ry="18.177735759867634" /><ellipse clip-path="url(#viewbox-clip)" cx="147.14000000000001" cy="57.6057669581659" fill="black" rx="21.02" ry="18.177735759867634" /><ellipse clip-path="url(#viewbox-clip)" cx="231.22" cy="57.6057669581659" fill="black" rx="21.02" ry="18.177735759867634" /><ellipse clip-path="url(#viewbox-clip)" cx="315.3" cy="57.6057669581659" fill="black" rx="21.02" ry="18.177735759867634" /><ellipse clip-path="url(#viewbox-clip)" cx="399.38" cy="57.6057669581659" fill="black" rx="21.02" ry="18.177735759867634" /><ellipse clip-path="url(#viewbox-clip)" cx="483.46" cy="57.6057669581659" fill="black" rx="21.02" ry="18.177735759867634" /><ellipse clip-path="url(#viewbox-clip)" cx="567.54" cy="57.6057669581659" fill="black" rx="21.02" ry="18.177735759867634" /><ellipse clip-path="url(#viewbox-clip)" cx="651.6199999999999" cy="57.6057669581659" fill="black" rx="21.02" ry="18.177735759867634" /><ellipse clip-path="url(#viewbox-clip)" cx="735.6999999999999" cy="57.6057669581659" fill="black" rx="21.02" ry="18.177735759867634" /><ellipse clip-path="url(#viewbox-clip)" cx="819.78" cy="57.6057669581659" fill="black" rx="21.02" ry="18.177735759867634" /><ellipse clip-path="url(#viewbox-clip)" cx="903.8599999999999" cy="57.6057669581659" fill="black" rx="21.02" ry="18.177735759867634" /><ellipse clip-path="url(#viewbox-clip)" cx="987.9399999999999" cy="57.6057669581659" fill="black" rx="21.02" ry="18.177735759867634" /><ellipse clip-path="url(#viewbox-clip)" cx="1072.02" cy="57.6057669581659" fill="black" rx="21.02" ry="18.177735759867634" /><ellipse clip-path="url(#viewbox-clip)" cx="21.02" cy="92.42495863861969" fill="black" rx="21.02" ry="16.641455920586154" /><ellipse clip-path="url(#viewbox-clip)" cx="105.1" cy="92.42495863861969" fill="black" rx="21.02" ry="16.641455920586154" /><ellipse clip-path="url(#viewbox-clip)" cx="189.18" cy="92.42495863861969" fill="black" rx="21.02" ry="16.641455920586154" /><ellipse clip-path="url(#viewbox-clip)" cx="273.26" cy="92.42495863861969" fill="black" rx="21.02" ry="16.641455920586154" /><ellipse clip-path="url(#viewbox-clip)" cx="357.34" cy="92.42495863861969" fill="black" rx="21.02" ry="16.641455920586154" /><ellipse clip-path="url(#viewbox-clip)" cx="441.41999999999996" cy="92.42495863861969" fill="black" rx="21.02" ry="16.641455920586154" /><ellipse clip-path="url(#viewbox-clip)" cx="525.5" cy="92.42495863861969" fill="black" rx="21.02" ry="16.641455920586154" /><ellipse clip-path="url(#viewbox-clip)" cx="609.5799999999999" cy="92.42495863861969" fill="black" rx="21.02" ry="16.641455920586154" /><ellipse clip-path="url(#viewbox-clip)" cx="693.66" cy="92.42495863861969" fill="black" rx="21.02" ry="16.641455920586154" /><ellipse clip-path="url(#viewbox-clip)" cx="777.74" cy="92.42495863861969" fill="black" rx="21.02" ry="16.641455920586154" /><ellipse clip-path="url(#viewbox-clip)" cx="861.8199999999999" cy="92.42495863861969" fill="black" rx="21.02" ry="16.641455920586154" /><ellipse clip-path="url(#viewbox-clip)" cx="945.9" cy="92.42495863861969" fill="black" rx="21.02" ry="16.641455920586154" /><ellipse clip-path="url(#viewbox-clip)" cx="1029.98" cy="92.42495863861969" fill="black" rx="21.02" ry="16.641455920586154" /><ellipse clip-path="url(#viewbox-clip)" cx="63.06" cy="124.1715906405105" fill="black" rx="21.02" ry="15.105176081304663" /><ellipse clip-path="url(#viewbox-clip)" cx="147.14000000000001" cy="124.1715906405105" fill="black" rx="21.02" ry="15.105176081304663" /><ellipse clip-path="url(#viewbox-clip)" cx="231.22" cy="124.1715906405105" fill="black" rx="21.02" ry="15.105176081304663" /><ellipse clip-path="url(#viewbox-clip)" cx="315.3" cy="124.1715906405105" fill="black" rx="21.02" ry="15.105176081304663" /><ellipse clip-path="url(#viewbox-clip)" cx="399.38" cy="124.1715906405105" fill="black" rx="21.02" ry="15.105176081304663" /><ellipse clip-path="url(#viewbox-clip)" cx="483.46" cy="124.1715906405105" fill="black" rx="21.02" ry="15.105176081304663" /><ellipse clip-path="url(#viewbox-clip)" cx="567.54" cy="124.1715906405105" fill="black" rx="21.02" ry="15.105176081304663" /><ellipse clip-path="url(#viewbox-clip)" cx="651.6199999999999" cy="124.1715906405105" fill="black" rx="21.02" ry="15.105176081304663" /><ellipse clip-path="url(#viewbox-clip)" cx="735.6999999999999" cy="124.1715906405105" fill="black" rx="21.02" ry="15.105176081304663" /><ellipse clip-path="url(#viewbox-clip)" cx="819.78" cy="124.1715906405105" fill="black" rx="21.02" ry="15.105176081304663" /><ellipse clip-path="url(#viewbox-clip)" cx="903.8599999999999" cy="124.1715906405105" fill="black" rx="21.02" ry="15.105176081304663" /><ellipse clip-path="url(#viewbox-clip)" cx="987.9399999999999" cy="124.1715906405105" fill="black" rx="21.02" ry="15.105176081304663" /><ellipse clip-path="url(#viewbox-clip)" cx="1072.02" cy="124.1715906405105" fill="black" rx="21.02" ry="15.105176081304663" /><ellipse clip-path="url(#viewbox-clip)" cx="21.02" cy="152.84566296383832" fill="black" rx="21.02" ry="13.568896242023158" /><ellipse clip-path="url(#viewbox-clip)" cx="105.1" cy="152.84566296383832" fill="black" rx="21.02" ry="13.568896242023158" /><ellipse clip-path="url(#viewbox-clip)" cx="189.18" cy="152.84566296383832" fill="black" rx="21.02" ry="13.568896242023158" /><ellipse clip-path="url(#viewbox-clip)" cx="273.26" cy="152.84566296383832" fill="black" rx="21.02" ry="13.568896242023158" /><ellipse clip-path="url(#viewbox-clip)" cx="357.34" cy="152.84566296383832" fill="black" rx="21.02" ry="13.568896242023158" /><ellipse clip-path="url(#viewbox-clip)" cx="441.41999999999996" cy="152.84566296383832" fill="black" rx="21.02" ry="13.568896242023158" /><ellipse clip-path="url(#viewbox-clip)" cx="525.5" cy="152.84566296383832" fill="black" rx="21.02" ry="13.568896242023158" /><ellipse clip-path="url(#viewbox-clip)" cx="609.5799999999999" cy="152.84566296383832" fill="black" rx="21.02" ry="13.568896242023158" /><ellipse clip-path="url(#viewbox-clip)" cx="693.66" cy="152.84566296383832" fill="black" rx="21.02" ry="13.568896242023158" /><ellipse clip-path="url(#viewbox-clip)" cx="777.74" cy="152.84566296383832" fill="black" rx="21.02" ry="13.568896242023158" /><ellipse clip-path="url(#viewbox-clip)" cx="861.8199999999999" cy="152.84566296383832" fill="black" rx="21.02" ry="13.568896242023158" /><ellipse clip-path="url(#viewbox-clip)" cx="945.9" cy="152.84566296383832" fill="black" rx="21.02" ry="13.568896242023158" /><ellipse clip-path="url(#viewbox-clip)" cx="1029.98" cy="152.84566296383832" fill="black" rx="21.02" ry="13.568896242023158" /><ellipse clip-path="url(#viewbox-clip)" cx="63.06" cy="178.44717560860312" fill="black" rx="21.02" ry="12.032616402741652" /><ellipse clip-path="url(#viewbox-clip)" cx="147.14000000000001" cy="178.44717560860312" fill="black" rx="21.02" ry="12.032616402741652" /><ellipse clip-path="url(#viewbox-clip)" cx="231.22" cy="178.44717560860312" fill="black" rx="21.02" ry="12.032616402741652" /><ellipse clip-path="url(#viewbox-clip)" cx="315.3" cy="178.44717560860312" fill="black" rx="21.02" ry="12.032616402741652" /><ellipse clip-path="url(#viewbox-clip)" cx="399.38" cy="178.44717560860312" fill="black" rx="21.02" ry="12.032616402741652" /><ellipse clip-path="url(#viewbox-clip)" cx="483.46" cy="178.44717560860312" fill="black" rx="21.02" ry="12.032616402741652" /><ellipse clip-path="url(#viewbox-clip)" cx="567.54" cy="178.44717560860312" fill="black" rx="21.02" ry="12.032616402741652" /><ellipse clip-path="url(#viewbox-clip)" cx="651.6199999999999" cy="178.44717560860312" fill="black" rx="21.02" ry="12.032616402741652" /><ellipse clip-path="url(#viewbox-clip)" cx="735.6999999999999" cy="178.44717560860312" fill="black" rx="21.02" ry="12.032616402741652" /><ellipse clip-path="url(#viewbox-clip)" cx="819.78" cy="178.44717560860312" fill="black" rx="21.02" ry="12.032616402741652" /><ellipse clip-path="url(#viewbox-clip)" cx="903.8599999999999" cy="178.44717560860312" fill="black" rx="21.02" ry="12.032616402741652" /><ellipse clip-path="url(#viewbox-clip)" cx="987.9399999999999" cy="178.44717560860312" fill="black" rx="21.02" ry="12.032616402741652" /><ellipse clip-path="url(#viewbox-clip)" cx="1072.02" cy="178.44717560860312" fill="black" rx="21.02" ry="12.032616402741652" /><ellipse clip-path="url(#viewbox-clip)" cx="21.02" cy="200.97612857480496" fill="black" rx="21.02" ry="10.496336563460176" /><ellipse clip-path="url(#viewbox-clip)" cx="105.1" cy="200.97612857480496" fill="black" rx="21.02" ry="10.496336563460176" /><ellipse clip-path="url(#viewbox-clip)" cx="189.18" cy="200.97612857480496" fill="black" rx="21.02" ry="10.496336563460176" /><ellipse clip-path="url(#viewbox-clip)" cx="273.26" cy="200.97612857480496" fill="black" rx="21.02" ry="10.496336563460176" /><ellipse clip-path="url(#viewbox-clip)" cx="357.34" cy="200.97612857480496" fill="black" rx="21.02" ry="10.496336563460176" /><ellipse clip-path="url(#viewbox-clip)" cx="441.41999999999996" cy="200.97612857480496" fill="black" rx="21.02" ry="10.496336563460176" /><ellipse clip-path="url(#viewbox-clip)" cx="525.5" cy="200.97612857480496" fill="black" rx="21.02" ry="10.496336563460176" /><ellipse clip-path="url(#viewbox-clip)" cx="609.5799999999999" cy="200.97612857480496" fill="black" rx="21.02" ry="10.496336563460176" /><ellipse clip-path="url(#viewbox-clip)" cx="693.66" cy="200.97612857480496" fill="black" rx="21.02" ry="10.496336563460176" /><ellipse clip-path="url(#viewbox-clip)" cx="777.74" cy="200.97612857480496" fill="black" rx="21.02" ry="10.496336563460176" /><ellipse clip-path="url(#viewbox-clip)" cx="861.8199999999999" cy="200.97612857480496" fill="black" rx="21.02" ry="10.496336563460176" /><ellipse clip-path="url(#viewbox-clip)" cx="945.9" cy="200.97612857480496" fill="black" rx="21.02" ry="10.496336563460176" /><ellipse clip-path="url(#viewbox-clip)" cx="1029.98" cy="200.97612857480496" fill="black" rx="21.02" ry="10.496336563460176" /><ellipse clip-path="url(#viewbox-clip)" cx="63.06" cy="220.43252186244382" fill="black" rx="21.02" ry="8.96005672417867" /><ellipse clip-path="url(#viewbox-clip)" cx="147.14000000000001" cy="220.43252186244382" fill="black" rx="21.02" ry="8.96005672417867" /><ellipse clip-path="url(#viewbox-clip)" cx="231.22" cy="220.43252186244382" fill="black" rx="21.02" ry="8.96005672417867" /><ellipse clip-path="url(#viewbox-clip)" cx="315.3" cy="220.43252186244382" fill="black" rx="21.02" ry="8.96005672417867" /><ellipse clip-path="url(#viewbox-clip)" cx="399.38" cy="220.43252186244382" fill="black" rx="21.02" ry="8.96005672417867" /><ellipse clip-path="url(#viewbox-clip)" cx="483.46" cy="220.43252186244382" fill="black" rx="21.02" ry="8.96005672417867" /><ellipse clip-path="url(#viewbox-clip)" cx="567.54" cy="220.43252186244382" fill="black" rx="21.02" ry="8.96005672417867" /><ellipse clip-path="url(#viewbox-clip)" cx="651.6199999999999" cy="220.43252186244382" fill="black" rx="21.02" ry="8.96005672417867" /><ellipse clip-path="url(#viewbox-clip)" cx="735.6999999999999" cy="220.43252186244382" fill="black" rx="21.02" ry="8.96005672417867" /><ellipse clip-path="url(#viewbox-clip)" cx="819.78" cy="220.43252186244382" fill="black" rx="21.02" ry="8.96005672417867" /><ellipse clip-path="url(#viewbox-clip)" cx="903.8599999999999" cy="220.43252186244382" fill="black" rx="21.02" ry="8.96005672417867" /><ellipse clip-path="url(#viewbox-clip)" cx="987.9399999999999" cy="220.43252186244382" fill="black" rx="21.02" ry="8.96005672417867" /><ellipse clip-path="url(#viewbox-clip)" cx="1072.02" cy="220.43252186244382" fill="black" rx="21.02" ry="8.96005672417867" /><ellipse clip-path="url(#viewbox-clip)" cx="21.02" cy="236.81635547151967" fill="black" rx="21.02" ry="7.423776884897194" /><ellipse clip-path="url(#viewbox-clip)" cx="105.1" cy="236.81635547151967" fill="black" rx="21.02" ry="7.423776884897194" /><ellipse clip-path="url(#viewbox-clip)" cx="189.18" cy="236.81635547151967" fill="black" rx="21.02" ry="7.423776884897194" /><ellipse clip-path="url(#viewbox-clip)" cx="273.26" cy="236.81635547151967" fill="black" rx="21.02" ry="7.423776884897194" /><ellipse clip-path="url(#viewbox-clip)" cx="357.34" cy="236.81635547151967" fill="black" rx="21.02" ry="7.423776884897194" /><ellipse clip-path="url(#viewbox-clip)" cx="441.41999999999996" cy="236.81635547151967" fill="black" rx="21.02" ry="7.423776884897194" /><ellipse clip-path="url(#viewbox-clip)" cx="525.5" cy="236.81635547151967" fill="black" rx="21.02" ry="7.423776884897194" /><ellipse clip-path="url(#viewbox-clip)" cx="609.5799999999999" cy="236.81635547151967" fill="black" rx="21.02" ry="7.423776884897194" /><ellipse clip-path="url(#viewbox-clip)" cx="693.66" cy="236.81635547151967" fill="black" rx="21.02" ry="7.423776884897194" /><ellipse clip-path="url(#viewbox-clip)" cx="777.74" cy="236.81635547151967" fill="black" rx="21.02" ry="7.423776884897194" /><ellipse clip-path="url(#viewbox-clip)" cx="861.8199999999999" cy="236.81635547151967" fill="black" rx="21.02" ry="7.423776884897194" /><ellipse clip-path="url(#viewbox-clip)" cx="945.9" cy="236.81635547151967" fill="black" rx="21.02" ry="7.423776884897194" /><ellipse clip-path="url(#viewbox-clip)" cx="1029.98" cy="236.81635547151967" fill="black" rx="21.02" ry="7.423776884897194" /><ellipse clip-path="url(#viewbox-clip)" cx="63.06" cy="250.12762940203254" fill="black" rx="21.02" ry="5.887497045615689" /><ellipse clip-path="url(#viewbox-clip)" cx="147.14000000000001" cy="250.12762940203254" fill="black" rx="21.02" ry="5.887497045615689" /><ellipse clip-path="url(#viewbox-clip)" cx="231.22" cy="250.12762940203254" fill="black" rx="21.02" ry="5.887497045615689" /><ellipse clip-path="url(#viewbox-clip)" cx="315.3" cy="250.12762940203254" fill="black" rx="21.02" ry="5.887497045615689" /><ellipse clip-path="url(#viewbox-clip)" cx="399.38" cy="250.12762940203254" fill="black" rx="21.02" ry="5.887497045615689" /><ellipse clip-path="url(#viewbox-clip)" cx="483.46" cy="250.12762940203254" fill="black" rx="21.02" ry="5.887497045615689" /><ellipse clip-path="url(#viewbox-clip)" cx="567.54" cy="250.12762940203254" fill="black" rx="21.02" ry="5.887497045615689" /><ellipse clip-path="url(#viewbox-clip)" cx="651.6199999999999" cy="250.12762940203254" fill="black" rx="21.02" ry="5.887497045615689" /><ellipse clip-path="url(#viewbox-clip)" cx="735.6999999999999" cy="250.12762940203254" fill="black" rx="21.02" ry="5.887497045615689" /><ellipse clip-path="url(#viewbox-clip)" cx="819.78" cy="250.12762940203254" fill="black" rx="21.02" ry="5.887497045615689" /><ellipse clip-path="url(#viewbox-clip)" cx="903.8599999999999" cy="250.12762940203254" fill="black" rx="21.02" ry="5.887497045615689" /><ellipse clip-path="url(#viewbox-clip)" cx="987.9399999999999" cy="250.12762940203254" fill="black" rx="21.02" ry="5.887497045615689" /><ellipse clip-path="url(#viewbox-clip)" cx="1072.02" cy="250.12762940203254" fill="black" rx="21.02" ry="5.887497045615689" /><ellipse clip-path="url(#viewbox-clip)" cx="21.02" cy="260.3663436539824" fill="black" rx="21.02" ry="4.351217206334212" /><ellipse clip-path="url(#viewbox-clip)" cx="105.1" cy="260.3663436539824" fill="black" rx="21.02" ry="4.351217206334212" /><ellipse clip-path="url(#viewbox-clip)" cx="189.18" cy="260.3663436539824" fill="black" rx="21.02" ry="4.351217206334212" /><ellipse clip-path="url(#viewbox-clip)" cx="273.26" cy="260.3663436539824" fill="black" rx="21.02" ry="4.351217206334212" /><ellipse clip-path="url(#viewbox-clip)" cx="357.34" cy="260.3663436539824" fill="black" rx="21.02" ry="4.351217206334212" /><ellipse clip-path="url(#viewbox-clip)" cx="441.41999999999996" cy="260.3663436539824" fill="black" rx="21.02" ry="4.351217206334212" /><ellipse clip-path="url(#viewbox-clip)" cx="525.5" cy="260.3663436539824" fill="black" rx="21.02" ry="4.351217206334212" /><ellipse clip-path="url(#viewbox-clip)" cx="609.5799999999999" cy="260.3663436539824" fill="black" rx="21.02" ry="4.351217206334212" /><ellipse clip-path="url(#viewbox-clip)" cx="693.66" cy="260.3663436539824" fill="black" rx="21.02" ry="4.351217206334212" /><ellipse clip-path="url(#viewbox-clip)" cx="777.74" cy="260.3663436539824" fill="black" rx="21.02" ry="4.351217206334212" /><ellipse clip-path="url(#viewbox-clip)" cx="861.8199999999999" cy="260.3663436539824" fill="black" rx="21.02" ry="4.351217206334212" /><ellipse clip-path="url(#viewbox-clip)" cx="945.9" cy="260.3663436539824" fill="black" rx="21.02" ry="4.351217206334212" /><ellipse clip-path="url(#viewbox-clip)" cx="1029.98" cy="260.3663436539824" fill="black" rx="21.02" ry="4.351217206334212" /><ellipse clip-path="url(#viewbox-clip)" cx="63.06" cy="267.5324982273694" fill="black" rx="21.02" ry="2.8149373670526927" /><ellipse clip-path="url(#viewbox-clip)" cx="147.14000000000001" cy="267.5324982273694" fill="black" rx="21.02" ry="2.8149373670526927" /><ellipse clip-path="url(#viewbox-clip)" cx="231.22" cy="267.5324982273694" fill="black" rx="21.02" ry="2.8149373670526927" /><ellipse clip-path="url(#viewbox-clip)" cx="315.3" cy="267.5324982273694" fill="black" rx="21.02" ry="2.8149373670526927" /><ellipse clip-path="url(#viewbox-clip)" cx="399.38" cy="267.5324982273694" fill="black" rx="21.02" ry="2.8149373670526927" /><ellipse clip-path="url(#viewbox-clip)" cx="483.46" cy="267.5324982273694" fill="black" rx="21.02" ry="2.8149373670526927" /><ellipse clip-path="url(#viewbox-clip)" cx="567.54" cy="267.5324982273694" fill="black" rx="21.02" ry="2.8149373670526927" /><ellipse clip-path="url(#viewbox-clip)" cx="651.6199999999999" cy="267.5324982273694" fill="black" rx="21.02" ry="2.8149373670526927" /><ellipse clip-path="url(#viewbox-clip)" cx="735.6999999999999" cy="267.5324982273694" fill="black" rx="21.02" ry="2.8149373670526927" /><ellipse clip-path="url(#viewbox-clip)" cx="819.78" cy="267.5324982273694" fill="black" rx="21.02" ry="2.8149373670526927" /><ellipse clip-path="url(#viewbox-clip)" cx="903.8599999999999" cy="267.5324982273694" fill="black" rx="21.02" ry="2.8149373670526927" /><ellipse clip-path="url(#viewbox-clip)" cx="987.9399999999999" cy="267.5324982273694" fill="black" rx="21.02" ry="2.8149373670526927" /><ellipse clip-path="url(#viewbox-clip)" cx="1072.02" cy="267.5324982273694" fill="black" rx="21.02" ry="2.8149373670526927" /><ellipse clip-path="url(#viewbox-clip)" cx="21.02" cy="271.62609312219325" fill="black" rx="21.02" ry="1.2786575277712018" /><ellipse clip-path="url(#viewbox-clip)" cx="105.1" cy="271.62609312219325" fill="black" rx="21.02" ry="1.2786575277712018" /><ellipse clip-path="url(#viewbox-clip)" cx="189.18" cy="271.62609312219325" fill="black" rx="21.02" ry="1.2786575277712018" /><ellipse clip-path="url(#viewbox-clip)" cx="273.26" cy="271.62609312219325" fill="black" rx="21.02" ry="1.2786575277712018" /><ellipse clip-path="url(#viewbox-clip)" cx="357.34" cy="271.62609312219325" fill="black" rx="21.02" ry="1.2786575277712018" /><ellipse clip-path="url(#viewbox-clip)" cx="441.41999999999996" cy="271.62609312219325" fill="black" rx="21.02" ry="1.2786575277712018" /><ellipse clip-path="url(#viewbox-clip)" cx="525.5" cy="271.62609312219325" fill="black" rx="21.02" ry="1.2786575277712018" /><ellipse clip-path="url(#viewbox-clip)" cx="609.5799999999999" cy="271.62609312219325" fill="black" rx="21.02" ry="1.2786575277712018" /><ellipse clip-path="url(#viewbox-clip)" cx="693.66" cy="271.62609312219325" fill="black" rx="21.02" ry="1.2786575277712018" /><ellipse clip-path="url(#viewbox-clip)" cx="777.74" cy="271.62609312219325" fill="black" rx="21.02" ry="1.2786575277712018" /><ellipse clip-path="url(#viewbox-clip)" cx="861.8199999999999" cy="271.62609312219325" fill="black" rx="21.02" ry="1.2786575277712018" /><ellipse clip-path="url(#viewbox-clip)" cx="945.9" cy="271.62609312219325" fill="black" rx="21.02" ry="1.2786575277712018" /><ellipse clip-path="url(#viewbox-clip)" cx="1029.98" cy="271.62609312219325" fill="black" rx="21.02" ry="1.2786575277712018" /><ellipse clip-path="url(#viewbox-clip)" cx="63.06" cy="275.28952966201837" fill="black" rx="21.02" ry="2.384779012053883" /><ellipse clip-path="url(#viewbox-clip)" cx="147.14000000000001" cy="275.28952966201837" fill="black" rx="21.02" ry="2.384779012053883" /><ellipse clip-path="url(#viewbox-clip)" cx="231.22" cy="275.28952966201837" fill="black" rx="21.02" ry="2.384779012053883" /><ellipse clip-path="url(#viewbox-clip)" cx="315.3" cy="275.28952966201837" fill="black" rx="21.02" ry="2.384779012053883" /><ellipse clip-path="url(#viewbox-clip)" cx="399.38" cy="275.28952966201837" fill="black" rx="21.02" ry="2.384779012053883" /><ellipse clip-path="url(#viewbox-clip)" cx="483.46" cy="275.28952966201837" fill="black" rx="21.02" ry="2.384779012053883" /><ellipse clip-path="url(#viewbox-clip)" cx="567.54" cy="275.28952966201837" fill="black" rx="21.02" ry="2.384779012053883" /><ellipse clip-path="url(#viewbox-clip)" cx="651.6199999999999" cy="275.28952966201837" fill="black" rx="21.02" ry="2.384779012053883" /><ellipse clip-path="url(#viewbox-clip)" cx="735.6999999999999" cy="275.28952966201837" fill="black" rx="21.02" ry="2.384779012053883" /><ellipse clip-path="url(#viewbox-clip)" cx="819.78" cy="275.28952966201837" fill="black" rx="21.02" ry="2.384779012053883" /><ellipse clip-path="url(#viewbox-clip)" cx="903.8599999999999" cy="275.28952966201837" fill="black" rx="21.02" ry="2.384779012053883" /><ellipse clip-path="url(#viewbox-clip)" cx="987.9399999999999" cy="275.28952966201837" fill="black" rx="21.02" ry="2.384779012053883" /><ellipse clip-path="url(#viewbox-clip)" cx="1072.02" cy="275.28952966201837" fill="black" rx="21.02" ry="2.384779012053883" /><ellipse clip-path="url(#viewbox-clip)" cx="21.02" cy="281.5953675254076" fill="black" rx="21.02" ry="3.9210588513354026" /><ellipse clip-path="url(#viewbox-clip)" cx="105.1" cy="281.5953675254076" fill="black" rx="21.02" ry="3.9210588513354026" /><ellipse clip-path="url(#viewbox-clip)" cx="189.18" cy="281.5953675254076" fill="black" rx="21.02" ry="3.9210588513354026" /><ellipse clip-path="url(#viewbox-clip)" cx="273.26" cy="281.5953675254076" fill="black" rx="21.02" ry="3.9210588513354026" /><ellipse clip-path="url(#viewbox-clip)" cx="357.34" cy="281.5953675254076" fill="black" rx="21.02" ry="3.9210588513354026" /><ellipse clip-path="url(#viewbox-clip)" cx="441.41999999999996" cy="281.5953675254076" fill="black" rx="21.02" ry="3.9210588513354026" /><ellipse clip-path="url(#viewbox-clip)" cx="525.5" cy="281.5953675254076" fill="black" rx="21.02" ry="3.9210588513354026" /><ellipse clip-path="url(#viewbox-clip)" cx="609.5799999999999" cy="281.5953675254076" fill="black" rx="21.02" ry="3.9210588513354026" /><ellipse clip-path="url(#viewbox-clip)" cx="693.66" cy="281.5953675254076" fill="black" rx="21.02" ry="3.9210588513354026" /><ellipse clip-path="url(#viewbox-clip)" cx="777.74" cy="281.5953675254076" fill="black" rx="21.02" ry="3.9210588513354026" /><ellipse clip-path="url(#viewbox-clip)" cx="861.8199999999999" cy="281.5953675254076" fill="black" rx="21.02" ry="3.9210588513354026" /><ellipse clip-path="url(#viewbox-clip)" cx="945.9" cy="281.5953675254076" fill="black" rx="21.02" ry="3.9210588513354026" /><ellipse clip-path="url(#viewbox-clip)" cx="1029.98" cy="281.5953675254076" fill="black" rx="21.02" ry="3.9210588513354026" /><ellipse clip-path="url(#viewbox-clip)" cx="63.06" cy="290.97376506735986" fill="black" rx="21.02" ry="5.457338690616865" /><ellipse clip-path="url(#viewbox-clip)" cx="147.14000000000001" cy="290.97376506735986" fill="black" rx="21.02" ry="5.457338690616865" /><ellipse clip-path="url(#viewbox-clip)" cx="231.22" cy="290.97376506735986" fill="black" rx="21.02" ry="5.457338690616865" /><ellipse clip-path="url(#viewbox-clip)" cx="315.3" cy="290.97376506735986" fill="black" rx="21.02" ry="5.457338690616865" /><ellipse clip-path="url(#viewbox-clip)" cx="399.38" cy="290.97376506735986" fill="black" rx="21.02" ry="5.457338690616865" /><ellipse clip-path="url(#viewbox-clip)" cx="483.46" cy="290.97376506735986" fill="black" rx="21.02" ry="5.457338690616865" /><ellipse clip-path="url(#viewbox-clip)" cx="567.54" cy="290.97376506735986" fill="black" rx="21.02" ry="5.457338690616865" /><ellipse clip-path="url(#viewbox-clip)" cx="651.6199999999999" cy="290.97376506735986" fill="black" rx="21.02" ry="5.457338690616865" /><ellipse clip-path="url(#viewbox-clip)" cx="735.6999999999999" cy="290.97376506735986" fill="black" rx="21.02" ry="5.457338690616865" /><ellipse clip-path="url(#viewbox-clip)" cx="819.78" cy="290.97376506735986" fill="black" rx="21.02" ry="5.457338690616865" /><ellipse clip-path="url(#viewbox-clip)" cx="903.8599999999999" cy="290.97376506735986" fill="black" rx="21.02" ry="5.457338690616865" /><ellipse clip-path="url(#viewbox-clip)" cx="987.9399999999999" cy="290.97376506735986" fill="black" rx="21.02" ry="5.457338690616865" /><ellipse clip-path="url(#viewbox-clip)" cx="1072.02" cy="290.97376506735986" fill="black" rx="21.02" ry="5.457338690616865" /><ellipse clip-path="url(#viewbox-clip)" cx="21.02" cy="303.42472228787517" fill="black" rx="21.02" ry="6.993618529898384" /><ellipse clip-path="url(#viewbox-clip)" cx="105.1" cy="303.42472228787517" fill="black" rx="21.02" ry="6.993618529898384" /><ellipse clip-path="url(#viewbox-clip)" cx="189.18" cy="303.42472228787517" fill="black" rx="21.02" ry="6.993618529898384" /><ellipse clip-path="url(#viewbox-clip)" cx="273.26" cy="303.42472228787517" fill="black" rx="21.02" ry="6.993618529898384" /><ellipse clip-path="url(#viewbox-clip)" cx="357.34" cy="303.42472228787517" fill="black" rx="21.02" ry="6.993618529898384" /><ellipse clip-path="url(#viewbox-clip)" cx="441.41999999999996" cy="303.42472228787517" fill="black" rx="21.02" ry="6.993618529898384" /><ellipse clip-path="url(#viewbox-clip)" cx="525.5" cy="303.42472228787517" fill="black" rx="21.02" ry="6.993618529898384" /><ellipse clip-path="url(#viewbox-clip)" cx="609.5799999999999" cy="303.42472228787517" fill="black" rx="21.02" ry="6.993618529898384" /><ellipse clip-path="url(#viewbox-clip)" cx="693.66" cy="303.42472228787517" fill="black" rx="21.02" ry="6.993618529898384" /><ellipse clip-path="url(#viewbox-clip)" cx="777.74" cy="303.42472228787517" fill="black" rx="21.02" ry="6.993618529898384" /><ellipse clip-path="url(#viewbox-clip)" cx="861.8199999999999" cy="303.42472228787517" fill="black" rx="21.02" ry="6.993618529898384" /><ellipse clip-path="url(#viewbox-clip)" cx="945.9" cy="303.42472228787517" fill="black" rx="21.02" ry="6.993618529898384" /><ellipse clip-path="url(#viewbox-clip)" cx="1029.98" cy="303.42472228787517" fill="black" rx="21.02" ry="6.993618529898384" /><ellipse clip-path="url(#viewbox-clip)" cx="63.06" cy="318.9482391869534" fill="black" rx="21.02" ry="8.529898369179847" /><ellipse clip-path="url(#viewbox-clip)" cx="147.14000000000001" cy="318.9482391869534" fill="black" rx="21.02" ry="8.529898369179847" /><ellipse clip-path="url(#viewbox-clip)" cx="231.22" cy="318.9482391869534" fill="black" rx="21.02" ry="8.529898369179847" /><ellipse clip-path="url(#viewbox-clip)" cx="315.3" cy="318.9482391869534" fill="black" rx="21.02" ry="8.529898369179847" /><ellipse clip-path="url(#viewbox-clip)" cx="399.38" cy="318.9482391869534" fill="black" rx="21.02" ry="8.529898369179847" /><ellipse clip-path="url(#viewbox-clip)" cx="483.46" cy="318.9482391869534" fill="black" rx="21.02" ry="8.529898369179847" /><ellipse clip-path="url(#viewbox-clip)" cx="567.54" cy="318.9482391869534" fill="black" rx="21.02" ry="8.529898369179847" /><ellipse clip-path="url(#viewbox-clip)" cx="651.6199999999999" cy="318.9482391869534" fill="black" rx="21.02" ry="8.529898369179847" /><ellipse clip-path="url(#viewbox-clip)" cx="735.6999999999999" cy="318.9482391869534" fill="black" rx="21.02" ry="8.529898369179847" /><ellipse clip-path="url(#viewbox-clip)" cx="819.78" cy="318.9482391869534" fill="black" rx="21.02" ry="8.529898369179847" /><ellipse clip-path="url(#viewbox-clip)" cx="903.8599999999999" cy="318.9482391869534" fill="black" rx="21.02" ry="8.529898369179847" /><ellipse clip-path="url(#viewbox-clip)" cx="987.9399999999999" cy="318.9482391869534" fill="black" rx="21.02" ry="8.529898369179847" /><ellipse clip-path="url(#viewbox-clip)" cx="1072.02" cy="318.9482391869534" fill="black" rx="21.02" ry="8.529898369179847" /><ellipse clip-path="url(#viewbox-clip)" cx="21.02" cy="337.54431576459456" fill="black" rx="21.02" ry="10.066178208461366" /><ellipse clip-path="url(#viewbox-clip)" cx="105.1" cy="337.54431576459456" fill="black" rx="21.02" ry="10.066178208461366" /><ellipse clip-path="url(#viewbox-clip)" cx="189.18" cy="337.54431576459456" fill="black" rx="21.02" ry="10.066178208461366" /><ellipse clip-path="url(#viewbox-clip)" cx="273.26" cy="337.54431576459456" fill="black" rx="21.02" ry="10.066178208461366" /><ellipse clip-path="url(#viewbox-clip)" cx="357.34" cy="337.54431576459456" fill="black" rx="21.02" ry="10.066178208461366" /><ellipse clip-path="url(#viewbox-clip)" cx="441.41999999999996" cy="337.54431576459456" fill="black" rx="21.02" ry="10.066178208461366" /><ellipse clip-path="url(#viewbox-clip)" cx="525.5" cy="337.54431576459456" fill="black" rx="21.02" ry="10.066178208461366" /><ellipse clip-path="url(#viewbox-clip)" cx="609.5799999999999" cy="337.54431576459456" fill="black" rx="21.02" ry="10.066178208461366" /><ellipse clip-path="url(#viewbox-clip)" cx="693.66" cy="337.54431576459456" fill="black" rx="21.02" ry="10.066178208461366" /><ellipse clip-path="url(#viewbox-clip)" cx="777.74" cy="337.54431576459456" fill="black" rx="21.02" ry="10.066178208461366" /><ellipse clip-path="url(#viewbox-clip)" cx="861.8199999999999" cy="337.54431576459456" fill="black" rx="21.02" ry="10.066178208461366" /><ellipse clip-path="url(#viewbox-clip)" cx="945.9" cy="337.54431576459456" fill="black" rx="21.02" ry="10.066178208461366" /><ellipse clip-path="url(#viewbox-clip)" cx="1029.98" cy="337.54431576459456" fill="black" rx="21.02" ry="10.066178208461366" /><ellipse clip-path="url(#viewbox-clip)" cx="63.06" cy="359.21295202079875" fill="black" rx="21.02" ry="11.602458047742829" /><ellipse clip-path="url(#viewbox-clip)" cx="147.14000000000001" cy="359.21295202079875" fill="black" rx="21.02" ry="11.602458047742829" /><ellipse clip-path="url(#viewbox-clip)" cx="231.22" cy="359.21295202079875" fill="black" rx="21.02" ry="11.602458047742829" /><ellipse clip-path="url(#viewbox-clip)" cx="315.3" cy="359.21295202079875" fill="black" rx="21.02" ry="11.602458047742829" /><ellipse clip-path="url(#viewbox-clip)" cx="399.38" cy="359.21295202079875" fill="black" rx="21.02" ry="11.602458047742829" /><ellipse clip-path="url(#viewbox-clip)" cx="483.46" cy="359.21295202079875" fill="black" rx="21.02" ry="11.602458047742829" /><ellipse clip-path="url(#viewbox-clip)" cx="567.54" cy="359.21295202079875" fill="black" rx="21.02" ry="11.602458047742829" /><ellipse clip-path="url(#viewbox-clip)" cx="651.6199999999999" cy="359.21295202079875" fill="black" rx="21.02" ry="11.602458047742829" /><ellipse clip-path="url(#viewbox-clip)" cx="735.6999999999999" cy="359.21295202079875" fill="black" rx="21.02" ry="11.602458047742829" /><ellipse clip-path="url(#viewbox-clip)" cx="819.78" cy="359.21295202079875" fill="black" rx="21.02" ry="11.602458047742829" /><ellipse clip-path="url(#viewbox-clip)" cx="903.8599999999999" cy="359.21295202079875" fill="black" rx="21.02" ry="11.602458047742829" /><ellipse clip-path="url(#viewbox-clip)" cx="987.9399999999999" cy="359.21295202079875" fill="black" rx="21.02" ry="11.602458047742829" /><ellipse clip-path="url(#viewbox-clip)" cx="1072.02" cy="359.21295202079875" fill="black" rx="21.02" ry="11.602458047742829" /><ellipse clip-path="url(#viewbox-clip)" cx="21.02" cy="383.954147955566" fill="black" rx="21.02" ry="13.138737887024348" /><ellipse clip-path="url(#viewbox-clip)" cx="105.1" cy="383.954147955566" fill="black" rx="21.02" ry="13.138737887024348" /><ellipse clip-path="url(#viewbox-clip)" cx="189.18" cy="383.954147955566" fill="black" rx="21.02" ry="13.138737887024348" /><ellipse clip-path="url(#viewbox-clip)" cx="273.26" cy="383.954147955566" fill="black" rx="21.02" ry="13.138737887024348" /><ellipse clip-path="url(#viewbox-clip)" cx="357.34" cy="383.954147955566" fill="black" rx="21.02" ry="13.138737887024348" /><ellipse clip-path="url(#viewbox-clip)" cx="441.41999999999996" cy="383.954147955566" fill="black" rx="21.02" ry="13.138737887024348" /><ellipse clip-path="url(#viewbox-clip)" cx="525.5" cy="383.954147955566" fill="black" rx="21.02" ry="13.138737887024348" /><ellipse clip-path="url(#viewbox-clip)" cx="609.5799999999999" cy="383.954147955566" fill="black" rx="21.02" ry="13.138737887024348" /><ellipse clip-path="url(#viewbox-clip)" cx="693.66" cy="383.954147955566" fill="black" rx="21.02" ry="13.138737887024348" /><ellipse clip-path="url(#viewbox-clip)" cx="777.74" cy="383.954147955566" fill="black" rx="21.02" ry="13.138737887024348" /><ellipse clip-path="url(#viewbox-clip)" cx="861.8199999999999" cy="383.954147955566" fill="black" rx="21.02" ry="13.138737887024348" /><ellipse clip-path="url(#viewbox-clip)" cx="945.9" cy="383.954147955566" fill="black" rx="21.02" ry="13.138737887024348" /><ellipse clip-path="url(#viewbox-clip)" cx="1029.98" cy="383.954147955566" fill="black" rx="21.02" ry="13.138737887024348" /><ellipse clip-path="url(#viewbox-clip)" cx="63.06" cy="411.76790356889614" fill="black" rx="21.02" ry="14.67501772630581" /><ellipse clip-path="url(#viewbox-clip)" cx="147.14000000000001" cy="411.76790356889614" fill="black" rx="21.02" ry="14.67501772630581" /><ellipse clip-path="url(#viewbox-clip)" cx="231.22" cy="411.76790356889614" fill="black" rx="21.02" ry="14.67501772630581" /><ellipse clip-path="url(#viewbox-clip)" cx="315.3" cy="411.76790356889614" fill="black" rx="21.02" ry="14.67501772630581" /><ellipse clip-path="url(#viewbox-clip)" cx="399.38" cy="411.76790356889614" fill="black" rx="21.02" ry="14.67501772630581" /><ellipse clip-path="url(#viewbox-clip)" cx="483.46" cy="411.76790356889614" fill="black" rx="21.02" ry="14.67501772630581" /><ellipse clip-path="url(#viewbox-clip)" cx="567.54" cy="411.76790356889614" fill="black" rx="21.02" ry="14.67501772630581" /><ellipse clip-path="url(#viewbox-clip)" cx="651.6199999999999" cy="411.76790356889614" fill="black" rx="21.02" ry="14.67501772630581" /><ellipse clip-path="url(#viewbox-clip)" cx="735.6999999999999" cy="411.76790356889614" fill="black" rx="21.02" ry="14.67501772630581" /><ellipse clip-path="url(#viewbox-clip)" cx="819.78" cy="411.76790356889614" fill="black" rx="21.02" ry="14.67501772630581" /><ellipse clip-path="url(#viewbox-clip)" cx="903.8599999999999" cy="411.76790356889614" fill="black" rx="21.02" ry="14.67501772630581" /><ellipse clip-path="url(#viewbox-clip)" cx="987.9399999999999" cy="411.76790356889614" fill="black" rx="21.02" ry="14.67501772630581" /><ellipse clip-path="url(#viewbox-clip)" cx="1072.02" cy="411.76790356889614" fill="black" rx="21.02" ry="14.67501772630581" /><ellipse clip-path="url(#viewbox-clip)" cx="21.02" cy="442.65421886078923" fill="black" rx="21.02" ry="16.21129756558733" /><ellipse clip-path="url(#viewbox-clip)" cx="105.1" cy="442.65421886078923" fill="black" rx="21.02" ry="16.21129756558733" /><ellipse clip-path="url(#viewbox-clip)" cx="189.18" cy="442.65421886078923" fill="black" rx="21.02" ry="16.21129756558733" /><ellipse clip-path="url(#viewbox-clip)" cx="273.26" cy="442.65421886078923" fill="black" rx="21.02" ry="16.21129756558733" /><ellipse clip-path="url(#viewbox-clip)" cx="357.34" cy="442.65421886078923" fill="black" rx="21.02" ry="16.21129756558733" /><ellipse clip-path="url(#viewbox-clip)" cx="441.41999999999996" cy="442.65421886078923" fill="black" rx="21.02" ry="16.21129756558733" /><ellipse clip-path="url(#viewbox-clip)" cx="525.5" cy="442.65421886078923" fill="black" rx="21.02" ry="16.21129756558733" /><ellipse clip-path="url(#viewbox-clip)" cx="609.5799999999999" cy="442.65421886078923" fill="black" rx="21.02" ry="16.21129756558733" /><ellipse clip-path="url(#viewbox-clip)" cx="693.66" cy="442.65421886078923" fill="black" rx="21.02" ry="16.21129756558733" /><ellipse clip-path="url(#viewbox-clip)" cx="777.74" cy="442.65421886078923" fill="black" rx="21.02" ry="16.21129756558733" /><ellipse clip-path="url(#viewbox-clip)" cx="861.8199999999999" cy="442.65421886078923" fill="black" rx="21.02" ry="16.21129756558733" /><ellipse clip-path="url(#viewbox-clip)" cx="945.9" cy="442.65421886078923" fill="black" rx="21.02" ry="16.21129756558733" /><ellipse clip-path="url(#viewbox-clip)" cx="1029.98" cy="442.65421886078923" fill="black" rx="21.02" ry="16.21129756558733" /><ellipse clip-path="url(#viewbox-clip)" cx="63.06" cy="476.61309383124535" fill="black" rx="21.02" ry="17.747577404868792" /><ellipse clip-path="url(#viewbox-clip)" cx="147.14000000000001" cy="476.61309383124535" fill="black" rx="21.02" ry="17.747577404868792" /><ellipse clip-path="url(#viewbox-clip)" cx="231.22" cy="476.61309383124535" fill="black" rx="21.02" ry="17.747577404868792" /><ellipse clip-path="url(#viewbox-clip)" cx="315.3" cy="476.61309383124535" fill="black" rx="21.02" ry="17.747577404868792" /><ellipse clip-path="url(#viewbox-clip)" cx="399.38" cy="476.61309383124535" fill="black" rx="21.02" ry="17.747577404868792" /><ellipse clip-path="url(#viewbox-clip)" cx="483.46" cy="476.61309383124535" fill="black" rx="21.02" ry="17.747577404868792" /><ellipse clip-path="url(#viewbox-clip)" cx="567.54" cy="476.61309383124535" fill="black" rx="21.02" ry="17.747577404868792" /><ellipse clip-path="url(#viewbox-clip)" cx="651.6199999999999" cy="476.61309383124535" fill="black" rx="21.02" ry="17.747577404868792" /><ellipse clip-path="url(#viewbox-clip)" cx="735.6999999999999" cy="476.61309383124535" fill="black" rx="21.02" ry="17.747577404868792" /><ellipse clip-path="url(#viewbox-clip)" cx="819.78" cy="476.61309383124535" fill="black" rx="21.02" ry="17.747577404868792" /><ellipse clip-path="url(#viewbox-clip)" cx="903.8599999999999" cy="476.61309383124535" fill="black" rx="21.02" ry="17.747577404868792" /><ellipse clip-path="url(#viewbox-clip)" cx="987.9399999999999" cy="476.61309383124535" fill="black" rx="21.02" ry="17.747577404868792" /><ellipse clip-path="url(#viewbox-clip)" cx="1072.02" cy="476.61309383124535" fill="black" rx="21.02" ry="17.747577404868792" /><ellipse clip-path="url(#viewbox-clip)" cx="21.02" cy="513.6445284802645" fill="black" rx="21.02" ry="19.28385724415034" /><ellipse clip-path="url(#viewbox-clip)" cx="105.1" cy="513.6445284802645" fill="black" rx="21.02" ry="19.28385724415034" /><ellipse clip-path="url(#viewbox-clip)" cx="189.18" cy="513.6445284802645" fill="black" rx="21.02" ry="19.28385724415034" /><ellipse clip-path="url(#viewbox-clip)" cx="273.26" cy="513.6445284802645" fill="black" rx="21.02" ry="19.28385724415034" /><ellipse clip-path="url(#viewbox-clip)" cx="357.34" cy="513.6445284802645" fill="black" rx="21.02" ry="19.28385724415034" /><ellipse clip-path="url(#viewbox-clip)" cx="441.41999999999996" cy="513.6445284802645" fill="black" rx="21.02" ry="19.28385724415034" /><ellipse clip-path="url(#viewbox-clip)" cx="525.5" cy="513.6445284802645" fill="black" rx="21.02" ry="19.28385724415034" /><ellipse clip-path="url(#viewbox-clip)" cx="609.5799999999999" cy="513.6445284802645" fill="black" rx="21.02" ry="19.28385724415034" /><ellipse clip-path="url(#viewbox-clip)" cx="693.66" cy="513.6445284802645" fill="black" rx="21.02" ry="19.28385724415034" /><ellipse clip-path="url(#viewbox-clip)" cx="777.74" cy="513.6445284802645" fill="black" rx="21.02" ry="19.28385724415034" /><ellipse clip-path="url(#viewbox-clip)" cx="861.8199999999999" cy="513.6445284802645" fill="black" rx="21.02" ry="19.28385724415034" /><ellipse clip-path="url(#viewbox-clip)" cx="945.9" cy="513.6445284802645" fill="black" rx="21.02" ry="19.28385724415034" /><ellipse clip-path="url(#viewbox-clip)" cx="1029.98" cy="513.6445284802645" fill="black" rx="21.02" ry="19.28385724415034" /><ellipse clip-path="url(#viewbox-clip)" cx="63.06" cy="553.7485228078466" fill="black" rx="21.02" ry="20.820137083431746" /><ellipse clip-path="url(#viewbox-clip)" cx="147.14000000000001" cy="553.7485228078466" fill="black" rx="21.02" ry="20.820137083431746" /><ellipse clip-path="url(#viewbox-clip)" cx="231.22" cy="553.7485228078466" fill="black" rx="21.02" ry="20.820137083431746" /><ellipse clip-path="url(#viewbox-clip)" cx="315.3" cy="553.7485228078466" fill="black" rx="21.02" ry="20.820137083431746" /><ellipse clip-path="url(#viewbox-clip)" cx="399.38" cy="553.7485228078466" fill="black" rx="21.02" ry="20.820137083431746" /><ellipse clip-path="url(#viewbox-clip)" cx="483.46" cy="553.7485228078466" fill="black" rx="21.02" ry="20.820137083431746" /><ellipse clip-path="url(#viewbox-clip)" cx="567.54" cy="553.7485228078466" fill="black" rx="21.02" ry="20.820137083431746" /><ellipse clip-path="url(#viewbox-clip)" cx="651.6199999999999" cy="553.7485228078466" fill="black" rx="21.02" ry="20.820137083431746" /><ellipse clip-path="url(#viewbox-clip)" cx="735.6999999999999" cy="553.7485228078466" fill="black" rx="21.02" ry="20.820137083431746" /><ellipse clip-path="url(#viewbox-clip)" cx="819.78" cy="553.7485228078466" fill="black" rx="21.02" ry="20.820137083431746" /><ellipse clip-path="url(#viewbox-clip)" cx="903.8599999999999" cy="553.7485228078466" fill="black" rx="21.02" ry="20.820137083431746" /><ellipse clip-path="url(#viewbox-clip)" cx="987.9399999999999" cy="553.7485228078466" fill="black" rx="21.02" ry="20.820137083431746" /><ellipse clip-path="url(#viewbox-clip)" cx="1072.02" cy="553.7485228078466" fill="black" rx="21.02" ry="20.820137083431746" /><ellipse clip-path="url(#viewbox-clip)" cx="21.02" cy="595.8402268967145" fill="black" rx="21.02" ry="21.27156700543611" /><ellipse clip-path="url(#viewbox-clip)" cx="105.1" cy="595.8402268967145" fill="black" rx="21.02" ry="21.27156700543611" /><ellipse clip-path="url(#viewbox-clip)" cx="189.18" cy="595.8402268967145" fill="black" rx="21.02" ry="21.27156700543611" /><ellipse clip-path="url(#viewbox-clip)" cx="273.26" cy="595.8402268967145" fill="black" rx="21.02" ry="21.27156700543611" /><ellipse clip-path="url(#viewbox-clip)" cx="357.34" cy="595.8402268967145" fill="black" rx="21.02" ry="21.27156700543611" /><ellipse clip-path="url(#viewbox-clip)" cx="441.41999999999996" cy="595.8402268967145" fill="black" rx="21.02" ry="21.27156700543611" /><ellipse clip-path="url(#viewbox-clip)" cx="525.5" cy="595.8402268967145" fill="black" rx="21.02" ry="21.27156700543611" /><ellipse clip-path="url(#viewbox-clip)" cx="609.5799999999999" cy="595.8402268967145" fill="black" rx="21.02" ry="21.27156700543611" /><ellipse clip-path="url(#viewbox-clip)" cx="693.66" cy="595.8402268967145" fill="black" rx="21.02" ry="21.27156700543611" /><ellipse clip-path="url(#viewbox-clip)" cx="777.74" cy="595.8402268967145" fill="black" rx="21.02" ry="21.27156700543611" /><ellipse clip-path="url(#viewbox-clip)" cx="861.8199999999999" cy="595.8402268967145" fill="black" rx="21.02" ry="21.27156700543611" /><ellipse clip-path="url(#viewbox-clip)" cx="945.9" cy="595.8402268967145" fill="black" rx="21.02" ry="21.27156700543611" /><ellipse clip-path="url(#viewbox-clip)" cx="1029.98" cy="595.8402268967145" fill="black" rx="21.02" ry="21.27156700543611" /><ellipse clip-path="url(#viewbox-clip)" cx="63.06" cy="638.3833609075866" fill="black" rx="21.02" ry="21.271567005436054" /><ellipse clip-path="url(#viewbox-clip)" cx="147.14000000000001" cy="638.3833609075866" fill="black" rx="21.02" ry="21.271567005436054" /><ellipse clip-path="url(#viewbox-clip)" cx="231.22" cy="638.3833609075866" fill="black" rx="21.02" ry="21.271567005436054" /><ellipse clip-path="url(#viewbox-clip)" cx="315.3" cy="638.3833609075866" fill="black" rx="21.02" ry="21.271567005436054" /><ellipse clip-path="url(#viewbox-clip)" cx="399.38" cy="638.3833609075866" fill="black" rx="21.02" ry="21.271567005436054" /><ellipse clip-path="url(#viewbox-clip)" cx="483.46" cy="638.3833609075866" fill="black" rx="21.02" ry="21.271567005436054" /><ellipse clip-path="url(#viewbox-clip)" cx="567.54" cy="638.3833609075866" fill="black" rx="21.02" ry="21.271567005436054" /><ellipse clip-path="url(#viewbox-clip)" cx="651.6199999999999" cy="638.3833609075866" fill="black" rx="21.02" ry="21.271567005436054" /><ellipse clip-path="url(#viewbox-clip)" cx="735.6999999999999" cy="638.3833609075866" fill="black" rx="21.02" ry="21.271567005436054" /><ellipse clip-path="url(#viewbox-clip)" cx="819.78" cy="638.3833609075866" fill="black" rx="21.02" ry="21.271567005436054" /><ellipse clip-path="url(#viewbox-clip)" cx="903.8599999999999" cy="638.3833609075866" fill="black" rx="21.02" ry="21.271567005436054" /><ellipse clip-path="url(#viewbox-clip)" cx="987.9399999999999" cy="638.3833609075866" fill="black" rx="21.02" ry="21.271567005436054" /><ellipse clip-path="url(#viewbox-clip)" cx="1072.02" cy="638.3833609075866" fill="black" rx="21.02" ry="21.271567005436054" /><ellipse clip-path="url(#viewbox-clip)" cx="21.02" cy="680.9264949184587" fill="black" rx="21.02" ry="21.27156700543611" /><ellipse clip-path="url(#viewbox-clip)" cx="105.1" cy="680.9264949184587" fill="black" rx="21.02" ry="21.27156700543611" /><ellipse clip-path="url(#viewbox-clip)" cx="189.18" cy="680.9264949184587" fill="black" rx="21.02" ry="21.27156700543611" /><ellipse clip-path="url(#viewbox-clip)" cx="273.26" cy="680.9264949184587" fill="black" rx="21.02" ry="21.27156700543611" /><ellipse clip-path="url(#viewbox-clip)" cx="357.34" cy="680.9264949184587" fill="black" rx="21.02" ry="21.27156700543611" /><ellipse clip-path="url(#viewbox-clip)" cx="441.41999999999996" cy="680.9264949184587" fill="black" rx="21.02" ry="21.27156700543611" /><ellipse clip-path="url(#viewbox-clip)" cx="525.5" cy="680.9264949184587" fill="black" rx="21.02" ry="21.27156700543611" /><ellipse clip-path="url(#viewbox-clip)" cx="609.5799999999999" cy="680.9264949184587" fill="black" rx="21.02" ry="21.27156700543611" /><ellipse clip-path="url(#viewbox-clip)" cx="693.66" cy="680.9264949184587" fill="black" rx="21.02" ry="21.27156700543611" /><ellipse clip-path="url(#viewbox-clip)" cx="777.74" cy="680.9264949184587" fill="black" rx="21.02" ry="21.27156700543611" /><ellipse clip-path="url(#viewbox-clip)" cx="861.8199999999999" cy="680.9264949184587" fill="black" rx="21.02" ry="21.27156700543611" /><ellipse clip-path="url(#viewbox-clip)" cx="945.9" cy="680.9264949184587" fill="black" rx="21.02" ry="21.27156700543611" /><ellipse clip-path="url(#viewbox-clip)" cx="1029.98" cy="680.9264949184587" fill="black" rx="21.02" ry="21.27156700543611" /><ellipse clip-path="url(#viewbox-clip)" cx="63.06" cy="723.4696289293311" fill="black" rx="21.02" ry="21.27156700543611" /><ellipse clip-path="url(#viewbox-clip)" cx="147.14000000000001" cy="723.4696289293311" fill="black" rx="21.02" ry="21.27156700543611" /><ellipse clip-path="url(#viewbox-clip)" cx="231.22" cy="723.4696289293311" fill="black" rx="21.02" ry="21.27156700543611" /><ellipse clip-path="url(#viewbox-clip)" cx="315.3" cy="723.4696289293311" fill="black" rx="21.02" ry="21.27156700543611" /><ellipse clip-path="url(#viewbox-clip)" cx="399.38" cy="723.4696289293311" fill="black" rx="21.02" ry="21.27156700543611" /><ellipse clip-path="url(#viewbox-clip)" cx="483.46" cy="723.4696289293311" fill="black" rx="21.02" ry="21.27156700543611" /><ellipse clip-path="url(#viewbox-clip)" cx="567.54" cy="723.4696289293311" fill="black" rx="21.02" ry="21.27156700543611" /><ellipse clip-path="url(#viewbox-clip)" cx="651.6199999999999" cy="723.4696289293311" fill="black" rx="21.02" ry="21.27156700543611" /><ellipse clip-path="url(#viewbox-clip)" cx="735.6999999999999" cy="723.4696289293311" fill="black" rx="21.02" ry="21.27156700543611" /><ellipse clip-path="url(#viewbox-clip)" cx="819.78" cy="723.4696289293311" fill="black" rx="21.02" ry="21.27156700543611" /><ellipse clip-path="url(#viewbox-clip)" cx="903.8599999999999" cy="723.4696289293311" fill="black" rx="21.02" ry="21.27156700543611" /><ellipse clip-path="url(#viewbox-clip)" cx="987.9399999999999" cy="723.4696289293311" fill="black" rx="21.02" ry="21.27156700543611" /><ellipse clip-path="url(#viewbox-clip)" cx="1072.02" cy="723.4696289293311" fill="black" rx="21.02" ry="21.27156700543611" /><ellipse clip-path="url(#viewbox-clip)" cx="21.02" cy="766.0127629402032" fill="black" rx="21.02" ry="21.271567005436054" /><ellipse clip-path="url(#viewbox-clip)" cx="105.1" cy="766.0127629402032" fill="black" rx="21.02" ry="21.271567005436054" /><ellipse clip-path="url(#viewbox-clip)" cx="189.18" cy="766.0127629402032" fill="black" rx="21.02" ry="21.271567005436054" /><ellipse clip-path="url(#viewbox-clip)" cx="273.26" cy="766.0127629402032" fill="black" rx="21.02" ry="21.271567005436054" /><ellipse clip-path="url(#viewbox-clip)" cx="357.34" cy="766.0127629402032" fill="black" rx="21.02" ry="21.271567005436054" /><ellipse clip-path="url(#viewbox-clip)" cx="441.41999999999996" cy="766.0127629402032" fill="black" rx="21.02" ry="21.271567005436054" /><ellipse clip-path="url(#viewbox-clip)" cx="525.5" cy="766.0127629402032" fill="black" rx="21.02" ry="21.271567005436054" /><ellipse clip-path="url(#viewbox-clip)" cx="609.5799999999999" cy="766.0127629402032" fill="black" rx="21.02" ry="21.271567005436054" /><ellipse clip-path="url(#viewbox-clip)" cx="693.66" cy="766.0127629402032" fill="black" rx="21.02" ry="21.271567005436054" /><ellipse clip-path="url(#viewbox-clip)" cx="777.74" cy="766.0127629402032" fill="black" rx="21.02" ry="21.271567005436054" /><ellipse clip-path="url(#viewbox-clip)" cx="861.8199999999999" cy="766.0127629402032" fill="black" rx="21.02" ry="21.271567005436054" /><ellipse clip-path="url(#viewbox-clip)" cx="945.9" cy="766.0127629402032" fill="black" rx="21.02" ry="21.271567005436054" /><ellipse clip-path="url(#viewbox-clip)" cx="1029.98" cy="766.0127629402032" fill="black" rx="21.02" ry="21.271567005436054" /><ellipse clip-path="url(#viewbox-clip)" cx="63.06" cy="808.5558969510753" fill="black" rx="21.02" ry="21.27156700543611" /><ellipse clip-path="url(#viewbox-clip)" cx="147.14000000000001" cy="808.5558969510753" fill="black" rx="21.02" ry="21.27156700543611" /><ellipse clip-path="url(#viewbox-clip)" cx="231.22" cy="808.5558969510753" fill="black" rx="21.02" ry="21.27156700543611" /><ellipse clip-path="url(#viewbox-clip)" cx="315.3" cy="808.5558969510753" fill="black" rx="21.02" ry="21.27156700543611" /><ellipse clip-path="url(#viewbox-clip)" cx="399.38" cy="808.5558969510753" fill="black" rx="21.02" ry="21.27156700543611" /><ellipse clip-path="url(#viewbox-clip)" cx="483.46" cy="808.5558969510753" fill="black" rx="21.02" ry="21.27156700543611" /><ellipse clip-path="url(#viewbox-clip)" cx="567.54" cy="808.5558969510753" fill="black" rx="21.02" ry="21.27156700543611" /><ellipse clip-path="url(#viewbox-clip)" cx="651.6199999999999" cy="808.5558969510753" fill="black" rx="21.02" ry="21.27156700543611" /><ellipse clip-path="url(#viewbox-clip)" cx="735.6999999999999" cy="808.5558969510753" fill="black" rx="21.02" ry="21.27156700543611" /><ellipse clip-path="url(#viewbox-clip)" cx="819.78" cy="808.5558969510753" fill="black" rx="21.02" ry="21.27156700543611" /><ellipse clip-path="url(#viewbox-clip)" cx="903.8599999999999" cy="808.5558969510753" fill="black" rx="21.02" ry="21.27156700543611" /><ellipse clip-path="url(#viewbox-clip)" cx="987.9399999999999" cy="808.5558969510753" fill="black" rx="21.02" ry="21.27156700543611" /><ellipse clip-path="url(#viewbox-clip)" cx="1072.02" cy="808.5558969510753" fill="black" rx="21.02" ry="21.27156700543611" /><ellipse clip-path="url(#viewbox-clip)" cx="21.02" cy="851.0990309619474" fill="black" rx="21.02" ry="21.271567005435998" /><ellipse clip-path="url(#viewbox-clip)" cx="105.1" cy="851.0990309619474" fill="black" rx="21.02" ry="21.271567005435998" /><ellipse clip-path="url(#viewbox-clip)" cx="189.18" cy="851.0990309619474" fill="black" rx="21.02" ry="21.271567005435998" /><ellipse clip-path="url(#viewbox-clip)" cx="273.26" cy="851.0990309619474" fill="black" rx="21.02" ry="21.271567005435998" /><ellipse clip-path="url(#viewbox-clip)" cx="357.34" cy="851.0990309619474" fill="black" rx="21.02" ry="21.271567005435998" /><ellipse clip-path="url(#viewbox-clip)" cx="441.41999999999996" cy="851.0990309619474" fill="black" rx="21.02" ry="21.271567005435998" /><ellipse clip-path="url(#viewbox-clip)" cx="525.5" cy="851.0990309619474" fill="black" rx="21.02" ry="21.271567005435998" /><ellipse clip-path="url(#viewbox-clip)" cx="609.5799999999999" cy="851.0990309619474" fill="black" rx="21.02" ry="21.271567005435998" /><ellipse clip-path="url(#viewbox-clip)" cx="693.66" cy="851.0990309619474" fill="black" rx="21.02" ry="21.271567005435998" /><ellipse clip-path="url(#viewbox-clip)" cx="777.74" cy="851.0990309619474" fill="black" rx="21.02" ry="21.271567005435998" /><ellipse clip-path="url(#viewbox-clip)" cx="861.8199999999999" cy="851.0990309619474" fill="black" rx="21.02" ry="21.271567005435998" /><ellipse clip-path="url(#viewbox-clip)" cx="945.9" cy="851.0990309619474" fill="black" rx="21.02" ry="21.271567005435998" /><ellipse clip-path="url(#viewbox-clip)" cx="1029.98" cy="851.0990309619474" fill="black" rx="21.02" ry="21.271567005435998" /><ellipse clip-path="url(#viewbox-clip)" cx="63.06" cy="893.6421649728195" fill="black" rx="21.02" ry="21.27156700543611" /><ellipse clip-path="url(#viewbox-clip)" cx="147.14000000000001" cy="893.6421649728195" fill="black" rx="21.02" ry="21.27156700543611" /><ellipse clip-path="url(#viewbox-clip)" cx="231.22" cy="893.6421649728195" fill="black" rx="21.02" ry="21.27156700543611" /><ellipse clip-path="url(#viewbox-clip)" cx="315.3" cy="893.6421649728195" fill="black" rx="21.02" ry="21.27156700543611" /><ellipse clip-path="url(#viewbox-clip)" cx="399.38" cy="893.6421649728195" fill="black" rx="21.02" ry="21.27156700543611" /><ellipse clip-path="url(#viewbox-clip)" cx="483.46" cy="893.6421649728195" fill="black" rx="21.02" ry="21.27156700543611" /><ellipse clip-path="url(#viewbox-clip)" cx="567.54" cy="893.6421649728195" fill="black" rx="21.02" ry="21.27156700543611" /><ellipse clip-path="url(#viewbox-clip)" cx="651.6199999999999" cy="893.6421649728195" fill="black" rx="21.02" ry="21.27156700543611" /><ellipse clip-path="url(#viewbox-clip)" cx="735.6999999999999" cy="893.6421649728195" fill="black" rx="21.02" ry="21.27156700543611" /><ellipse clip-path="url(#viewbox-clip)" cx="819.78" cy="893.6421649728195" fill="black" rx="21.02" ry="21.27156700543611" /><ellipse clip-path="url(#viewbox-clip)" cx="903.8599999999999" cy="893.6421649728195" fill="black" rx="21.02" ry="21.27156700543611" /><ellipse clip-path="url(#viewbox-clip)" cx="987.9399999999999" cy="893.6421649728195" fill="black" rx="21.02" ry="21.27156700543611" /><ellipse clip-path="url(#viewbox-clip)" cx="1072.02" cy="893.6421649728195" fill="black" rx="21.02" ry="21.27156700543611" /><ellipse clip-path="url(#viewbox-clip)" cx="21.02" cy="936.1852989836917" fill="black" rx="21.02" ry="21.271567005436054" /><ellipse clip-path="url(#viewbox-clip)" cx="105.1" cy="936.1852989836917" fill="black" rx="21.02" ry="21.271567005436054" /><ellipse clip-path="url(#viewbox-clip)" cx="189.18" cy="936.1852989836917" fill="black" rx="21.02" ry="21.271567005436054" /><ellipse clip-path="url(#viewbox-clip)" cx="273.26" cy="936.1852989836917" fill="black" rx="21.02" ry="21.271567005436054" /><ellipse clip-path="url(#viewbox-clip)" cx="357.34" cy="936.1852989836917" fill="black" rx="21.02" ry="21.271567005436054" /><ellipse clip-path="url(#viewbox-clip)" cx="441.41999999999996" cy="936.1852989836917" fill="black" rx="21.02" ry="21.271567005436054" /><ellipse clip-path="url(#viewbox-clip)" cx="525.5" cy="936.1852989836917" fill="black" rx="21.02" ry="21.271567005436054" /><ellipse clip-path="url(#viewbox-clip)" cx="609.5799999999999" cy="936.1852989836917" fill="black" rx="21.02" ry="21.271567005436054" /><ellipse clip-path="url(#viewbox-clip)" cx="693.66" cy="936.1852989836917" fill="black" rx="21.02" ry="21.271567005436054" /><ellipse clip-path="url(#viewbox-clip)" cx="777.74" cy="936.1852989836917" fill="black" rx="21.02" ry="21.271567005436054" /><ellipse clip-path="url(#viewbox-clip)" cx="861.8199999999999" cy="936.1852989836917" fill="black" rx="21.02" ry="21.271567005436054" /><ellipse clip-path="url(#viewbox-clip)" cx="945.9" cy="936.1852989836917" fill="black" rx="21.02" ry="21.271567005436054" /><ellipse clip-path="url(#viewbox-clip)" cx="1029.98" cy="936.1852989836917" fill="black" rx="21.02" ry="21.271567005436054" /><ellipse clip-path="url(#viewbox-clip)" cx="63.06" cy="978.728432994564" fill="black" rx="21.02" ry="21.27156700543611" /><ellipse clip-path="url(#viewbox-clip)" cx="147.14000000000001" cy="978.728432994564" fill="black" rx="21.02" ry="21.27156700543611" /><ellipse clip-path="url(#viewbox-clip)" cx="231.22" cy="978.728432994564" fill="black" rx="21.02" ry="21.27156700543611" /><ellipse clip-path="url(#viewbox-clip)" cx="315.3" cy="978.728432994564" fill="black" rx="21.02" ry="21.27156700543611" /><ellipse clip-path="url(#viewbox-clip)" cx="399.38" cy="978.728432994564" fill="black" rx="21.02" ry="21.27156700543611" /><ellipse clip-path="url(#viewbox-clip)" cx="483.46" cy="978.728432994564" fill="black" rx="21.02" ry="21.27156700543611" /><ellipse clip-path="url(#viewbox-clip)" cx="567.54" cy="978.728432994564" fill="black" rx="21.02" ry="21.27156700543611" /><ellipse clip-path="url(#viewbox-clip)" cx="651.6199999999999" cy="978.728432994564" fill="black" rx="21.02" ry="21.27156700543611" /><ellipse clip-path="url(#viewbox-clip)" cx="735.6999999999999" cy="978.728432994564" fill="black" rx="21.02" ry="21.27156700543611" /><ellipse clip-path="url(#viewbox-clip)" cx="819.78" cy="978.728432994564" fill="black" rx="21.02" ry="21.27156700543611" /><ellipse clip-path="url(#viewbox-clip)" cx="903.8599999999999" cy="978.728432994564" fill="black" rx="21.02" ry="21.27156700543611" /><ellipse clip-path="url(#viewbox-clip)" cx="987.9399999999999" cy="978.728432994564" fill="black" rx="21.02" ry="21.27156700543611" /><ellipse clip-path="url(#viewbox-clip)" cx="1072.02" cy="978.728432994564" fill="black" rx="21.02" ry="21.27156700543611" /></svg>