<?xml version="1.0" encoding="utf-8" ?>
<svg baseProfile="full" height="1000" version="1.1" width="1000" xmlns="http://www.w3.org/2000/svg" xmlns:ev="http://www.w3.org/2001/xml-events" xmlns:xlink="http://www.w3.org/1999/xlink"><defs><clipPath id="viewbox-clip"><rect height="1000" width="1000" x="0" y="0" /></clipPath></defs><rect clip-path="url(#viewbox-clip)" fill="white" height="1000" width="1000" x="0" y="0" /><rect clip-path="url(#viewbox-clip)" fill="black" height="77.0" width="96.72830886295316" x="0.0" y="0.0" /><rect clip-path="url(#viewbox-clip)" fill="black" height="77.0" width="96.72830886295316" x="0.0" y="154.0" /><rect clip-path="url(#viewbox-clip)" fill="black" height="77.0" width="96.72830886295316" x="0.0" y="308.0" /><rect clip-path="url(#viewbox-clip)" fill="black" height="77.0" width="96.72830886295316" x="0.0" y="462.0" /><rect clip-path="url(#viewbox-clip)" fill="black" height="77.0" width="96.72830886295316" x="0.0" y="616.0" /><rect clip-path="url(#viewbox-clip)" fill="black" height="77.0" width="96.72830886295316" x="0.0" y="770.0" /><rect clip-path="url(#viewbox-clip)" fill="black" height="77.0" width="96.72830886295316" x="0.0" y="924.0" /><rect clip-path="url(#viewbox-clip)" fill="black" height="77.0" width="86.21850779371562" x="96.72830886295316" y="77.0" /><rect clip-path="url(#viewbox-clip)" fill="black" height="77.0" width="86.21850779371562" x="96.72830886295316" y="231.0" /><rect clip-path="url(#viewbox-clip)" fill="black" height="77.0" width="86.21850779371562" x="96.72830886295316" y="385.0" /><rect clip-path="url(#viewbox-clip)" fill="black" height="77.0" width="86.21850779371562" x="96.72830886295316" y="539.0" /><rect clip-path="url(#viewbox-clip)" fill="black" height="77.0" width="86.21850779371562" x="96.72830886295316" y="693.0" /><rect clip-path="url(#viewbox-clip)" fill="black" height="77.0" width="86.21850779371562" x="96.72830886295316" y="847.0" /><rect clip-path="url(#viewbox-clip)" fill="black" height="77.0" width="86.21850779371562" x="96.72830886295316" y="1001.0" /><rect clip-path="url(#viewbox-clip)" fill="black" height="77.0" width="76.35130514993836" x="182.94681665666877" y="0.0" /><rect clip-path="url(#viewbox-clip)" fill="black" height="77.0" width="76.35130514993836" x="182.94681665666877" y="154.0" /><rect clip-path="url(#viewbox-clip)" fill="black" height="77.0" width="76.35130514993836" x="182.94681665666877" y="308.0" /><rect clip-path="url(#viewbox-clip)" fill="black" height="77.0" width="76.35130514993836" x="182.94681665666877" y="462.0" /><rect clip-path="url(#viewbox-clip)" fill="black" height="77.0" width="76.35130514993836" x="182.94681665666877" y="616.0" /><rect clip-path="url(#viewbox-clip)" fill="black" height="77.0" width="76.35130514993836" x="182.94681665666877" y="770.0" /><rect clip-path="url(#viewbox-clip)" fill="black" height="77.0" width="76.35130514993836" x="182.94681665666877" y="924.0" /><rect clip-path="url(#viewbox-clip)" fill="black" height="77.0" width="67.12670093162137" x="259.2981218066071" y="77.0" /><rect clip-path="url(#viewbox-clip)" fill="black" height="77.0" width="67.12670093162137" x="259.2981218066071" y="231.0" /><rect clip-path="url(#viewbox-clip)" fill="black" height="77.0" width="67.12670093162137" x="259.2981218066071" y="385.0" /><rect clip-path="url(#viewbox-clip)" fill="black" height="77.0" width="67.12670093162137" x="259.2981218066071" y="539.0" /><rect clip-path="url(#viewbox-clip)" fill="black" height="77.0" width="67.12670093162137" x="259.2981218066071" y="693.0" /><rect clip-path="url(#viewbox-clip)" fill="black" height="77.0" width="67.12670093162137" x="259.2981218066071" y="847.0" /><rect clip-path="url(#viewbox-clip)" fill="black" height="77.0" width="67.12670093162137" x="259.2981218066071" y="1001.0" /><rect clip-path="url(#viewbox-clip)" fill="black" height="77.0" width="58.54469513876455" x="326.4248227382285" y="0.0" /><rect clip-path="url(#viewbox-clip)" fill="black" height="77.0" width="58.54469513876455" x="326.4248227382285" y="154.0" /><rect clip-path="url(#viewbox-clip)" fill="black" height="77.0" width="58.54469513876455" x="326.4248227382285" y="308.0" /><rect clip-path="url(#viewbox-clip)" fill="black" height="77.0" width="58.54469513876455" x="326.4248227382285" y="462.0" /><rect clip-path="url(#viewbox-clip)" fill="black" height="77.0" width="58.54469513876455" x="326.4248227382285" y="616.0" /><rect clip-path="url(#viewbox-clip)" fill="black" height="77.0" width="58.54469513876455" x="326.4248227382285" y="770.0" /><rect clip-path="url(#viewbox-clip)" fill="black" height="77.0" width="58.54469513876455" x="326.4248227382285" y="924.0" /><rect clip-path="url(#viewbox-clip)" fill="black" height="77.0" width="50.60528777136824" x="384.96951787699305" y="77.0" /><rect clip-path="url(#viewbox-clip)" fill="black" height="77.0" width="50.60528777136824" x="384.96951787699305" y="231.0" /><rect clip-path="url(#viewbox-clip)" fill="black" height="77.0" width="50.60528777136824" x="384.96951787699305" y="385.0" /><rect clip-path="url(#viewbox-clip)" fill="black" height="77.0" width="50.60528777136824" x="384.96951787699305" y="539.0" /><rect clip-path="url(#viewbox-clip)" fill="black" height="77.0" width="50.60528777136824" x="384.96951787699305" y="693.0" /><rect clip-path="url(#viewbox-clip)" fill="black" height="77.0" width="50.60528777136824" x="384.96951787699305" y="847.0" /><rect clip-path="url(#viewbox-clip)" fill="black" height="77.0" width="50.60528777136824" x="384.96951787699305" y="1001.0" /><rect clip-path="url(#viewbox-clip)" fill="black" height="77.0" width="43.30847882943192" x="435.5748056483613" y="0.0" /><rect clip-path="url(#viewbox-clip)" fill="black" height="77.0" width="43.30847882943192" x="435.5748056483613" y="154.0" /><rect clip-path="url(#viewbox-clip)" fill="black" height="77.0" width="43.30847882943192" x="435.5748056483613" y="308.0" /><rect clip-path="url(#viewbox-clip)" fill="black" height="77.0" width="43.30847882943192" x="435.5748056483613" y="462.0" /><rect clip-path="url(#viewbox-clip)" fill="black" height="77.0" width="43.30847882943192" x="435.5748056483613" y="616.0" /><rect clip-path="url(#viewbox-clip)" fill="black" height="77.0" width="43.30847882943192" x="435.5748056483613" y="770.0" /><rect clip-path="url(#viewbox-clip)" fill="black" height="77.0" width="43.30847882943192" x="435.5748056483613" y="924.0" /><rect clip-path="url(#viewbox-clip)" fill="black" height="77.0" width="36.65426831295605" x="478.8832844777932" y="77.0" /><rect clip-path="url(#viewbox-clip)" fill="black" height="77.0" width="36.65426831295605" x="478.8832844777932" y="231.0" /><rect clip-path="url(#viewbox-clip)" fill="black" height="77.0" width="36.65426831295605" x="478.8832844777932" y="385.0" /><rect clip-path="url(#viewbox-clip)" fill="black" height="77.0" width="36.65426831295605" x="478.8832844777932" y="539.0" /><rect clip-path="url(#viewbox-clip)" fill="black" height="77.0" width="36.65426831295605" x="478.8832844777932" y="693.0" /><rect clip-path="url(#viewbox-clip)" fill="black" height="77.0" width="36.65426831295605" x="478.8832844777932" y="847.0" /><rect clip-path="url(#viewbox-clip)" fill="black" height="77.0" width="36.65426831295605" x="478.8832844777932" y="1001.0" /><rect clip-path="url(#viewbox-clip)" fill="black" height="77.0" width="30.642656221940456" x="515.5375527907493" y="0.0" /><rect clip-path="url(#viewbox-clip)" fill="black" height="77.0" width="30.642656221940456" x="515.5375527907493" y="154.0" /><rect clip-path="url(#viewbox-clip)" fill="black" height="77.0" width="30.642656221940456" x="515.5375527907493" y="308.0" /><rect clip-path="url(#viewbox-clip)" fill="black" height="77.0" width="30.642656221940456" x="515.5375527907493" y="462.0" /><rect clip-path="url(#viewbox-clip)" fill="black" height="77.0" width="30.642656221940456" x="515.5375527907493" y="616.0" /><rect clip-path="url(#viewbox-clip)" fill="black" height="77.0" width="30.642656221940456" x="515.5375527907493" y="770.0" /><rect clip-path="url(#viewbox-clip)" fill="black" height="77.0" width="30.642656221940456" x="515.5375527907493" y="924.0" /><rect clip-path="url(#viewbox-clip)" fill="black" height="77.0" width="25.27364255638497" x="546.1802090126897" y="77.0" /><rect clip-path="url(#viewbox-clip)" fill="black" height="77.0" width="25.27364255638497" x="546.1802090126897" y="231.0" /><rect clip-path="url(#viewbox-clip)" fill="black" height="77.0" width="25.27364255638497" x="546.1802090126897" y="385.0" /><rect clip-path="url(#viewbox-clip)" fill="black" height="77.0" width="25.27364255638497" x="546.1802090126897" y="539.0" /><rect clip-path="url(#viewbox-clip)" fill="black" height="77.0" width="25.27364255638497" x="546.1802090126897" y="693.0" /><rect clip-path="url(#viewbox-clip)" fill="black" height="77.0" width="25.27364255638497" x="546.1802090126897" y="847.0" /><rect clip-path="url(#viewbox-clip)" fill="black" height="77.0" width="25.27364255638497" x="546.1802090126897" y="1001.0" /><rect clip-path="url(#viewbox-clip)" fill="black" height="77.0" width="20.547227316289877" x="571.4538515690747" y="0.0" /><rect clip-path="url(#viewbox-clip)" fill="black" height="77.0" width="20.547227316289877" x="571.4538515690747" y="154.0" /><rect clip-path="url(#viewbox-clip)" fill="black" height="77.0" width="20.547227316289877" x="571.4538515690747" y="308.0" /><rect clip-path="url(#viewbox-clip)" fill="black" height="77.0" width="20.547227316289877" x="571.4538515690747" y="462.0" /><rect clip-path="url(#viewbox-clip)" fill="black" height="77.0" width="20.547227316289877" x="571.4538515690747" y="616.0" /><rect clip-path="url(#viewbox-clip)" fill="black" height="77.0" width="20.547227316289877" x="571.4538515690747" y="770.0" /><rect clip-path="url(#viewbox-clip)" fill="black" height="77.0" width="20.547227316289877" x="571.4538515690747" y="924.0" /><rect clip-path="url(#viewbox-clip)" fill="black" height="77.0" width="16.463410501655176" x="592.0010788853646" y="77.0" /><rect clip-path="url(#viewbox-clip)" fill="black" height="77.0" width="16.463410501655176" x="592.0010788853646" y="231.0" /><rect clip-path="url(#viewbox-clip)" fill="black" height="77.0" width="16.463410501655176" x="592.0010788853646" y="385.0" /><rect clip-path="url(#viewbox-clip)" fill="black" height="77.0" width="16.463410501655176" x="592.0010788853646" y="539.0" /><rect clip-path="url(#viewbox-clip)" fill="black" height="77.0" width="16.463410501655176" x="592.0010788853646" y="693.0" /><rect clip-path="url(#viewbox-clip)" fill="black" height="77.0" width="16.463410501655176" x="592.0010788853646" y="847.0" /><rect clip-path="url(#viewbox-clip)" fill="black" height="77.0" width="16.463410501655176" x="592.0010788853646" y="1001.0" /><rect clip-path="url(#viewbox-clip)" fill="black" height="77.0" width="13.022192112480411" x="608.4644893870197" y="0.0" /><rect clip-path="url(#viewbox-clip)" fill="black" height="77.0" width="13.022192112480411" x="608.4644893870197" y="154.0" /><rect clip-path="url(#viewbox-clip)" fill="black" height="77.0" width="13.022192112480411" x="608.4644893870197" y="308.0" /><rect clip-path="url(#viewbox-clip)" fill="black" height="77.0" width="13.022192112480411" x="608.4644893870197" y="462.0" /><rect clip-path="url(#viewbox-clip)" fill="black" height="77.0" width="13.022192112480411" x="608.4644893870197" y="616.0" /><rect clip-path="url(#viewbox-clip)" fill="black" height="77.0" width="13.022192112480411" x="608.4644893870197" y="770.0" /><rect clip-path="url(#viewbox-clip)" fill="black" height="77.0" width="13.022192112480411" x="608.4644893870197" y="924.0" /><rect clip-path="url(#viewbox-clip)" fill="black" height="77.0" width="10.223572148766038" x="621.4866814995002" y="77.0" /><rect clip-path="url(#viewbox-clip)" fill="black" height="77.0" width="10.223572148766038" x="621.4866814995002" y="231.0" /><rect clip-path="url(#viewbox-clip)" fill="black" height="77.0" width="10.223572148766038" x="621.4866814995002" y="385.0" /><rect clip-path="url(#viewbox-clip)" fill="black" height="77.0" width="10.223572148766038" x="621.4866814995002" y="539.0" /><rect clip-path="url(#viewbox-clip)" fill="black" height="77.0" width="10.223572148766038" x="621.4866814995002" y="693.0" /><rect clip-path="url(#viewbox-clip)" fill="black" height="77.0" width="10.223572148766038" x="621.4866814995002" y="847.0" /><rect clip-path="url(#viewbox-clip)" fill="black" height="77.0" width="10.223572148766038" x="621.4866814995002" y="1001.0" /><rect clip-path="url(#viewbox-clip)" fill="black" height="77.0" width="8.06755061051183" x="631.7102536482662" y="0.0" /><rect clip-path="url(#viewbox-clip)" fill="black" height="77.0" width="8.06755061051183" x="631.7102536482662" y="154.0" /><rect clip-path="url(#viewbox-clip)" fill="black" height="77.0" width="8.06755061051183" x="631.7102536482662" y="308.0" /><rect clip-path="url(#viewbox-clip)" fill="black" height="77.0" width="8.06755061051183" x="631.7102536482662" y="462.0" /><rect clip-path="url(#viewbox-clip)" fill="black" height="77.0" width="8.06755061051183" x="631.7102536482662" y="616.0" /><rect clip-path="url(#viewbox-clip)" fill="black" height="77.0" width="8.06755061051183" x="631.7102536482662" y="770.0" /><rect clip-path="url(#viewbox-clip)" fill="black" height="77.0" width="8.06755061051183" x="631.7102536482662" y="924.0" /><rect clip-path="url(#viewbox-clip)" fill="black" height="77.0" width="6.554127497718696" x="639.777804258778" y="77.0" /><rect clip-path="url(#viewbox-clip)" fill="black" height="77.0" width="6.554127497718696" x="639.777804258778" y="231.0" /><rect clip-path="url(#viewbox-clip)" fill="black" height="77.0" width="6.554127497718696" x="639.777804258778" y="385.0" /><rect clip-path="url(#viewbox-clip)" fill="black" height="77.0" width="6.554127497718696" x="639.777804258778" y="539.0" /><rect clip-path="url(#viewbox-clip)" fill="black" height="77.0" width="6.554127497718696" x="639.777804258778" y="693.0" /><rect clip-path="url(#viewbox-clip)" fill="black" height="77.0" width="6.554127497718696" x="639.777804258778" y="847.0" /><rect clip-path="url(#viewbox-clip)" fill="black" height="77.0" width="6.554127497718696" x="639.777804258778" y="1001.0" /><rect clip-path="url(#viewbox-clip)" fill="black" height="77.0" width="5.683302810384589" x="646.3319317564967" y="0.0" /><rect clip-path="url(#viewbox-clip)" fill="black" height="77.0" width="5.683302810384589" x="646.3319317564967" y="154.0" /><rect clip-path="url(#viewbox-clip)" fill="black" height="77.0" width="5.683302810384589" x="646.3319317564967" y="308.0" /><rect clip-path="url(#viewbox-clip)" fill="black" height="77.0" width="5.683302810384589" x="646.3319317564967" y="462.0" /><rect clip-path="url(#viewbox-clip)" fill="black" height="77.0" width="5.683302810384589" x="646.3319317564967" y="616.0" /><rect clip-path="url(#viewbox-clip)" fill="black" height="77.0" width="5.683302810384589" x="646.3319317564967" y="770.0" /><rect clip-path="url(#viewbox-clip)" fill="black" height="77.0" width="5.683302810384589" x="646.3319317564967" y="924.0" /><rect clip-path="url(#viewbox-clip)" fill="black" height="77.0" width="5.45507654851167" x="652.0152345668813" y="77.0" /><rect clip-path="url(#viewbox-clip)" fill="black" height="77.0" width="5.45507654851167" x="652.0152345668813" y="231.0" /><rect clip-path="url(#viewbox-clip)" fill="black" height="77.0" width="5.45507654851167" x="652.0152345668813" y="385.0" /><rect clip-path="url(#viewbox-clip)" fill="black" height="77.0" width="5.45507654851167" x="652.0152345668813" y="539.0" /><rect clip-path="url(#viewbox-clip)" fill="black" height="77.0" width="5.45507654851167" x="652.0152345668813" y="693.0" /><rect clip-path="url(#viewbox-clip)" fill="black" height="77.0" width="5.45507654851167" x="652.0152345668813" y="847.0" /><rect clip-path="url(#viewbox-clip)" fill="black" height="77.0" width="5.45507654851167" x="652.0152345668813" y="1001.0" /><rect clip-path="url(#viewbox-clip)" fill="black" height="77.0" width="5.869448712098688" x="657.470311115393" y="0.0" /><rect clip-path="url(#viewbox-clip)" fill="black" height="77.0" width="5.869448712098688" x="657.470311115393" y="154.0" /><rect clip-path="url(#viewbox-clip)" fill="black" height="77.0" width="5.869448712098688" x="657.470311115393" y="308.0" /><rect clip-path="url(#viewbox-clip)" fill="black" height="77.0" width="5.869448712098688" x="657.470311115393" y="462.0" /><rect clip-path="url(#viewbox-clip)" fill="black" height="77.0" width="5.869448712098688" x="657.470311115393" y="616.0" /><rect clip-path="url(#viewbox-clip)" fill="black" height="77.0" width="5.869448712098688" x="657.470311115393" y="770.0" /><rect clip-path="url(#viewbox-clip)" fill="black" height="77.0" width="5.869448712098688" x="657.470311115393" y="924.0" /><rect clip-path="url(#viewbox-clip)" fill="black" height="77.0" width="6.926419301145529" x="663.3397598274917" y="77.0" /><rect clip-path="url(#viewbox-clip)" fill="black" height="77.0" width="6.926419301145529" x="663.3397598274917" y="231.0" /><rect clip-path="url(#viewbox-clip)" fill="black" height="77.0" width="6.926419301145529" x="663.3397598274917" y="385.0" /><rect clip-path="url(#viewbox-clip)" fill="black" height="77.0" width="6.926419301145529" x="663.3397598274917" y="539.0" /><rect clip-path="url(#viewbox-clip)" fill="black" height="77.0" width="6.926419301145529" x="663.3397598274917" y="693.0" /><rect clip-path="url(#viewbox-clip)" fill="black" height="77.0" width="6.926419301145529" x="663.3397598274917" y="847.0" /><rect clip-path="url(#viewbox-clip)" fill="black" height="77.0" width="6.926419301145529" x="663.3397598274917" y="1001.0" /><rect clip-path="url(#viewbox-clip)" fill="black" height="77.0" width="8.625988315653899" x="670.2661791286372" y="0.0" /><rect clip-path="url(#viewbox-clip)" fill="black" height="77.0" width="8.625988315653899" x="670.2661791286372" y="154.0" /><rect clip-path="url(#viewbox-clip)" fill="black" height="77.0" width="8.625988315653899" x="670.2661791286372" y="308.0" /><rect clip-path="url(#viewbox-clip)" fill="black" height="77.0" width="8.625988315653899" x="670.2661791286372" y="462.0" /><rect clip-path="url(#viewbox-clip)" fill="black" height="77.0" width="8.625988315653899" x="670.2661791286372" y="616.0" /><rect clip-path="url(#viewbox-clip)" fill="black" height="77.0" width="8.625988315653899" x="670.2661791286372" y="770.0" /><rect clip-path="url(#viewbox-clip)" fill="black" height="77.0" width="8.625988315653899" x="670.2661791286372" y="924.0" /><rect clip-path="url(#viewbox-clip)" fill="black" height="77.0" width="10.968155755620728" x="678.8921674442911" y="77.0" /><rect clip-path="url(#viewbox-clip)" fill="black" height="77.0" width="10.968155755620728" x="678.8921674442911" y="231.0" /><rect clip-path="url(#viewbox-clip)" fill="black" height="77.0" width="10.968155755620728" x="678.8921674442911" y="385.0" /><rect clip-path="url(#viewbox-clip)" fill="black" height="77.0" width="10.968155755620728" x="678.8921674442911" y="539.0" /><rect clip-path="url(#viewbox-clip)" fill="black" height="77.0" width="10.968155755620728" x="678.8921674442911" y="693.0" /><rect clip-path="url(#viewbox-clip)" fill="black" height="77.0" width="10.968155755620728" x="678.8921674442911" y="847.0" /><rect clip-path="url(#viewbox-clip)" fill="black" height="77.0" width="10.968155755620728" x="678.8921674442911" y="1001.0" /><rect clip-path="url(#viewbox-clip)" fill="black" height="77.0" width="13.952921621049654" x="689.8603231999118" y="0.0" /><rect clip-path="url(#viewbox-clip)" fill="black" height="77.0" width="13.952921621049654" x="689.8603231999118" y="154.0" /><rect clip-path="url(#viewbox-clip)" fill="black" height="77.0" width="13.952921621049654" x="689.8603231999118" y="308.0" /><rect clip-path="url(#viewbox-clip)" fill="black" height="77.0" width="13.952921621049654" x="689.8603231999118" y="462.0" /><rect clip-path="url(#viewbox-clip)" fill="black" height="77.0" width="13.952921621049654" x="689.8603231999118" y="616.0" /><rect clip-path="url(#viewbox-clip)" fill="black" height="77.0" width="13.952921621049654" x="689.8603231999118" y="770.0" /><rect clip-path="url(#viewbox-clip)" fill="black" height="77.0" width="13.952921621049654" x="689.8603231999118" y="924.0" /><rect clip-path="url(#viewbox-clip)" fill="black" height="77.0" width="17.580285911937608" x="703.8132448209615" y="77.0" /><rect clip-path="url(#viewbox-clip)" fill="black" height="77.0" width="17.580285911937608" x="703.8132448209615" y="231.0" /><rect clip-path="url(#viewbox-clip)" fill="black" height="77.0" width="17.580285911937608" x="703.8132448209615" y="385.0" /><rect clip-path="url(#viewbox-clip)" fill="black" height="77.0" width="17.580285911937608" x="703.8132448209615" y="539.0" /><rect clip-path="url(#viewbox-clip)" fill="black" height="77.0" width="17.580285911937608" x="703.8132448209615" y="693.0" /><rect clip-path="url(#viewbox-clip)" fill="black" height="77.0" width="17.580285911937608" x="703.8132448209615" y="847.0" /><rect clip-path="url(#viewbox-clip)" fill="black" height="77.0" width="17.580285911937608" x="703.8132448209615" y="1001.0" /><rect clip-path="url(#viewbox-clip)" fill="black" height="77.0" width="21.850248628286977" x="721.3935307328991" y="0.0" /><rect clip-path="url(#viewbox-clip)" fill="black" height="77.0" width="21.850248628286977" x="721.3935307328991" y="154.0" /><rect clip-path="url(#viewbox-clip)" fill="black" height="77.0" width="21.850248628286977" x="721.3935307328991" y="308.0" /><rect clip-path="url(#viewbox-clip)" fill="black" height="77.0" width="21.850248628286977" x="721.3935307328991" y="462.0" /><rect clip-path="url(#viewbox-clip)" fill="black" height="77.0" width="21.850248628286977" x="721.3935307328991" y="616.0" /><rect clip-path="url(#viewbox-clip)" fill="black" height="77.0" width="21.850248628286977" x="721.3935307328991" y="770.0" /><rect clip-path="url(#viewbox-clip)" fill="black" height="77.0" width="21.850248628286977" x="721.3935307328991" y="924.0" /><rect clip-path="url(#viewbox-clip)" fill="black" height="77.0" width="26.76280977009469" x="743.2437793611861" y="77.0" /><rect clip-path="url(#viewbox-clip)" fill="black" height="77.0" width="26.76280977009469" x="743.2437793611861" y="231.0" /><rect clip-path="url(#viewbox-clip)" fill="black" height="77.0" width="26.76280977009469" x="743.2437793611861" y="385.0" /><rect clip-path="url(#viewbox-clip)" fill="black" height="77.0" width="26.76280977009469" x="743.2437793611861" y="539.0" /><rect clip-path="url(#viewbox-clip)" fill="black" height="77.0" width="26.76280977009469" x="743.2437793611861" y="693.0" /><rect clip-path="url(#viewbox-clip)" fill="black" height="77.0" width="26.76280977009469" x="743.2437793611861" y="847.0" /><rect clip-path="url(#viewbox-clip)" fill="black" height="77.0" width="26.76280977009469" x="743.2437793611861" y="1001.0" /><rect clip-path="url(#viewbox-clip)" fill="black" height="77.0" width="32.317969337364616" x="770.0065891312807" y="0.0" /><rect clip-path="url(#viewbox-clip)" fill="black" height="77.0" width="32.317969337364616" x="770.0065891312807" y="154.0" /><rect clip-path="url(#viewbox-clip)" fill="black" height="77.0" width="32.317969337364616" x="770.0065891312807" y="308.0" /><rect clip-path="url(#viewbox-clip)" fill="black" height="77.0" width="32.317969337364616" x="770.0065891312807" y="462.0" /><rect clip-path="url(#viewbox-clip)" fill="black" height="77.0" width="32.317969337364616" x="770.0065891312807" y="616.0" /><rect clip-path="url(#viewbox-clip)" fill="black" height="77.0" width="32.317969337364616" x="770.0065891312807" y="770.0" /><rect clip-path="url(#viewbox-clip)" fill="black" height="77.0" width="32.317969337364616" x="770.0065891312807" y="924.0" /><rect clip-path="url(#viewbox-clip)" fill="black" height="77.0" width="38.515727330093796" x="802.3245584686454" y="77.0" /><rect clip-path="url(#viewbox-clip)" fill="black" height="77.0" width="38.515727330093796" x="802.3245584686454" y="231.0" /><rect clip-path="url(#viewbox-clip)" fill="black" height="77.0" width="38.515727330093796" x="802.3245584686454" y="385.0" /><rect clip-path="url(#viewbox-clip)" fill="black" height="77.0" width="38.515727330093796" x="802.3245584686454" y="539.0" /><rect clip-path="url(#viewbox-clip)" fill="black" height="77.0" width="38.515727330093796" x="802.3245584686454" y="693.0" /><rect clip-path="url(#viewbox-clip)" fill="black" height="77.0" width="38.515727330093796" x="802.3245584686454" y="847.0" /><rect clip-path="url(#viewbox-clip)" fill="black" height="77.0" width="38.515727330093796" x="802.3245584686454" y="1001.0" /><rect clip-path="url(#viewbox-clip)" fill="black" height="77.0" width="45.356083748283595" x="840.8402857987392" y="0.0" /><rect clip-path="url(#viewbox-clip)" fill="black" height="77.0" width="45.356083748283595" x="840.8402857987392" y="154.0" /><rect clip-path="url(#viewbox-clip)" fill="black" height="77.0" width="45.356083748283595" x="840.8402857987392" y="308.0" /><rect clip-path="url(#viewbox-clip)" fill="black" height="77.0" width="45.356083748283595" x="840.8402857987392" y="462.0" /><rect clip-path="url(#viewbox-clip)" fill="black" height="77.0" width="45.356083748283595" x="840.8402857987392" y="616.0" /><rect clip-path="url(#viewbox-clip)" fill="black" height="77.0" width="45.356083748283595" x="840.8402857987392" y="770.0" /><rect clip-path="url(#viewbox-clip)" fill="black" height="77.0" width="45.356083748283595" x="840.8402857987392" y="924.0" /><rect clip-path="url(#viewbox-clip)" fill="black" height="77.0" width="52.839038591933104" x="886.1963695470228" y="77.0" /><rect clip-path="url(#viewbox-clip)" fill="black" height="77.0" width="52.839038591933104" x="886.1963695470228" y="231.0" /><rect clip-path="url(#viewbox-clip)" fill="black" height="77.0" width="52.839038591933104" x="886.1963695470228" y="385.0" /><rect clip-path="url(#viewbox-clip)" fill="black" height="77.0" width="52.839038591933104" x="886.1963695470228" y="539.0" /><rect clip-path="url(#viewbox-clip)" fill="black" height="77.0" width="52.839038591933104" x="886.1963695470228" y="693.0" /><rect clip-path="url(#viewbox-clip)" fill="black" height="77.0" width="52.839038591933104" x="886.1963695470228" y="847.0" /><rect clip-path="url(#viewbox-clip)" fill="black" height="77.0" width="52.839038591933104" x="886.1963695470228" y="1001.0" /><rect clip-path="url(#viewbox-clip)" fill="black" height="77.0" width="60.96459186104414" x="939.0354081389559" y="0.0" /><rect clip-path="url(#viewbox-clip)" fill="black" height="77.0" width="60.96459186104414" x="939.0354081389559" y="154.0" /><rect clip-path="url(#viewbox-clip)" fill="black" height="77.0" width="60.96459186104414" x="939.0354081389559" y="308.0" /><rect clip-path="url(#viewbox-clip)" fill="black" height="77.0" width="60.96459186104414" x="939.0354081389559" y="462.0" /><rect clip-path="url(#viewbox-clip)" fill="black" height="77.0" width="60.96459186104414" x="939.0354081389559" y="616.0" /><rect clip-path="url(#viewbox-clip)" fill="black" height="77.0" width="60.96459186104414" x="939.0354081389559" y="770.0" /><rect clip-path="url(#viewbox-clip)" fill="black" height="77.0" width="60.96459186104414" x="939.0354081389559" y="924.0" /></svg>